<?xml version="1.0" encoding="utf-8" standalone="no"?>
<!DOCTYPE svg PUBLIC "-//W3C//DTD SVG 1.1//EN"
  "http://www.w3.org/Graphics/SVG/1.1/DTD/svg11.dtd">
<svg height="964.626406pt" version="1.1" viewBox="0 0 1009.854687 964.626406" width="1009.854687pt" xmlns="http://www.w3.org/2000/svg" xmlns:xlink="http://www.w3.org/1999/xlink">
 <metadata>
  <rdf:RDF xmlns:cc="http://creativecommons.org/ns#" xmlns:dc="http://purl.org/dc/elements/1.1/" xmlns:rdf="http://www.w3.org/1999/02/22-rdf-syntax-ns#">
   <cc:Work>
    <dc:type rdf:resource="http://purl.org/dc/dcmitype/StillImage"/>
    <dc:date>2022-06-02T19:29:08.036834</dc:date>
    <dc:format>image/svg+xml</dc:format>
    <dc:creator>
     <cc:Agent>
      <dc:title>Matplotlib v3.4.3, https://matplotlib.org/</dc:title>
     </cc:Agent>
    </dc:creator>
   </cc:Work>
  </rdf:RDF>
 </metadata>
 <defs>
  <style type="text/css">*{stroke-linecap:butt;stroke-linejoin:round;}</style>
 </defs>
 <g id="figure_1">
  <g id="patch_1">
   <path d="M 0 964.626406 
L 1009.854687 964.626406 
L 1009.854687 0 
L 0 0 
z
" style="fill:#212946;"/>
  </g>
  <g id="axes_1">
   <g id="patch_2">
    <path d="M 88.98125 888.357656 
L 981.78125 888.357656 
L 981.78125 18.597656 
L 88.98125 18.597656 
z
" style="fill:#212946;"/>
   </g>
   <g id="matplotlib.axis_1">
    <g id="xtick_1">
     <g id="line2d_1">
      <path clip-path="url(#p475f5d6eaa)" d="M 88.98125 888.357656 
L 88.98125 18.597656 
" style="fill:none;stroke:#808080;stroke-dasharray:2.96,1.28;stroke-dashoffset:0;stroke-width:0.8;"/>
     </g>
     <g id="line2d_2">
      <defs>
       <path d="M 0 0 
L 0 3.5 
" id="mceb3c9e177" style="stroke:#ffffff;stroke-width:2;"/>
      </defs>
      <g>
       <use style="fill:#ffffff;stroke:#ffffff;stroke-width:2;" x="88.98125" xlink:href="#mceb3c9e177" y="888.357656"/>
      </g>
     </g>
     <g id="text_1">
      <!-- 0 -->
      <g style="fill:#ffffff;" transform="translate(78.544531 918.152969)scale(0.3 -0.3)">
       <defs>
        <path d="M 2944 2338 
Q 2944 3213 2780 3570 
Q 2616 3928 2228 3928 
Q 1841 3928 1675 3570 
Q 1509 3213 1509 2338 
Q 1509 1453 1675 1090 
Q 1841 728 2228 728 
Q 2613 728 2778 1090 
Q 2944 1453 2944 2338 
z
M 4147 2328 
Q 4147 1169 3647 539 
Q 3147 -91 2228 -91 
Q 1306 -91 806 539 
Q 306 1169 306 2328 
Q 306 3491 806 4120 
Q 1306 4750 2228 4750 
Q 3147 4750 3647 4120 
Q 4147 3491 4147 2328 
z
" id="DejaVuSans-Bold-30" transform="scale(0.015625)"/>
       </defs>
       <use xlink:href="#DejaVuSans-Bold-30"/>
      </g>
     </g>
    </g>
    <g id="xtick_2">
     <g id="line2d_3">
      <path clip-path="url(#p475f5d6eaa)" d="M 267.54125 888.357656 
L 267.54125 18.597656 
" style="fill:none;stroke:#808080;stroke-dasharray:2.96,1.28;stroke-dashoffset:0;stroke-width:0.8;"/>
     </g>
     <g id="line2d_4">
      <g>
       <use style="fill:#ffffff;stroke:#ffffff;stroke-width:2;" x="267.54125" xlink:href="#mceb3c9e177" y="888.357656"/>
      </g>
     </g>
     <g id="text_2">
      <!-- 2 -->
      <g style="fill:#ffffff;" transform="translate(257.104531 918.152969)scale(0.3 -0.3)">
       <defs>
        <path d="M 1844 884 
L 3897 884 
L 3897 0 
L 506 0 
L 506 884 
L 2209 2388 
Q 2438 2594 2547 2791 
Q 2656 2988 2656 3200 
Q 2656 3528 2436 3728 
Q 2216 3928 1850 3928 
Q 1569 3928 1234 3808 
Q 900 3688 519 3450 
L 519 4475 
Q 925 4609 1322 4679 
Q 1719 4750 2100 4750 
Q 2938 4750 3402 4381 
Q 3866 4013 3866 3353 
Q 3866 2972 3669 2642 
Q 3472 2313 2841 1759 
L 1844 884 
z
" id="DejaVuSans-Bold-32" transform="scale(0.015625)"/>
       </defs>
       <use xlink:href="#DejaVuSans-Bold-32"/>
      </g>
     </g>
    </g>
    <g id="xtick_3">
     <g id="line2d_5">
      <path clip-path="url(#p475f5d6eaa)" d="M 446.10125 888.357656 
L 446.10125 18.597656 
" style="fill:none;stroke:#808080;stroke-dasharray:2.96,1.28;stroke-dashoffset:0;stroke-width:0.8;"/>
     </g>
     <g id="line2d_6">
      <g>
       <use style="fill:#ffffff;stroke:#ffffff;stroke-width:2;" x="446.10125" xlink:href="#mceb3c9e177" y="888.357656"/>
      </g>
     </g>
     <g id="text_3">
      <!-- 4 -->
      <g style="fill:#ffffff;" transform="translate(435.664531 918.152969)scale(0.3 -0.3)">
       <defs>
        <path d="M 2356 3675 
L 1038 1722 
L 2356 1722 
L 2356 3675 
z
M 2156 4666 
L 3494 4666 
L 3494 1722 
L 4159 1722 
L 4159 850 
L 3494 850 
L 3494 0 
L 2356 0 
L 2356 850 
L 288 850 
L 288 1881 
L 2156 4666 
z
" id="DejaVuSans-Bold-34" transform="scale(0.015625)"/>
       </defs>
       <use xlink:href="#DejaVuSans-Bold-34"/>
      </g>
     </g>
    </g>
    <g id="xtick_4">
     <g id="line2d_7">
      <path clip-path="url(#p475f5d6eaa)" d="M 624.66125 888.357656 
L 624.66125 18.597656 
" style="fill:none;stroke:#808080;stroke-dasharray:2.96,1.28;stroke-dashoffset:0;stroke-width:0.8;"/>
     </g>
     <g id="line2d_8">
      <g>
       <use style="fill:#ffffff;stroke:#ffffff;stroke-width:2;" x="624.66125" xlink:href="#mceb3c9e177" y="888.357656"/>
      </g>
     </g>
     <g id="text_4">
      <!-- 6 -->
      <g style="fill:#ffffff;" transform="translate(614.224531 918.152969)scale(0.3 -0.3)">
       <defs>
        <path d="M 2316 2303 
Q 2000 2303 1842 2098 
Q 1684 1894 1684 1484 
Q 1684 1075 1842 870 
Q 2000 666 2316 666 
Q 2634 666 2792 870 
Q 2950 1075 2950 1484 
Q 2950 1894 2792 2098 
Q 2634 2303 2316 2303 
z
M 3803 4544 
L 3803 3681 
Q 3506 3822 3243 3889 
Q 2981 3956 2731 3956 
Q 2194 3956 1894 3657 
Q 1594 3359 1544 2772 
Q 1750 2925 1990 3001 
Q 2231 3078 2516 3078 
Q 3231 3078 3670 2659 
Q 4109 2241 4109 1563 
Q 4109 813 3618 361 
Q 3128 -91 2303 -91 
Q 1394 -91 895 523 
Q 397 1138 397 2266 
Q 397 3422 980 4083 
Q 1563 4744 2578 4744 
Q 2900 4744 3203 4694 
Q 3506 4644 3803 4544 
z
" id="DejaVuSans-Bold-36" transform="scale(0.015625)"/>
       </defs>
       <use xlink:href="#DejaVuSans-Bold-36"/>
      </g>
     </g>
    </g>
    <g id="xtick_5">
     <g id="line2d_9">
      <path clip-path="url(#p475f5d6eaa)" d="M 803.22125 888.357656 
L 803.22125 18.597656 
" style="fill:none;stroke:#808080;stroke-dasharray:2.96,1.28;stroke-dashoffset:0;stroke-width:0.8;"/>
     </g>
     <g id="line2d_10">
      <g>
       <use style="fill:#ffffff;stroke:#ffffff;stroke-width:2;" x="803.22125" xlink:href="#mceb3c9e177" y="888.357656"/>
      </g>
     </g>
     <g id="text_5">
      <!-- 8 -->
      <g style="fill:#ffffff;" transform="translate(792.784531 918.152969)scale(0.3 -0.3)">
       <defs>
        <path d="M 2228 2088 
Q 1891 2088 1709 1903 
Q 1528 1719 1528 1375 
Q 1528 1031 1709 848 
Q 1891 666 2228 666 
Q 2563 666 2741 848 
Q 2919 1031 2919 1375 
Q 2919 1722 2741 1905 
Q 2563 2088 2228 2088 
z
M 1350 2484 
Q 925 2613 709 2878 
Q 494 3144 494 3541 
Q 494 4131 934 4440 
Q 1375 4750 2228 4750 
Q 3075 4750 3515 4442 
Q 3956 4134 3956 3541 
Q 3956 3144 3739 2878 
Q 3522 2613 3097 2484 
Q 3572 2353 3814 2058 
Q 4056 1763 4056 1313 
Q 4056 619 3595 264 
Q 3134 -91 2228 -91 
Q 1319 -91 855 264 
Q 391 619 391 1313 
Q 391 1763 633 2058 
Q 875 2353 1350 2484 
z
M 1631 3419 
Q 1631 3141 1786 2991 
Q 1941 2841 2228 2841 
Q 2509 2841 2662 2991 
Q 2816 3141 2816 3419 
Q 2816 3697 2662 3845 
Q 2509 3994 2228 3994 
Q 1941 3994 1786 3844 
Q 1631 3694 1631 3419 
z
" id="DejaVuSans-Bold-38" transform="scale(0.015625)"/>
       </defs>
       <use xlink:href="#DejaVuSans-Bold-38"/>
      </g>
     </g>
    </g>
    <g id="xtick_6">
     <g id="line2d_11">
      <path clip-path="url(#p475f5d6eaa)" d="M 981.78125 888.357656 
L 981.78125 18.597656 
" style="fill:none;stroke:#808080;stroke-dasharray:2.96,1.28;stroke-dashoffset:0;stroke-width:0.8;"/>
     </g>
     <g id="line2d_12">
      <g>
       <use style="fill:#ffffff;stroke:#ffffff;stroke-width:2;" x="981.78125" xlink:href="#mceb3c9e177" y="888.357656"/>
      </g>
     </g>
     <g id="text_6">
      <!-- 10 -->
      <g style="fill:#ffffff;" transform="translate(960.907812 918.152969)scale(0.3 -0.3)">
       <defs>
        <path d="M 750 831 
L 1813 831 
L 1813 3847 
L 722 3622 
L 722 4441 
L 1806 4666 
L 2950 4666 
L 2950 831 
L 4013 831 
L 4013 0 
L 750 0 
L 750 831 
z
" id="DejaVuSans-Bold-31" transform="scale(0.015625)"/>
       </defs>
       <use xlink:href="#DejaVuSans-Bold-31"/>
       <use x="69.580078" xlink:href="#DejaVuSans-Bold-30"/>
      </g>
     </g>
    </g>
    <g id="xtick_7">
     <g id="line2d_13">
      <path clip-path="url(#p475f5d6eaa)" d="M 178.26125 888.357656 
L 178.26125 18.597656 
" style="fill:none;stroke:#808080;stroke-dasharray:2.96,1.28;stroke-dashoffset:0;stroke-width:0.8;"/>
     </g>
     <g id="line2d_14">
      <defs>
       <path d="M 0 0 
L 0 2 
" id="m6a3739fcef" style="stroke:#ffffff;stroke-width:0.6;"/>
      </defs>
      <g>
       <use style="fill:#ffffff;stroke:#ffffff;stroke-width:0.6;" x="178.26125" xlink:href="#m6a3739fcef" y="888.357656"/>
      </g>
     </g>
    </g>
    <g id="xtick_8">
     <g id="line2d_15">
      <path clip-path="url(#p475f5d6eaa)" d="M 356.82125 888.357656 
L 356.82125 18.597656 
" style="fill:none;stroke:#808080;stroke-dasharray:2.96,1.28;stroke-dashoffset:0;stroke-width:0.8;"/>
     </g>
     <g id="line2d_16">
      <g>
       <use style="fill:#ffffff;stroke:#ffffff;stroke-width:0.6;" x="356.82125" xlink:href="#m6a3739fcef" y="888.357656"/>
      </g>
     </g>
    </g>
    <g id="xtick_9">
     <g id="line2d_17">
      <path clip-path="url(#p475f5d6eaa)" d="M 535.38125 888.357656 
L 535.38125 18.597656 
" style="fill:none;stroke:#808080;stroke-dasharray:2.96,1.28;stroke-dashoffset:0;stroke-width:0.8;"/>
     </g>
     <g id="line2d_18">
      <g>
       <use style="fill:#ffffff;stroke:#ffffff;stroke-width:0.6;" x="535.38125" xlink:href="#m6a3739fcef" y="888.357656"/>
      </g>
     </g>
    </g>
    <g id="xtick_10">
     <g id="line2d_19">
      <path clip-path="url(#p475f5d6eaa)" d="M 713.94125 888.357656 
L 713.94125 18.597656 
" style="fill:none;stroke:#808080;stroke-dasharray:2.96,1.28;stroke-dashoffset:0;stroke-width:0.8;"/>
     </g>
     <g id="line2d_20">
      <g>
       <use style="fill:#ffffff;stroke:#ffffff;stroke-width:0.6;" x="713.94125" xlink:href="#m6a3739fcef" y="888.357656"/>
      </g>
     </g>
    </g>
    <g id="xtick_11">
     <g id="line2d_21">
      <path clip-path="url(#p475f5d6eaa)" d="M 892.50125 888.357656 
L 892.50125 18.597656 
" style="fill:none;stroke:#808080;stroke-dasharray:2.96,1.28;stroke-dashoffset:0;stroke-width:0.8;"/>
     </g>
     <g id="line2d_22">
      <g>
       <use style="fill:#ffffff;stroke:#ffffff;stroke-width:0.6;" x="892.50125" xlink:href="#m6a3739fcef" y="888.357656"/>
      </g>
     </g>
    </g>
    <g id="text_7">
     <!-- $t[ms]$ -->
     <g style="fill:#ffffff;" transform="translate(489.93125 951.187344)scale(0.3 -0.3)">
      <defs>
       <path d="M 2303 4494 
L 2113 3500 
L 3256 3500 
L 3097 2700 
L 1953 2700 
L 1666 1219 
Q 1653 1169 1648 1134 
Q 1644 1100 1644 1069 
Q 1644 925 1739 862 
Q 1834 800 2059 800 
L 2638 800 
L 2478 0 
L 1538 0 
Q 1031 0 765 212 
Q 500 425 500 825 
Q 500 913 509 1013 
Q 519 1113 538 1216 
L 825 2700 
L 275 2700 
L 428 3500 
L 984 3500 
L 1178 4494 
L 2303 4494 
z
" id="DejaVuSans-BoldOblique-74" transform="scale(0.015625)"/>
       <path d="M 550 4863 
L 2491 4863 
L 2491 4159 
L 1613 4159 
L 1613 -141 
L 2491 -141 
L 2491 -844 
L 550 -844 
L 550 4863 
z
" id="DejaVuSans-Bold-5b" transform="scale(0.015625)"/>
       <path d="M 4013 2919 
Q 4272 3241 4601 3412 
Q 4931 3584 5288 3584 
Q 5756 3584 6026 3326 
Q 6297 3069 6297 2619 
Q 6297 2525 6283 2404 
Q 6269 2284 6241 2131 
L 5825 0 
L 4697 0 
L 5050 1825 
L 5059 1872 
Q 5141 2259 5141 2369 
Q 5141 2541 5042 2641 
Q 4944 2741 4775 2741 
Q 4453 2741 4229 2477 
Q 4006 2213 3909 1722 
L 3572 0 
L 2444 0 
L 2803 1825 
Q 2850 2059 2869 2179 
Q 2888 2300 2888 2369 
Q 2888 2544 2791 2642 
Q 2694 2741 2522 2741 
Q 2213 2741 1980 2467 
Q 1747 2194 1656 1722 
L 1319 0 
L 197 0 
L 878 3500 
L 2003 3500 
L 1900 2988 
Q 2163 3284 2459 3434 
Q 2756 3584 3078 3584 
Q 3441 3584 3700 3398 
Q 3959 3213 4013 2919 
z
" id="DejaVuSans-BoldOblique-6d" transform="scale(0.015625)"/>
       <path d="M 3584 3391 
L 3419 2522 
Q 3091 2678 2766 2759 
Q 2441 2841 2150 2841 
Q 1819 2841 1639 2755 
Q 1459 2669 1459 2509 
Q 1459 2416 1559 2359 
Q 1659 2303 1953 2241 
L 2156 2203 
Q 2834 2059 3106 1832 
Q 3378 1606 3378 1203 
Q 3378 594 2900 251 
Q 2422 -91 1563 -91 
Q 1203 -91 828 -34 
Q 453 22 63 134 
L 231 1013 
Q 534 834 879 743 
Q 1225 653 1588 653 
Q 1941 653 2119 737 
Q 2297 822 2297 984 
Q 2297 1097 2197 1159 
Q 2097 1222 1784 1288 
L 1581 1325 
Q 981 1450 725 1694 
Q 469 1938 469 2369 
Q 469 2953 911 3268 
Q 1353 3584 2175 3584 
Q 2534 3584 2882 3536 
Q 3231 3488 3584 3391 
z
" id="DejaVuSans-BoldOblique-73" transform="scale(0.015625)"/>
       <path d="M 2375 -844 
L 434 -844 
L 434 -141 
L 1313 -141 
L 1313 4159 
L 434 4159 
L 434 4863 
L 2375 4863 
L 2375 -844 
z
" id="DejaVuSans-Bold-5d" transform="scale(0.015625)"/>
      </defs>
      <use transform="translate(0 0.015625)" xlink:href="#DejaVuSans-BoldOblique-74"/>
      <use transform="translate(47.802734 0.015625)" xlink:href="#DejaVuSans-Bold-5b"/>
      <use transform="translate(93.505859 0.015625)" xlink:href="#DejaVuSans-BoldOblique-6d"/>
      <use transform="translate(197.705078 0.015625)" xlink:href="#DejaVuSans-BoldOblique-73"/>
      <use transform="translate(257.226562 0.015625)" xlink:href="#DejaVuSans-Bold-5d"/>
     </g>
    </g>
   </g>
   <g id="matplotlib.axis_2">
    <g id="ytick_1">
     <g id="line2d_23">
      <path clip-path="url(#p475f5d6eaa)" d="M 88.98125 888.357656 
L 981.78125 888.357656 
" style="fill:none;stroke:#808080;stroke-dasharray:2.96,1.28;stroke-dashoffset:0;stroke-width:0.8;"/>
     </g>
     <g id="line2d_24">
      <defs>
       <path d="M 0 0 
L -3.5 0 
" id="m25ea04c9d6" style="stroke:#ffffff;stroke-width:2;"/>
      </defs>
      <g>
       <use style="fill:#ffffff;stroke:#ffffff;stroke-width:2;" x="88.98125" xlink:href="#m25ea04c9d6" y="888.357656"/>
      </g>
     </g>
     <g id="text_8">
      <!-- 0 -->
      <g style="fill:#ffffff;" transform="translate(61.107812 899.755312)scale(0.3 -0.3)">
       <use xlink:href="#DejaVuSans-Bold-30"/>
      </g>
     </g>
    </g>
    <g id="ytick_2">
     <g id="line2d_25">
      <path clip-path="url(#p475f5d6eaa)" d="M 88.98125 714.405656 
L 981.78125 714.405656 
" style="fill:none;stroke:#808080;stroke-dasharray:2.96,1.28;stroke-dashoffset:0;stroke-width:0.8;"/>
     </g>
     <g id="line2d_26">
      <g>
       <use style="fill:#ffffff;stroke:#ffffff;stroke-width:2;" x="88.98125" xlink:href="#m25ea04c9d6" y="714.405656"/>
      </g>
     </g>
     <g id="text_9">
      <!-- 5 -->
      <g style="fill:#ffffff;" transform="translate(61.107812 725.803312)scale(0.3 -0.3)">
       <defs>
        <path d="M 678 4666 
L 3669 4666 
L 3669 3781 
L 1638 3781 
L 1638 3059 
Q 1775 3097 1914 3117 
Q 2053 3138 2203 3138 
Q 3056 3138 3531 2711 
Q 4006 2284 4006 1522 
Q 4006 766 3489 337 
Q 2972 -91 2053 -91 
Q 1656 -91 1267 -14 
Q 878 63 494 219 
L 494 1166 
Q 875 947 1217 837 
Q 1559 728 1863 728 
Q 2300 728 2551 942 
Q 2803 1156 2803 1522 
Q 2803 1891 2551 2103 
Q 2300 2316 1863 2316 
Q 1603 2316 1309 2248 
Q 1016 2181 678 2041 
L 678 4666 
z
" id="DejaVuSans-Bold-35" transform="scale(0.015625)"/>
       </defs>
       <use xlink:href="#DejaVuSans-Bold-35"/>
      </g>
     </g>
    </g>
    <g id="ytick_3">
     <g id="line2d_27">
      <path clip-path="url(#p475f5d6eaa)" d="M 88.98125 540.453656 
L 981.78125 540.453656 
" style="fill:none;stroke:#808080;stroke-dasharray:2.96,1.28;stroke-dashoffset:0;stroke-width:0.8;"/>
     </g>
     <g id="line2d_28">
      <g>
       <use style="fill:#ffffff;stroke:#ffffff;stroke-width:2;" x="88.98125" xlink:href="#m25ea04c9d6" y="540.453656"/>
      </g>
     </g>
     <g id="text_10">
      <!-- 10 -->
      <g style="fill:#ffffff;" transform="translate(40.234375 551.851312)scale(0.3 -0.3)">
       <use xlink:href="#DejaVuSans-Bold-31"/>
       <use x="69.580078" xlink:href="#DejaVuSans-Bold-30"/>
      </g>
     </g>
    </g>
    <g id="ytick_4">
     <g id="line2d_29">
      <path clip-path="url(#p475f5d6eaa)" d="M 88.98125 366.501656 
L 981.78125 366.501656 
" style="fill:none;stroke:#808080;stroke-dasharray:2.96,1.28;stroke-dashoffset:0;stroke-width:0.8;"/>
     </g>
     <g id="line2d_30">
      <g>
       <use style="fill:#ffffff;stroke:#ffffff;stroke-width:2;" x="88.98125" xlink:href="#m25ea04c9d6" y="366.501656"/>
      </g>
     </g>
     <g id="text_11">
      <!-- 15 -->
      <g style="fill:#ffffff;" transform="translate(40.234375 377.899312)scale(0.3 -0.3)">
       <use xlink:href="#DejaVuSans-Bold-31"/>
       <use x="69.580078" xlink:href="#DejaVuSans-Bold-35"/>
      </g>
     </g>
    </g>
    <g id="ytick_5">
     <g id="line2d_31">
      <path clip-path="url(#p475f5d6eaa)" d="M 88.98125 192.549656 
L 981.78125 192.549656 
" style="fill:none;stroke:#808080;stroke-dasharray:2.96,1.28;stroke-dashoffset:0;stroke-width:0.8;"/>
     </g>
     <g id="line2d_32">
      <g>
       <use style="fill:#ffffff;stroke:#ffffff;stroke-width:2;" x="88.98125" xlink:href="#m25ea04c9d6" y="192.549656"/>
      </g>
     </g>
     <g id="text_12">
      <!-- 20 -->
      <g style="fill:#ffffff;" transform="translate(40.234375 203.947312)scale(0.3 -0.3)">
       <use xlink:href="#DejaVuSans-Bold-32"/>
       <use x="69.580078" xlink:href="#DejaVuSans-Bold-30"/>
      </g>
     </g>
    </g>
    <g id="ytick_6">
     <g id="line2d_33">
      <path clip-path="url(#p475f5d6eaa)" d="M 88.98125 18.597656 
L 981.78125 18.597656 
" style="fill:none;stroke:#808080;stroke-dasharray:2.96,1.28;stroke-dashoffset:0;stroke-width:0.8;"/>
     </g>
     <g id="line2d_34">
      <g>
       <use style="fill:#ffffff;stroke:#ffffff;stroke-width:2;" x="88.98125" xlink:href="#m25ea04c9d6" y="18.597656"/>
      </g>
     </g>
     <g id="text_13">
      <!-- 25 -->
      <g style="fill:#ffffff;" transform="translate(40.234375 29.995312)scale(0.3 -0.3)">
       <use xlink:href="#DejaVuSans-Bold-32"/>
       <use x="69.580078" xlink:href="#DejaVuSans-Bold-35"/>
      </g>
     </g>
    </g>
    <g id="ytick_7">
     <g id="line2d_35">
      <path clip-path="url(#p475f5d6eaa)" d="M 88.98125 853.567256 
L 981.78125 853.567256 
" style="fill:none;stroke:#808080;stroke-dasharray:2.96,1.28;stroke-dashoffset:0;stroke-width:0.8;"/>
     </g>
     <g id="line2d_36">
      <defs>
       <path d="M 0 0 
L -2 0 
" id="m5f85d30ec5" style="stroke:#ffffff;stroke-width:0.6;"/>
      </defs>
      <g>
       <use style="fill:#ffffff;stroke:#ffffff;stroke-width:0.6;" x="88.98125" xlink:href="#m5f85d30ec5" y="853.567256"/>
      </g>
     </g>
    </g>
    <g id="ytick_8">
     <g id="line2d_37">
      <path clip-path="url(#p475f5d6eaa)" d="M 88.98125 818.776856 
L 981.78125 818.776856 
" style="fill:none;stroke:#808080;stroke-dasharray:2.96,1.28;stroke-dashoffset:0;stroke-width:0.8;"/>
     </g>
     <g id="line2d_38">
      <g>
       <use style="fill:#ffffff;stroke:#ffffff;stroke-width:0.6;" x="88.98125" xlink:href="#m5f85d30ec5" y="818.776856"/>
      </g>
     </g>
    </g>
    <g id="ytick_9">
     <g id="line2d_39">
      <path clip-path="url(#p475f5d6eaa)" d="M 88.98125 783.986456 
L 981.78125 783.986456 
" style="fill:none;stroke:#808080;stroke-dasharray:2.96,1.28;stroke-dashoffset:0;stroke-width:0.8;"/>
     </g>
     <g id="line2d_40">
      <g>
       <use style="fill:#ffffff;stroke:#ffffff;stroke-width:0.6;" x="88.98125" xlink:href="#m5f85d30ec5" y="783.986456"/>
      </g>
     </g>
    </g>
    <g id="ytick_10">
     <g id="line2d_41">
      <path clip-path="url(#p475f5d6eaa)" d="M 88.98125 749.196056 
L 981.78125 749.196056 
" style="fill:none;stroke:#808080;stroke-dasharray:2.96,1.28;stroke-dashoffset:0;stroke-width:0.8;"/>
     </g>
     <g id="line2d_42">
      <g>
       <use style="fill:#ffffff;stroke:#ffffff;stroke-width:0.6;" x="88.98125" xlink:href="#m5f85d30ec5" y="749.196056"/>
      </g>
     </g>
    </g>
    <g id="ytick_11">
     <g id="line2d_43">
      <path clip-path="url(#p475f5d6eaa)" d="M 88.98125 679.615256 
L 981.78125 679.615256 
" style="fill:none;stroke:#808080;stroke-dasharray:2.96,1.28;stroke-dashoffset:0;stroke-width:0.8;"/>
     </g>
     <g id="line2d_44">
      <g>
       <use style="fill:#ffffff;stroke:#ffffff;stroke-width:0.6;" x="88.98125" xlink:href="#m5f85d30ec5" y="679.615256"/>
      </g>
     </g>
    </g>
    <g id="ytick_12">
     <g id="line2d_45">
      <path clip-path="url(#p475f5d6eaa)" d="M 88.98125 644.824856 
L 981.78125 644.824856 
" style="fill:none;stroke:#808080;stroke-dasharray:2.96,1.28;stroke-dashoffset:0;stroke-width:0.8;"/>
     </g>
     <g id="line2d_46">
      <g>
       <use style="fill:#ffffff;stroke:#ffffff;stroke-width:0.6;" x="88.98125" xlink:href="#m5f85d30ec5" y="644.824856"/>
      </g>
     </g>
    </g>
    <g id="ytick_13">
     <g id="line2d_47">
      <path clip-path="url(#p475f5d6eaa)" d="M 88.98125 610.034456 
L 981.78125 610.034456 
" style="fill:none;stroke:#808080;stroke-dasharray:2.96,1.28;stroke-dashoffset:0;stroke-width:0.8;"/>
     </g>
     <g id="line2d_48">
      <g>
       <use style="fill:#ffffff;stroke:#ffffff;stroke-width:0.6;" x="88.98125" xlink:href="#m5f85d30ec5" y="610.034456"/>
      </g>
     </g>
    </g>
    <g id="ytick_14">
     <g id="line2d_49">
      <path clip-path="url(#p475f5d6eaa)" d="M 88.98125 575.244056 
L 981.78125 575.244056 
" style="fill:none;stroke:#808080;stroke-dasharray:2.96,1.28;stroke-dashoffset:0;stroke-width:0.8;"/>
     </g>
     <g id="line2d_50">
      <g>
       <use style="fill:#ffffff;stroke:#ffffff;stroke-width:0.6;" x="88.98125" xlink:href="#m5f85d30ec5" y="575.244056"/>
      </g>
     </g>
    </g>
    <g id="ytick_15">
     <g id="line2d_51">
      <path clip-path="url(#p475f5d6eaa)" d="M 88.98125 505.663256 
L 981.78125 505.663256 
" style="fill:none;stroke:#808080;stroke-dasharray:2.96,1.28;stroke-dashoffset:0;stroke-width:0.8;"/>
     </g>
     <g id="line2d_52">
      <g>
       <use style="fill:#ffffff;stroke:#ffffff;stroke-width:0.6;" x="88.98125" xlink:href="#m5f85d30ec5" y="505.663256"/>
      </g>
     </g>
    </g>
    <g id="ytick_16">
     <g id="line2d_53">
      <path clip-path="url(#p475f5d6eaa)" d="M 88.98125 470.872856 
L 981.78125 470.872856 
" style="fill:none;stroke:#808080;stroke-dasharray:2.96,1.28;stroke-dashoffset:0;stroke-width:0.8;"/>
     </g>
     <g id="line2d_54">
      <g>
       <use style="fill:#ffffff;stroke:#ffffff;stroke-width:0.6;" x="88.98125" xlink:href="#m5f85d30ec5" y="470.872856"/>
      </g>
     </g>
    </g>
    <g id="ytick_17">
     <g id="line2d_55">
      <path clip-path="url(#p475f5d6eaa)" d="M 88.98125 436.082456 
L 981.78125 436.082456 
" style="fill:none;stroke:#808080;stroke-dasharray:2.96,1.28;stroke-dashoffset:0;stroke-width:0.8;"/>
     </g>
     <g id="line2d_56">
      <g>
       <use style="fill:#ffffff;stroke:#ffffff;stroke-width:0.6;" x="88.98125" xlink:href="#m5f85d30ec5" y="436.082456"/>
      </g>
     </g>
    </g>
    <g id="ytick_18">
     <g id="line2d_57">
      <path clip-path="url(#p475f5d6eaa)" d="M 88.98125 401.292056 
L 981.78125 401.292056 
" style="fill:none;stroke:#808080;stroke-dasharray:2.96,1.28;stroke-dashoffset:0;stroke-width:0.8;"/>
     </g>
     <g id="line2d_58">
      <g>
       <use style="fill:#ffffff;stroke:#ffffff;stroke-width:0.6;" x="88.98125" xlink:href="#m5f85d30ec5" y="401.292056"/>
      </g>
     </g>
    </g>
    <g id="ytick_19">
     <g id="line2d_59">
      <path clip-path="url(#p475f5d6eaa)" d="M 88.98125 331.711256 
L 981.78125 331.711256 
" style="fill:none;stroke:#808080;stroke-dasharray:2.96,1.28;stroke-dashoffset:0;stroke-width:0.8;"/>
     </g>
     <g id="line2d_60">
      <g>
       <use style="fill:#ffffff;stroke:#ffffff;stroke-width:0.6;" x="88.98125" xlink:href="#m5f85d30ec5" y="331.711256"/>
      </g>
     </g>
    </g>
    <g id="ytick_20">
     <g id="line2d_61">
      <path clip-path="url(#p475f5d6eaa)" d="M 88.98125 296.920856 
L 981.78125 296.920856 
" style="fill:none;stroke:#808080;stroke-dasharray:2.96,1.28;stroke-dashoffset:0;stroke-width:0.8;"/>
     </g>
     <g id="line2d_62">
      <g>
       <use style="fill:#ffffff;stroke:#ffffff;stroke-width:0.6;" x="88.98125" xlink:href="#m5f85d30ec5" y="296.920856"/>
      </g>
     </g>
    </g>
    <g id="ytick_21">
     <g id="line2d_63">
      <path clip-path="url(#p475f5d6eaa)" d="M 88.98125 262.130456 
L 981.78125 262.130456 
" style="fill:none;stroke:#808080;stroke-dasharray:2.96,1.28;stroke-dashoffset:0;stroke-width:0.8;"/>
     </g>
     <g id="line2d_64">
      <g>
       <use style="fill:#ffffff;stroke:#ffffff;stroke-width:0.6;" x="88.98125" xlink:href="#m5f85d30ec5" y="262.130456"/>
      </g>
     </g>
    </g>
    <g id="ytick_22">
     <g id="line2d_65">
      <path clip-path="url(#p475f5d6eaa)" d="M 88.98125 227.340056 
L 981.78125 227.340056 
" style="fill:none;stroke:#808080;stroke-dasharray:2.96,1.28;stroke-dashoffset:0;stroke-width:0.8;"/>
     </g>
     <g id="line2d_66">
      <g>
       <use style="fill:#ffffff;stroke:#ffffff;stroke-width:0.6;" x="88.98125" xlink:href="#m5f85d30ec5" y="227.340056"/>
      </g>
     </g>
    </g>
    <g id="ytick_23">
     <g id="line2d_67">
      <path clip-path="url(#p475f5d6eaa)" d="M 88.98125 157.759256 
L 981.78125 157.759256 
" style="fill:none;stroke:#808080;stroke-dasharray:2.96,1.28;stroke-dashoffset:0;stroke-width:0.8;"/>
     </g>
     <g id="line2d_68">
      <g>
       <use style="fill:#ffffff;stroke:#ffffff;stroke-width:0.6;" x="88.98125" xlink:href="#m5f85d30ec5" y="157.759256"/>
      </g>
     </g>
    </g>
    <g id="ytick_24">
     <g id="line2d_69">
      <path clip-path="url(#p475f5d6eaa)" d="M 88.98125 122.968856 
L 981.78125 122.968856 
" style="fill:none;stroke:#808080;stroke-dasharray:2.96,1.28;stroke-dashoffset:0;stroke-width:0.8;"/>
     </g>
     <g id="line2d_70">
      <g>
       <use style="fill:#ffffff;stroke:#ffffff;stroke-width:0.6;" x="88.98125" xlink:href="#m5f85d30ec5" y="122.968856"/>
      </g>
     </g>
    </g>
    <g id="ytick_25">
     <g id="line2d_71">
      <path clip-path="url(#p475f5d6eaa)" d="M 88.98125 88.178456 
L 981.78125 88.178456 
" style="fill:none;stroke:#808080;stroke-dasharray:2.96,1.28;stroke-dashoffset:0;stroke-width:0.8;"/>
     </g>
     <g id="line2d_72">
      <g>
       <use style="fill:#ffffff;stroke:#ffffff;stroke-width:0.6;" x="88.98125" xlink:href="#m5f85d30ec5" y="88.178456"/>
      </g>
     </g>
    </g>
    <g id="ytick_26">
     <g id="line2d_73">
      <path clip-path="url(#p475f5d6eaa)" d="M 88.98125 53.388056 
L 981.78125 53.388056 
" style="fill:none;stroke:#808080;stroke-dasharray:2.96,1.28;stroke-dashoffset:0;stroke-width:0.8;"/>
     </g>
     <g id="line2d_74">
      <g>
       <use style="fill:#ffffff;stroke:#ffffff;stroke-width:0.6;" x="88.98125" xlink:href="#m5f85d30ec5" y="53.388056"/>
      </g>
     </g>
    </g>
    <g id="text_14">
     <!-- $V_o[V]$ -->
     <g style="fill:#ffffff;" transform="translate(29.995312 498.177656)rotate(-90)scale(0.3 -0.3)">
      <defs>
       <path d="M 488 4666 
L 1631 4666 
L 2203 1178 
L 4134 4666 
L 5375 4666 
L 2741 0 
L 1306 0 
L 488 4666 
z
" id="DejaVuSans-BoldOblique-56" transform="scale(0.015625)"/>
       <path d="M 2400 2784 
Q 1966 2784 1684 2390 
Q 1403 1997 1403 1388 
Q 1403 1056 1554 882 
Q 1706 709 1997 709 
Q 2431 709 2712 1104 
Q 2994 1500 2994 2113 
Q 2994 2441 2842 2612 
Q 2691 2784 2400 2784 
z
M 2491 3584 
Q 3272 3584 3719 3187 
Q 4166 2791 4166 2106 
Q 4166 1709 4025 1336 
Q 3884 963 3616 653 
Q 3297 284 2862 96 
Q 2428 -91 1894 -91 
Q 1122 -91 676 306 
Q 231 703 231 1388 
Q 231 1781 375 2157 
Q 519 2534 788 2847 
Q 1100 3209 1533 3396 
Q 1966 3584 2491 3584 
z
" id="DejaVuSans-BoldOblique-6f" transform="scale(0.015625)"/>
      </defs>
      <use transform="translate(0 0.015625)" xlink:href="#DejaVuSans-BoldOblique-56"/>
      <use transform="translate(77.392578 -16.390625)scale(0.7)" xlink:href="#DejaVuSans-BoldOblique-6f"/>
      <use transform="translate(128.217773 0.015625)" xlink:href="#DejaVuSans-Bold-5b"/>
      <use transform="translate(173.920898 0.015625)" xlink:href="#DejaVuSans-BoldOblique-56"/>
      <use transform="translate(251.313477 0.015625)" xlink:href="#DejaVuSans-Bold-5d"/>
     </g>
    </g>
   </g>
   <g id="line2d_75">
    <path clip-path="url(#p475f5d6eaa)" d="M 82.807301 513.733933 
L 97.092101 338.822414 
L 105.205624 239.717089 
L 108.387288 222.692407 
L 111.952121 214.014985 
L 116.088923 208.30936 
L 119.039894 205.657287 
L 122.668361 203.767473 
L 126.738922 204.023182 
L 131.293529 208.210903 
L 136.957236 219.375142 
L 143.072641 238.710951 
L 150.215041 270.085977 
L 157.357441 309.612742 
L 171.642241 407.369939 
L 193.069441 565.865608 
L 200.211841 610.692865 
L 207.354241 646.53971 
L 214.496641 670.58099 
L 221.639041 680.332669 
L 228.781441 673.819976 
L 235.923841 649.730755 
L 243.066241 607.553031 
L 250.208641 547.711177 
L 257.351041 471.787844 
L 277.932245 227.214811 
L 281.977914 215.390945 
L 285.32444 210.0621 
L 290.628034 205.036627 
L 294.179821 203.535769 
L 298.083058 204.437884 
L 303.632447 211.063716 
L 310.130553 226.360706 
L 316.654839 250.063058 
L 323.797239 284.857633 
L 330.939639 327.369762 
L 345.224439 428.723591 
L 366.651639 584.787063 
L 373.794039 626.433572 
L 380.936439 657.941046 
L 388.078839 676.59705 
L 395.221239 680.098077 
L 402.363639 666.71341 
L 409.506039 635.431935 
L 416.648439 586.09546 
L 423.790839 519.548105 
L 438.075639 346.602243 
L 447.682429 233.852471 
L 451.249218 219.020628 
L 455.164634 211.413011 
L 459.836969 206.264728 
L 463.566779 203.965778 
L 467.187308 203.785912 
L 472.740311 208.740413 
L 479.882711 223.529812 
L 486.480641 245.958139 
L 493.623041 279.508261 
L 500.765441 321.017035 
L 515.050241 421.230434 
L 536.477441 578.382568 
L 543.619841 621.224893 
L 550.762241 654.328202 
L 557.904641 674.935843 
L 565.047041 680.676398 
L 572.189441 669.729355 
L 579.331841 640.974498 
L 586.474241 594.126198 
L 593.616641 529.877027 
L 607.901441 359.443728 
L 618.525543 235.434739 
L 621.727782 220.076517 
L 625.525096 212.134912 
L 630.359718 206.561142 
L 633.279266 204.534949 
L 637.760493 203.691978 
L 642.014562 206.562186 
L 649.156962 219.727917 
L 656.299362 242.196253 
L 663.441762 274.288309 
L 670.584162 314.740847 
L 684.868962 413.687528 
L 706.296162 571.721911 
L 713.438562 615.698855 
L 720.580962 650.346684 
L 727.723362 672.868076 
L 734.865762 680.827075 
L 742.008162 672.316335 
L 749.150562 646.108622 
L 756.292962 601.79275 
L 763.435362 539.912666 
L 770.577762 462.211786 
L 787.944989 246.089299 
L 792.593514 219.279816 
L 796.437665 211.796749 
L 802.251958 205.682684 
L 807.039601 203.810613 
L 811.717345 205.854549 
L 818.859745 217.375042 
L 826.002145 238.405491 
L 833.144545 269.209955 
L 840.286945 308.585729 
L 854.571745 406.226727 
L 875.998945 565.079484 
L 883.141345 610.167251 
L 890.283745 646.33549 
L 897.426145 670.74774 
L 904.568545 680.904345 
L 911.710945 674.811467 
L 918.853345 651.135939 
L 925.995745 609.342371 
L 933.138145 549.829739 
L 940.280545 474.149068 
L 959.265216 245.02506 
L 965.31364 214.801944 
L 968.755081 209.618174 
L 971.508471 206.910438 
L 976.335444 204.119204 
L 981.045571 204.994878 
L 988.187971 214.454736 
L 988.187971 214.454736 
" style="fill:none;stroke:#08f7fe;stroke-linecap:square;stroke-width:3;"/>
   </g>
   <g id="line2d_76">
    <path clip-path="url(#p475f5d6eaa)" d="M 85.85645 478.428724 
L 96.57005 353.183284 
L 101.92685 286.385716 
L 107.28365 236.28754 
L 112.64045 222.37138 
L 116.21165 216.804916 
L 117.99725 216.804916 
L 119.78285 214.021684 
L 123.35405 214.021684 
L 125.13965 216.804916 
L 126.92525 216.804916 
L 137.63885 250.2037 
L 153.70925 355.966516 
L 167.99405 472.86226 
L 175.13645 531.310132 
L 184.06445 595.324468 
L 192.99245 645.422644 
L 196.56365 659.338804 
L 200.13485 667.6885 
L 205.49165 676.038196 
L 210.84845 676.038196 
L 212.63405 673.254964 
L 221.56205 642.639412 
L 232.27565 570.27538 
L 241.20365 478.428724 
L 251.91725 353.183284 
L 260.84525 250.2037 
L 262.63085 236.28754 
L 267.98765 222.37138 
L 269.77325 219.588148 
L 271.55885 219.588148 
L 273.34445 214.021684 
L 280.48685 214.021684 
L 284.05805 219.588148 
L 291.20045 244.637236 
L 298.34285 280.819252 
L 307.27085 342.050356 
L 323.34125 472.86226 
L 330.48365 531.310132 
L 339.41165 595.324468 
L 346.55405 634.289716 
L 351.91085 656.555572 
L 357.26765 670.471732 
L 360.83885 676.038196 
L 364.41005 676.038196 
L 366.19565 673.254964 
L 367.98125 673.254964 
L 376.90925 642.639412 
L 380.48045 623.156788 
L 385.83725 584.19154 
L 391.19405 536.876596 
L 396.55085 478.428724 
L 407.26445 353.183284 
L 416.19245 250.2037 
L 419.76365 227.937844 
L 428.69165 214.021684 
L 434.04845 214.021684 
L 435.83405 216.804916 
L 437.61965 216.804916 
L 450.11885 258.553396 
L 462.61805 339.267124 
L 469.76045 397.714996 
L 485.83085 528.5269 
L 491.18765 570.27538 
L 496.54445 606.457396 
L 501.90125 634.289716 
L 505.47245 650.989108 
L 512.61485 670.471732 
L 514.40045 673.254964 
L 517.97165 673.254964 
L 519.75725 676.038196 
L 525.11405 667.6885 
L 532.25645 642.639412 
L 542.97005 570.27538 
L 551.89805 481.211956 
L 569.75405 269.686324 
L 573.32525 236.28754 
L 578.68205 222.37138 
L 582.25325 216.804916 
L 584.03885 216.804916 
L 585.82445 214.021684 
L 591.18125 214.021684 
L 594.75245 219.588148 
L 601.89485 241.854004 
L 621.53645 367.099444 
L 630.46445 442.246708 
L 653.67725 617.590324 
L 664.39085 664.905268 
L 667.96205 670.471732 
L 669.74765 676.038196 
L 673.31885 676.038196 
L 675.10445 678.821428 
L 678.67565 673.254964 
L 687.60365 642.639412 
L 692.96045 614.807092 
L 701.88845 539.659828 
L 717.95885 355.966516 
L 726.88685 252.986932 
L 730.45805 230.721076 
L 734.02925 222.37138 
L 737.60045 216.804916 
L 739.38605 216.804916 
L 741.17165 214.021684 
L 746.52845 214.021684 
L 748.31405 216.804916 
L 759.02765 250.2037 
L 776.88365 367.099444 
L 789.38285 470.079028 
L 798.31085 545.226292 
L 816.16685 650.989108 
L 819.73805 664.905268 
L 821.52365 670.471732 
L 823.30925 670.471732 
L 826.88045 678.821428 
L 830.45165 678.821428 
L 837.59405 667.6885 
L 848.30765 614.807092 
L 851.87885 589.758004 
L 864.37805 464.512564 
L 873.30605 358.749748 
L 882.23405 252.986932 
L 885.80525 230.721076 
L 887.59085 227.937844 
L 891.16205 219.588148 
L 892.94765 219.588148 
L 896.51885 214.021684 
L 901.87565 214.021684 
L 905.44685 219.588148 
L 914.37485 250.2037 
L 919.73165 278.03602 
L 928.65965 339.267124 
L 946.51565 483.995188 
L 955.44365 559.142452 
L 971.51405 653.77234 
L 973.29965 656.555572 
L 980.44205 676.038196 
L 982.22765 676.038196 
L 984.01325 678.821428 
L 987.58445 678.821428 
L 989.37005 676.038196 
L 1000.08365 639.85618 
L 1007.22605 592.541236 
L 1010.854687 561.388514 
L 1010.854687 561.388514 
" style="fill:none;stroke:#fe53bb;stroke-linecap:square;stroke-width:3;"/>
   </g>
   <g id="line2d_77">
    <path clip-path="url(#p475f5d6eaa)" d="M 88.98125 888.357656 
L 981.78125 888.357656 
" style="fill:none;stroke:#ffffff;stroke-linecap:square;stroke-width:4;"/>
   </g>
   <g id="line2d_78">
    <path clip-path="url(#p475f5d6eaa)" d="M 88.98125 888.357656 
L 88.98125 18.597656 
" style="fill:none;stroke:#ffffff;stroke-linecap:square;stroke-width:6;"/>
   </g>
   <g id="patch_3">
    <path d="M 88.98125 888.357656 
L 88.98125 18.597656 
" style="fill:none;stroke:#000000;stroke-linecap:square;stroke-linejoin:miter;stroke-width:0.8;"/>
   </g>
   <g id="patch_4">
    <path d="M 981.78125 888.357656 
L 981.78125 18.597656 
" style="fill:none;stroke:#000000;stroke-linecap:square;stroke-linejoin:miter;stroke-width:0.8;"/>
   </g>
   <g id="patch_5">
    <path d="M 88.98125 888.357656 
L 981.78125 888.357656 
" style="fill:none;stroke:#000000;stroke-linecap:square;stroke-linejoin:miter;stroke-width:0.8;"/>
   </g>
   <g id="patch_6">
    <path d="M 88.98125 18.597656 
L 981.78125 18.597656 
" style="fill:none;stroke:#000000;stroke-linecap:square;stroke-linejoin:miter;stroke-width:0.8;"/>
   </g>
   <g id="legend_1">
    <g id="patch_7">
     <path d="M 385.58125 94.997656 
L 969.78125 94.997656 
Q 973.78125 94.997656 973.78125 90.997656 
L 973.78125 34.597656 
Q 973.78125 30.597656 969.78125 30.597656 
L 385.58125 30.597656 
Q 381.58125 30.597656 381.58125 34.597656 
L 381.58125 90.997656 
Q 381.58125 94.997656 385.58125 94.997656 
z
" style="fill:#454545;opacity:0.5;stroke:#454545;stroke-linejoin:miter;"/>
    </g>
    <g id="patch_8">
     <path d="M 383.58125 92.997656 
L 967.78125 92.997656 
Q 971.78125 92.997656 971.78125 88.997656 
L 971.78125 32.597656 
Q 971.78125 28.597656 967.78125 28.597656 
L 383.58125 28.597656 
Q 379.58125 28.597656 379.58125 32.597656 
L 379.58125 88.997656 
Q 379.58125 92.997656 383.58125 92.997656 
z
" style="fill:#e6e6e6;stroke:#cccccc;stroke-linejoin:miter;"/>
    </g>
    <g id="line2d_79">
     <path d="M 387.58125 44.519531 
L 427.58125 44.519531 
" style="fill:none;stroke:#08f7fe;stroke-linecap:square;stroke-width:3;"/>
    </g>
    <g id="line2d_80"/>
    <g id="text_15">
     <!-- $Señal\ V_o\ simulada\ con\ LTSPice,\ Frec.=524Hz$ -->
     <g transform="translate(443.58125 51.519531)scale(0.2 -0.2)">
      <defs>
       <path d="M 4256 4519 
L 4063 3531 
Q 3709 3706 3365 3792 
Q 3022 3878 2694 3878 
Q 2244 3878 1992 3737 
Q 1741 3597 1741 3347 
Q 1741 3188 1852 3098 
Q 1963 3009 2309 2925 
L 2803 2803 
Q 3422 2647 3711 2351 
Q 4000 2056 4000 1588 
Q 4000 828 3423 368 
Q 2847 -91 1875 -91 
Q 1422 -91 973 -6 
Q 525 78 97 244 
L 288 1259 
Q 703 1019 1095 900 
Q 1488 781 1869 781 
Q 2281 781 2539 950 
Q 2797 1119 2797 1381 
Q 2797 1553 2681 1648 
Q 2566 1744 2175 1844 
L 1684 1966 
Q 1141 2100 875 2390 
Q 609 2681 609 3144 
Q 609 3872 1167 4311 
Q 1725 4750 2669 4750 
Q 3047 4750 3445 4692 
Q 3844 4634 4256 4519 
z
" id="DejaVuSans-BoldOblique-53" transform="scale(0.015625)"/>
       <path d="M 4025 1619 
L 3988 1441 
L 1369 1441 
Q 1369 1422 1366 1386 
Q 1363 1350 1363 1331 
Q 1363 991 1567 822 
Q 1772 653 2181 653 
Q 2534 653 2926 759 
Q 3319 866 3750 1075 
L 3578 206 
Q 3169 56 2764 -17 
Q 2359 -91 1941 -91 
Q 1122 -91 676 287 
Q 231 666 231 1356 
Q 231 1756 373 2132 
Q 516 2509 788 2822 
Q 1109 3197 1557 3390 
Q 2006 3584 2553 3584 
Q 3263 3584 3680 3206 
Q 4097 2828 4097 2188 
Q 4097 2063 4080 1923 
Q 4063 1784 4025 1619 
z
M 2969 2131 
Q 2978 2172 2983 2214 
Q 2988 2256 2988 2297 
Q 2988 2547 2838 2694 
Q 2688 2841 2431 2841 
Q 2103 2841 1873 2661 
Q 1644 2481 1522 2131 
L 2969 2131 
z
" id="DejaVuSans-BoldOblique-65" transform="scale(0.015625)"/>
       <path d="M 4128 2131 
L 3713 0 
L 2591 0 
L 2944 1825 
Q 2981 2003 3001 2126 
Q 3022 2250 3022 2322 
Q 3022 2522 2911 2631 
Q 2800 2741 2597 2741 
Q 2250 2741 2001 2470 
Q 1753 2200 1656 1722 
L 1319 0 
L 197 0 
L 878 3500 
L 2003 3500 
L 1900 2988 
Q 2209 3291 2521 3437 
Q 2834 3584 3175 3584 
Q 3659 3584 3921 3331 
Q 4184 3078 4184 2619 
Q 4184 2519 4170 2397 
Q 4156 2275 4128 2131 
z
M 2663 4263 
L 2509 4378 
Q 2500 4384 2478 4400 
Q 2359 4494 2266 4494 
Q 2159 4494 2078 4386 
Q 1997 4278 1966 4091 
L 1528 4091 
Q 1613 4519 1817 4748 
Q 2022 4978 2316 4978 
Q 2428 4978 2533 4936 
Q 2638 4894 2753 4800 
L 2919 4666 
Q 2975 4619 3028 4594 
Q 3081 4569 3128 4569 
Q 3247 4569 3328 4673 
Q 3409 4778 3444 4972 
L 3878 4972 
Q 3797 4547 3594 4315 
Q 3391 4084 3097 4084 
Q 2991 4084 2897 4120 
Q 2803 4156 2663 4263 
z
" id="DejaVuSans-BoldOblique-f1" transform="scale(0.015625)"/>
       <path d="M 2106 1575 
Q 1688 1575 1473 1445 
Q 1259 1316 1259 1063 
Q 1259 872 1386 762 
Q 1513 653 1734 653 
Q 2078 653 2309 861 
Q 2541 1069 2619 1447 
L 2644 1575 
L 2106 1575 
z
M 3853 1997 
L 3463 0 
L 2344 0 
L 2438 519 
Q 2163 206 1856 57 
Q 1550 -91 1191 -91 
Q 694 -91 401 167 
Q 109 425 109 863 
Q 109 1531 626 1886 
Q 1144 2241 2119 2241 
L 2778 2241 
L 2791 2328 
Q 2800 2372 2801 2390 
Q 2803 2409 2803 2425 
Q 2803 2631 2608 2736 
Q 2413 2841 2028 2841 
Q 1681 2841 1356 2769 
Q 1031 2697 728 2553 
L 897 3406 
Q 1247 3494 1614 3539 
Q 1981 3584 2375 3584 
Q 3153 3584 3531 3317 
Q 3909 3050 3909 2503 
Q 3909 2397 3895 2270 
Q 3881 2144 3853 1997 
z
" id="DejaVuSans-BoldOblique-61" transform="scale(0.015625)"/>
       <path d="M 1141 4863 
L 2266 4863 
L 1319 0 
L 197 0 
L 1141 4863 
z
" id="DejaVuSans-BoldOblique-6c" transform="scale(0.015625)"/>
       <path d="M 878 3500 
L 2003 3500 
L 1319 0 
L 197 0 
L 878 3500 
z
M 1141 4863 
L 2266 4863 
L 2088 3950 
L 959 3950 
L 1141 4863 
z
" id="DejaVuSans-BoldOblique-69" transform="scale(0.015625)"/>
       <path d="M 434 1363 
L 844 3500 
L 1966 3500 
L 1613 1678 
Q 1575 1500 1556 1375 
Q 1538 1250 1538 1178 
Q 1538 981 1647 872 
Q 1756 763 1959 763 
Q 2306 763 2556 1031 
Q 2806 1300 2900 1778 
L 3238 3500 
L 4359 3500 
L 3681 0 
L 2553 0 
L 2656 513 
Q 2369 209 2053 59 
Q 1738 -91 1388 -91 
Q 909 -91 646 162 
Q 384 416 384 878 
Q 384 988 396 1109 
Q 409 1231 434 1363 
z
" id="DejaVuSans-BoldOblique-75" transform="scale(0.015625)"/>
       <path d="M 1966 722 
Q 2397 722 2667 1119 
Q 2938 1516 2938 2156 
Q 2938 2447 2786 2609 
Q 2634 2772 2363 2772 
Q 1938 2772 1663 2380 
Q 1388 1988 1388 1375 
Q 1388 1056 1536 889 
Q 1684 722 1966 722 
z
M 3144 2988 
L 3506 4863 
L 4634 4863 
L 3688 0 
L 2559 0 
L 2663 506 
Q 2406 200 2125 54 
Q 1844 -91 1509 -91 
Q 919 -91 575 284 
Q 231 659 231 1306 
Q 231 1709 351 2090 
Q 472 2472 697 2784 
Q 981 3178 1339 3381 
Q 1697 3584 2106 3584 
Q 2466 3584 2717 3439 
Q 2969 3294 3144 2988 
z
" id="DejaVuSans-BoldOblique-64" transform="scale(0.015625)"/>
       <path d="M 3719 3391 
L 3541 2478 
Q 3316 2628 3097 2706 
Q 2878 2784 2669 2784 
Q 2122 2784 1775 2417 
Q 1428 2050 1428 1478 
Q 1428 1113 1643 911 
Q 1859 709 2253 709 
Q 2516 709 2769 787 
Q 3022 866 3250 1019 
L 3078 103 
Q 2800 6 2519 -42 
Q 2238 -91 1953 -91 
Q 1128 -91 683 279 
Q 238 650 238 1331 
Q 238 1759 402 2162 
Q 566 2566 872 2888 
Q 1213 3241 1653 3412 
Q 2094 3584 2669 3584 
Q 2934 3584 3196 3536 
Q 3459 3488 3719 3391 
z
" id="DejaVuSans-BoldOblique-63" transform="scale(0.015625)"/>
       <path d="M 4128 2131 
L 3713 0 
L 2591 0 
L 2944 1825 
Q 2981 2003 3001 2126 
Q 3022 2250 3022 2322 
Q 3022 2522 2911 2631 
Q 2800 2741 2597 2741 
Q 2250 2741 2001 2470 
Q 1753 2200 1656 1722 
L 1319 0 
L 197 0 
L 878 3500 
L 2003 3500 
L 1900 2988 
Q 2209 3291 2521 3437 
Q 2834 3584 3175 3584 
Q 3659 3584 3921 3331 
Q 4184 3078 4184 2619 
Q 4184 2519 4170 2397 
Q 4156 2275 4128 2131 
z
" id="DejaVuSans-BoldOblique-6e" transform="scale(0.015625)"/>
       <path d="M 1044 4666 
L 2247 4666 
L 1516 909 
L 3622 909 
L 3450 0 
L 134 0 
L 1044 4666 
z
" id="DejaVuSans-BoldOblique-4c" transform="scale(0.015625)"/>
       <path d="M 488 4666 
L 4788 4666 
L 4609 3756 
L 3059 3756 
L 2328 0 
L 1125 0 
L 1856 3756 
L 306 3756 
L 488 4666 
z
" id="DejaVuSans-BoldOblique-54" transform="scale(0.015625)"/>
       <path d="M 1044 4666 
L 3041 4666 
Q 3775 4666 4189 4330 
Q 4603 3994 4603 3397 
Q 4603 3031 4465 2701 
Q 4328 2372 4072 2125 
Q 3794 1859 3409 1739 
Q 3025 1619 2444 1619 
L 1650 1619 
L 1338 0 
L 134 0 
L 1044 4666 
z
M 2081 3794 
L 1825 2491 
L 2491 2491 
Q 2916 2491 3141 2691 
Q 3366 2891 3366 3272 
Q 3366 3525 3205 3659 
Q 3044 3794 2741 3794 
L 2081 3794 
z
" id="DejaVuSans-BoldOblique-50" transform="scale(0.015625)"/>
       <path d="M 653 1209 
L 1778 1209 
L 1778 256 
L 1006 -909 
L 341 -909 
L 653 256 
L 653 1209 
z
" id="DejaVuSans-Bold-2c" transform="scale(0.015625)"/>
       <path d="M 1044 4666 
L 4288 4666 
L 4109 3756 
L 2069 3756 
L 1900 2888 
L 3822 2888 
L 3641 1978 
L 1722 1978 
L 1338 0 
L 134 0 
L 1044 4666 
z
" id="DejaVuSans-BoldOblique-46" transform="scale(0.015625)"/>
       <path d="M 3291 2547 
Q 3175 2613 3034 2647 
Q 2894 2681 2731 2681 
Q 2303 2681 2020 2406 
Q 1738 2131 1638 1613 
L 1319 0 
L 197 0 
L 878 3500 
L 2003 3500 
L 1881 2900 
Q 2103 3231 2436 3407 
Q 2769 3584 3175 3584 
Q 3234 3584 3309 3578 
Q 3384 3572 3488 3559 
L 3291 2547 
z
" id="DejaVuSans-BoldOblique-72" transform="scale(0.015625)"/>
       <path d="M 653 1209 
L 1778 1209 
L 1778 0 
L 653 0 
L 653 1209 
z
" id="DejaVuSans-Bold-2e" transform="scale(0.015625)"/>
       <path d="M 678 3084 
L 4684 3084 
L 4684 2350 
L 678 2350 
L 678 3084 
z
M 678 1663 
L 4684 1663 
L 4684 922 
L 678 922 
L 678 1663 
z
" id="DejaVuSans-Bold-3d" transform="scale(0.015625)"/>
       <path d="M 1044 4666 
L 2247 4666 
L 1900 2888 
L 3675 2888 
L 4019 4666 
L 5222 4666 
L 4313 0 
L 3109 0 
L 3494 1978 
L 1722 1978 
L 1338 0 
L 134 0 
L 1044 4666 
z
" id="DejaVuSans-BoldOblique-48" transform="scale(0.015625)"/>
       <path d="M 697 3500 
L 3750 3500 
L 3597 2719 
L 1416 800 
L 3225 800 
L 3072 0 
L -56 0 
L 91 781 
L 2278 2700 
L 544 2700 
L 697 3500 
z
" id="DejaVuSans-BoldOblique-7a" transform="scale(0.015625)"/>
      </defs>
      <use transform="translate(0 0.21875)" xlink:href="#DejaVuSans-BoldOblique-53"/>
      <use transform="translate(72.021484 0.21875)" xlink:href="#DejaVuSans-BoldOblique-65"/>
      <use transform="translate(139.84375 0.21875)" xlink:href="#DejaVuSans-BoldOblique-f1"/>
      <use transform="translate(211.035156 0.21875)" xlink:href="#DejaVuSans-BoldOblique-61"/>
      <use transform="translate(278.515625 0.21875)" xlink:href="#DejaVuSans-BoldOblique-6c"/>
      <use transform="translate(347.525694 0.21875)" xlink:href="#DejaVuSans-BoldOblique-56"/>
      <use transform="translate(424.918272 -16.1875)scale(0.7)" xlink:href="#DejaVuSans-BoldOblique-6f"/>
      <use transform="translate(510.476193 0.21875)" xlink:href="#DejaVuSans-BoldOblique-73"/>
      <use transform="translate(569.997678 0.21875)" xlink:href="#DejaVuSans-BoldOblique-69"/>
      <use transform="translate(604.275021 0.21875)" xlink:href="#DejaVuSans-BoldOblique-6d"/>
      <use transform="translate(708.47424 0.21875)" xlink:href="#DejaVuSans-BoldOblique-75"/>
      <use transform="translate(779.665646 0.21875)" xlink:href="#DejaVuSans-BoldOblique-6c"/>
      <use transform="translate(813.94299 0.21875)" xlink:href="#DejaVuSans-BoldOblique-61"/>
      <use transform="translate(881.423459 0.21875)" xlink:href="#DejaVuSans-BoldOblique-64"/>
      <use transform="translate(953.00549 0.21875)" xlink:href="#DejaVuSans-BoldOblique-61"/>
      <use transform="translate(1055.218685 0.21875)" xlink:href="#DejaVuSans-BoldOblique-63"/>
      <use transform="translate(1114.496028 0.21875)" xlink:href="#DejaVuSans-BoldOblique-6f"/>
      <use transform="translate(1183.1972 0.21875)" xlink:href="#DejaVuSans-BoldOblique-6e"/>
      <use transform="translate(1289.121332 0.21875)" xlink:href="#DejaVuSans-BoldOblique-4c"/>
      <use transform="translate(1352.842035 0.21875)" xlink:href="#DejaVuSans-BoldOblique-54"/>
      <use transform="translate(1421.054926 0.21875)" xlink:href="#DejaVuSans-BoldOblique-53"/>
      <use transform="translate(1493.07641 0.21875)" xlink:href="#DejaVuSans-BoldOblique-50"/>
      <use transform="translate(1566.367426 0.21875)" xlink:href="#DejaVuSans-BoldOblique-69"/>
      <use transform="translate(1600.64477 0.21875)" xlink:href="#DejaVuSans-BoldOblique-63"/>
      <use transform="translate(1659.922113 0.21875)" xlink:href="#DejaVuSans-BoldOblique-65"/>
      <use transform="translate(1727.744379 0.21875)" xlink:href="#DejaVuSans-Bold-2c"/>
      <use transform="translate(1821.305229 0.21875)" xlink:href="#DejaVuSans-BoldOblique-46"/>
      <use transform="translate(1889.615776 0.21875)" xlink:href="#DejaVuSans-BoldOblique-72"/>
      <use transform="translate(1938.932183 0.21875)" xlink:href="#DejaVuSans-BoldOblique-65"/>
      <use transform="translate(2006.754448 0.21875)" xlink:href="#DejaVuSans-BoldOblique-63"/>
      <use transform="translate(2066.031792 0.21875)" xlink:href="#DejaVuSans-Bold-2e"/>
      <use transform="translate(2145.699761 0.21875)" xlink:href="#DejaVuSans-Bold-3d"/>
      <use transform="translate(2250.328667 0.21875)" xlink:href="#DejaVuSans-Bold-35"/>
      <use transform="translate(2319.908745 0.21875)" xlink:href="#DejaVuSans-Bold-32"/>
      <use transform="translate(2389.488823 0.21875)" xlink:href="#DejaVuSans-Bold-34"/>
      <use transform="translate(2459.068901 0.21875)" xlink:href="#DejaVuSans-BoldOblique-48"/>
      <use transform="translate(2542.760308 0.21875)" xlink:href="#DejaVuSans-BoldOblique-7a"/>
     </g>
    </g>
    <g id="line2d_81">
     <path d="M 387.58125 73.719531 
L 427.58125 73.719531 
" style="fill:none;stroke:#fe53bb;stroke-linecap:square;stroke-width:3;"/>
    </g>
    <g id="line2d_82"/>
    <g id="text_16">
     <!-- $Señal\ V_o\ medida\ con\ Punta\ X1,\ Frec.=574Hz$ -->
     <g transform="translate(443.58125 80.719531)scale(0.2 -0.2)">
      <defs>
       <path d="M 3175 2363 
L 4319 0 
L 3097 0 
L 2338 1563 
L 972 0 
L -325 0 
L 1772 2394 
L 666 4666 
L 1894 4666 
L 2613 3200 
L 3891 4666 
L 5197 4666 
L 3175 2363 
z
" id="DejaVuSans-BoldOblique-58" transform="scale(0.015625)"/>
       <path d="M 428 4666 
L 3944 4666 
L 3944 3988 
L 2125 0 
L 953 0 
L 2675 3781 
L 428 3781 
L 428 4666 
z
" id="DejaVuSans-Bold-37" transform="scale(0.015625)"/>
      </defs>
      <use transform="translate(0 0.21875)" xlink:href="#DejaVuSans-BoldOblique-53"/>
      <use transform="translate(72.021484 0.21875)" xlink:href="#DejaVuSans-BoldOblique-65"/>
      <use transform="translate(139.84375 0.21875)" xlink:href="#DejaVuSans-BoldOblique-f1"/>
      <use transform="translate(211.035156 0.21875)" xlink:href="#DejaVuSans-BoldOblique-61"/>
      <use transform="translate(278.515625 0.21875)" xlink:href="#DejaVuSans-BoldOblique-6c"/>
      <use transform="translate(347.525694 0.21875)" xlink:href="#DejaVuSans-BoldOblique-56"/>
      <use transform="translate(424.918272 -16.1875)scale(0.7)" xlink:href="#DejaVuSans-BoldOblique-6f"/>
      <use transform="translate(510.476193 0.21875)" xlink:href="#DejaVuSans-BoldOblique-6d"/>
      <use transform="translate(614.675412 0.21875)" xlink:href="#DejaVuSans-BoldOblique-65"/>
      <use transform="translate(682.497678 0.21875)" xlink:href="#DejaVuSans-BoldOblique-64"/>
      <use transform="translate(754.079709 0.21875)" xlink:href="#DejaVuSans-BoldOblique-69"/>
      <use transform="translate(788.357053 0.21875)" xlink:href="#DejaVuSans-BoldOblique-64"/>
      <use transform="translate(859.939084 0.21875)" xlink:href="#DejaVuSans-BoldOblique-61"/>
      <use transform="translate(962.152278 0.21875)" xlink:href="#DejaVuSans-BoldOblique-63"/>
      <use transform="translate(1021.429622 0.21875)" xlink:href="#DejaVuSans-BoldOblique-6f"/>
      <use transform="translate(1090.130794 0.21875)" xlink:href="#DejaVuSans-BoldOblique-6e"/>
      <use transform="translate(1196.054926 0.21875)" xlink:href="#DejaVuSans-BoldOblique-50"/>
      <use transform="translate(1269.345941 0.21875)" xlink:href="#DejaVuSans-BoldOblique-75"/>
      <use transform="translate(1340.537348 0.21875)" xlink:href="#DejaVuSans-BoldOblique-6e"/>
      <use transform="translate(1411.728754 0.21875)" xlink:href="#DejaVuSans-BoldOblique-74"/>
      <use transform="translate(1459.531488 0.21875)" xlink:href="#DejaVuSans-BoldOblique-61"/>
      <use transform="translate(1561.744683 0.21875)" xlink:href="#DejaVuSans-BoldOblique-58"/>
      <use transform="translate(1638.844292 0.21875)" xlink:href="#DejaVuSans-Bold-31"/>
      <use transform="translate(1708.42437 0.21875)" xlink:href="#DejaVuSans-Bold-2c"/>
      <use transform="translate(1801.985221 0.21875)" xlink:href="#DejaVuSans-BoldOblique-46"/>
      <use transform="translate(1870.295768 0.21875)" xlink:href="#DejaVuSans-BoldOblique-72"/>
      <use transform="translate(1919.612174 0.21875)" xlink:href="#DejaVuSans-BoldOblique-65"/>
      <use transform="translate(1987.434439 0.21875)" xlink:href="#DejaVuSans-BoldOblique-63"/>
      <use transform="translate(2046.711783 0.21875)" xlink:href="#DejaVuSans-Bold-2e"/>
      <use transform="translate(2126.379752 0.21875)" xlink:href="#DejaVuSans-Bold-3d"/>
      <use transform="translate(2231.008658 0.21875)" xlink:href="#DejaVuSans-Bold-35"/>
      <use transform="translate(2296.088736 0.21875)" xlink:href="#DejaVuSans-Bold-37"/>
      <use transform="translate(2365.668814 0.21875)" xlink:href="#DejaVuSans-Bold-34"/>
      <use transform="translate(2435.248893 0.21875)" xlink:href="#DejaVuSans-BoldOblique-48"/>
      <use transform="translate(2518.940299 0.21875)" xlink:href="#DejaVuSans-BoldOblique-7a"/>
     </g>
    </g>
   </g>
  </g>
 </g>
 <defs>
  <clipPath id="p475f5d6eaa">
   <rect height="869.76" width="892.8" x="88.98125" y="18.597656"/>
  </clipPath>
 </defs>
</svg>
