<?xml version="1.0" encoding="utf-8" standalone="no"?>
<!DOCTYPE svg PUBLIC "-//W3C//DTD SVG 1.1//EN"
  "http://www.w3.org/Graphics/SVG/1.1/DTD/svg11.dtd">
<svg height="958.375625pt" version="1.1" viewBox="0 0 991.4 958.375625" width="991.4pt" xmlns="http://www.w3.org/2000/svg" xmlns:xlink="http://www.w3.org/1999/xlink">
 <metadata>
  <rdf:RDF xmlns:cc="http://creativecommons.org/ns#" xmlns:dc="http://purl.org/dc/elements/1.1/" xmlns:rdf="http://www.w3.org/1999/02/22-rdf-syntax-ns#">
   <cc:Work>
    <dc:type rdf:resource="http://purl.org/dc/dcmitype/StillImage"/>
    <dc:date>2022-05-26T17:14:27.699992</dc:date>
    <dc:format>image/svg+xml</dc:format>
    <dc:creator>
     <cc:Agent>
      <dc:title>Matplotlib v3.4.3, https://matplotlib.org/</dc:title>
     </cc:Agent>
    </dc:creator>
   </cc:Work>
  </rdf:RDF>
 </metadata>
 <defs>
  <style type="text/css">*{stroke-linecap:butt;stroke-linejoin:round;}</style>
 </defs>
 <g id="figure_1">
  <g id="patch_1">
   <path d="M 0 958.375625 
L 991.4 958.375625 
L 991.4 0 
L 0 0 
z
" style="fill:#212946;"/>
  </g>
  <g id="axes_1">
   <g id="patch_2">
    <path d="M 76.4 886.892812 
L 969.2 886.892812 
L 969.2 17.132812 
L 76.4 17.132812 
z
" style="fill:#212946;"/>
   </g>
   <g id="matplotlib.axis_1">
    <g id="xtick_1">
     <g id="line2d_1">
      <path clip-path="url(#pfc376064cc)" d="M 76.4 886.892812 
L 76.4 17.132812 
" style="fill:none;stroke:#808080;stroke-dasharray:2.96,1.28;stroke-dashoffset:0;stroke-width:0.8;"/>
     </g>
     <g id="line2d_2">
      <defs>
       <path d="M 0 0 
L 0 3.5 
" id="mcd94dceb0e" style="stroke:#ffffff;stroke-width:2;"/>
      </defs>
      <g>
       <use style="fill:#ffffff;stroke:#ffffff;stroke-width:2;" x="76.4" xlink:href="#mcd94dceb0e" y="886.892812"/>
      </g>
     </g>
     <g id="text_1">
      <!-- 0 -->
      <g style="fill:#ffffff;" transform="translate(68.9 913.758437)scale(0.3 -0.3)">
       <defs>
        <path d="M 2966 2119 
Q 2966 1484 2788 934 
Q 2681 597 2501 381 
Q 2322 166 2094 39 
Q 1866 -88 1597 -88 
Q 1291 -88 1044 68 
Q 797 225 606 516 
Q 469 728 366 1081 
Q 231 1559 231 2069 
Q 231 2759 425 3338 
Q 584 3816 909 4070 
Q 1234 4325 1597 4325 
Q 1966 4325 2286 4073 
Q 2606 3822 2756 3397 
Q 2966 2813 2966 2119 
z
M 2003 2125 
Q 2003 3238 1991 3422 
Q 1959 3856 1841 4009 
Q 1763 4109 1588 4109 
Q 1453 4109 1375 4034 
Q 1259 3925 1218 3648 
Q 1178 3372 1178 1719 
Q 1178 819 1241 513 
Q 1288 291 1375 216 
Q 1463 141 1606 141 
Q 1763 141 1841 241 
Q 1972 416 1991 781 
L 2003 2125 
z
" id="TimesNewRomanPS-BoldMT-30" transform="scale(0.015625)"/>
       </defs>
       <use xlink:href="#TimesNewRomanPS-BoldMT-30"/>
      </g>
     </g>
    </g>
    <g id="xtick_2">
     <g id="line2d_3">
      <path clip-path="url(#pfc376064cc)" d="M 254.96 886.892812 
L 254.96 17.132812 
" style="fill:none;stroke:#808080;stroke-dasharray:2.96,1.28;stroke-dashoffset:0;stroke-width:0.8;"/>
     </g>
     <g id="line2d_4">
      <g>
       <use style="fill:#ffffff;stroke:#ffffff;stroke-width:2;" x="254.96" xlink:href="#mcd94dceb0e" y="886.892812"/>
      </g>
     </g>
     <g id="text_2">
      <!-- 2 -->
      <g style="fill:#ffffff;" transform="translate(247.46 913.758437)scale(0.3 -0.3)">
       <defs>
        <path d="M 2650 0 
L 156 0 
L 156 69 
Q 1303 1434 1548 1906 
Q 1794 2378 1794 2828 
Q 1794 3156 1591 3373 
Q 1388 3591 1094 3591 
Q 613 3591 347 3109 
L 231 3150 
Q 400 3750 744 4037 
Q 1088 4325 1538 4325 
Q 1859 4325 2125 4175 
Q 2391 4025 2541 3764 
Q 2691 3503 2691 3275 
Q 2691 2859 2459 2431 
Q 2144 1853 1081 819 
L 1997 819 
Q 2334 819 2436 847 
Q 2538 875 2603 942 
Q 2669 1009 2775 1225 
L 2888 1225 
L 2650 0 
z
" id="TimesNewRomanPS-BoldMT-32" transform="scale(0.015625)"/>
       </defs>
       <use xlink:href="#TimesNewRomanPS-BoldMT-32"/>
      </g>
     </g>
    </g>
    <g id="xtick_3">
     <g id="line2d_5">
      <path clip-path="url(#pfc376064cc)" d="M 433.52 886.892812 
L 433.52 17.132812 
" style="fill:none;stroke:#808080;stroke-dasharray:2.96,1.28;stroke-dashoffset:0;stroke-width:0.8;"/>
     </g>
     <g id="line2d_6">
      <g>
       <use style="fill:#ffffff;stroke:#ffffff;stroke-width:2;" x="433.52" xlink:href="#mcd94dceb0e" y="886.892812"/>
      </g>
     </g>
     <g id="text_3">
      <!-- 4 -->
      <g style="fill:#ffffff;" transform="translate(426.02 913.758437)scale(0.3 -0.3)">
       <defs>
        <path d="M 159 1597 
L 2172 4325 
L 2553 4325 
L 2553 1597 
L 2941 1597 
L 2941 950 
L 2553 950 
L 2553 0 
L 1694 0 
L 1694 950 
L 159 950 
L 159 1597 
z
M 463 1597 
L 1694 1597 
L 1694 3269 
L 463 1597 
z
" id="TimesNewRomanPS-BoldMT-34" transform="scale(0.015625)"/>
       </defs>
       <use xlink:href="#TimesNewRomanPS-BoldMT-34"/>
      </g>
     </g>
    </g>
    <g id="xtick_4">
     <g id="line2d_7">
      <path clip-path="url(#pfc376064cc)" d="M 612.08 886.892812 
L 612.08 17.132812 
" style="fill:none;stroke:#808080;stroke-dasharray:2.96,1.28;stroke-dashoffset:0;stroke-width:0.8;"/>
     </g>
     <g id="line2d_8">
      <g>
       <use style="fill:#ffffff;stroke:#ffffff;stroke-width:2;" x="612.08" xlink:href="#mcd94dceb0e" y="886.892812"/>
      </g>
     </g>
     <g id="text_4">
      <!-- 6 -->
      <g style="fill:#ffffff;" transform="translate(604.58 913.758437)scale(0.3 -0.3)">
       <defs>
        <path d="M 3006 4325 
L 3006 4238 
Q 2441 4094 2098 3867 
Q 1756 3641 1557 3317 
Q 1359 2994 1250 2516 
Q 1388 2609 1478 2638 
Q 1681 2700 1888 2700 
Q 2363 2700 2680 2354 
Q 2997 2009 2997 1413 
Q 2997 994 2825 644 
Q 2653 294 2337 103 
Q 2022 -88 1663 -88 
Q 1272 -88 940 126 
Q 609 341 423 753 
Q 238 1166 238 1650 
Q 238 2363 580 2977 
Q 922 3591 1551 3955 
Q 2181 4319 3006 4325 
z
M 1209 2263 
Q 1184 1831 1184 1631 
Q 1184 1200 1267 797 
Q 1350 394 1494 231 
Q 1597 116 1738 116 
Q 1881 116 1993 283 
Q 2106 450 2106 963 
Q 2106 1825 1897 2153 
Q 1763 2366 1534 2366 
Q 1409 2366 1209 2263 
z
" id="TimesNewRomanPS-BoldMT-36" transform="scale(0.015625)"/>
       </defs>
       <use xlink:href="#TimesNewRomanPS-BoldMT-36"/>
      </g>
     </g>
    </g>
    <g id="xtick_5">
     <g id="line2d_9">
      <path clip-path="url(#pfc376064cc)" d="M 790.64 886.892812 
L 790.64 17.132812 
" style="fill:none;stroke:#808080;stroke-dasharray:2.96,1.28;stroke-dashoffset:0;stroke-width:0.8;"/>
     </g>
     <g id="line2d_10">
      <g>
       <use style="fill:#ffffff;stroke:#ffffff;stroke-width:2;" x="790.64" xlink:href="#mcd94dceb0e" y="886.892812"/>
      </g>
     </g>
     <g id="text_5">
      <!-- 8 -->
      <g style="fill:#ffffff;" transform="translate(783.14 913.758437)scale(0.3 -0.3)">
       <defs>
        <path d="M 2181 2394 
Q 2628 2066 2801 1783 
Q 2975 1500 2975 1134 
Q 2975 622 2589 267 
Q 2203 -88 1541 -88 
Q 913 -88 569 221 
Q 225 531 225 978 
Q 225 1319 423 1575 
Q 622 1831 1084 2044 
Q 581 2428 439 2672 
Q 297 2916 297 3238 
Q 297 3663 658 3986 
Q 1019 4309 1647 4309 
Q 2253 4309 2579 4023 
Q 2906 3738 2906 3338 
Q 2906 3038 2729 2808 
Q 2553 2578 2181 2394 
z
M 1944 2553 
Q 2059 2709 2115 2903 
Q 2172 3097 2172 3328 
Q 2172 3734 1997 3950 
Q 1866 4116 1634 4116 
Q 1425 4116 1278 3964 
Q 1131 3813 1131 3588 
Q 1131 3359 1295 3114 
Q 1459 2869 1944 2553 
z
M 1319 1894 
Q 1222 1806 1181 1734 
Q 1119 1625 1069 1415 
Q 1019 1206 1019 978 
Q 1019 684 1094 486 
Q 1169 288 1308 200 
Q 1447 113 1594 113 
Q 1822 113 1978 280 
Q 2134 447 2134 738 
Q 2134 1344 1319 1894 
z
" id="TimesNewRomanPS-BoldMT-38" transform="scale(0.015625)"/>
       </defs>
       <use xlink:href="#TimesNewRomanPS-BoldMT-38"/>
      </g>
     </g>
    </g>
    <g id="xtick_6">
     <g id="line2d_11">
      <path clip-path="url(#pfc376064cc)" d="M 969.2 886.892812 
L 969.2 17.132812 
" style="fill:none;stroke:#808080;stroke-dasharray:2.96,1.28;stroke-dashoffset:0;stroke-width:0.8;"/>
     </g>
     <g id="line2d_12">
      <g>
       <use style="fill:#ffffff;stroke:#ffffff;stroke-width:2;" x="969.2" xlink:href="#mcd94dceb0e" y="886.892812"/>
      </g>
     </g>
     <g id="text_6">
      <!-- 10 -->
      <g style="fill:#ffffff;" transform="translate(954.2 913.758437)scale(0.3 -0.3)">
       <defs>
        <path d="M 2084 4325 
L 2084 859 
Q 2084 469 2118 361 
Q 2153 253 2262 184 
Q 2372 116 2613 116 
L 2709 116 
L 2709 0 
L 478 0 
L 478 116 
L 591 116 
Q 863 116 978 178 
Q 1094 241 1134 350 
Q 1175 459 1175 859 
L 1175 3056 
Q 1175 3350 1147 3423 
Q 1119 3497 1042 3548 
Q 966 3600 866 3600 
Q 706 3600 478 3500 
L 422 3613 
L 1981 4325 
L 2084 4325 
z
" id="TimesNewRomanPS-BoldMT-31" transform="scale(0.015625)"/>
       </defs>
       <use xlink:href="#TimesNewRomanPS-BoldMT-31"/>
       <use x="50" xlink:href="#TimesNewRomanPS-BoldMT-30"/>
      </g>
     </g>
    </g>
    <g id="xtick_7">
     <g id="line2d_13">
      <path clip-path="url(#pfc376064cc)" d="M 165.68 886.892812 
L 165.68 17.132812 
" style="fill:none;stroke:#808080;stroke-dasharray:2.96,1.28;stroke-dashoffset:0;stroke-width:0.8;"/>
     </g>
     <g id="line2d_14">
      <defs>
       <path d="M 0 0 
L 0 2 
" id="m4572c57127" style="stroke:#ffffff;stroke-width:0.6;"/>
      </defs>
      <g>
       <use style="fill:#ffffff;stroke:#ffffff;stroke-width:0.6;" x="165.68" xlink:href="#m4572c57127" y="886.892812"/>
      </g>
     </g>
    </g>
    <g id="xtick_8">
     <g id="line2d_15">
      <path clip-path="url(#pfc376064cc)" d="M 344.24 886.892812 
L 344.24 17.132812 
" style="fill:none;stroke:#808080;stroke-dasharray:2.96,1.28;stroke-dashoffset:0;stroke-width:0.8;"/>
     </g>
     <g id="line2d_16">
      <g>
       <use style="fill:#ffffff;stroke:#ffffff;stroke-width:0.6;" x="344.24" xlink:href="#m4572c57127" y="886.892812"/>
      </g>
     </g>
    </g>
    <g id="xtick_9">
     <g id="line2d_17">
      <path clip-path="url(#pfc376064cc)" d="M 522.8 886.892812 
L 522.8 17.132812 
" style="fill:none;stroke:#808080;stroke-dasharray:2.96,1.28;stroke-dashoffset:0;stroke-width:0.8;"/>
     </g>
     <g id="line2d_18">
      <g>
       <use style="fill:#ffffff;stroke:#ffffff;stroke-width:0.6;" x="522.8" xlink:href="#m4572c57127" y="886.892812"/>
      </g>
     </g>
    </g>
    <g id="xtick_10">
     <g id="line2d_19">
      <path clip-path="url(#pfc376064cc)" d="M 701.36 886.892812 
L 701.36 17.132812 
" style="fill:none;stroke:#808080;stroke-dasharray:2.96,1.28;stroke-dashoffset:0;stroke-width:0.8;"/>
     </g>
     <g id="line2d_20">
      <g>
       <use style="fill:#ffffff;stroke:#ffffff;stroke-width:0.6;" x="701.36" xlink:href="#m4572c57127" y="886.892812"/>
      </g>
     </g>
    </g>
    <g id="xtick_11">
     <g id="line2d_21">
      <path clip-path="url(#pfc376064cc)" d="M 879.92 886.892812 
L 879.92 17.132812 
" style="fill:none;stroke:#808080;stroke-dasharray:2.96,1.28;stroke-dashoffset:0;stroke-width:0.8;"/>
     </g>
     <g id="line2d_22">
      <g>
       <use style="fill:#ffffff;stroke:#ffffff;stroke-width:0.6;" x="879.92" xlink:href="#m4572c57127" y="886.892812"/>
      </g>
     </g>
    </g>
    <g id="text_7">
     <!-- $t[ms]$ -->
     <g style="fill:#ffffff;" transform="translate(477.35 944.758437)scale(0.3 -0.3)">
      <defs>
       <path d="M 2303 4494 
L 2113 3500 
L 3256 3500 
L 3097 2700 
L 1953 2700 
L 1666 1219 
Q 1653 1169 1648 1134 
Q 1644 1100 1644 1069 
Q 1644 925 1739 862 
Q 1834 800 2059 800 
L 2638 800 
L 2478 0 
L 1538 0 
Q 1031 0 765 212 
Q 500 425 500 825 
Q 500 913 509 1013 
Q 519 1113 538 1216 
L 825 2700 
L 275 2700 
L 428 3500 
L 984 3500 
L 1178 4494 
L 2303 4494 
z
" id="DejaVuSans-BoldOblique-74" transform="scale(0.015625)"/>
       <path d="M 550 4863 
L 2491 4863 
L 2491 4159 
L 1613 4159 
L 1613 -141 
L 2491 -141 
L 2491 -844 
L 550 -844 
L 550 4863 
z
" id="DejaVuSans-Bold-5b" transform="scale(0.015625)"/>
       <path d="M 4013 2919 
Q 4272 3241 4601 3412 
Q 4931 3584 5288 3584 
Q 5756 3584 6026 3326 
Q 6297 3069 6297 2619 
Q 6297 2525 6283 2404 
Q 6269 2284 6241 2131 
L 5825 0 
L 4697 0 
L 5050 1825 
L 5059 1872 
Q 5141 2259 5141 2369 
Q 5141 2541 5042 2641 
Q 4944 2741 4775 2741 
Q 4453 2741 4229 2477 
Q 4006 2213 3909 1722 
L 3572 0 
L 2444 0 
L 2803 1825 
Q 2850 2059 2869 2179 
Q 2888 2300 2888 2369 
Q 2888 2544 2791 2642 
Q 2694 2741 2522 2741 
Q 2213 2741 1980 2467 
Q 1747 2194 1656 1722 
L 1319 0 
L 197 0 
L 878 3500 
L 2003 3500 
L 1900 2988 
Q 2163 3284 2459 3434 
Q 2756 3584 3078 3584 
Q 3441 3584 3700 3398 
Q 3959 3213 4013 2919 
z
" id="DejaVuSans-BoldOblique-6d" transform="scale(0.015625)"/>
       <path d="M 3584 3391 
L 3419 2522 
Q 3091 2678 2766 2759 
Q 2441 2841 2150 2841 
Q 1819 2841 1639 2755 
Q 1459 2669 1459 2509 
Q 1459 2416 1559 2359 
Q 1659 2303 1953 2241 
L 2156 2203 
Q 2834 2059 3106 1832 
Q 3378 1606 3378 1203 
Q 3378 594 2900 251 
Q 2422 -91 1563 -91 
Q 1203 -91 828 -34 
Q 453 22 63 134 
L 231 1013 
Q 534 834 879 743 
Q 1225 653 1588 653 
Q 1941 653 2119 737 
Q 2297 822 2297 984 
Q 2297 1097 2197 1159 
Q 2097 1222 1784 1288 
L 1581 1325 
Q 981 1450 725 1694 
Q 469 1938 469 2369 
Q 469 2953 911 3268 
Q 1353 3584 2175 3584 
Q 2534 3584 2882 3536 
Q 3231 3488 3584 3391 
z
" id="DejaVuSans-BoldOblique-73" transform="scale(0.015625)"/>
       <path d="M 2375 -844 
L 434 -844 
L 434 -141 
L 1313 -141 
L 1313 4159 
L 434 4159 
L 434 4863 
L 2375 4863 
L 2375 -844 
z
" id="DejaVuSans-Bold-5d" transform="scale(0.015625)"/>
      </defs>
      <use transform="translate(0 0.015625)" xlink:href="#DejaVuSans-BoldOblique-74"/>
      <use transform="translate(47.802734 0.015625)" xlink:href="#DejaVuSans-Bold-5b"/>
      <use transform="translate(93.505859 0.015625)" xlink:href="#DejaVuSans-BoldOblique-6d"/>
      <use transform="translate(197.705078 0.015625)" xlink:href="#DejaVuSans-BoldOblique-73"/>
      <use transform="translate(257.226562 0.015625)" xlink:href="#DejaVuSans-Bold-5d"/>
     </g>
    </g>
   </g>
   <g id="matplotlib.axis_2">
    <g id="ytick_1">
     <g id="line2d_23">
      <path clip-path="url(#pfc376064cc)" d="M 76.4 886.892812 
L 969.2 886.892812 
" style="fill:none;stroke:#808080;stroke-dasharray:2.96,1.28;stroke-dashoffset:0;stroke-width:0.8;"/>
     </g>
     <g id="line2d_24">
      <defs>
       <path d="M 0 0 
L -3.5 0 
" id="mef430b66f5" style="stroke:#ffffff;stroke-width:2;"/>
      </defs>
      <g>
       <use style="fill:#ffffff;stroke:#ffffff;stroke-width:2;" x="76.4" xlink:href="#mef430b66f5" y="886.892812"/>
      </g>
     </g>
     <g id="text_8">
      <!-- 0 -->
      <g style="fill:#ffffff;" transform="translate(54.4 896.825625)scale(0.3 -0.3)">
       <use xlink:href="#TimesNewRomanPS-BoldMT-30"/>
      </g>
     </g>
    </g>
    <g id="ytick_2">
     <g id="line2d_25">
      <path clip-path="url(#pfc376064cc)" d="M 76.4 712.940812 
L 969.2 712.940812 
" style="fill:none;stroke:#808080;stroke-dasharray:2.96,1.28;stroke-dashoffset:0;stroke-width:0.8;"/>
     </g>
     <g id="line2d_26">
      <g>
       <use style="fill:#ffffff;stroke:#ffffff;stroke-width:2;" x="76.4" xlink:href="#mef430b66f5" y="712.940812"/>
      </g>
     </g>
     <g id="text_9">
      <!-- 5 -->
      <g style="fill:#ffffff;" transform="translate(54.4 722.873625)scale(0.3 -0.3)">
       <defs>
        <path d="M 975 4238 
L 2959 4238 
L 2644 3431 
L 975 3431 
L 816 3009 
Q 1894 2969 2475 2472 
Q 2953 2063 2953 1453 
Q 2953 1063 2731 689 
Q 2509 316 2106 114 
Q 1703 -88 1222 -88 
Q 703 -88 425 106 
Q 231 244 231 419 
Q 231 553 332 656 
Q 434 759 569 759 
Q 691 759 816 709 
Q 941 659 1244 447 
Q 1434 316 1572 266 
Q 1669 228 1791 228 
Q 2047 228 2226 415 
Q 2406 603 2406 866 
Q 2406 1416 1856 1759 
Q 1306 2103 469 2103 
Q 384 2103 216 2100 
L 975 4238 
z
" id="TimesNewRomanPS-BoldMT-35" transform="scale(0.015625)"/>
       </defs>
       <use xlink:href="#TimesNewRomanPS-BoldMT-35"/>
      </g>
     </g>
    </g>
    <g id="ytick_3">
     <g id="line2d_27">
      <path clip-path="url(#pfc376064cc)" d="M 76.4 538.988812 
L 969.2 538.988812 
" style="fill:none;stroke:#808080;stroke-dasharray:2.96,1.28;stroke-dashoffset:0;stroke-width:0.8;"/>
     </g>
     <g id="line2d_28">
      <g>
       <use style="fill:#ffffff;stroke:#ffffff;stroke-width:2;" x="76.4" xlink:href="#mef430b66f5" y="538.988812"/>
      </g>
     </g>
     <g id="text_10">
      <!-- 10 -->
      <g style="fill:#ffffff;" transform="translate(39.4 548.921625)scale(0.3 -0.3)">
       <use xlink:href="#TimesNewRomanPS-BoldMT-31"/>
       <use x="50" xlink:href="#TimesNewRomanPS-BoldMT-30"/>
      </g>
     </g>
    </g>
    <g id="ytick_4">
     <g id="line2d_29">
      <path clip-path="url(#pfc376064cc)" d="M 76.4 365.036812 
L 969.2 365.036812 
" style="fill:none;stroke:#808080;stroke-dasharray:2.96,1.28;stroke-dashoffset:0;stroke-width:0.8;"/>
     </g>
     <g id="line2d_30">
      <g>
       <use style="fill:#ffffff;stroke:#ffffff;stroke-width:2;" x="76.4" xlink:href="#mef430b66f5" y="365.036812"/>
      </g>
     </g>
     <g id="text_11">
      <!-- 15 -->
      <g style="fill:#ffffff;" transform="translate(39.4 374.969625)scale(0.3 -0.3)">
       <use xlink:href="#TimesNewRomanPS-BoldMT-31"/>
       <use x="50" xlink:href="#TimesNewRomanPS-BoldMT-35"/>
      </g>
     </g>
    </g>
    <g id="ytick_5">
     <g id="line2d_31">
      <path clip-path="url(#pfc376064cc)" d="M 76.4 191.084812 
L 969.2 191.084812 
" style="fill:none;stroke:#808080;stroke-dasharray:2.96,1.28;stroke-dashoffset:0;stroke-width:0.8;"/>
     </g>
     <g id="line2d_32">
      <g>
       <use style="fill:#ffffff;stroke:#ffffff;stroke-width:2;" x="76.4" xlink:href="#mef430b66f5" y="191.084812"/>
      </g>
     </g>
     <g id="text_12">
      <!-- 20 -->
      <g style="fill:#ffffff;" transform="translate(39.4 201.017625)scale(0.3 -0.3)">
       <use xlink:href="#TimesNewRomanPS-BoldMT-32"/>
       <use x="50" xlink:href="#TimesNewRomanPS-BoldMT-30"/>
      </g>
     </g>
    </g>
    <g id="ytick_6">
     <g id="line2d_33">
      <path clip-path="url(#pfc376064cc)" d="M 76.4 17.132812 
L 969.2 17.132812 
" style="fill:none;stroke:#808080;stroke-dasharray:2.96,1.28;stroke-dashoffset:0;stroke-width:0.8;"/>
     </g>
     <g id="line2d_34">
      <g>
       <use style="fill:#ffffff;stroke:#ffffff;stroke-width:2;" x="76.4" xlink:href="#mef430b66f5" y="17.132812"/>
      </g>
     </g>
     <g id="text_13">
      <!-- 25 -->
      <g style="fill:#ffffff;" transform="translate(39.4 27.065625)scale(0.3 -0.3)">
       <use xlink:href="#TimesNewRomanPS-BoldMT-32"/>
       <use x="50" xlink:href="#TimesNewRomanPS-BoldMT-35"/>
      </g>
     </g>
    </g>
    <g id="ytick_7">
     <g id="line2d_35">
      <path clip-path="url(#pfc376064cc)" d="M 76.4 852.102412 
L 969.2 852.102412 
" style="fill:none;stroke:#808080;stroke-dasharray:2.96,1.28;stroke-dashoffset:0;stroke-width:0.8;"/>
     </g>
     <g id="line2d_36">
      <defs>
       <path d="M 0 0 
L -2 0 
" id="m226645943c" style="stroke:#ffffff;stroke-width:0.6;"/>
      </defs>
      <g>
       <use style="fill:#ffffff;stroke:#ffffff;stroke-width:0.6;" x="76.4" xlink:href="#m226645943c" y="852.102412"/>
      </g>
     </g>
    </g>
    <g id="ytick_8">
     <g id="line2d_37">
      <path clip-path="url(#pfc376064cc)" d="M 76.4 817.312012 
L 969.2 817.312012 
" style="fill:none;stroke:#808080;stroke-dasharray:2.96,1.28;stroke-dashoffset:0;stroke-width:0.8;"/>
     </g>
     <g id="line2d_38">
      <g>
       <use style="fill:#ffffff;stroke:#ffffff;stroke-width:0.6;" x="76.4" xlink:href="#m226645943c" y="817.312012"/>
      </g>
     </g>
    </g>
    <g id="ytick_9">
     <g id="line2d_39">
      <path clip-path="url(#pfc376064cc)" d="M 76.4 782.521612 
L 969.2 782.521612 
" style="fill:none;stroke:#808080;stroke-dasharray:2.96,1.28;stroke-dashoffset:0;stroke-width:0.8;"/>
     </g>
     <g id="line2d_40">
      <g>
       <use style="fill:#ffffff;stroke:#ffffff;stroke-width:0.6;" x="76.4" xlink:href="#m226645943c" y="782.521612"/>
      </g>
     </g>
    </g>
    <g id="ytick_10">
     <g id="line2d_41">
      <path clip-path="url(#pfc376064cc)" d="M 76.4 747.731212 
L 969.2 747.731212 
" style="fill:none;stroke:#808080;stroke-dasharray:2.96,1.28;stroke-dashoffset:0;stroke-width:0.8;"/>
     </g>
     <g id="line2d_42">
      <g>
       <use style="fill:#ffffff;stroke:#ffffff;stroke-width:0.6;" x="76.4" xlink:href="#m226645943c" y="747.731212"/>
      </g>
     </g>
    </g>
    <g id="ytick_11">
     <g id="line2d_43">
      <path clip-path="url(#pfc376064cc)" d="M 76.4 678.150412 
L 969.2 678.150412 
" style="fill:none;stroke:#808080;stroke-dasharray:2.96,1.28;stroke-dashoffset:0;stroke-width:0.8;"/>
     </g>
     <g id="line2d_44">
      <g>
       <use style="fill:#ffffff;stroke:#ffffff;stroke-width:0.6;" x="76.4" xlink:href="#m226645943c" y="678.150412"/>
      </g>
     </g>
    </g>
    <g id="ytick_12">
     <g id="line2d_45">
      <path clip-path="url(#pfc376064cc)" d="M 76.4 643.360012 
L 969.2 643.360012 
" style="fill:none;stroke:#808080;stroke-dasharray:2.96,1.28;stroke-dashoffset:0;stroke-width:0.8;"/>
     </g>
     <g id="line2d_46">
      <g>
       <use style="fill:#ffffff;stroke:#ffffff;stroke-width:0.6;" x="76.4" xlink:href="#m226645943c" y="643.360012"/>
      </g>
     </g>
    </g>
    <g id="ytick_13">
     <g id="line2d_47">
      <path clip-path="url(#pfc376064cc)" d="M 76.4 608.569612 
L 969.2 608.569612 
" style="fill:none;stroke:#808080;stroke-dasharray:2.96,1.28;stroke-dashoffset:0;stroke-width:0.8;"/>
     </g>
     <g id="line2d_48">
      <g>
       <use style="fill:#ffffff;stroke:#ffffff;stroke-width:0.6;" x="76.4" xlink:href="#m226645943c" y="608.569612"/>
      </g>
     </g>
    </g>
    <g id="ytick_14">
     <g id="line2d_49">
      <path clip-path="url(#pfc376064cc)" d="M 76.4 573.779212 
L 969.2 573.779212 
" style="fill:none;stroke:#808080;stroke-dasharray:2.96,1.28;stroke-dashoffset:0;stroke-width:0.8;"/>
     </g>
     <g id="line2d_50">
      <g>
       <use style="fill:#ffffff;stroke:#ffffff;stroke-width:0.6;" x="76.4" xlink:href="#m226645943c" y="573.779212"/>
      </g>
     </g>
    </g>
    <g id="ytick_15">
     <g id="line2d_51">
      <path clip-path="url(#pfc376064cc)" d="M 76.4 504.198412 
L 969.2 504.198412 
" style="fill:none;stroke:#808080;stroke-dasharray:2.96,1.28;stroke-dashoffset:0;stroke-width:0.8;"/>
     </g>
     <g id="line2d_52">
      <g>
       <use style="fill:#ffffff;stroke:#ffffff;stroke-width:0.6;" x="76.4" xlink:href="#m226645943c" y="504.198412"/>
      </g>
     </g>
    </g>
    <g id="ytick_16">
     <g id="line2d_53">
      <path clip-path="url(#pfc376064cc)" d="M 76.4 469.408012 
L 969.2 469.408012 
" style="fill:none;stroke:#808080;stroke-dasharray:2.96,1.28;stroke-dashoffset:0;stroke-width:0.8;"/>
     </g>
     <g id="line2d_54">
      <g>
       <use style="fill:#ffffff;stroke:#ffffff;stroke-width:0.6;" x="76.4" xlink:href="#m226645943c" y="469.408012"/>
      </g>
     </g>
    </g>
    <g id="ytick_17">
     <g id="line2d_55">
      <path clip-path="url(#pfc376064cc)" d="M 76.4 434.617612 
L 969.2 434.617612 
" style="fill:none;stroke:#808080;stroke-dasharray:2.96,1.28;stroke-dashoffset:0;stroke-width:0.8;"/>
     </g>
     <g id="line2d_56">
      <g>
       <use style="fill:#ffffff;stroke:#ffffff;stroke-width:0.6;" x="76.4" xlink:href="#m226645943c" y="434.617612"/>
      </g>
     </g>
    </g>
    <g id="ytick_18">
     <g id="line2d_57">
      <path clip-path="url(#pfc376064cc)" d="M 76.4 399.827212 
L 969.2 399.827212 
" style="fill:none;stroke:#808080;stroke-dasharray:2.96,1.28;stroke-dashoffset:0;stroke-width:0.8;"/>
     </g>
     <g id="line2d_58">
      <g>
       <use style="fill:#ffffff;stroke:#ffffff;stroke-width:0.6;" x="76.4" xlink:href="#m226645943c" y="399.827212"/>
      </g>
     </g>
    </g>
    <g id="ytick_19">
     <g id="line2d_59">
      <path clip-path="url(#pfc376064cc)" d="M 76.4 330.246412 
L 969.2 330.246412 
" style="fill:none;stroke:#808080;stroke-dasharray:2.96,1.28;stroke-dashoffset:0;stroke-width:0.8;"/>
     </g>
     <g id="line2d_60">
      <g>
       <use style="fill:#ffffff;stroke:#ffffff;stroke-width:0.6;" x="76.4" xlink:href="#m226645943c" y="330.246412"/>
      </g>
     </g>
    </g>
    <g id="ytick_20">
     <g id="line2d_61">
      <path clip-path="url(#pfc376064cc)" d="M 76.4 295.456012 
L 969.2 295.456012 
" style="fill:none;stroke:#808080;stroke-dasharray:2.96,1.28;stroke-dashoffset:0;stroke-width:0.8;"/>
     </g>
     <g id="line2d_62">
      <g>
       <use style="fill:#ffffff;stroke:#ffffff;stroke-width:0.6;" x="76.4" xlink:href="#m226645943c" y="295.456012"/>
      </g>
     </g>
    </g>
    <g id="ytick_21">
     <g id="line2d_63">
      <path clip-path="url(#pfc376064cc)" d="M 76.4 260.665612 
L 969.2 260.665612 
" style="fill:none;stroke:#808080;stroke-dasharray:2.96,1.28;stroke-dashoffset:0;stroke-width:0.8;"/>
     </g>
     <g id="line2d_64">
      <g>
       <use style="fill:#ffffff;stroke:#ffffff;stroke-width:0.6;" x="76.4" xlink:href="#m226645943c" y="260.665612"/>
      </g>
     </g>
    </g>
    <g id="ytick_22">
     <g id="line2d_65">
      <path clip-path="url(#pfc376064cc)" d="M 76.4 225.875212 
L 969.2 225.875212 
" style="fill:none;stroke:#808080;stroke-dasharray:2.96,1.28;stroke-dashoffset:0;stroke-width:0.8;"/>
     </g>
     <g id="line2d_66">
      <g>
       <use style="fill:#ffffff;stroke:#ffffff;stroke-width:0.6;" x="76.4" xlink:href="#m226645943c" y="225.875212"/>
      </g>
     </g>
    </g>
    <g id="ytick_23">
     <g id="line2d_67">
      <path clip-path="url(#pfc376064cc)" d="M 76.4 156.294412 
L 969.2 156.294412 
" style="fill:none;stroke:#808080;stroke-dasharray:2.96,1.28;stroke-dashoffset:0;stroke-width:0.8;"/>
     </g>
     <g id="line2d_68">
      <g>
       <use style="fill:#ffffff;stroke:#ffffff;stroke-width:0.6;" x="76.4" xlink:href="#m226645943c" y="156.294412"/>
      </g>
     </g>
    </g>
    <g id="ytick_24">
     <g id="line2d_69">
      <path clip-path="url(#pfc376064cc)" d="M 76.4 121.504012 
L 969.2 121.504012 
" style="fill:none;stroke:#808080;stroke-dasharray:2.96,1.28;stroke-dashoffset:0;stroke-width:0.8;"/>
     </g>
     <g id="line2d_70">
      <g>
       <use style="fill:#ffffff;stroke:#ffffff;stroke-width:0.6;" x="76.4" xlink:href="#m226645943c" y="121.504012"/>
      </g>
     </g>
    </g>
    <g id="ytick_25">
     <g id="line2d_71">
      <path clip-path="url(#pfc376064cc)" d="M 76.4 86.713612 
L 969.2 86.713612 
" style="fill:none;stroke:#808080;stroke-dasharray:2.96,1.28;stroke-dashoffset:0;stroke-width:0.8;"/>
     </g>
     <g id="line2d_72">
      <g>
       <use style="fill:#ffffff;stroke:#ffffff;stroke-width:0.6;" x="76.4" xlink:href="#m226645943c" y="86.713612"/>
      </g>
     </g>
    </g>
    <g id="ytick_26">
     <g id="line2d_73">
      <path clip-path="url(#pfc376064cc)" d="M 76.4 51.923212 
L 969.2 51.923212 
" style="fill:none;stroke:#808080;stroke-dasharray:2.96,1.28;stroke-dashoffset:0;stroke-width:0.8;"/>
     </g>
     <g id="line2d_74">
      <g>
       <use style="fill:#ffffff;stroke:#ffffff;stroke-width:0.6;" x="76.4" xlink:href="#m226645943c" y="51.923212"/>
      </g>
     </g>
    </g>
    <g id="text_14">
     <!-- $V_o[V]$ -->
     <g style="fill:#ffffff;" transform="translate(28.982813 496.712812)rotate(-90)scale(0.3 -0.3)">
      <defs>
       <path d="M 488 4666 
L 1631 4666 
L 2203 1178 
L 4134 4666 
L 5375 4666 
L 2741 0 
L 1306 0 
L 488 4666 
z
" id="DejaVuSans-BoldOblique-56" transform="scale(0.015625)"/>
       <path d="M 2400 2784 
Q 1966 2784 1684 2390 
Q 1403 1997 1403 1388 
Q 1403 1056 1554 882 
Q 1706 709 1997 709 
Q 2431 709 2712 1104 
Q 2994 1500 2994 2113 
Q 2994 2441 2842 2612 
Q 2691 2784 2400 2784 
z
M 2491 3584 
Q 3272 3584 3719 3187 
Q 4166 2791 4166 2106 
Q 4166 1709 4025 1336 
Q 3884 963 3616 653 
Q 3297 284 2862 96 
Q 2428 -91 1894 -91 
Q 1122 -91 676 306 
Q 231 703 231 1388 
Q 231 1781 375 2157 
Q 519 2534 788 2847 
Q 1100 3209 1533 3396 
Q 1966 3584 2491 3584 
z
" id="DejaVuSans-BoldOblique-6f" transform="scale(0.015625)"/>
      </defs>
      <use transform="translate(0 0.015625)" xlink:href="#DejaVuSans-BoldOblique-56"/>
      <use transform="translate(77.392578 -16.390625)scale(0.7)" xlink:href="#DejaVuSans-BoldOblique-6f"/>
      <use transform="translate(128.217773 0.015625)" xlink:href="#DejaVuSans-Bold-5b"/>
      <use transform="translate(173.920898 0.015625)" xlink:href="#DejaVuSans-BoldOblique-56"/>
      <use transform="translate(251.313477 0.015625)" xlink:href="#DejaVuSans-Bold-5d"/>
     </g>
    </g>
   </g>
   <g id="line2d_75">
    <path clip-path="url(#pfc376064cc)" d="M 70.226051 512.269089 
L 84.510851 337.35757 
L 92.624374 238.252245 
L 95.806038 221.227563 
L 99.370871 212.550141 
L 103.507673 206.844516 
L 106.458644 204.192444 
L 110.087111 202.302629 
L 114.157672 202.558339 
L 118.712279 206.746059 
L 124.375986 217.910298 
L 130.491391 237.246107 
L 137.633791 268.621133 
L 144.776191 308.147898 
L 159.060991 405.905095 
L 180.488191 564.400764 
L 187.630591 609.228021 
L 194.772991 645.074866 
L 201.915391 669.116146 
L 209.057791 678.867825 
L 216.200191 672.355132 
L 223.342591 648.265911 
L 230.484991 606.088187 
L 237.627391 546.246333 
L 244.769791 470.323 
L 265.350995 225.749967 
L 269.396664 213.926102 
L 272.74319 208.597256 
L 278.046784 203.571783 
L 281.598571 202.070925 
L 285.501808 202.97304 
L 291.051197 209.598872 
L 297.549303 224.895863 
L 304.073589 248.598214 
L 311.215989 283.392789 
L 318.358389 325.904918 
L 332.643189 427.258747 
L 354.070389 583.322219 
L 361.212789 624.968729 
L 368.355189 656.476202 
L 375.497589 675.132206 
L 382.639989 678.633234 
L 389.782389 665.248567 
L 396.924789 633.967092 
L 404.067189 584.630617 
L 411.209589 518.083261 
L 425.494389 345.1374 
L 435.101179 232.387627 
L 438.667968 217.555784 
L 442.583384 209.948167 
L 447.255719 204.799884 
L 450.985529 202.500934 
L 454.606058 202.321068 
L 460.159061 207.275569 
L 467.301461 222.064968 
L 473.899391 244.493295 
L 481.041791 278.043417 
L 488.184191 319.552191 
L 502.468991 419.765591 
L 523.896191 576.917724 
L 531.038591 619.760049 
L 538.180991 652.863358 
L 545.323391 673.470999 
L 552.465791 679.211554 
L 559.608191 668.264512 
L 566.750591 639.509655 
L 573.892991 592.661354 
L 581.035391 528.412183 
L 595.320191 357.978884 
L 605.944293 233.969895 
L 609.146532 218.611673 
L 612.943846 210.670068 
L 617.778468 205.096298 
L 620.698016 203.070105 
L 625.179243 202.227134 
L 629.433312 205.097342 
L 636.575712 218.263073 
L 643.718112 240.731409 
L 650.860512 272.823466 
L 658.002912 313.276003 
L 672.287712 412.222684 
L 693.714912 570.257067 
L 700.857312 614.234011 
L 707.999712 648.88184 
L 715.142112 671.403232 
L 722.284512 679.362232 
L 729.426912 670.851491 
L 736.569312 644.643778 
L 743.711712 600.327906 
L 750.854112 538.447822 
L 757.996512 460.746942 
L 775.363739 244.624455 
L 780.012264 217.814973 
L 783.856415 210.331905 
L 789.670708 204.217841 
L 794.458351 202.345769 
L 799.136095 204.389705 
L 806.278495 215.910198 
L 813.420895 236.940647 
L 820.563295 267.745111 
L 827.705695 307.120886 
L 841.990495 404.761883 
L 863.417695 563.61464 
L 870.560095 608.702407 
L 877.702495 644.870646 
L 884.844895 669.282896 
L 891.987295 679.439501 
L 899.129695 673.346624 
L 906.272095 649.671095 
L 913.414495 607.877527 
L 920.556895 548.364895 
L 927.699295 472.684224 
L 946.683966 243.560217 
L 952.73239 213.3371 
L 956.173831 208.153331 
L 958.927221 205.445594 
L 963.754194 202.65436 
L 968.464321 203.530034 
L 975.606721 212.989892 
L 975.606721 212.989892 
" style="fill:none;stroke:#08f7fe;stroke-linecap:square;stroke-width:3;"/>
   </g>
   <g id="line2d_76">
    <path clip-path="url(#pfc376064cc)" d="M 73.2752 476.96388 
L 83.9888 351.71844 
L 89.3456 284.920872 
L 94.7024 234.822696 
L 100.0592 220.906536 
L 103.6304 215.340072 
L 105.416 215.340072 
L 107.2016 212.55684 
L 110.7728 212.55684 
L 112.5584 215.340072 
L 114.344 215.340072 
L 125.0576 248.738856 
L 141.128 354.501672 
L 155.4128 471.397416 
L 162.5552 529.845288 
L 171.4832 593.859624 
L 180.4112 643.9578 
L 183.9824 657.87396 
L 187.5536 666.223656 
L 192.9104 674.573352 
L 198.2672 674.573352 
L 200.0528 671.79012 
L 208.9808 641.174568 
L 219.6944 568.810536 
L 228.6224 476.96388 
L 239.336 351.71844 
L 248.264 248.738856 
L 250.0496 234.822696 
L 255.4064 220.906536 
L 257.192 218.123304 
L 258.9776 218.123304 
L 260.7632 212.55684 
L 267.9056 212.55684 
L 271.4768 218.123304 
L 278.6192 243.172392 
L 285.7616 279.354408 
L 294.6896 340.585512 
L 310.76 471.397416 
L 317.9024 529.845288 
L 326.8304 593.859624 
L 333.9728 632.824872 
L 339.3296 655.090728 
L 344.6864 669.006888 
L 348.2576 674.573352 
L 351.8288 674.573352 
L 353.6144 671.79012 
L 355.4 671.79012 
L 364.328 641.174568 
L 367.8992 621.691944 
L 373.256 582.726696 
L 378.6128 535.411752 
L 383.9696 476.96388 
L 394.6832 351.71844 
L 403.6112 248.738856 
L 407.1824 226.473 
L 416.1104 212.55684 
L 421.4672 212.55684 
L 423.2528 215.340072 
L 425.0384 215.340072 
L 437.5376 257.088552 
L 450.0368 337.80228 
L 457.1792 396.250152 
L 473.2496 527.062056 
L 478.6064 568.810536 
L 483.9632 604.992552 
L 489.32 632.824872 
L 492.8912 649.524264 
L 500.0336 669.006888 
L 501.8192 671.79012 
L 505.3904 671.79012 
L 507.176 674.573352 
L 512.5328 666.223656 
L 519.6752 641.174568 
L 530.3888 568.810536 
L 539.3168 479.747112 
L 557.1728 268.22148 
L 560.744 234.822696 
L 566.1008 220.906536 
L 569.672 215.340072 
L 571.4576 215.340072 
L 573.2432 212.55684 
L 578.6 212.55684 
L 582.1712 218.123304 
L 589.3136 240.38916 
L 608.9552 365.6346 
L 617.8832 440.781864 
L 641.096 616.12548 
L 651.8096 663.440424 
L 655.3808 669.006888 
L 657.1664 674.573352 
L 660.7376 674.573352 
L 662.5232 677.356584 
L 666.0944 671.79012 
L 675.0224 641.174568 
L 680.3792 613.342248 
L 689.3072 538.194984 
L 705.3776 354.501672 
L 714.3056 251.522088 
L 717.8768 229.256232 
L 721.448 220.906536 
L 725.0192 215.340072 
L 726.8048 215.340072 
L 728.5904 212.55684 
L 733.9472 212.55684 
L 735.7328 215.340072 
L 746.4464 248.738856 
L 764.3024 365.6346 
L 776.8016 468.614184 
L 785.7296 543.761448 
L 803.5856 649.524264 
L 807.1568 663.440424 
L 808.9424 669.006888 
L 810.728 669.006888 
L 814.2992 677.356584 
L 817.8704 677.356584 
L 825.0128 666.223656 
L 835.7264 613.342248 
L 839.2976 588.29316 
L 851.7968 463.04772 
L 860.7248 357.284904 
L 869.6528 251.522088 
L 873.224 229.256232 
L 875.0096 226.473 
L 878.5808 218.123304 
L 880.3664 218.123304 
L 883.9376 212.55684 
L 889.2944 212.55684 
L 892.8656 218.123304 
L 901.7936 248.738856 
L 907.1504 276.571176 
L 916.0784 337.80228 
L 933.9344 482.530344 
L 942.8624 557.677608 
L 958.9328 652.307496 
L 960.7184 655.090728 
L 967.8608 674.573352 
L 969.6464 674.573352 
L 971.432 677.356584 
L 975.0032 677.356584 
L 976.7888 674.573352 
L 987.5024 638.391336 
L 992.4 605.788118 
L 992.4 605.788118 
" style="fill:none;stroke:#fe53bb;stroke-linecap:square;stroke-width:3;"/>
   </g>
   <g id="line2d_77">
    <path clip-path="url(#pfc376064cc)" d="M 76.4 886.892812 
L 969.2 886.892812 
" style="fill:none;stroke:#ffffff;stroke-linecap:square;stroke-width:4;"/>
   </g>
   <g id="line2d_78">
    <path clip-path="url(#pfc376064cc)" d="M 76.4 886.892812 
L 76.4 17.132812 
" style="fill:none;stroke:#ffffff;stroke-linecap:square;stroke-width:6;"/>
   </g>
   <g id="patch_3">
    <path d="M 76.4 886.892812 
L 76.4 17.132812 
" style="fill:none;stroke:#000000;stroke-linecap:square;stroke-linejoin:miter;stroke-width:0.8;"/>
   </g>
   <g id="patch_4">
    <path d="M 969.2 886.892812 
L 969.2 17.132812 
" style="fill:none;stroke:#000000;stroke-linecap:square;stroke-linejoin:miter;stroke-width:0.8;"/>
   </g>
   <g id="patch_5">
    <path d="M 76.4 886.892812 
L 969.2 886.892812 
" style="fill:none;stroke:#000000;stroke-linecap:square;stroke-linejoin:miter;stroke-width:0.8;"/>
   </g>
   <g id="patch_6">
    <path d="M 76.4 17.132812 
L 969.2 17.132812 
" style="fill:none;stroke:#000000;stroke-linecap:square;stroke-linejoin:miter;stroke-width:0.8;"/>
   </g>
   <g id="legend_1">
    <g id="patch_7">
     <path d="M 373 93.532812 
L 957.2 93.532812 
Q 961.2 93.532812 961.2 89.532812 
L 961.2 33.132812 
Q 961.2 29.132812 957.2 29.132812 
L 373 29.132812 
Q 369 29.132812 369 33.132812 
L 369 89.532812 
Q 369 93.532812 373 93.532812 
z
" style="fill:#363636;opacity:0.5;stroke:#363636;stroke-linejoin:miter;"/>
    </g>
    <g id="patch_8">
     <path d="M 371 91.532812 
L 955.2 91.532812 
Q 959.2 91.532812 959.2 87.532812 
L 959.2 31.132812 
Q 959.2 27.132812 955.2 27.132812 
L 371 27.132812 
Q 367 27.132812 367 31.132812 
L 367 87.532812 
Q 367 91.532812 371 91.532812 
z
" style="fill:#b2b2b2;stroke:#cccccc;stroke-linejoin:miter;"/>
    </g>
    <g id="line2d_79">
     <path d="M 375 43.054687 
L 415 43.054687 
" style="fill:none;stroke:#08f7fe;stroke-linecap:square;stroke-width:3;"/>
    </g>
    <g id="line2d_80"/>
    <g id="text_15">
     <!-- $Señal\ V_o\ simulada\ con\ LTSPice,\ Frec.=524Hz$ -->
     <g transform="translate(431 50.054687)scale(0.2 -0.2)">
      <defs>
       <path d="M 4256 4519 
L 4063 3531 
Q 3709 3706 3365 3792 
Q 3022 3878 2694 3878 
Q 2244 3878 1992 3737 
Q 1741 3597 1741 3347 
Q 1741 3188 1852 3098 
Q 1963 3009 2309 2925 
L 2803 2803 
Q 3422 2647 3711 2351 
Q 4000 2056 4000 1588 
Q 4000 828 3423 368 
Q 2847 -91 1875 -91 
Q 1422 -91 973 -6 
Q 525 78 97 244 
L 288 1259 
Q 703 1019 1095 900 
Q 1488 781 1869 781 
Q 2281 781 2539 950 
Q 2797 1119 2797 1381 
Q 2797 1553 2681 1648 
Q 2566 1744 2175 1844 
L 1684 1966 
Q 1141 2100 875 2390 
Q 609 2681 609 3144 
Q 609 3872 1167 4311 
Q 1725 4750 2669 4750 
Q 3047 4750 3445 4692 
Q 3844 4634 4256 4519 
z
" id="DejaVuSans-BoldOblique-53" transform="scale(0.015625)"/>
       <path d="M 4025 1619 
L 3988 1441 
L 1369 1441 
Q 1369 1422 1366 1386 
Q 1363 1350 1363 1331 
Q 1363 991 1567 822 
Q 1772 653 2181 653 
Q 2534 653 2926 759 
Q 3319 866 3750 1075 
L 3578 206 
Q 3169 56 2764 -17 
Q 2359 -91 1941 -91 
Q 1122 -91 676 287 
Q 231 666 231 1356 
Q 231 1756 373 2132 
Q 516 2509 788 2822 
Q 1109 3197 1557 3390 
Q 2006 3584 2553 3584 
Q 3263 3584 3680 3206 
Q 4097 2828 4097 2188 
Q 4097 2063 4080 1923 
Q 4063 1784 4025 1619 
z
M 2969 2131 
Q 2978 2172 2983 2214 
Q 2988 2256 2988 2297 
Q 2988 2547 2838 2694 
Q 2688 2841 2431 2841 
Q 2103 2841 1873 2661 
Q 1644 2481 1522 2131 
L 2969 2131 
z
" id="DejaVuSans-BoldOblique-65" transform="scale(0.015625)"/>
       <path d="M 4128 2131 
L 3713 0 
L 2591 0 
L 2944 1825 
Q 2981 2003 3001 2126 
Q 3022 2250 3022 2322 
Q 3022 2522 2911 2631 
Q 2800 2741 2597 2741 
Q 2250 2741 2001 2470 
Q 1753 2200 1656 1722 
L 1319 0 
L 197 0 
L 878 3500 
L 2003 3500 
L 1900 2988 
Q 2209 3291 2521 3437 
Q 2834 3584 3175 3584 
Q 3659 3584 3921 3331 
Q 4184 3078 4184 2619 
Q 4184 2519 4170 2397 
Q 4156 2275 4128 2131 
z
M 2663 4263 
L 2509 4378 
Q 2500 4384 2478 4400 
Q 2359 4494 2266 4494 
Q 2159 4494 2078 4386 
Q 1997 4278 1966 4091 
L 1528 4091 
Q 1613 4519 1817 4748 
Q 2022 4978 2316 4978 
Q 2428 4978 2533 4936 
Q 2638 4894 2753 4800 
L 2919 4666 
Q 2975 4619 3028 4594 
Q 3081 4569 3128 4569 
Q 3247 4569 3328 4673 
Q 3409 4778 3444 4972 
L 3878 4972 
Q 3797 4547 3594 4315 
Q 3391 4084 3097 4084 
Q 2991 4084 2897 4120 
Q 2803 4156 2663 4263 
z
" id="DejaVuSans-BoldOblique-f1" transform="scale(0.015625)"/>
       <path d="M 2106 1575 
Q 1688 1575 1473 1445 
Q 1259 1316 1259 1063 
Q 1259 872 1386 762 
Q 1513 653 1734 653 
Q 2078 653 2309 861 
Q 2541 1069 2619 1447 
L 2644 1575 
L 2106 1575 
z
M 3853 1997 
L 3463 0 
L 2344 0 
L 2438 519 
Q 2163 206 1856 57 
Q 1550 -91 1191 -91 
Q 694 -91 401 167 
Q 109 425 109 863 
Q 109 1531 626 1886 
Q 1144 2241 2119 2241 
L 2778 2241 
L 2791 2328 
Q 2800 2372 2801 2390 
Q 2803 2409 2803 2425 
Q 2803 2631 2608 2736 
Q 2413 2841 2028 2841 
Q 1681 2841 1356 2769 
Q 1031 2697 728 2553 
L 897 3406 
Q 1247 3494 1614 3539 
Q 1981 3584 2375 3584 
Q 3153 3584 3531 3317 
Q 3909 3050 3909 2503 
Q 3909 2397 3895 2270 
Q 3881 2144 3853 1997 
z
" id="DejaVuSans-BoldOblique-61" transform="scale(0.015625)"/>
       <path d="M 1141 4863 
L 2266 4863 
L 1319 0 
L 197 0 
L 1141 4863 
z
" id="DejaVuSans-BoldOblique-6c" transform="scale(0.015625)"/>
       <path d="M 878 3500 
L 2003 3500 
L 1319 0 
L 197 0 
L 878 3500 
z
M 1141 4863 
L 2266 4863 
L 2088 3950 
L 959 3950 
L 1141 4863 
z
" id="DejaVuSans-BoldOblique-69" transform="scale(0.015625)"/>
       <path d="M 434 1363 
L 844 3500 
L 1966 3500 
L 1613 1678 
Q 1575 1500 1556 1375 
Q 1538 1250 1538 1178 
Q 1538 981 1647 872 
Q 1756 763 1959 763 
Q 2306 763 2556 1031 
Q 2806 1300 2900 1778 
L 3238 3500 
L 4359 3500 
L 3681 0 
L 2553 0 
L 2656 513 
Q 2369 209 2053 59 
Q 1738 -91 1388 -91 
Q 909 -91 646 162 
Q 384 416 384 878 
Q 384 988 396 1109 
Q 409 1231 434 1363 
z
" id="DejaVuSans-BoldOblique-75" transform="scale(0.015625)"/>
       <path d="M 1966 722 
Q 2397 722 2667 1119 
Q 2938 1516 2938 2156 
Q 2938 2447 2786 2609 
Q 2634 2772 2363 2772 
Q 1938 2772 1663 2380 
Q 1388 1988 1388 1375 
Q 1388 1056 1536 889 
Q 1684 722 1966 722 
z
M 3144 2988 
L 3506 4863 
L 4634 4863 
L 3688 0 
L 2559 0 
L 2663 506 
Q 2406 200 2125 54 
Q 1844 -91 1509 -91 
Q 919 -91 575 284 
Q 231 659 231 1306 
Q 231 1709 351 2090 
Q 472 2472 697 2784 
Q 981 3178 1339 3381 
Q 1697 3584 2106 3584 
Q 2466 3584 2717 3439 
Q 2969 3294 3144 2988 
z
" id="DejaVuSans-BoldOblique-64" transform="scale(0.015625)"/>
       <path d="M 3719 3391 
L 3541 2478 
Q 3316 2628 3097 2706 
Q 2878 2784 2669 2784 
Q 2122 2784 1775 2417 
Q 1428 2050 1428 1478 
Q 1428 1113 1643 911 
Q 1859 709 2253 709 
Q 2516 709 2769 787 
Q 3022 866 3250 1019 
L 3078 103 
Q 2800 6 2519 -42 
Q 2238 -91 1953 -91 
Q 1128 -91 683 279 
Q 238 650 238 1331 
Q 238 1759 402 2162 
Q 566 2566 872 2888 
Q 1213 3241 1653 3412 
Q 2094 3584 2669 3584 
Q 2934 3584 3196 3536 
Q 3459 3488 3719 3391 
z
" id="DejaVuSans-BoldOblique-63" transform="scale(0.015625)"/>
       <path d="M 4128 2131 
L 3713 0 
L 2591 0 
L 2944 1825 
Q 2981 2003 3001 2126 
Q 3022 2250 3022 2322 
Q 3022 2522 2911 2631 
Q 2800 2741 2597 2741 
Q 2250 2741 2001 2470 
Q 1753 2200 1656 1722 
L 1319 0 
L 197 0 
L 878 3500 
L 2003 3500 
L 1900 2988 
Q 2209 3291 2521 3437 
Q 2834 3584 3175 3584 
Q 3659 3584 3921 3331 
Q 4184 3078 4184 2619 
Q 4184 2519 4170 2397 
Q 4156 2275 4128 2131 
z
" id="DejaVuSans-BoldOblique-6e" transform="scale(0.015625)"/>
       <path d="M 1044 4666 
L 2247 4666 
L 1516 909 
L 3622 909 
L 3450 0 
L 134 0 
L 1044 4666 
z
" id="DejaVuSans-BoldOblique-4c" transform="scale(0.015625)"/>
       <path d="M 488 4666 
L 4788 4666 
L 4609 3756 
L 3059 3756 
L 2328 0 
L 1125 0 
L 1856 3756 
L 306 3756 
L 488 4666 
z
" id="DejaVuSans-BoldOblique-54" transform="scale(0.015625)"/>
       <path d="M 1044 4666 
L 3041 4666 
Q 3775 4666 4189 4330 
Q 4603 3994 4603 3397 
Q 4603 3031 4465 2701 
Q 4328 2372 4072 2125 
Q 3794 1859 3409 1739 
Q 3025 1619 2444 1619 
L 1650 1619 
L 1338 0 
L 134 0 
L 1044 4666 
z
M 2081 3794 
L 1825 2491 
L 2491 2491 
Q 2916 2491 3141 2691 
Q 3366 2891 3366 3272 
Q 3366 3525 3205 3659 
Q 3044 3794 2741 3794 
L 2081 3794 
z
" id="DejaVuSans-BoldOblique-50" transform="scale(0.015625)"/>
       <path d="M 653 1209 
L 1778 1209 
L 1778 256 
L 1006 -909 
L 341 -909 
L 653 256 
L 653 1209 
z
" id="DejaVuSans-Bold-2c" transform="scale(0.015625)"/>
       <path d="M 1044 4666 
L 4288 4666 
L 4109 3756 
L 2069 3756 
L 1900 2888 
L 3822 2888 
L 3641 1978 
L 1722 1978 
L 1338 0 
L 134 0 
L 1044 4666 
z
" id="DejaVuSans-BoldOblique-46" transform="scale(0.015625)"/>
       <path d="M 3291 2547 
Q 3175 2613 3034 2647 
Q 2894 2681 2731 2681 
Q 2303 2681 2020 2406 
Q 1738 2131 1638 1613 
L 1319 0 
L 197 0 
L 878 3500 
L 2003 3500 
L 1881 2900 
Q 2103 3231 2436 3407 
Q 2769 3584 3175 3584 
Q 3234 3584 3309 3578 
Q 3384 3572 3488 3559 
L 3291 2547 
z
" id="DejaVuSans-BoldOblique-72" transform="scale(0.015625)"/>
       <path d="M 653 1209 
L 1778 1209 
L 1778 0 
L 653 0 
L 653 1209 
z
" id="DejaVuSans-Bold-2e" transform="scale(0.015625)"/>
       <path d="M 678 3084 
L 4684 3084 
L 4684 2350 
L 678 2350 
L 678 3084 
z
M 678 1663 
L 4684 1663 
L 4684 922 
L 678 922 
L 678 1663 
z
" id="DejaVuSans-Bold-3d" transform="scale(0.015625)"/>
       <path d="M 678 4666 
L 3669 4666 
L 3669 3781 
L 1638 3781 
L 1638 3059 
Q 1775 3097 1914 3117 
Q 2053 3138 2203 3138 
Q 3056 3138 3531 2711 
Q 4006 2284 4006 1522 
Q 4006 766 3489 337 
Q 2972 -91 2053 -91 
Q 1656 -91 1267 -14 
Q 878 63 494 219 
L 494 1166 
Q 875 947 1217 837 
Q 1559 728 1863 728 
Q 2300 728 2551 942 
Q 2803 1156 2803 1522 
Q 2803 1891 2551 2103 
Q 2300 2316 1863 2316 
Q 1603 2316 1309 2248 
Q 1016 2181 678 2041 
L 678 4666 
z
" id="DejaVuSans-Bold-35" transform="scale(0.015625)"/>
       <path d="M 1844 884 
L 3897 884 
L 3897 0 
L 506 0 
L 506 884 
L 2209 2388 
Q 2438 2594 2547 2791 
Q 2656 2988 2656 3200 
Q 2656 3528 2436 3728 
Q 2216 3928 1850 3928 
Q 1569 3928 1234 3808 
Q 900 3688 519 3450 
L 519 4475 
Q 925 4609 1322 4679 
Q 1719 4750 2100 4750 
Q 2938 4750 3402 4381 
Q 3866 4013 3866 3353 
Q 3866 2972 3669 2642 
Q 3472 2313 2841 1759 
L 1844 884 
z
" id="DejaVuSans-Bold-32" transform="scale(0.015625)"/>
       <path d="M 2356 3675 
L 1038 1722 
L 2356 1722 
L 2356 3675 
z
M 2156 4666 
L 3494 4666 
L 3494 1722 
L 4159 1722 
L 4159 850 
L 3494 850 
L 3494 0 
L 2356 0 
L 2356 850 
L 288 850 
L 288 1881 
L 2156 4666 
z
" id="DejaVuSans-Bold-34" transform="scale(0.015625)"/>
       <path d="M 1044 4666 
L 2247 4666 
L 1900 2888 
L 3675 2888 
L 4019 4666 
L 5222 4666 
L 4313 0 
L 3109 0 
L 3494 1978 
L 1722 1978 
L 1338 0 
L 134 0 
L 1044 4666 
z
" id="DejaVuSans-BoldOblique-48" transform="scale(0.015625)"/>
       <path d="M 697 3500 
L 3750 3500 
L 3597 2719 
L 1416 800 
L 3225 800 
L 3072 0 
L -56 0 
L 91 781 
L 2278 2700 
L 544 2700 
L 697 3500 
z
" id="DejaVuSans-BoldOblique-7a" transform="scale(0.015625)"/>
      </defs>
      <use transform="translate(0 0.21875)" xlink:href="#DejaVuSans-BoldOblique-53"/>
      <use transform="translate(72.021484 0.21875)" xlink:href="#DejaVuSans-BoldOblique-65"/>
      <use transform="translate(139.84375 0.21875)" xlink:href="#DejaVuSans-BoldOblique-f1"/>
      <use transform="translate(211.035156 0.21875)" xlink:href="#DejaVuSans-BoldOblique-61"/>
      <use transform="translate(278.515625 0.21875)" xlink:href="#DejaVuSans-BoldOblique-6c"/>
      <use transform="translate(347.525694 0.21875)" xlink:href="#DejaVuSans-BoldOblique-56"/>
      <use transform="translate(424.918272 -16.1875)scale(0.7)" xlink:href="#DejaVuSans-BoldOblique-6f"/>
      <use transform="translate(510.476193 0.21875)" xlink:href="#DejaVuSans-BoldOblique-73"/>
      <use transform="translate(569.997678 0.21875)" xlink:href="#DejaVuSans-BoldOblique-69"/>
      <use transform="translate(604.275021 0.21875)" xlink:href="#DejaVuSans-BoldOblique-6d"/>
      <use transform="translate(708.47424 0.21875)" xlink:href="#DejaVuSans-BoldOblique-75"/>
      <use transform="translate(779.665646 0.21875)" xlink:href="#DejaVuSans-BoldOblique-6c"/>
      <use transform="translate(813.94299 0.21875)" xlink:href="#DejaVuSans-BoldOblique-61"/>
      <use transform="translate(881.423459 0.21875)" xlink:href="#DejaVuSans-BoldOblique-64"/>
      <use transform="translate(953.00549 0.21875)" xlink:href="#DejaVuSans-BoldOblique-61"/>
      <use transform="translate(1055.218685 0.21875)" xlink:href="#DejaVuSans-BoldOblique-63"/>
      <use transform="translate(1114.496028 0.21875)" xlink:href="#DejaVuSans-BoldOblique-6f"/>
      <use transform="translate(1183.1972 0.21875)" xlink:href="#DejaVuSans-BoldOblique-6e"/>
      <use transform="translate(1289.121332 0.21875)" xlink:href="#DejaVuSans-BoldOblique-4c"/>
      <use transform="translate(1352.842035 0.21875)" xlink:href="#DejaVuSans-BoldOblique-54"/>
      <use transform="translate(1421.054926 0.21875)" xlink:href="#DejaVuSans-BoldOblique-53"/>
      <use transform="translate(1493.07641 0.21875)" xlink:href="#DejaVuSans-BoldOblique-50"/>
      <use transform="translate(1566.367426 0.21875)" xlink:href="#DejaVuSans-BoldOblique-69"/>
      <use transform="translate(1600.64477 0.21875)" xlink:href="#DejaVuSans-BoldOblique-63"/>
      <use transform="translate(1659.922113 0.21875)" xlink:href="#DejaVuSans-BoldOblique-65"/>
      <use transform="translate(1727.744379 0.21875)" xlink:href="#DejaVuSans-Bold-2c"/>
      <use transform="translate(1821.305229 0.21875)" xlink:href="#DejaVuSans-BoldOblique-46"/>
      <use transform="translate(1889.615776 0.21875)" xlink:href="#DejaVuSans-BoldOblique-72"/>
      <use transform="translate(1938.932183 0.21875)" xlink:href="#DejaVuSans-BoldOblique-65"/>
      <use transform="translate(2006.754448 0.21875)" xlink:href="#DejaVuSans-BoldOblique-63"/>
      <use transform="translate(2066.031792 0.21875)" xlink:href="#DejaVuSans-Bold-2e"/>
      <use transform="translate(2145.699761 0.21875)" xlink:href="#DejaVuSans-Bold-3d"/>
      <use transform="translate(2250.328667 0.21875)" xlink:href="#DejaVuSans-Bold-35"/>
      <use transform="translate(2319.908745 0.21875)" xlink:href="#DejaVuSans-Bold-32"/>
      <use transform="translate(2389.488823 0.21875)" xlink:href="#DejaVuSans-Bold-34"/>
      <use transform="translate(2459.068901 0.21875)" xlink:href="#DejaVuSans-BoldOblique-48"/>
      <use transform="translate(2542.760308 0.21875)" xlink:href="#DejaVuSans-BoldOblique-7a"/>
     </g>
    </g>
    <g id="line2d_81">
     <path d="M 375 72.254687 
L 415 72.254687 
" style="fill:none;stroke:#fe53bb;stroke-linecap:square;stroke-width:3;"/>
    </g>
    <g id="line2d_82"/>
    <g id="text_16">
     <!-- $Señal\ V_o\ medida\ con\ Punta\ X1,\ Frec.=574Hz$ -->
     <g transform="translate(431 79.254687)scale(0.2 -0.2)">
      <defs>
       <path d="M 3175 2363 
L 4319 0 
L 3097 0 
L 2338 1563 
L 972 0 
L -325 0 
L 1772 2394 
L 666 4666 
L 1894 4666 
L 2613 3200 
L 3891 4666 
L 5197 4666 
L 3175 2363 
z
" id="DejaVuSans-BoldOblique-58" transform="scale(0.015625)"/>
       <path d="M 750 831 
L 1813 831 
L 1813 3847 
L 722 3622 
L 722 4441 
L 1806 4666 
L 2950 4666 
L 2950 831 
L 4013 831 
L 4013 0 
L 750 0 
L 750 831 
z
" id="DejaVuSans-Bold-31" transform="scale(0.015625)"/>
       <path d="M 428 4666 
L 3944 4666 
L 3944 3988 
L 2125 0 
L 953 0 
L 2675 3781 
L 428 3781 
L 428 4666 
z
" id="DejaVuSans-Bold-37" transform="scale(0.015625)"/>
      </defs>
      <use transform="translate(0 0.21875)" xlink:href="#DejaVuSans-BoldOblique-53"/>
      <use transform="translate(72.021484 0.21875)" xlink:href="#DejaVuSans-BoldOblique-65"/>
      <use transform="translate(139.84375 0.21875)" xlink:href="#DejaVuSans-BoldOblique-f1"/>
      <use transform="translate(211.035156 0.21875)" xlink:href="#DejaVuSans-BoldOblique-61"/>
      <use transform="translate(278.515625 0.21875)" xlink:href="#DejaVuSans-BoldOblique-6c"/>
      <use transform="translate(347.525694 0.21875)" xlink:href="#DejaVuSans-BoldOblique-56"/>
      <use transform="translate(424.918272 -16.1875)scale(0.7)" xlink:href="#DejaVuSans-BoldOblique-6f"/>
      <use transform="translate(510.476193 0.21875)" xlink:href="#DejaVuSans-BoldOblique-6d"/>
      <use transform="translate(614.675412 0.21875)" xlink:href="#DejaVuSans-BoldOblique-65"/>
      <use transform="translate(682.497678 0.21875)" xlink:href="#DejaVuSans-BoldOblique-64"/>
      <use transform="translate(754.079709 0.21875)" xlink:href="#DejaVuSans-BoldOblique-69"/>
      <use transform="translate(788.357053 0.21875)" xlink:href="#DejaVuSans-BoldOblique-64"/>
      <use transform="translate(859.939084 0.21875)" xlink:href="#DejaVuSans-BoldOblique-61"/>
      <use transform="translate(962.152278 0.21875)" xlink:href="#DejaVuSans-BoldOblique-63"/>
      <use transform="translate(1021.429622 0.21875)" xlink:href="#DejaVuSans-BoldOblique-6f"/>
      <use transform="translate(1090.130794 0.21875)" xlink:href="#DejaVuSans-BoldOblique-6e"/>
      <use transform="translate(1196.054926 0.21875)" xlink:href="#DejaVuSans-BoldOblique-50"/>
      <use transform="translate(1269.345941 0.21875)" xlink:href="#DejaVuSans-BoldOblique-75"/>
      <use transform="translate(1340.537348 0.21875)" xlink:href="#DejaVuSans-BoldOblique-6e"/>
      <use transform="translate(1411.728754 0.21875)" xlink:href="#DejaVuSans-BoldOblique-74"/>
      <use transform="translate(1459.531488 0.21875)" xlink:href="#DejaVuSans-BoldOblique-61"/>
      <use transform="translate(1561.744683 0.21875)" xlink:href="#DejaVuSans-BoldOblique-58"/>
      <use transform="translate(1638.844292 0.21875)" xlink:href="#DejaVuSans-Bold-31"/>
      <use transform="translate(1708.42437 0.21875)" xlink:href="#DejaVuSans-Bold-2c"/>
      <use transform="translate(1801.985221 0.21875)" xlink:href="#DejaVuSans-BoldOblique-46"/>
      <use transform="translate(1870.295768 0.21875)" xlink:href="#DejaVuSans-BoldOblique-72"/>
      <use transform="translate(1919.612174 0.21875)" xlink:href="#DejaVuSans-BoldOblique-65"/>
      <use transform="translate(1987.434439 0.21875)" xlink:href="#DejaVuSans-BoldOblique-63"/>
      <use transform="translate(2046.711783 0.21875)" xlink:href="#DejaVuSans-Bold-2e"/>
      <use transform="translate(2126.379752 0.21875)" xlink:href="#DejaVuSans-Bold-3d"/>
      <use transform="translate(2231.008658 0.21875)" xlink:href="#DejaVuSans-Bold-35"/>
      <use transform="translate(2296.088736 0.21875)" xlink:href="#DejaVuSans-Bold-37"/>
      <use transform="translate(2365.668814 0.21875)" xlink:href="#DejaVuSans-Bold-34"/>
      <use transform="translate(2435.248893 0.21875)" xlink:href="#DejaVuSans-BoldOblique-48"/>
      <use transform="translate(2518.940299 0.21875)" xlink:href="#DejaVuSans-BoldOblique-7a"/>
     </g>
    </g>
   </g>
  </g>
 </g>
 <defs>
  <clipPath id="pfc376064cc">
   <rect height="869.76" width="892.8" x="76.4" y="17.132812"/>
  </clipPath>
 </defs>
</svg>
