<?xml version="1.0" encoding="utf-8" standalone="no"?>
<!DOCTYPE svg PUBLIC "-//W3C//DTD SVG 1.1//EN"
  "http://www.w3.org/Graphics/SVG/1.1/DTD/svg11.dtd">
<svg height="959.575625pt" version="1.1" viewBox="0 0 981.5 959.575625" width="981.5pt" xmlns="http://www.w3.org/2000/svg" xmlns:xlink="http://www.w3.org/1999/xlink">
 <metadata>
  <rdf:RDF xmlns:cc="http://creativecommons.org/ns#" xmlns:dc="http://purl.org/dc/elements/1.1/" xmlns:rdf="http://www.w3.org/1999/02/22-rdf-syntax-ns#">
   <cc:Work>
    <dc:type rdf:resource="http://purl.org/dc/dcmitype/StillImage"/>
    <dc:date>2022-05-26T17:12:23.279213</dc:date>
    <dc:format>image/svg+xml</dc:format>
    <dc:creator>
     <cc:Agent>
      <dc:title>Matplotlib v3.4.3, https://matplotlib.org/</dc:title>
     </cc:Agent>
    </dc:creator>
   </cc:Work>
  </rdf:RDF>
 </metadata>
 <defs>
  <style type="text/css">*{stroke-linecap:butt;stroke-linejoin:round;}</style>
 </defs>
 <g id="figure_1">
  <g id="patch_1">
   <path d="M 0 959.575625 
L 981.5 959.575625 
L 981.5 0 
L 0 0 
z
" style="fill:#212946;"/>
  </g>
  <g id="axes_1">
   <g id="patch_2">
    <path d="M 44.5 886.892812 
L 937.3 886.892812 
L 937.3 17.132812 
L 44.5 17.132812 
z
" style="fill:#212946;"/>
   </g>
   <g id="PathCollection_1">
    <defs>
     <path d="M 0 3 
C 0.795609 3 1.55874 2.683901 2.12132 2.12132 
C 2.683901 1.55874 3 0.795609 3 -0 
C 3 -0.795609 2.683901 -1.55874 2.12132 -2.12132 
C 1.55874 -2.683901 0.795609 -3 0 -3 
C -0.795609 -3 -1.55874 -2.683901 -2.12132 -2.12132 
C -2.683901 -1.55874 -3 -0.795609 -3 0 
C -3 0.795609 -2.683901 1.55874 -2.12132 2.12132 
C -1.55874 2.683901 -0.795609 3 0 3 
z
" id="C0_0_165dc4c671"/>
    </defs>
    <g clip-path="url(#p31d59c8ef1)">
     <use style="fill:#ff0000;stroke:#ff0000;stroke-width:10;" x="628.976177" xlink:href="#C0_0_165dc4c671" y="588.687976"/>
    </g>
    <g clip-path="url(#p31d59c8ef1)">
     <use style="fill:#008000;stroke:#008000;stroke-width:10;" x="755.683279" xlink:href="#C0_0_165dc4c671" y="651.719759"/>
    </g>
    <g clip-path="url(#p31d59c8ef1)">
     <use style="fill:#0000ff;stroke:#0000ff;stroke-width:10;" x="875.922796" xlink:href="#C0_0_165dc4c671" y="711.534174"/>
    </g>
   </g>
   <g id="matplotlib.axis_1">
    <g id="xtick_1">
     <g id="line2d_1">
      <path clip-path="url(#p31d59c8ef1)" d="M 44.5 886.892812 
L 44.5 17.132812 
" style="fill:none;stroke:#808080;stroke-dasharray:2.96,1.28;stroke-dashoffset:0;stroke-width:0.8;"/>
     </g>
     <g id="line2d_2">
      <defs>
       <path d="M 0 0 
L 0 3.5 
" id="m327805e848" style="stroke:#ffffff;stroke-width:0.8;"/>
      </defs>
      <g>
       <use style="fill:#ffffff;stroke:#ffffff;stroke-width:0.8;" x="44.5" xlink:href="#m327805e848" y="886.892812"/>
      </g>
     </g>
     <g id="text_1">
      <!-- −6 -->
      <g style="fill:#ffffff;" transform="translate(28.452344 913.758437)scale(0.3 -0.3)">
       <defs>
        <path d="M 125 2325 
L 3541 2325 
L 3541 1913 
L 125 1913 
L 125 2325 
z
" id="TimesNewRomanPS-BoldMT-2212" transform="scale(0.015625)"/>
        <path d="M 3006 4325 
L 3006 4238 
Q 2441 4094 2098 3867 
Q 1756 3641 1557 3317 
Q 1359 2994 1250 2516 
Q 1388 2609 1478 2638 
Q 1681 2700 1888 2700 
Q 2363 2700 2680 2354 
Q 2997 2009 2997 1413 
Q 2997 994 2825 644 
Q 2653 294 2337 103 
Q 2022 -88 1663 -88 
Q 1272 -88 940 126 
Q 609 341 423 753 
Q 238 1166 238 1650 
Q 238 2363 580 2977 
Q 922 3591 1551 3955 
Q 2181 4319 3006 4325 
z
M 1209 2263 
Q 1184 1831 1184 1631 
Q 1184 1200 1267 797 
Q 1350 394 1494 231 
Q 1597 116 1738 116 
Q 1881 116 1993 283 
Q 2106 450 2106 963 
Q 2106 1825 1897 2153 
Q 1763 2366 1534 2366 
Q 1409 2366 1209 2263 
z
" id="TimesNewRomanPS-BoldMT-36" transform="scale(0.015625)"/>
       </defs>
       <use xlink:href="#TimesNewRomanPS-BoldMT-2212"/>
       <use x="56.982422" xlink:href="#TimesNewRomanPS-BoldMT-36"/>
      </g>
     </g>
    </g>
    <g id="xtick_2">
     <g id="line2d_3">
      <path clip-path="url(#p31d59c8ef1)" d="M 193.3 886.892812 
L 193.3 17.132812 
" style="fill:none;stroke:#808080;stroke-dasharray:2.96,1.28;stroke-dashoffset:0;stroke-width:0.8;"/>
     </g>
     <g id="line2d_4">
      <g>
       <use style="fill:#ffffff;stroke:#ffffff;stroke-width:0.8;" x="193.3" xlink:href="#m327805e848" y="886.892812"/>
      </g>
     </g>
     <g id="text_2">
      <!-- −5 -->
      <g style="fill:#ffffff;" transform="translate(177.252344 913.758437)scale(0.3 -0.3)">
       <defs>
        <path d="M 975 4238 
L 2959 4238 
L 2644 3431 
L 975 3431 
L 816 3009 
Q 1894 2969 2475 2472 
Q 2953 2063 2953 1453 
Q 2953 1063 2731 689 
Q 2509 316 2106 114 
Q 1703 -88 1222 -88 
Q 703 -88 425 106 
Q 231 244 231 419 
Q 231 553 332 656 
Q 434 759 569 759 
Q 691 759 816 709 
Q 941 659 1244 447 
Q 1434 316 1572 266 
Q 1669 228 1791 228 
Q 2047 228 2226 415 
Q 2406 603 2406 866 
Q 2406 1416 1856 1759 
Q 1306 2103 469 2103 
Q 384 2103 216 2100 
L 975 4238 
z
" id="TimesNewRomanPS-BoldMT-35" transform="scale(0.015625)"/>
       </defs>
       <use xlink:href="#TimesNewRomanPS-BoldMT-2212"/>
       <use x="56.982422" xlink:href="#TimesNewRomanPS-BoldMT-35"/>
      </g>
     </g>
    </g>
    <g id="xtick_3">
     <g id="line2d_5">
      <path clip-path="url(#p31d59c8ef1)" d="M 342.1 886.892812 
L 342.1 17.132812 
" style="fill:none;stroke:#808080;stroke-dasharray:2.96,1.28;stroke-dashoffset:0;stroke-width:0.8;"/>
     </g>
     <g id="line2d_6">
      <g>
       <use style="fill:#ffffff;stroke:#ffffff;stroke-width:0.8;" x="342.1" xlink:href="#m327805e848" y="886.892812"/>
      </g>
     </g>
     <g id="text_3">
      <!-- −4 -->
      <g style="fill:#ffffff;" transform="translate(326.052344 913.758437)scale(0.3 -0.3)">
       <defs>
        <path d="M 159 1597 
L 2172 4325 
L 2553 4325 
L 2553 1597 
L 2941 1597 
L 2941 950 
L 2553 950 
L 2553 0 
L 1694 0 
L 1694 950 
L 159 950 
L 159 1597 
z
M 463 1597 
L 1694 1597 
L 1694 3269 
L 463 1597 
z
" id="TimesNewRomanPS-BoldMT-34" transform="scale(0.015625)"/>
       </defs>
       <use xlink:href="#TimesNewRomanPS-BoldMT-2212"/>
       <use x="56.982422" xlink:href="#TimesNewRomanPS-BoldMT-34"/>
      </g>
     </g>
    </g>
    <g id="xtick_4">
     <g id="line2d_7">
      <path clip-path="url(#p31d59c8ef1)" d="M 490.9 886.892812 
L 490.9 17.132812 
" style="fill:none;stroke:#808080;stroke-dasharray:2.96,1.28;stroke-dashoffset:0;stroke-width:0.8;"/>
     </g>
     <g id="line2d_8">
      <g>
       <use style="fill:#ffffff;stroke:#ffffff;stroke-width:0.8;" x="490.9" xlink:href="#m327805e848" y="886.892812"/>
      </g>
     </g>
     <g id="text_4">
      <!-- −3 -->
      <g style="fill:#ffffff;" transform="translate(474.852344 913.758437)scale(0.3 -0.3)">
       <defs>
        <path d="M 947 2125 
L 947 2234 
Q 1303 2338 1440 2427 
Q 1578 2516 1678 2698 
Q 1778 2881 1778 3069 
Q 1778 3328 1589 3514 
Q 1400 3700 1119 3700 
Q 681 3700 375 3238 
L 259 3278 
Q 484 3800 836 4062 
Q 1188 4325 1619 4325 
Q 2059 4325 2345 4056 
Q 2631 3788 2631 3428 
Q 2631 3194 2498 2976 
Q 2366 2759 2081 2594 
Q 2447 2416 2639 2155 
Q 2831 1894 2831 1500 
Q 2831 838 2351 373 
Q 1872 -91 1066 -91 
Q 528 -91 281 88 
Q 103 213 103 409 
Q 103 553 206 654 
Q 309 756 444 756 
Q 547 756 638 713 
Q 688 688 992 439 
Q 1297 191 1563 191 
Q 1794 191 1959 373 
Q 2125 556 2125 838 
Q 2125 1266 1825 1627 
Q 1525 1988 947 2125 
z
" id="TimesNewRomanPS-BoldMT-33" transform="scale(0.015625)"/>
       </defs>
       <use xlink:href="#TimesNewRomanPS-BoldMT-2212"/>
       <use x="56.982422" xlink:href="#TimesNewRomanPS-BoldMT-33"/>
      </g>
     </g>
    </g>
    <g id="xtick_5">
     <g id="line2d_9">
      <path clip-path="url(#p31d59c8ef1)" d="M 639.7 886.892812 
L 639.7 17.132812 
" style="fill:none;stroke:#808080;stroke-dasharray:2.96,1.28;stroke-dashoffset:0;stroke-width:0.8;"/>
     </g>
     <g id="line2d_10">
      <g>
       <use style="fill:#ffffff;stroke:#ffffff;stroke-width:0.8;" x="639.7" xlink:href="#m327805e848" y="886.892812"/>
      </g>
     </g>
     <g id="text_5">
      <!-- −2 -->
      <g style="fill:#ffffff;" transform="translate(623.652344 913.758437)scale(0.3 -0.3)">
       <defs>
        <path d="M 2650 0 
L 156 0 
L 156 69 
Q 1303 1434 1548 1906 
Q 1794 2378 1794 2828 
Q 1794 3156 1591 3373 
Q 1388 3591 1094 3591 
Q 613 3591 347 3109 
L 231 3150 
Q 400 3750 744 4037 
Q 1088 4325 1538 4325 
Q 1859 4325 2125 4175 
Q 2391 4025 2541 3764 
Q 2691 3503 2691 3275 
Q 2691 2859 2459 2431 
Q 2144 1853 1081 819 
L 1997 819 
Q 2334 819 2436 847 
Q 2538 875 2603 942 
Q 2669 1009 2775 1225 
L 2888 1225 
L 2650 0 
z
" id="TimesNewRomanPS-BoldMT-32" transform="scale(0.015625)"/>
       </defs>
       <use xlink:href="#TimesNewRomanPS-BoldMT-2212"/>
       <use x="56.982422" xlink:href="#TimesNewRomanPS-BoldMT-32"/>
      </g>
     </g>
    </g>
    <g id="xtick_6">
     <g id="line2d_11">
      <path clip-path="url(#p31d59c8ef1)" d="M 788.5 886.892812 
L 788.5 17.132812 
" style="fill:none;stroke:#808080;stroke-dasharray:2.96,1.28;stroke-dashoffset:0;stroke-width:0.8;"/>
     </g>
     <g id="line2d_12">
      <g>
       <use style="fill:#ffffff;stroke:#ffffff;stroke-width:0.8;" x="788.5" xlink:href="#m327805e848" y="886.892812"/>
      </g>
     </g>
     <g id="text_6">
      <!-- −1 -->
      <g style="fill:#ffffff;" transform="translate(772.452344 913.758437)scale(0.3 -0.3)">
       <defs>
        <path d="M 2084 4325 
L 2084 859 
Q 2084 469 2118 361 
Q 2153 253 2262 184 
Q 2372 116 2613 116 
L 2709 116 
L 2709 0 
L 478 0 
L 478 116 
L 591 116 
Q 863 116 978 178 
Q 1094 241 1134 350 
Q 1175 459 1175 859 
L 1175 3056 
Q 1175 3350 1147 3423 
Q 1119 3497 1042 3548 
Q 966 3600 866 3600 
Q 706 3600 478 3500 
L 422 3613 
L 1981 4325 
L 2084 4325 
z
" id="TimesNewRomanPS-BoldMT-31" transform="scale(0.015625)"/>
       </defs>
       <use xlink:href="#TimesNewRomanPS-BoldMT-2212"/>
       <use x="56.982422" xlink:href="#TimesNewRomanPS-BoldMT-31"/>
      </g>
     </g>
    </g>
    <g id="xtick_7">
     <g id="line2d_13">
      <path clip-path="url(#p31d59c8ef1)" d="M 937.3 886.892812 
L 937.3 17.132812 
" style="fill:none;stroke:#808080;stroke-dasharray:2.96,1.28;stroke-dashoffset:0;stroke-width:0.8;"/>
     </g>
     <g id="line2d_14">
      <g>
       <use style="fill:#ffffff;stroke:#ffffff;stroke-width:0.8;" x="937.3" xlink:href="#m327805e848" y="886.892812"/>
      </g>
     </g>
     <g id="text_7">
      <!-- 0 -->
      <g style="fill:#ffffff;" transform="translate(929.8 913.758437)scale(0.3 -0.3)">
       <defs>
        <path d="M 2966 2119 
Q 2966 1484 2788 934 
Q 2681 597 2501 381 
Q 2322 166 2094 39 
Q 1866 -88 1597 -88 
Q 1291 -88 1044 68 
Q 797 225 606 516 
Q 469 728 366 1081 
Q 231 1559 231 2069 
Q 231 2759 425 3338 
Q 584 3816 909 4070 
Q 1234 4325 1597 4325 
Q 1966 4325 2286 4073 
Q 2606 3822 2756 3397 
Q 2966 2813 2966 2119 
z
M 2003 2125 
Q 2003 3238 1991 3422 
Q 1959 3856 1841 4009 
Q 1763 4109 1588 4109 
Q 1453 4109 1375 4034 
Q 1259 3925 1218 3648 
Q 1178 3372 1178 1719 
Q 1178 819 1241 513 
Q 1288 291 1375 216 
Q 1463 141 1606 141 
Q 1763 141 1841 241 
Q 1972 416 1991 781 
L 2003 2125 
z
" id="TimesNewRomanPS-BoldMT-30" transform="scale(0.015625)"/>
       </defs>
       <use xlink:href="#TimesNewRomanPS-BoldMT-30"/>
      </g>
     </g>
    </g>
    <g id="xtick_8">
     <g id="line2d_15">
      <path clip-path="url(#p31d59c8ef1)" d="M 118.9 886.892812 
L 118.9 17.132812 
" style="fill:none;stroke:#808080;stroke-dasharray:2.96,1.28;stroke-dashoffset:0;stroke-width:0.8;"/>
     </g>
     <g id="line2d_16">
      <defs>
       <path d="M 0 0 
L 0 2 
" id="m32663e8cec" style="stroke:#ffffff;stroke-width:0.6;"/>
      </defs>
      <g>
       <use style="fill:#ffffff;stroke:#ffffff;stroke-width:0.6;" x="118.9" xlink:href="#m32663e8cec" y="886.892812"/>
      </g>
     </g>
    </g>
    <g id="xtick_9">
     <g id="line2d_17">
      <path clip-path="url(#p31d59c8ef1)" d="M 267.7 886.892812 
L 267.7 17.132812 
" style="fill:none;stroke:#808080;stroke-dasharray:2.96,1.28;stroke-dashoffset:0;stroke-width:0.8;"/>
     </g>
     <g id="line2d_18">
      <g>
       <use style="fill:#ffffff;stroke:#ffffff;stroke-width:0.6;" x="267.7" xlink:href="#m32663e8cec" y="886.892812"/>
      </g>
     </g>
    </g>
    <g id="xtick_10">
     <g id="line2d_19">
      <path clip-path="url(#p31d59c8ef1)" d="M 416.5 886.892812 
L 416.5 17.132812 
" style="fill:none;stroke:#808080;stroke-dasharray:2.96,1.28;stroke-dashoffset:0;stroke-width:0.8;"/>
     </g>
     <g id="line2d_20">
      <g>
       <use style="fill:#ffffff;stroke:#ffffff;stroke-width:0.6;" x="416.5" xlink:href="#m32663e8cec" y="886.892812"/>
      </g>
     </g>
    </g>
    <g id="xtick_11">
     <g id="line2d_21">
      <path clip-path="url(#p31d59c8ef1)" d="M 565.3 886.892812 
L 565.3 17.132812 
" style="fill:none;stroke:#808080;stroke-dasharray:2.96,1.28;stroke-dashoffset:0;stroke-width:0.8;"/>
     </g>
     <g id="line2d_22">
      <g>
       <use style="fill:#ffffff;stroke:#ffffff;stroke-width:0.6;" x="565.3" xlink:href="#m32663e8cec" y="886.892812"/>
      </g>
     </g>
    </g>
    <g id="xtick_12">
     <g id="line2d_23">
      <path clip-path="url(#p31d59c8ef1)" d="M 714.1 886.892812 
L 714.1 17.132812 
" style="fill:none;stroke:#808080;stroke-dasharray:2.96,1.28;stroke-dashoffset:0;stroke-width:0.8;"/>
     </g>
     <g id="line2d_24">
      <g>
       <use style="fill:#ffffff;stroke:#ffffff;stroke-width:0.6;" x="714.1" xlink:href="#m32663e8cec" y="886.892812"/>
      </g>
     </g>
    </g>
    <g id="xtick_13">
     <g id="line2d_25">
      <path clip-path="url(#p31d59c8ef1)" d="M 862.9 886.892812 
L 862.9 17.132812 
" style="fill:none;stroke:#808080;stroke-dasharray:2.96,1.28;stroke-dashoffset:0;stroke-width:0.8;"/>
     </g>
     <g id="line2d_26">
      <g>
       <use style="fill:#ffffff;stroke:#ffffff;stroke-width:0.6;" x="862.9" xlink:href="#m32663e8cec" y="886.892812"/>
      </g>
     </g>
    </g>
    <g id="text_8">
     <!-- $V_{GS}[V]$ -->
     <g style="fill:#ffffff;" transform="translate(437.35 945.958437)scale(0.3 -0.3)">
      <defs>
       <path d="M 488 4666 
L 1631 4666 
L 2203 1178 
L 4134 4666 
L 5375 4666 
L 2741 0 
L 1306 0 
L 488 4666 
z
" id="DejaVuSans-BoldOblique-56" transform="scale(0.015625)"/>
       <path d="M 4359 347 
Q 3903 125 3412 17 
Q 2922 -91 2363 -91 
Q 1369 -91 800 414 
Q 231 919 231 1791 
Q 231 2356 409 2851 
Q 588 3347 941 3756 
Q 1372 4256 1958 4503 
Q 2544 4750 3297 4750 
Q 3716 4750 4141 4662 
Q 4566 4575 4978 4403 
L 4794 3438 
Q 4413 3659 4048 3768 
Q 3684 3878 3316 3878 
Q 2509 3878 2003 3340 
Q 1497 2803 1497 1959 
Q 1497 1400 1792 1090 
Q 2088 781 2625 781 
Q 2800 781 2975 804 
Q 3150 828 3328 878 
L 3506 1784 
L 2772 1784 
L 2925 2591 
L 4794 2591 
L 4359 347 
z
" id="DejaVuSans-BoldOblique-47" transform="scale(0.015625)"/>
       <path d="M 4256 4519 
L 4063 3531 
Q 3709 3706 3365 3792 
Q 3022 3878 2694 3878 
Q 2244 3878 1992 3737 
Q 1741 3597 1741 3347 
Q 1741 3188 1852 3098 
Q 1963 3009 2309 2925 
L 2803 2803 
Q 3422 2647 3711 2351 
Q 4000 2056 4000 1588 
Q 4000 828 3423 368 
Q 2847 -91 1875 -91 
Q 1422 -91 973 -6 
Q 525 78 97 244 
L 288 1259 
Q 703 1019 1095 900 
Q 1488 781 1869 781 
Q 2281 781 2539 950 
Q 2797 1119 2797 1381 
Q 2797 1553 2681 1648 
Q 2566 1744 2175 1844 
L 1684 1966 
Q 1141 2100 875 2390 
Q 609 2681 609 3144 
Q 609 3872 1167 4311 
Q 1725 4750 2669 4750 
Q 3047 4750 3445 4692 
Q 3844 4634 4256 4519 
z
" id="DejaVuSans-BoldOblique-53" transform="scale(0.015625)"/>
       <path d="M 550 4863 
L 2491 4863 
L 2491 4159 
L 1613 4159 
L 1613 -141 
L 2491 -141 
L 2491 -844 
L 550 -844 
L 550 4863 
z
" id="DejaVuSans-Bold-5b" transform="scale(0.015625)"/>
       <path d="M 2375 -844 
L 434 -844 
L 434 -141 
L 1313 -141 
L 1313 4159 
L 434 4159 
L 434 4863 
L 2375 4863 
L 2375 -844 
z
" id="DejaVuSans-Bold-5d" transform="scale(0.015625)"/>
      </defs>
      <use transform="translate(0 0.015625)" xlink:href="#DejaVuSans-BoldOblique-56"/>
      <use transform="translate(77.392578 -16.390625)scale(0.7)" xlink:href="#DejaVuSans-BoldOblique-47"/>
      <use transform="translate(134.848633 -16.390625)scale(0.7)" xlink:href="#DejaVuSans-BoldOblique-53"/>
      <use transform="translate(187.998047 0.015625)" xlink:href="#DejaVuSans-Bold-5b"/>
      <use transform="translate(233.701172 0.015625)" xlink:href="#DejaVuSans-BoldOblique-56"/>
      <use transform="translate(311.09375 0.015625)" xlink:href="#DejaVuSans-Bold-5d"/>
     </g>
    </g>
   </g>
   <g id="matplotlib.axis_2">
    <g id="ytick_1">
     <g id="line2d_27">
      <path clip-path="url(#p31d59c8ef1)" d="M 44.5 886.892812 
L 937.3 886.892812 
" style="fill:none;stroke:#808080;stroke-dasharray:2.96,1.28;stroke-dashoffset:0;stroke-width:0.8;"/>
     </g>
     <g id="line2d_28">
      <defs>
       <path d="M 0 0 
L -3.5 0 
" id="m42a3630694" style="stroke:#ffffff;stroke-width:0.8;"/>
      </defs>
      <g>
       <use style="fill:#ffffff;stroke:#ffffff;stroke-width:0.8;" x="44.5" xlink:href="#m42a3630694" y="886.892812"/>
      </g>
     </g>
     <g id="text_9">
      <!-- 0 -->
      <g style="fill:#ffffff;" transform="translate(944.3 896.825625)scale(0.3 -0.3)">
       <use xlink:href="#TimesNewRomanPS-BoldMT-30"/>
      </g>
     </g>
    </g>
    <g id="ytick_2">
     <g id="line2d_29">
      <path clip-path="url(#p31d59c8ef1)" d="M 44.5 712.940812 
L 937.3 712.940812 
" style="fill:none;stroke:#808080;stroke-dasharray:2.96,1.28;stroke-dashoffset:0;stroke-width:0.8;"/>
     </g>
     <g id="line2d_30">
      <g>
       <use style="fill:#ffffff;stroke:#ffffff;stroke-width:0.8;" x="44.5" xlink:href="#m42a3630694" y="712.940812"/>
      </g>
     </g>
     <g id="text_10">
      <!-- 5 -->
      <g style="fill:#ffffff;" transform="translate(944.3 722.873625)scale(0.3 -0.3)">
       <use xlink:href="#TimesNewRomanPS-BoldMT-35"/>
      </g>
     </g>
    </g>
    <g id="ytick_3">
     <g id="line2d_31">
      <path clip-path="url(#p31d59c8ef1)" d="M 44.5 538.988812 
L 937.3 538.988812 
" style="fill:none;stroke:#808080;stroke-dasharray:2.96,1.28;stroke-dashoffset:0;stroke-width:0.8;"/>
     </g>
     <g id="line2d_32">
      <g>
       <use style="fill:#ffffff;stroke:#ffffff;stroke-width:0.8;" x="44.5" xlink:href="#m42a3630694" y="538.988812"/>
      </g>
     </g>
     <g id="text_11">
      <!-- 10 -->
      <g style="fill:#ffffff;" transform="translate(944.3 548.921625)scale(0.3 -0.3)">
       <use xlink:href="#TimesNewRomanPS-BoldMT-31"/>
       <use x="50" xlink:href="#TimesNewRomanPS-BoldMT-30"/>
      </g>
     </g>
    </g>
    <g id="ytick_4">
     <g id="line2d_33">
      <path clip-path="url(#p31d59c8ef1)" d="M 44.5 365.036812 
L 937.3 365.036812 
" style="fill:none;stroke:#808080;stroke-dasharray:2.96,1.28;stroke-dashoffset:0;stroke-width:0.8;"/>
     </g>
     <g id="line2d_34">
      <g>
       <use style="fill:#ffffff;stroke:#ffffff;stroke-width:0.8;" x="44.5" xlink:href="#m42a3630694" y="365.036812"/>
      </g>
     </g>
     <g id="text_12">
      <!-- 15 -->
      <g style="fill:#ffffff;" transform="translate(944.3 374.969625)scale(0.3 -0.3)">
       <use xlink:href="#TimesNewRomanPS-BoldMT-31"/>
       <use x="50" xlink:href="#TimesNewRomanPS-BoldMT-35"/>
      </g>
     </g>
    </g>
    <g id="ytick_5">
     <g id="line2d_35">
      <path clip-path="url(#p31d59c8ef1)" d="M 44.5 191.084812 
L 937.3 191.084812 
" style="fill:none;stroke:#808080;stroke-dasharray:2.96,1.28;stroke-dashoffset:0;stroke-width:0.8;"/>
     </g>
     <g id="line2d_36">
      <g>
       <use style="fill:#ffffff;stroke:#ffffff;stroke-width:0.8;" x="44.5" xlink:href="#m42a3630694" y="191.084812"/>
      </g>
     </g>
     <g id="text_13">
      <!-- 20 -->
      <g style="fill:#ffffff;" transform="translate(944.3 201.017625)scale(0.3 -0.3)">
       <use xlink:href="#TimesNewRomanPS-BoldMT-32"/>
       <use x="50" xlink:href="#TimesNewRomanPS-BoldMT-30"/>
      </g>
     </g>
    </g>
    <g id="ytick_6">
     <g id="line2d_37">
      <path clip-path="url(#p31d59c8ef1)" d="M 44.5 17.132812 
L 937.3 17.132812 
" style="fill:none;stroke:#808080;stroke-dasharray:2.96,1.28;stroke-dashoffset:0;stroke-width:0.8;"/>
     </g>
     <g id="line2d_38">
      <g>
       <use style="fill:#ffffff;stroke:#ffffff;stroke-width:0.8;" x="44.5" xlink:href="#m42a3630694" y="17.132812"/>
      </g>
     </g>
     <g id="text_14">
      <!-- 25 -->
      <g style="fill:#ffffff;" transform="translate(944.3 27.065625)scale(0.3 -0.3)">
       <use xlink:href="#TimesNewRomanPS-BoldMT-32"/>
       <use x="50" xlink:href="#TimesNewRomanPS-BoldMT-35"/>
      </g>
     </g>
    </g>
    <g id="ytick_7">
     <g id="line2d_39">
      <path clip-path="url(#p31d59c8ef1)" d="M 44.5 852.102412 
L 937.3 852.102412 
" style="fill:none;stroke:#808080;stroke-dasharray:2.96,1.28;stroke-dashoffset:0;stroke-width:0.8;"/>
     </g>
     <g id="line2d_40">
      <defs>
       <path d="M 0 0 
L -2 0 
" id="mc7c80f974a" style="stroke:#ffffff;stroke-width:0.6;"/>
      </defs>
      <g>
       <use style="fill:#ffffff;stroke:#ffffff;stroke-width:0.6;" x="44.5" xlink:href="#mc7c80f974a" y="852.102412"/>
      </g>
     </g>
    </g>
    <g id="ytick_8">
     <g id="line2d_41">
      <path clip-path="url(#p31d59c8ef1)" d="M 44.5 817.312012 
L 937.3 817.312012 
" style="fill:none;stroke:#808080;stroke-dasharray:2.96,1.28;stroke-dashoffset:0;stroke-width:0.8;"/>
     </g>
     <g id="line2d_42">
      <g>
       <use style="fill:#ffffff;stroke:#ffffff;stroke-width:0.6;" x="44.5" xlink:href="#mc7c80f974a" y="817.312012"/>
      </g>
     </g>
    </g>
    <g id="ytick_9">
     <g id="line2d_43">
      <path clip-path="url(#p31d59c8ef1)" d="M 44.5 782.521612 
L 937.3 782.521612 
" style="fill:none;stroke:#808080;stroke-dasharray:2.96,1.28;stroke-dashoffset:0;stroke-width:0.8;"/>
     </g>
     <g id="line2d_44">
      <g>
       <use style="fill:#ffffff;stroke:#ffffff;stroke-width:0.6;" x="44.5" xlink:href="#mc7c80f974a" y="782.521612"/>
      </g>
     </g>
    </g>
    <g id="ytick_10">
     <g id="line2d_45">
      <path clip-path="url(#p31d59c8ef1)" d="M 44.5 747.731212 
L 937.3 747.731212 
" style="fill:none;stroke:#808080;stroke-dasharray:2.96,1.28;stroke-dashoffset:0;stroke-width:0.8;"/>
     </g>
     <g id="line2d_46">
      <g>
       <use style="fill:#ffffff;stroke:#ffffff;stroke-width:0.6;" x="44.5" xlink:href="#mc7c80f974a" y="747.731212"/>
      </g>
     </g>
    </g>
    <g id="ytick_11">
     <g id="line2d_47">
      <path clip-path="url(#p31d59c8ef1)" d="M 44.5 678.150412 
L 937.3 678.150412 
" style="fill:none;stroke:#808080;stroke-dasharray:2.96,1.28;stroke-dashoffset:0;stroke-width:0.8;"/>
     </g>
     <g id="line2d_48">
      <g>
       <use style="fill:#ffffff;stroke:#ffffff;stroke-width:0.6;" x="44.5" xlink:href="#mc7c80f974a" y="678.150412"/>
      </g>
     </g>
    </g>
    <g id="ytick_12">
     <g id="line2d_49">
      <path clip-path="url(#p31d59c8ef1)" d="M 44.5 643.360012 
L 937.3 643.360012 
" style="fill:none;stroke:#808080;stroke-dasharray:2.96,1.28;stroke-dashoffset:0;stroke-width:0.8;"/>
     </g>
     <g id="line2d_50">
      <g>
       <use style="fill:#ffffff;stroke:#ffffff;stroke-width:0.6;" x="44.5" xlink:href="#mc7c80f974a" y="643.360012"/>
      </g>
     </g>
    </g>
    <g id="ytick_13">
     <g id="line2d_51">
      <path clip-path="url(#p31d59c8ef1)" d="M 44.5 608.569612 
L 937.3 608.569612 
" style="fill:none;stroke:#808080;stroke-dasharray:2.96,1.28;stroke-dashoffset:0;stroke-width:0.8;"/>
     </g>
     <g id="line2d_52">
      <g>
       <use style="fill:#ffffff;stroke:#ffffff;stroke-width:0.6;" x="44.5" xlink:href="#mc7c80f974a" y="608.569612"/>
      </g>
     </g>
    </g>
    <g id="ytick_14">
     <g id="line2d_53">
      <path clip-path="url(#p31d59c8ef1)" d="M 44.5 573.779212 
L 937.3 573.779212 
" style="fill:none;stroke:#808080;stroke-dasharray:2.96,1.28;stroke-dashoffset:0;stroke-width:0.8;"/>
     </g>
     <g id="line2d_54">
      <g>
       <use style="fill:#ffffff;stroke:#ffffff;stroke-width:0.6;" x="44.5" xlink:href="#mc7c80f974a" y="573.779212"/>
      </g>
     </g>
    </g>
    <g id="ytick_15">
     <g id="line2d_55">
      <path clip-path="url(#p31d59c8ef1)" d="M 44.5 504.198412 
L 937.3 504.198412 
" style="fill:none;stroke:#808080;stroke-dasharray:2.96,1.28;stroke-dashoffset:0;stroke-width:0.8;"/>
     </g>
     <g id="line2d_56">
      <g>
       <use style="fill:#ffffff;stroke:#ffffff;stroke-width:0.6;" x="44.5" xlink:href="#mc7c80f974a" y="504.198412"/>
      </g>
     </g>
    </g>
    <g id="ytick_16">
     <g id="line2d_57">
      <path clip-path="url(#p31d59c8ef1)" d="M 44.5 469.408012 
L 937.3 469.408012 
" style="fill:none;stroke:#808080;stroke-dasharray:2.96,1.28;stroke-dashoffset:0;stroke-width:0.8;"/>
     </g>
     <g id="line2d_58">
      <g>
       <use style="fill:#ffffff;stroke:#ffffff;stroke-width:0.6;" x="44.5" xlink:href="#mc7c80f974a" y="469.408012"/>
      </g>
     </g>
    </g>
    <g id="ytick_17">
     <g id="line2d_59">
      <path clip-path="url(#p31d59c8ef1)" d="M 44.5 434.617612 
L 937.3 434.617612 
" style="fill:none;stroke:#808080;stroke-dasharray:2.96,1.28;stroke-dashoffset:0;stroke-width:0.8;"/>
     </g>
     <g id="line2d_60">
      <g>
       <use style="fill:#ffffff;stroke:#ffffff;stroke-width:0.6;" x="44.5" xlink:href="#mc7c80f974a" y="434.617612"/>
      </g>
     </g>
    </g>
    <g id="ytick_18">
     <g id="line2d_61">
      <path clip-path="url(#p31d59c8ef1)" d="M 44.5 399.827212 
L 937.3 399.827212 
" style="fill:none;stroke:#808080;stroke-dasharray:2.96,1.28;stroke-dashoffset:0;stroke-width:0.8;"/>
     </g>
     <g id="line2d_62">
      <g>
       <use style="fill:#ffffff;stroke:#ffffff;stroke-width:0.6;" x="44.5" xlink:href="#mc7c80f974a" y="399.827212"/>
      </g>
     </g>
    </g>
    <g id="ytick_19">
     <g id="line2d_63">
      <path clip-path="url(#p31d59c8ef1)" d="M 44.5 330.246412 
L 937.3 330.246412 
" style="fill:none;stroke:#808080;stroke-dasharray:2.96,1.28;stroke-dashoffset:0;stroke-width:0.8;"/>
     </g>
     <g id="line2d_64">
      <g>
       <use style="fill:#ffffff;stroke:#ffffff;stroke-width:0.6;" x="44.5" xlink:href="#mc7c80f974a" y="330.246412"/>
      </g>
     </g>
    </g>
    <g id="ytick_20">
     <g id="line2d_65">
      <path clip-path="url(#p31d59c8ef1)" d="M 44.5 295.456012 
L 937.3 295.456012 
" style="fill:none;stroke:#808080;stroke-dasharray:2.96,1.28;stroke-dashoffset:0;stroke-width:0.8;"/>
     </g>
     <g id="line2d_66">
      <g>
       <use style="fill:#ffffff;stroke:#ffffff;stroke-width:0.6;" x="44.5" xlink:href="#mc7c80f974a" y="295.456012"/>
      </g>
     </g>
    </g>
    <g id="ytick_21">
     <g id="line2d_67">
      <path clip-path="url(#p31d59c8ef1)" d="M 44.5 260.665612 
L 937.3 260.665612 
" style="fill:none;stroke:#808080;stroke-dasharray:2.96,1.28;stroke-dashoffset:0;stroke-width:0.8;"/>
     </g>
     <g id="line2d_68">
      <g>
       <use style="fill:#ffffff;stroke:#ffffff;stroke-width:0.6;" x="44.5" xlink:href="#mc7c80f974a" y="260.665612"/>
      </g>
     </g>
    </g>
    <g id="ytick_22">
     <g id="line2d_69">
      <path clip-path="url(#p31d59c8ef1)" d="M 44.5 225.875212 
L 937.3 225.875212 
" style="fill:none;stroke:#808080;stroke-dasharray:2.96,1.28;stroke-dashoffset:0;stroke-width:0.8;"/>
     </g>
     <g id="line2d_70">
      <g>
       <use style="fill:#ffffff;stroke:#ffffff;stroke-width:0.6;" x="44.5" xlink:href="#mc7c80f974a" y="225.875212"/>
      </g>
     </g>
    </g>
    <g id="ytick_23">
     <g id="line2d_71">
      <path clip-path="url(#p31d59c8ef1)" d="M 44.5 156.294412 
L 937.3 156.294412 
" style="fill:none;stroke:#808080;stroke-dasharray:2.96,1.28;stroke-dashoffset:0;stroke-width:0.8;"/>
     </g>
     <g id="line2d_72">
      <g>
       <use style="fill:#ffffff;stroke:#ffffff;stroke-width:0.6;" x="44.5" xlink:href="#mc7c80f974a" y="156.294412"/>
      </g>
     </g>
    </g>
    <g id="ytick_24">
     <g id="line2d_73">
      <path clip-path="url(#p31d59c8ef1)" d="M 44.5 121.504012 
L 937.3 121.504012 
" style="fill:none;stroke:#808080;stroke-dasharray:2.96,1.28;stroke-dashoffset:0;stroke-width:0.8;"/>
     </g>
     <g id="line2d_74">
      <g>
       <use style="fill:#ffffff;stroke:#ffffff;stroke-width:0.6;" x="44.5" xlink:href="#mc7c80f974a" y="121.504012"/>
      </g>
     </g>
    </g>
    <g id="ytick_25">
     <g id="line2d_75">
      <path clip-path="url(#p31d59c8ef1)" d="M 44.5 86.713612 
L 937.3 86.713612 
" style="fill:none;stroke:#808080;stroke-dasharray:2.96,1.28;stroke-dashoffset:0;stroke-width:0.8;"/>
     </g>
     <g id="line2d_76">
      <g>
       <use style="fill:#ffffff;stroke:#ffffff;stroke-width:0.6;" x="44.5" xlink:href="#mc7c80f974a" y="86.713612"/>
      </g>
     </g>
    </g>
    <g id="ytick_26">
     <g id="line2d_77">
      <path clip-path="url(#p31d59c8ef1)" d="M 44.5 51.923212 
L 937.3 51.923212 
" style="fill:none;stroke:#808080;stroke-dasharray:2.96,1.28;stroke-dashoffset:0;stroke-width:0.8;"/>
     </g>
     <g id="line2d_78">
      <g>
       <use style="fill:#ffffff;stroke:#ffffff;stroke-width:0.6;" x="44.5" xlink:href="#mc7c80f974a" y="51.923212"/>
      </g>
     </g>
    </g>
    <g id="text_15">
     <!-- $I_D[mA]$ -->
     <g style="fill:#ffffff;" transform="translate(28.682813 507.812812)rotate(-90)scale(0.3 -0.3)">
      <defs>
       <path d="M 1044 4666 
L 2247 4666 
L 1338 0 
L 134 0 
L 1044 4666 
z
" id="DejaVuSans-BoldOblique-49" transform="scale(0.015625)"/>
       <path d="M 2075 3756 
L 1516 909 
L 1947 909 
Q 2788 909 3278 1381 
Q 3769 1853 3769 2656 
Q 3769 3200 3448 3478 
Q 3128 3756 2497 3756 
L 2075 3756 
z
M 1044 4666 
L 2309 4666 
Q 3216 4666 3669 4558 
Q 4122 4450 4422 4197 
Q 4725 3944 4878 3583 
Q 5031 3222 5031 2766 
Q 5031 2131 4770 1570 
Q 4509 1009 4038 628 
Q 3625 288 3079 144 
Q 2534 0 1403 0 
L 134 0 
L 1044 4666 
z
" id="DejaVuSans-BoldOblique-44" transform="scale(0.015625)"/>
       <path d="M 4013 2919 
Q 4272 3241 4601 3412 
Q 4931 3584 5288 3584 
Q 5756 3584 6026 3326 
Q 6297 3069 6297 2619 
Q 6297 2525 6283 2404 
Q 6269 2284 6241 2131 
L 5825 0 
L 4697 0 
L 5050 1825 
L 5059 1872 
Q 5141 2259 5141 2369 
Q 5141 2541 5042 2641 
Q 4944 2741 4775 2741 
Q 4453 2741 4229 2477 
Q 4006 2213 3909 1722 
L 3572 0 
L 2444 0 
L 2803 1825 
Q 2850 2059 2869 2179 
Q 2888 2300 2888 2369 
Q 2888 2544 2791 2642 
Q 2694 2741 2522 2741 
Q 2213 2741 1980 2467 
Q 1747 2194 1656 1722 
L 1319 0 
L 197 0 
L 878 3500 
L 2003 3500 
L 1900 2988 
Q 2163 3284 2459 3434 
Q 2756 3584 3078 3584 
Q 3441 3584 3700 3398 
Q 3959 3213 4013 2919 
z
" id="DejaVuSans-BoldOblique-6d" transform="scale(0.015625)"/>
       <path d="M 3144 850 
L 1281 850 
L 819 0 
L -416 0 
L 2222 4666 
L 3597 4666 
L 4422 0 
L 3278 0 
L 3144 850 
z
M 1734 1697 
L 2988 1697 
L 2706 3494 
L 1734 1697 
z
" id="DejaVuSans-BoldOblique-41" transform="scale(0.015625)"/>
      </defs>
      <use transform="translate(0 0.015625)" xlink:href="#DejaVuSans-BoldOblique-49"/>
      <use transform="translate(37.207031 -16.390625)scale(0.7)" xlink:href="#DejaVuSans-BoldOblique-44"/>
      <use transform="translate(98.046875 0.015625)" xlink:href="#DejaVuSans-Bold-5b"/>
      <use transform="translate(143.75 0.015625)" xlink:href="#DejaVuSans-BoldOblique-6d"/>
      <use transform="translate(247.949219 0.015625)" xlink:href="#DejaVuSans-BoldOblique-41"/>
      <use transform="translate(325.341797 0.015625)" xlink:href="#DejaVuSans-Bold-5d"/>
     </g>
    </g>
   </g>
   <g id="line2d_79">
    <path clip-path="url(#p31d59c8ef1)" d="M 44.5 886.892812 
L 75.286207 886.065455 
L 106.072414 883.583381 
L 136.858621 879.446591 
L 167.644828 873.655086 
L 198.431034 866.208865 
L 229.217241 857.107928 
L 260.003448 846.352275 
L 290.789655 833.941906 
L 321.575862 819.876822 
L 352.362069 804.157022 
L 383.148276 786.782506 
L 413.934483 767.753274 
L 444.72069 747.069326 
L 475.506897 724.730663 
L 506.293103 700.737283 
L 537.07931 675.089188 
L 567.865517 647.786377 
L 598.651724 618.828851 
L 629.437931 588.216608 
L 660.224138 555.94965 
L 691.010345 522.027975 
L 721.796552 486.451585 
L 752.582759 449.22048 
L 783.368966 410.334658 
L 814.155172 369.79412 
L 844.941379 327.598867 
L 875.727586 283.748898 
L 906.513793 238.244213 
L 937.3 191.084812 
" style="fill:none;stroke:#ff0000;stroke-linecap:square;stroke-width:4;"/>
   </g>
   <g id="line2d_80">
    <path clip-path="url(#p31d59c8ef1)" d="M 342.1 886.892812 
L 362.624138 886.313662 
L 383.148276 884.57621 
L 403.672414 881.680458 
L 424.196552 877.626404 
L 444.72069 872.414049 
L 465.244828 866.043393 
L 485.768966 858.514436 
L 506.293103 849.827178 
L 526.817241 839.981619 
L 547.341379 828.977759 
L 567.865517 816.815598 
L 588.389655 803.495135 
L 608.913793 789.016372 
L 629.437931 773.379308 
L 649.962069 756.583942 
L 670.486207 738.630276 
L 691.010345 719.518308 
L 711.534483 699.248039 
L 732.058621 677.819469 
L 752.582759 655.232598 
L 773.106897 631.487427 
L 793.631034 606.583954 
L 814.155172 580.522179 
L 834.67931 553.302104 
L 855.203448 524.923728 
L 875.727586 495.387051 
L 896.251724 464.692072 
L 916.775862 432.838793 
L 937.3 399.827212 
" style="fill:none;stroke:#008000;stroke-linecap:square;stroke-width:4;"/>
   </g>
   <g id="line2d_81">
    <path clip-path="url(#p31d59c8ef1)" d="M 639.7 886.892812 
L 649.962069 886.561869 
L 660.224138 885.56904 
L 670.486207 883.914324 
L 680.748276 881.597722 
L 691.010345 878.619233 
L 701.272414 874.978859 
L 711.534483 870.676598 
L 721.796552 865.71245 
L 732.058621 860.086416 
L 742.32069 853.798496 
L 752.582759 846.84869 
L 762.844828 839.236997 
L 773.106897 830.963418 
L 783.368966 822.027953 
L 793.631034 812.430601 
L 803.893103 802.171363 
L 814.155172 791.250238 
L 824.417241 779.667228 
L 834.67931 767.422331 
L 844.941379 754.515547 
L 855.203448 740.946878 
L 865.465517 726.716322 
L 875.727586 711.823879 
L 885.989655 696.269551 
L 896.251724 680.053336 
L 906.513793 663.175234 
L 916.775862 645.635247 
L 927.037931 627.433373 
L 937.3 608.569612 
" style="fill:none;stroke:#0000ff;stroke-linecap:square;stroke-width:4;"/>
   </g>
   <g id="line2d_82">
    <path clip-path="url(#p31d59c8ef1)" d="M 44.5 297.934145 
L 91.489474 321.309553 
L 138.478947 344.684962 
L 185.468421 368.060371 
L 232.457895 391.43578 
L 279.447368 414.811188 
L 326.436842 438.186597 
L 373.426316 461.562006 
L 420.415789 484.937414 
L 467.405263 508.312823 
L 514.394737 531.688232 
L 561.384211 555.063641 
L 608.373684 578.439049 
L 655.363158 601.814458 
L 702.352632 625.189867 
L 749.342105 648.565276 
L 796.331579 671.940684 
L 843.321053 695.316093 
L 890.310526 718.691502 
L 937.3 742.066911 
" style="fill:none;stroke:#ffa500;stroke-linecap:square;stroke-width:3;"/>
   </g>
   <g id="line2d_83">
    <path clip-path="url(#p31d59c8ef1)" d="M 44.5 886.892812 
L 937.3 886.892812 
" style="fill:none;stroke:#ffffff;stroke-linecap:square;stroke-width:4;"/>
   </g>
   <g id="line2d_84">
    <path clip-path="url(#p31d59c8ef1)" d="M 937.3 886.892812 
L 937.3 17.132812 
" style="fill:none;stroke:#ffffff;stroke-linecap:square;stroke-width:5;"/>
   </g>
   <g id="patch_3">
    <path d="M 44.5 886.892812 
L 44.5 17.132812 
" style="fill:none;stroke:#000000;stroke-linecap:square;stroke-linejoin:miter;stroke-width:0.8;"/>
   </g>
   <g id="patch_4">
    <path d="M 937.3 886.892812 
L 937.3 17.132812 
" style="fill:none;stroke:#000000;stroke-linecap:square;stroke-linejoin:miter;stroke-width:0.8;"/>
   </g>
   <g id="patch_5">
    <path d="M 44.5 886.892812 
L 937.3 886.892812 
" style="fill:none;stroke:#000000;stroke-linecap:square;stroke-linejoin:miter;stroke-width:0.8;"/>
   </g>
   <g id="patch_6">
    <path d="M 44.5 17.132812 
L 937.3 17.132812 
" style="fill:none;stroke:#000000;stroke-linecap:square;stroke-linejoin:miter;stroke-width:0.8;"/>
   </g>
   <g id="legend_1">
    <g id="patch_7">
     <path d="M 79.62 143.043125 
L 926.7 143.043125 
Q 930.3 143.043125 930.3 139.443125 
L 930.3 31.732812 
Q 930.3 28.132812 926.7 28.132812 
L 79.62 28.132812 
Q 76.02 28.132812 76.02 31.732812 
L 76.02 139.443125 
Q 76.02 143.043125 79.62 143.043125 
z
" style="fill:#454545;opacity:0.5;stroke:#454545;stroke-linejoin:miter;"/>
    </g>
    <g id="patch_8">
     <path d="M 77.62 141.043125 
L 924.7 141.043125 
Q 928.3 141.043125 928.3 137.443125 
L 928.3 29.732812 
Q 928.3 26.132812 924.7 26.132812 
L 77.62 26.132812 
Q 74.02 26.132812 74.02 29.732812 
L 74.02 137.443125 
Q 74.02 141.043125 77.62 141.043125 
z
" style="fill:#e6e6e6;stroke:#cccccc;stroke-linejoin:miter;"/>
    </g>
    <g id="line2d_85">
     <path d="M 81.22 41.432812 
L 117.22 41.432812 
" style="fill:none;stroke:#ff0000;stroke-linecap:square;stroke-width:4;"/>
    </g>
    <g id="line2d_86"/>
    <g id="text_16">
     <!-- $Curva\ de\ Entrada\ Máxima,\ Vp=-6 ,\ I_{Dss}=20mA,I_{DQ}=8.57mA\ y\ V_{GS}=-2.07V$ -->
     <g transform="translate(131.62 47.732812)scale(0.18 -0.18)">
      <defs>
       <path d="M 3878 219 
Q 3447 66 3050 -12 
Q 2653 -91 2297 -91 
Q 1356 -91 793 425 
Q 231 941 231 1791 
Q 231 2350 409 2845 
Q 588 3341 934 3750 
Q 1344 4231 1920 4490 
Q 2497 4750 3163 4750 
Q 3525 4750 3890 4664 
Q 4256 4578 4634 4403 
L 4441 3438 
Q 4141 3666 3837 3772 
Q 3534 3878 3188 3878 
Q 2466 3878 1978 3322 
Q 1491 2766 1491 1931 
Q 1491 1394 1791 1087 
Q 2091 781 2619 781 
Q 2934 781 3289 895 
Q 3644 1009 4084 1253 
L 3878 219 
z
" id="DejaVuSans-BoldOblique-43" transform="scale(0.015625)"/>
       <path d="M 434 1363 
L 844 3500 
L 1966 3500 
L 1613 1678 
Q 1575 1500 1556 1375 
Q 1538 1250 1538 1178 
Q 1538 981 1647 872 
Q 1756 763 1959 763 
Q 2306 763 2556 1031 
Q 2806 1300 2900 1778 
L 3238 3500 
L 4359 3500 
L 3681 0 
L 2553 0 
L 2656 513 
Q 2369 209 2053 59 
Q 1738 -91 1388 -91 
Q 909 -91 646 162 
Q 384 416 384 878 
Q 384 988 396 1109 
Q 409 1231 434 1363 
z
" id="DejaVuSans-BoldOblique-75" transform="scale(0.015625)"/>
       <path d="M 3291 2547 
Q 3175 2613 3034 2647 
Q 2894 2681 2731 2681 
Q 2303 2681 2020 2406 
Q 1738 2131 1638 1613 
L 1319 0 
L 197 0 
L 878 3500 
L 2003 3500 
L 1881 2900 
Q 2103 3231 2436 3407 
Q 2769 3584 3175 3584 
Q 3234 3584 3309 3578 
Q 3384 3572 3488 3559 
L 3291 2547 
z
" id="DejaVuSans-BoldOblique-72" transform="scale(0.015625)"/>
       <path d="M 403 3500 
L 1434 3500 
L 1888 1056 
L 3206 3500 
L 4341 3500 
L 2284 0 
L 1100 0 
L 403 3500 
z
" id="DejaVuSans-BoldOblique-76" transform="scale(0.015625)"/>
       <path d="M 2106 1575 
Q 1688 1575 1473 1445 
Q 1259 1316 1259 1063 
Q 1259 872 1386 762 
Q 1513 653 1734 653 
Q 2078 653 2309 861 
Q 2541 1069 2619 1447 
L 2644 1575 
L 2106 1575 
z
M 3853 1997 
L 3463 0 
L 2344 0 
L 2438 519 
Q 2163 206 1856 57 
Q 1550 -91 1191 -91 
Q 694 -91 401 167 
Q 109 425 109 863 
Q 109 1531 626 1886 
Q 1144 2241 2119 2241 
L 2778 2241 
L 2791 2328 
Q 2800 2372 2801 2390 
Q 2803 2409 2803 2425 
Q 2803 2631 2608 2736 
Q 2413 2841 2028 2841 
Q 1681 2841 1356 2769 
Q 1031 2697 728 2553 
L 897 3406 
Q 1247 3494 1614 3539 
Q 1981 3584 2375 3584 
Q 3153 3584 3531 3317 
Q 3909 3050 3909 2503 
Q 3909 2397 3895 2270 
Q 3881 2144 3853 1997 
z
" id="DejaVuSans-BoldOblique-61" transform="scale(0.015625)"/>
       <path d="M 1966 722 
Q 2397 722 2667 1119 
Q 2938 1516 2938 2156 
Q 2938 2447 2786 2609 
Q 2634 2772 2363 2772 
Q 1938 2772 1663 2380 
Q 1388 1988 1388 1375 
Q 1388 1056 1536 889 
Q 1684 722 1966 722 
z
M 3144 2988 
L 3506 4863 
L 4634 4863 
L 3688 0 
L 2559 0 
L 2663 506 
Q 2406 200 2125 54 
Q 1844 -91 1509 -91 
Q 919 -91 575 284 
Q 231 659 231 1306 
Q 231 1709 351 2090 
Q 472 2472 697 2784 
Q 981 3178 1339 3381 
Q 1697 3584 2106 3584 
Q 2466 3584 2717 3439 
Q 2969 3294 3144 2988 
z
" id="DejaVuSans-BoldOblique-64" transform="scale(0.015625)"/>
       <path d="M 4025 1619 
L 3988 1441 
L 1369 1441 
Q 1369 1422 1366 1386 
Q 1363 1350 1363 1331 
Q 1363 991 1567 822 
Q 1772 653 2181 653 
Q 2534 653 2926 759 
Q 3319 866 3750 1075 
L 3578 206 
Q 3169 56 2764 -17 
Q 2359 -91 1941 -91 
Q 1122 -91 676 287 
Q 231 666 231 1356 
Q 231 1756 373 2132 
Q 516 2509 788 2822 
Q 1109 3197 1557 3390 
Q 2006 3584 2553 3584 
Q 3263 3584 3680 3206 
Q 4097 2828 4097 2188 
Q 4097 2063 4080 1923 
Q 4063 1784 4025 1619 
z
M 2969 2131 
Q 2978 2172 2983 2214 
Q 2988 2256 2988 2297 
Q 2988 2547 2838 2694 
Q 2688 2841 2431 2841 
Q 2103 2841 1873 2661 
Q 1644 2481 1522 2131 
L 2969 2131 
z
" id="DejaVuSans-BoldOblique-65" transform="scale(0.015625)"/>
       <path d="M 1044 4666 
L 4288 4666 
L 4109 3756 
L 2069 3756 
L 1900 2888 
L 3822 2888 
L 3641 1978 
L 1722 1978 
L 1516 909 
L 3622 909 
L 3450 0 
L 134 0 
L 1044 4666 
z
" id="DejaVuSans-BoldOblique-45" transform="scale(0.015625)"/>
       <path d="M 4128 2131 
L 3713 0 
L 2591 0 
L 2944 1825 
Q 2981 2003 3001 2126 
Q 3022 2250 3022 2322 
Q 3022 2522 2911 2631 
Q 2800 2741 2597 2741 
Q 2250 2741 2001 2470 
Q 1753 2200 1656 1722 
L 1319 0 
L 197 0 
L 878 3500 
L 2003 3500 
L 1900 2988 
Q 2209 3291 2521 3437 
Q 2834 3584 3175 3584 
Q 3659 3584 3921 3331 
Q 4184 3078 4184 2619 
Q 4184 2519 4170 2397 
Q 4156 2275 4128 2131 
z
" id="DejaVuSans-BoldOblique-6e" transform="scale(0.015625)"/>
       <path d="M 2303 4494 
L 2113 3500 
L 3256 3500 
L 3097 2700 
L 1953 2700 
L 1666 1219 
Q 1653 1169 1648 1134 
Q 1644 1100 1644 1069 
Q 1644 925 1739 862 
Q 1834 800 2059 800 
L 2638 800 
L 2478 0 
L 1538 0 
Q 1031 0 765 212 
Q 500 425 500 825 
Q 500 913 509 1013 
Q 519 1113 538 1216 
L 825 2700 
L 275 2700 
L 428 3500 
L 984 3500 
L 1178 4494 
L 2303 4494 
z
" id="DejaVuSans-BoldOblique-74" transform="scale(0.015625)"/>
       <path d="M 1044 4666 
L 2522 4666 
L 3122 2188 
L 4697 4666 
L 6234 4666 
L 5325 0 
L 4184 0 
L 4850 3444 
L 3231 897 
L 2584 897 
L 1941 3444 
L 1275 0 
L 134 0 
L 1044 4666 
z
" id="DejaVuSans-BoldOblique-4d" transform="scale(0.015625)"/>
       <path d="M 2106 1575 
Q 1688 1575 1473 1445 
Q 1259 1316 1259 1063 
Q 1259 872 1386 762 
Q 1513 653 1734 653 
Q 2078 653 2309 861 
Q 2541 1069 2619 1447 
L 2644 1575 
L 2106 1575 
z
M 3853 1997 
L 3463 0 
L 2344 0 
L 2438 519 
Q 2163 206 1856 57 
Q 1550 -91 1191 -91 
Q 694 -91 401 167 
Q 109 425 109 863 
Q 109 1531 626 1886 
Q 1144 2241 2119 2241 
L 2778 2241 
L 2791 2328 
Q 2800 2372 2801 2390 
Q 2803 2409 2803 2425 
Q 2803 2631 2608 2736 
Q 2413 2841 2028 2841 
Q 1681 2841 1356 2769 
Q 1031 2697 728 2553 
L 897 3406 
Q 1247 3494 1614 3539 
Q 1981 3584 2375 3584 
Q 3153 3584 3531 3317 
Q 3909 3050 3909 2503 
Q 3909 2397 3895 2270 
Q 3881 2144 3853 1997 
z
M 3097 5119 
L 4013 5119 
L 2644 3944 
L 2016 3944 
L 3097 5119 
z
" id="DejaVuSans-BoldOblique-e1" transform="scale(0.015625)"/>
       <path d="M 1416 1791 
L 488 3500 
L 1650 3500 
L 2169 2463 
L 3078 3500 
L 4294 3500 
L 2700 1797 
L 3675 0 
L 2509 0 
L 1959 1106 
L 953 0 
L -263 0 
L 1416 1791 
z
" id="DejaVuSans-BoldOblique-78" transform="scale(0.015625)"/>
       <path d="M 878 3500 
L 2003 3500 
L 1319 0 
L 197 0 
L 878 3500 
z
M 1141 4863 
L 2266 4863 
L 2088 3950 
L 959 3950 
L 1141 4863 
z
" id="DejaVuSans-BoldOblique-69" transform="scale(0.015625)"/>
       <path d="M 653 1209 
L 1778 1209 
L 1778 256 
L 1006 -909 
L 341 -909 
L 653 256 
L 653 1209 
z
" id="DejaVuSans-Bold-2c" transform="scale(0.015625)"/>
       <path d="M 1422 506 
L 1063 -1331 
L -63 -1331 
L 878 3500 
L 2003 3500 
L 1900 2988 
Q 2156 3294 2437 3439 
Q 2719 3584 3053 3584 
Q 3644 3584 3987 3209 
Q 4331 2834 4331 2188 
Q 4331 1784 4211 1403 
Q 4091 1022 3866 709 
Q 3581 316 3223 112 
Q 2866 -91 2456 -91 
Q 2097 -91 1845 54 
Q 1594 200 1422 506 
z
M 2597 2772 
Q 2166 2772 1892 2373 
Q 1619 1975 1619 1338 
Q 1619 1050 1773 886 
Q 1928 722 2203 722 
Q 2625 722 2900 1114 
Q 3175 1506 3175 2119 
Q 3175 2438 3026 2605 
Q 2878 2772 2597 2772 
z
" id="DejaVuSans-BoldOblique-70" transform="scale(0.015625)"/>
       <path d="M 678 3084 
L 4684 3084 
L 4684 2350 
L 678 2350 
L 678 3084 
z
M 678 1663 
L 4684 1663 
L 4684 922 
L 678 922 
L 678 1663 
z
" id="DejaVuSans-Bold-3d" transform="scale(0.015625)"/>
       <path d="M 678 2375 
L 4684 2375 
L 4684 1638 
L 678 1638 
L 678 2375 
z
" id="DejaVuSans-Bold-2212" transform="scale(0.015625)"/>
       <path d="M 2316 2303 
Q 2000 2303 1842 2098 
Q 1684 1894 1684 1484 
Q 1684 1075 1842 870 
Q 2000 666 2316 666 
Q 2634 666 2792 870 
Q 2950 1075 2950 1484 
Q 2950 1894 2792 2098 
Q 2634 2303 2316 2303 
z
M 3803 4544 
L 3803 3681 
Q 3506 3822 3243 3889 
Q 2981 3956 2731 3956 
Q 2194 3956 1894 3657 
Q 1594 3359 1544 2772 
Q 1750 2925 1990 3001 
Q 2231 3078 2516 3078 
Q 3231 3078 3670 2659 
Q 4109 2241 4109 1563 
Q 4109 813 3618 361 
Q 3128 -91 2303 -91 
Q 1394 -91 895 523 
Q 397 1138 397 2266 
Q 397 3422 980 4083 
Q 1563 4744 2578 4744 
Q 2900 4744 3203 4694 
Q 3506 4644 3803 4544 
z
" id="DejaVuSans-Bold-36" transform="scale(0.015625)"/>
       <path d="M 3584 3391 
L 3419 2522 
Q 3091 2678 2766 2759 
Q 2441 2841 2150 2841 
Q 1819 2841 1639 2755 
Q 1459 2669 1459 2509 
Q 1459 2416 1559 2359 
Q 1659 2303 1953 2241 
L 2156 2203 
Q 2834 2059 3106 1832 
Q 3378 1606 3378 1203 
Q 3378 594 2900 251 
Q 2422 -91 1563 -91 
Q 1203 -91 828 -34 
Q 453 22 63 134 
L 231 1013 
Q 534 834 879 743 
Q 1225 653 1588 653 
Q 1941 653 2119 737 
Q 2297 822 2297 984 
Q 2297 1097 2197 1159 
Q 2097 1222 1784 1288 
L 1581 1325 
Q 981 1450 725 1694 
Q 469 1938 469 2369 
Q 469 2953 911 3268 
Q 1353 3584 2175 3584 
Q 2534 3584 2882 3536 
Q 3231 3488 3584 3391 
z
" id="DejaVuSans-BoldOblique-73" transform="scale(0.015625)"/>
       <path d="M 1844 884 
L 3897 884 
L 3897 0 
L 506 0 
L 506 884 
L 2209 2388 
Q 2438 2594 2547 2791 
Q 2656 2988 2656 3200 
Q 2656 3528 2436 3728 
Q 2216 3928 1850 3928 
Q 1569 3928 1234 3808 
Q 900 3688 519 3450 
L 519 4475 
Q 925 4609 1322 4679 
Q 1719 4750 2100 4750 
Q 2938 4750 3402 4381 
Q 3866 4013 3866 3353 
Q 3866 2972 3669 2642 
Q 3472 2313 2841 1759 
L 1844 884 
z
" id="DejaVuSans-Bold-32" transform="scale(0.015625)"/>
       <path d="M 2944 2338 
Q 2944 3213 2780 3570 
Q 2616 3928 2228 3928 
Q 1841 3928 1675 3570 
Q 1509 3213 1509 2338 
Q 1509 1453 1675 1090 
Q 1841 728 2228 728 
Q 2613 728 2778 1090 
Q 2944 1453 2944 2338 
z
M 4147 2328 
Q 4147 1169 3647 539 
Q 3147 -91 2228 -91 
Q 1306 -91 806 539 
Q 306 1169 306 2328 
Q 306 3491 806 4120 
Q 1306 4750 2228 4750 
Q 3147 4750 3647 4120 
Q 4147 3491 4147 2328 
z
" id="DejaVuSans-Bold-30" transform="scale(0.015625)"/>
       <path d="M 2375 -84 
Q 2341 -88 2306 -89 
Q 2272 -91 2194 -91 
Q 1841 -91 1528 6 
Q 1216 103 959 294 
Q 616 547 423 939 
Q 231 1331 231 1778 
Q 231 2350 404 2858 
Q 578 3366 909 3769 
Q 1313 4266 1864 4508 
Q 2416 4750 3144 4750 
Q 4075 4750 4642 4233 
Q 5209 3716 5209 2881 
Q 5209 1900 4732 1161 
Q 4256 422 3406 84 
L 4122 -934 
L 2975 -934 
L 2375 -84 
z
M 3938 2753 
Q 3938 3303 3689 3590 
Q 3441 3878 2969 3878 
Q 2344 3878 1920 3317 
Q 1497 2756 1497 1913 
Q 1497 1375 1744 1078 
Q 1991 781 2431 781 
Q 2791 781 3070 932 
Q 3350 1084 3547 1381 
Q 3734 1666 3836 2022 
Q 3938 2378 3938 2753 
z
" id="DejaVuSans-BoldOblique-51" transform="scale(0.015625)"/>
       <path d="M 2228 2088 
Q 1891 2088 1709 1903 
Q 1528 1719 1528 1375 
Q 1528 1031 1709 848 
Q 1891 666 2228 666 
Q 2563 666 2741 848 
Q 2919 1031 2919 1375 
Q 2919 1722 2741 1905 
Q 2563 2088 2228 2088 
z
M 1350 2484 
Q 925 2613 709 2878 
Q 494 3144 494 3541 
Q 494 4131 934 4440 
Q 1375 4750 2228 4750 
Q 3075 4750 3515 4442 
Q 3956 4134 3956 3541 
Q 3956 3144 3739 2878 
Q 3522 2613 3097 2484 
Q 3572 2353 3814 2058 
Q 4056 1763 4056 1313 
Q 4056 619 3595 264 
Q 3134 -91 2228 -91 
Q 1319 -91 855 264 
Q 391 619 391 1313 
Q 391 1763 633 2058 
Q 875 2353 1350 2484 
z
M 1631 3419 
Q 1631 3141 1786 2991 
Q 1941 2841 2228 2841 
Q 2509 2841 2662 2991 
Q 2816 3141 2816 3419 
Q 2816 3697 2662 3845 
Q 2509 3994 2228 3994 
Q 1941 3994 1786 3844 
Q 1631 3694 1631 3419 
z
" id="DejaVuSans-Bold-38" transform="scale(0.015625)"/>
       <path d="M 653 1209 
L 1778 1209 
L 1778 0 
L 653 0 
L 653 1209 
z
" id="DejaVuSans-Bold-2e" transform="scale(0.015625)"/>
       <path d="M 678 4666 
L 3669 4666 
L 3669 3781 
L 1638 3781 
L 1638 3059 
Q 1775 3097 1914 3117 
Q 2053 3138 2203 3138 
Q 3056 3138 3531 2711 
Q 4006 2284 4006 1522 
Q 4006 766 3489 337 
Q 2972 -91 2053 -91 
Q 1656 -91 1267 -14 
Q 878 63 494 219 
L 494 1166 
Q 875 947 1217 837 
Q 1559 728 1863 728 
Q 2300 728 2551 942 
Q 2803 1156 2803 1522 
Q 2803 1891 2551 2103 
Q 2300 2316 1863 2316 
Q 1603 2316 1309 2248 
Q 1016 2181 678 2041 
L 678 4666 
z
" id="DejaVuSans-Bold-35" transform="scale(0.015625)"/>
       <path d="M 428 4666 
L 3944 4666 
L 3944 3988 
L 2125 0 
L 953 0 
L 2675 3781 
L 428 3781 
L 428 4666 
z
" id="DejaVuSans-Bold-37" transform="scale(0.015625)"/>
       <path d="M 422 3500 
L 1478 3500 
L 1959 1075 
L 3200 3500 
L 4397 3500 
L 2181 -331 
Q 1809 -978 1493 -1179 
Q 1178 -1381 678 -1381 
L 0 -1381 
L 116 -647 
L 469 -647 
Q 744 -647 895 -555 
Q 1047 -463 1166 -231 
L 1269 -44 
L 422 3500 
z
" id="DejaVuSans-BoldOblique-79" transform="scale(0.015625)"/>
      </defs>
      <use transform="translate(0 0.015625)" xlink:href="#DejaVuSans-BoldOblique-43"/>
      <use transform="translate(73.388672 0.015625)" xlink:href="#DejaVuSans-BoldOblique-75"/>
      <use transform="translate(144.580078 0.015625)" xlink:href="#DejaVuSans-BoldOblique-72"/>
      <use transform="translate(193.896484 0.015625)" xlink:href="#DejaVuSans-BoldOblique-76"/>
      <use transform="translate(259.082031 0.015625)" xlink:href="#DejaVuSans-BoldOblique-61"/>
      <use transform="translate(361.295226 0.015625)" xlink:href="#DejaVuSans-BoldOblique-64"/>
      <use transform="translate(432.877257 0.015625)" xlink:href="#DejaVuSans-BoldOblique-65"/>
      <use transform="translate(535.432248 0.015625)" xlink:href="#DejaVuSans-BoldOblique-45"/>
      <use transform="translate(603.742795 0.015625)" xlink:href="#DejaVuSans-BoldOblique-6e"/>
      <use transform="translate(674.934201 0.015625)" xlink:href="#DejaVuSans-BoldOblique-74"/>
      <use transform="translate(722.736936 0.015625)" xlink:href="#DejaVuSans-BoldOblique-72"/>
      <use transform="translate(772.053342 0.015625)" xlink:href="#DejaVuSans-BoldOblique-61"/>
      <use transform="translate(839.533811 0.015625)" xlink:href="#DejaVuSans-BoldOblique-64"/>
      <use transform="translate(911.115842 0.015625)" xlink:href="#DejaVuSans-BoldOblique-61"/>
      <use transform="translate(1013.329036 0.015625)" xlink:href="#DejaVuSans-BoldOblique-4d"/>
      <use transform="translate(1112.840755 0.015625)" xlink:href="#DejaVuSans-BoldOblique-e1"/>
      <use transform="translate(1180.321224 0.015625)" xlink:href="#DejaVuSans-BoldOblique-78"/>
      <use transform="translate(1244.823177 0.015625)" xlink:href="#DejaVuSans-BoldOblique-69"/>
      <use transform="translate(1279.100521 0.015625)" xlink:href="#DejaVuSans-BoldOblique-6d"/>
      <use transform="translate(1383.299739 0.015625)" xlink:href="#DejaVuSans-BoldOblique-61"/>
      <use transform="translate(1450.780208 0.015625)" xlink:href="#DejaVuSans-Bold-2c"/>
      <use transform="translate(1544.341059 0.015625)" xlink:href="#DejaVuSans-BoldOblique-56"/>
      <use transform="translate(1621.733637 0.015625)" xlink:href="#DejaVuSans-BoldOblique-70"/>
      <use transform="translate(1714.155512 0.015625)" xlink:href="#DejaVuSans-Bold-3d"/>
      <use transform="translate(1839.624262 0.015625)" xlink:href="#DejaVuSans-Bold-2212"/>
      <use transform="translate(1944.253168 0.015625)" xlink:href="#DejaVuSans-Bold-36"/>
      <use transform="translate(2013.833246 0.015625)" xlink:href="#DejaVuSans-Bold-2c"/>
      <use transform="translate(2107.394097 0.015625)" xlink:href="#DejaVuSans-BoldOblique-49"/>
      <use transform="translate(2144.601128 -16.390625)scale(0.7)" xlink:href="#DejaVuSans-BoldOblique-44"/>
      <use transform="translate(2202.706597 -16.390625)scale(0.7)" xlink:href="#DejaVuSans-BoldOblique-73"/>
      <use transform="translate(2244.371636 -16.390625)scale(0.7)" xlink:href="#DejaVuSans-BoldOblique-73"/>
      <use transform="translate(2309.610894 0.015625)" xlink:href="#DejaVuSans-Bold-3d"/>
      <use transform="translate(2414.2398 0.015625)" xlink:href="#DejaVuSans-Bold-32"/>
      <use transform="translate(2483.819878 0.015625)" xlink:href="#DejaVuSans-Bold-30"/>
      <use transform="translate(2553.399956 0.015625)" xlink:href="#DejaVuSans-BoldOblique-6d"/>
      <use transform="translate(2657.599175 0.015625)" xlink:href="#DejaVuSans-BoldOblique-41"/>
      <use transform="translate(2734.991753 0.015625)" xlink:href="#DejaVuSans-Bold-2c"/>
      <use transform="translate(2793.819878 0.015625)" xlink:href="#DejaVuSans-BoldOblique-49"/>
      <use transform="translate(2831.026909 -16.390625)scale(0.7)" xlink:href="#DejaVuSans-BoldOblique-44"/>
      <use transform="translate(2889.132378 -16.390625)scale(0.7)" xlink:href="#DejaVuSans-BoldOblique-51"/>
      <use transform="translate(2972.213433 0.015625)" xlink:href="#DejaVuSans-Bold-3d"/>
      <use transform="translate(3076.842339 0.015625)" xlink:href="#DejaVuSans-Bold-38"/>
      <use transform="translate(3146.422417 0.015625)" xlink:href="#DejaVuSans-Bold-2e"/>
      <use transform="translate(3184.410698 0.015625)" xlink:href="#DejaVuSans-Bold-35"/>
      <use transform="translate(3249.490776 0.015625)" xlink:href="#DejaVuSans-Bold-37"/>
      <use transform="translate(3319.070854 0.015625)" xlink:href="#DejaVuSans-BoldOblique-6d"/>
      <use transform="translate(3423.270073 0.015625)" xlink:href="#DejaVuSans-BoldOblique-41"/>
      <use transform="translate(3535.395377 0.015625)" xlink:href="#DejaVuSans-BoldOblique-79"/>
      <use transform="translate(3635.313649 0.015625)" xlink:href="#DejaVuSans-BoldOblique-56"/>
      <use transform="translate(3712.706228 -16.390625)scale(0.7)" xlink:href="#DejaVuSans-BoldOblique-47"/>
      <use transform="translate(3770.162282 -16.390625)scale(0.7)" xlink:href="#DejaVuSans-BoldOblique-53"/>
      <use transform="translate(3844.15154 0.015625)" xlink:href="#DejaVuSans-Bold-3d"/>
      <use transform="translate(3969.62029 0.015625)" xlink:href="#DejaVuSans-Bold-2212"/>
      <use transform="translate(4074.249196 0.015625)" xlink:href="#DejaVuSans-Bold-32"/>
      <use transform="translate(4143.829274 0.015625)" xlink:href="#DejaVuSans-Bold-2e"/>
      <use transform="translate(4181.817556 0.015625)" xlink:href="#DejaVuSans-Bold-30"/>
      <use transform="translate(4251.397634 0.015625)" xlink:href="#DejaVuSans-Bold-37"/>
      <use transform="translate(4307.727712 0.015625)" xlink:href="#DejaVuSans-BoldOblique-56"/>
     </g>
    </g>
    <g id="line2d_87">
     <path d="M 81.22 68.972812 
L 117.22 68.972812 
" style="fill:none;stroke:#008000;stroke-linecap:square;stroke-width:4;"/>
    </g>
    <g id="line2d_88"/>
    <g id="text_17">
     <!-- $Curva\ de\ Entrada\ Media,\ Vp=-4 ,\ I_{Dss}=14mA,I_{DQ}=6.76mA\ y\ V_{GS}=-1.22V$ -->
     <g transform="translate(131.62 75.272812)scale(0.18 -0.18)">
      <defs>
       <path d="M 2356 3675 
L 1038 1722 
L 2356 1722 
L 2356 3675 
z
M 2156 4666 
L 3494 4666 
L 3494 1722 
L 4159 1722 
L 4159 850 
L 3494 850 
L 3494 0 
L 2356 0 
L 2356 850 
L 288 850 
L 288 1881 
L 2156 4666 
z
" id="DejaVuSans-Bold-34" transform="scale(0.015625)"/>
       <path d="M 750 831 
L 1813 831 
L 1813 3847 
L 722 3622 
L 722 4441 
L 1806 4666 
L 2950 4666 
L 2950 831 
L 4013 831 
L 4013 0 
L 750 0 
L 750 831 
z
" id="DejaVuSans-Bold-31" transform="scale(0.015625)"/>
      </defs>
      <use transform="translate(0 0.015625)" xlink:href="#DejaVuSans-BoldOblique-43"/>
      <use transform="translate(73.388672 0.015625)" xlink:href="#DejaVuSans-BoldOblique-75"/>
      <use transform="translate(144.580078 0.015625)" xlink:href="#DejaVuSans-BoldOblique-72"/>
      <use transform="translate(193.896484 0.015625)" xlink:href="#DejaVuSans-BoldOblique-76"/>
      <use transform="translate(259.082031 0.015625)" xlink:href="#DejaVuSans-BoldOblique-61"/>
      <use transform="translate(361.295226 0.015625)" xlink:href="#DejaVuSans-BoldOblique-64"/>
      <use transform="translate(432.877257 0.015625)" xlink:href="#DejaVuSans-BoldOblique-65"/>
      <use transform="translate(535.432248 0.015625)" xlink:href="#DejaVuSans-BoldOblique-45"/>
      <use transform="translate(603.742795 0.015625)" xlink:href="#DejaVuSans-BoldOblique-6e"/>
      <use transform="translate(674.934201 0.015625)" xlink:href="#DejaVuSans-BoldOblique-74"/>
      <use transform="translate(722.736936 0.015625)" xlink:href="#DejaVuSans-BoldOblique-72"/>
      <use transform="translate(772.053342 0.015625)" xlink:href="#DejaVuSans-BoldOblique-61"/>
      <use transform="translate(839.533811 0.015625)" xlink:href="#DejaVuSans-BoldOblique-64"/>
      <use transform="translate(911.115842 0.015625)" xlink:href="#DejaVuSans-BoldOblique-61"/>
      <use transform="translate(1013.329036 0.015625)" xlink:href="#DejaVuSans-BoldOblique-4d"/>
      <use transform="translate(1112.840755 0.015625)" xlink:href="#DejaVuSans-BoldOblique-65"/>
      <use transform="translate(1180.663021 0.015625)" xlink:href="#DejaVuSans-BoldOblique-64"/>
      <use transform="translate(1252.245052 0.015625)" xlink:href="#DejaVuSans-BoldOblique-69"/>
      <use transform="translate(1286.522396 0.015625)" xlink:href="#DejaVuSans-BoldOblique-61"/>
      <use transform="translate(1354.002864 0.015625)" xlink:href="#DejaVuSans-Bold-2c"/>
      <use transform="translate(1447.563715 0.015625)" xlink:href="#DejaVuSans-BoldOblique-56"/>
      <use transform="translate(1524.956293 0.015625)" xlink:href="#DejaVuSans-BoldOblique-70"/>
      <use transform="translate(1617.378168 0.015625)" xlink:href="#DejaVuSans-Bold-3d"/>
      <use transform="translate(1742.846918 0.015625)" xlink:href="#DejaVuSans-Bold-2212"/>
      <use transform="translate(1847.475824 0.015625)" xlink:href="#DejaVuSans-Bold-34"/>
      <use transform="translate(1917.055902 0.015625)" xlink:href="#DejaVuSans-Bold-2c"/>
      <use transform="translate(2010.616753 0.015625)" xlink:href="#DejaVuSans-BoldOblique-49"/>
      <use transform="translate(2047.823784 -16.390625)scale(0.7)" xlink:href="#DejaVuSans-BoldOblique-44"/>
      <use transform="translate(2105.929253 -16.390625)scale(0.7)" xlink:href="#DejaVuSans-BoldOblique-73"/>
      <use transform="translate(2147.594292 -16.390625)scale(0.7)" xlink:href="#DejaVuSans-BoldOblique-73"/>
      <use transform="translate(2212.83355 0.015625)" xlink:href="#DejaVuSans-Bold-3d"/>
      <use transform="translate(2317.462456 0.015625)" xlink:href="#DejaVuSans-Bold-31"/>
      <use transform="translate(2387.042534 0.015625)" xlink:href="#DejaVuSans-Bold-34"/>
      <use transform="translate(2456.622612 0.015625)" xlink:href="#DejaVuSans-BoldOblique-6d"/>
      <use transform="translate(2560.821831 0.015625)" xlink:href="#DejaVuSans-BoldOblique-41"/>
      <use transform="translate(2638.214409 0.015625)" xlink:href="#DejaVuSans-Bold-2c"/>
      <use transform="translate(2697.042534 0.015625)" xlink:href="#DejaVuSans-BoldOblique-49"/>
      <use transform="translate(2734.249565 -16.390625)scale(0.7)" xlink:href="#DejaVuSans-BoldOblique-44"/>
      <use transform="translate(2792.355034 -16.390625)scale(0.7)" xlink:href="#DejaVuSans-BoldOblique-51"/>
      <use transform="translate(2875.436089 0.015625)" xlink:href="#DejaVuSans-Bold-3d"/>
      <use transform="translate(2980.064995 0.015625)" xlink:href="#DejaVuSans-Bold-36"/>
      <use transform="translate(3049.645073 0.015625)" xlink:href="#DejaVuSans-Bold-2e"/>
      <use transform="translate(3087.633354 0.015625)" xlink:href="#DejaVuSans-Bold-37"/>
      <use transform="translate(3157.213433 0.015625)" xlink:href="#DejaVuSans-Bold-36"/>
      <use transform="translate(3226.793511 0.015625)" xlink:href="#DejaVuSans-BoldOblique-6d"/>
      <use transform="translate(3330.992729 0.015625)" xlink:href="#DejaVuSans-BoldOblique-41"/>
      <use transform="translate(3443.118033 0.015625)" xlink:href="#DejaVuSans-BoldOblique-79"/>
      <use transform="translate(3543.036306 0.015625)" xlink:href="#DejaVuSans-BoldOblique-56"/>
      <use transform="translate(3620.428884 -16.390625)scale(0.7)" xlink:href="#DejaVuSans-BoldOblique-47"/>
      <use transform="translate(3677.884938 -16.390625)scale(0.7)" xlink:href="#DejaVuSans-BoldOblique-53"/>
      <use transform="translate(3751.874196 0.015625)" xlink:href="#DejaVuSans-Bold-3d"/>
      <use transform="translate(3877.342946 0.015625)" xlink:href="#DejaVuSans-Bold-2212"/>
      <use transform="translate(3981.971853 0.015625)" xlink:href="#DejaVuSans-Bold-31"/>
      <use transform="translate(4051.551931 0.015625)" xlink:href="#DejaVuSans-Bold-2e"/>
      <use transform="translate(4085.040212 0.015625)" xlink:href="#DejaVuSans-Bold-32"/>
      <use transform="translate(4154.62029 0.015625)" xlink:href="#DejaVuSans-Bold-32"/>
      <use transform="translate(4224.200368 0.015625)" xlink:href="#DejaVuSans-BoldOblique-56"/>
     </g>
    </g>
    <g id="line2d_89">
     <path d="M 81.22 97.232812 
L 117.22 97.232812 
" style="fill:none;stroke:#0000ff;stroke-linecap:square;stroke-width:4;"/>
    </g>
    <g id="line2d_90"/>
    <g id="text_18">
     <!-- $Curva\ de\ Entrada\ Mínima,\ Vp=-2 ,\ I_{Dss}=8mA,I_{DQ}=5.04mA\ y\ V_{GS}=-0.41V$ -->
     <g transform="translate(131.62 103.532812)scale(0.18 -0.18)">
      <defs>
       <path d="M 878 3500 
L 2003 3500 
L 1319 0 
L 197 0 
L 878 3500 
z
M 2094 5119 
L 3009 5119 
L 1641 3944 
L 1013 3944 
L 2094 5119 
z
" id="DejaVuSans-BoldOblique-ed" transform="scale(0.015625)"/>
      </defs>
      <use transform="translate(0 0.015625)" xlink:href="#DejaVuSans-BoldOblique-43"/>
      <use transform="translate(73.388672 0.015625)" xlink:href="#DejaVuSans-BoldOblique-75"/>
      <use transform="translate(144.580078 0.015625)" xlink:href="#DejaVuSans-BoldOblique-72"/>
      <use transform="translate(193.896484 0.015625)" xlink:href="#DejaVuSans-BoldOblique-76"/>
      <use transform="translate(259.082031 0.015625)" xlink:href="#DejaVuSans-BoldOblique-61"/>
      <use transform="translate(361.295226 0.015625)" xlink:href="#DejaVuSans-BoldOblique-64"/>
      <use transform="translate(432.877257 0.015625)" xlink:href="#DejaVuSans-BoldOblique-65"/>
      <use transform="translate(535.432248 0.015625)" xlink:href="#DejaVuSans-BoldOblique-45"/>
      <use transform="translate(603.742795 0.015625)" xlink:href="#DejaVuSans-BoldOblique-6e"/>
      <use transform="translate(674.934201 0.015625)" xlink:href="#DejaVuSans-BoldOblique-74"/>
      <use transform="translate(722.736936 0.015625)" xlink:href="#DejaVuSans-BoldOblique-72"/>
      <use transform="translate(772.053342 0.015625)" xlink:href="#DejaVuSans-BoldOblique-61"/>
      <use transform="translate(839.533811 0.015625)" xlink:href="#DejaVuSans-BoldOblique-64"/>
      <use transform="translate(911.115842 0.015625)" xlink:href="#DejaVuSans-BoldOblique-61"/>
      <use transform="translate(1013.329036 0.015625)" xlink:href="#DejaVuSans-BoldOblique-4d"/>
      <use transform="translate(1112.840755 0.015625)" xlink:href="#DejaVuSans-BoldOblique-ed"/>
      <use transform="translate(1147.118099 0.015625)" xlink:href="#DejaVuSans-BoldOblique-6e"/>
      <use transform="translate(1218.309505 0.015625)" xlink:href="#DejaVuSans-BoldOblique-69"/>
      <use transform="translate(1252.586849 0.015625)" xlink:href="#DejaVuSans-BoldOblique-6d"/>
      <use transform="translate(1356.786067 0.015625)" xlink:href="#DejaVuSans-BoldOblique-61"/>
      <use transform="translate(1424.266536 0.015625)" xlink:href="#DejaVuSans-Bold-2c"/>
      <use transform="translate(1517.827387 0.015625)" xlink:href="#DejaVuSans-BoldOblique-56"/>
      <use transform="translate(1595.219965 0.015625)" xlink:href="#DejaVuSans-BoldOblique-70"/>
      <use transform="translate(1687.64184 0.015625)" xlink:href="#DejaVuSans-Bold-3d"/>
      <use transform="translate(1813.11059 0.015625)" xlink:href="#DejaVuSans-Bold-2212"/>
      <use transform="translate(1917.739496 0.015625)" xlink:href="#DejaVuSans-Bold-32"/>
      <use transform="translate(1987.319574 0.015625)" xlink:href="#DejaVuSans-Bold-2c"/>
      <use transform="translate(2080.880425 0.015625)" xlink:href="#DejaVuSans-BoldOblique-49"/>
      <use transform="translate(2118.087456 -16.390625)scale(0.7)" xlink:href="#DejaVuSans-BoldOblique-44"/>
      <use transform="translate(2176.192925 -16.390625)scale(0.7)" xlink:href="#DejaVuSans-BoldOblique-73"/>
      <use transform="translate(2217.857964 -16.390625)scale(0.7)" xlink:href="#DejaVuSans-BoldOblique-73"/>
      <use transform="translate(2283.097222 0.015625)" xlink:href="#DejaVuSans-Bold-3d"/>
      <use transform="translate(2387.726128 0.015625)" xlink:href="#DejaVuSans-Bold-38"/>
      <use transform="translate(2457.306206 0.015625)" xlink:href="#DejaVuSans-BoldOblique-6d"/>
      <use transform="translate(2561.505425 0.015625)" xlink:href="#DejaVuSans-BoldOblique-41"/>
      <use transform="translate(2638.898003 0.015625)" xlink:href="#DejaVuSans-Bold-2c"/>
      <use transform="translate(2697.726128 0.015625)" xlink:href="#DejaVuSans-BoldOblique-49"/>
      <use transform="translate(2734.933159 -16.390625)scale(0.7)" xlink:href="#DejaVuSans-BoldOblique-44"/>
      <use transform="translate(2793.038628 -16.390625)scale(0.7)" xlink:href="#DejaVuSans-BoldOblique-51"/>
      <use transform="translate(2876.119683 0.015625)" xlink:href="#DejaVuSans-Bold-3d"/>
      <use transform="translate(2980.748589 0.015625)" xlink:href="#DejaVuSans-Bold-35"/>
      <use transform="translate(3050.328667 0.015625)" xlink:href="#DejaVuSans-Bold-2e"/>
      <use transform="translate(3088.316948 0.015625)" xlink:href="#DejaVuSans-Bold-30"/>
      <use transform="translate(3157.897026 0.015625)" xlink:href="#DejaVuSans-Bold-34"/>
      <use transform="translate(3227.477104 0.015625)" xlink:href="#DejaVuSans-BoldOblique-6d"/>
      <use transform="translate(3331.676323 0.015625)" xlink:href="#DejaVuSans-BoldOblique-41"/>
      <use transform="translate(3443.801627 0.015625)" xlink:href="#DejaVuSans-BoldOblique-79"/>
      <use transform="translate(3543.719899 0.015625)" xlink:href="#DejaVuSans-BoldOblique-56"/>
      <use transform="translate(3621.112478 -16.390625)scale(0.7)" xlink:href="#DejaVuSans-BoldOblique-47"/>
      <use transform="translate(3678.568532 -16.390625)scale(0.7)" xlink:href="#DejaVuSans-BoldOblique-53"/>
      <use transform="translate(3752.55779 0.015625)" xlink:href="#DejaVuSans-Bold-3d"/>
      <use transform="translate(3878.02654 0.015625)" xlink:href="#DejaVuSans-Bold-2212"/>
      <use transform="translate(3982.655446 0.015625)" xlink:href="#DejaVuSans-Bold-30"/>
      <use transform="translate(4052.235524 0.015625)" xlink:href="#DejaVuSans-Bold-2e"/>
      <use transform="translate(4090.223806 0.015625)" xlink:href="#DejaVuSans-Bold-34"/>
      <use transform="translate(4159.803884 0.015625)" xlink:href="#DejaVuSans-Bold-31"/>
      <use transform="translate(4229.383962 0.015625)" xlink:href="#DejaVuSans-BoldOblique-56"/>
     </g>
    </g>
    <g id="line2d_91">
     <path d="M 81.22 123.692812 
L 117.22 123.692812 
" style="fill:none;stroke:#ffa500;stroke-linecap:square;stroke-width:3;"/>
    </g>
    <g id="line2d_92"/>
    <g id="text_19">
     <!-- $Circuito\ Externo\ Entrada$ -->
     <g transform="translate(131.62 129.992812)scale(0.18 -0.18)">
      <defs>
       <path d="M 3719 3391 
L 3541 2478 
Q 3316 2628 3097 2706 
Q 2878 2784 2669 2784 
Q 2122 2784 1775 2417 
Q 1428 2050 1428 1478 
Q 1428 1113 1643 911 
Q 1859 709 2253 709 
Q 2516 709 2769 787 
Q 3022 866 3250 1019 
L 3078 103 
Q 2800 6 2519 -42 
Q 2238 -91 1953 -91 
Q 1128 -91 683 279 
Q 238 650 238 1331 
Q 238 1759 402 2162 
Q 566 2566 872 2888 
Q 1213 3241 1653 3412 
Q 2094 3584 2669 3584 
Q 2934 3584 3196 3536 
Q 3459 3488 3719 3391 
z
" id="DejaVuSans-BoldOblique-63" transform="scale(0.015625)"/>
       <path d="M 2400 2784 
Q 1966 2784 1684 2390 
Q 1403 1997 1403 1388 
Q 1403 1056 1554 882 
Q 1706 709 1997 709 
Q 2431 709 2712 1104 
Q 2994 1500 2994 2113 
Q 2994 2441 2842 2612 
Q 2691 2784 2400 2784 
z
M 2491 3584 
Q 3272 3584 3719 3187 
Q 4166 2791 4166 2106 
Q 4166 1709 4025 1336 
Q 3884 963 3616 653 
Q 3297 284 2862 96 
Q 2428 -91 1894 -91 
Q 1122 -91 676 306 
Q 231 703 231 1388 
Q 231 1781 375 2157 
Q 519 2534 788 2847 
Q 1100 3209 1533 3396 
Q 1966 3584 2491 3584 
z
" id="DejaVuSans-BoldOblique-6f" transform="scale(0.015625)"/>
      </defs>
      <use transform="translate(0 0.015625)" xlink:href="#DejaVuSans-BoldOblique-43"/>
      <use transform="translate(73.388672 0.015625)" xlink:href="#DejaVuSans-BoldOblique-69"/>
      <use transform="translate(107.666016 0.015625)" xlink:href="#DejaVuSans-BoldOblique-72"/>
      <use transform="translate(156.982422 0.015625)" xlink:href="#DejaVuSans-BoldOblique-63"/>
      <use transform="translate(216.259766 0.015625)" xlink:href="#DejaVuSans-BoldOblique-75"/>
      <use transform="translate(287.451172 0.015625)" xlink:href="#DejaVuSans-BoldOblique-69"/>
      <use transform="translate(321.728516 0.015625)" xlink:href="#DejaVuSans-BoldOblique-74"/>
      <use transform="translate(369.53125 0.015625)" xlink:href="#DejaVuSans-BoldOblique-6f"/>
      <use transform="translate(472.965147 0.015625)" xlink:href="#DejaVuSans-BoldOblique-45"/>
      <use transform="translate(541.275694 0.015625)" xlink:href="#DejaVuSans-BoldOblique-78"/>
      <use transform="translate(605.777647 0.015625)" xlink:href="#DejaVuSans-BoldOblique-74"/>
      <use transform="translate(653.580382 0.015625)" xlink:href="#DejaVuSans-BoldOblique-65"/>
      <use transform="translate(721.402647 0.015625)" xlink:href="#DejaVuSans-BoldOblique-72"/>
      <use transform="translate(770.719054 0.015625)" xlink:href="#DejaVuSans-BoldOblique-6e"/>
      <use transform="translate(841.91046 0.015625)" xlink:href="#DejaVuSans-BoldOblique-6f"/>
      <use transform="translate(945.344357 0.015625)" xlink:href="#DejaVuSans-BoldOblique-45"/>
      <use transform="translate(1013.654904 0.015625)" xlink:href="#DejaVuSans-BoldOblique-6e"/>
      <use transform="translate(1084.846311 0.015625)" xlink:href="#DejaVuSans-BoldOblique-74"/>
      <use transform="translate(1132.649045 0.015625)" xlink:href="#DejaVuSans-BoldOblique-72"/>
      <use transform="translate(1181.965451 0.015625)" xlink:href="#DejaVuSans-BoldOblique-61"/>
      <use transform="translate(1249.44592 0.015625)" xlink:href="#DejaVuSans-BoldOblique-64"/>
      <use transform="translate(1321.027951 0.015625)" xlink:href="#DejaVuSans-BoldOblique-61"/>
     </g>
    </g>
   </g>
  </g>
 </g>
 <defs>
  <clipPath id="p31d59c8ef1">
   <rect height="869.76" width="892.8" x="44.5" y="17.132812"/>
  </clipPath>
 </defs>
</svg>
