<?xml version="1.0" encoding="utf-8" standalone="no"?>
<!DOCTYPE svg PUBLIC "-//W3C//DTD SVG 1.1//EN"
  "http://www.w3.org/Graphics/SVG/1.1/DTD/svg11.dtd">
<svg height="964.626406pt" version="1.1" viewBox="0 0 1009.854687 964.626406" width="1009.854687pt" xmlns="http://www.w3.org/2000/svg" xmlns:xlink="http://www.w3.org/1999/xlink">
 <metadata>
  <rdf:RDF xmlns:cc="http://creativecommons.org/ns#" xmlns:dc="http://purl.org/dc/elements/1.1/" xmlns:rdf="http://www.w3.org/1999/02/22-rdf-syntax-ns#">
   <cc:Work>
    <dc:type rdf:resource="http://purl.org/dc/dcmitype/StillImage"/>
    <dc:date>2022-06-02T19:28:57.515014</dc:date>
    <dc:format>image/svg+xml</dc:format>
    <dc:creator>
     <cc:Agent>
      <dc:title>Matplotlib v3.4.3, https://matplotlib.org/</dc:title>
     </cc:Agent>
    </dc:creator>
   </cc:Work>
  </rdf:RDF>
 </metadata>
 <defs>
  <style type="text/css">*{stroke-linecap:butt;stroke-linejoin:round;}</style>
 </defs>
 <g id="figure_1">
  <g id="patch_1">
   <path d="M 0 964.626406 
L 1009.854687 964.626406 
L 1009.854687 0 
L 0 0 
z
" style="fill:#212946;"/>
  </g>
  <g id="axes_1">
   <g id="patch_2">
    <path d="M 88.98125 888.357656 
L 981.78125 888.357656 
L 981.78125 18.597656 
L 88.98125 18.597656 
z
" style="fill:#212946;"/>
   </g>
   <g id="PathCollection_1">
    <defs>
     <path d="M 0 3 
C 0.795609 3 1.55874 2.683901 2.12132 2.12132 
C 2.683901 1.55874 3 0.795609 3 -0 
C 3 -0.795609 2.683901 -1.55874 2.12132 -2.12132 
C 1.55874 -2.683901 0.795609 -3 0 -3 
C -0.795609 -3 -1.55874 -2.683901 -2.12132 -2.12132 
C -2.683901 -1.55874 -3 -0.795609 -3 0 
C -3 0.795609 -2.683901 1.55874 -2.12132 2.12132 
C -1.55874 2.683901 -0.795609 3 0 3 
z
" id="C0_0_699e512d54"/>
    </defs>
    <g clip-path="url(#p6c1e0054a2)">
     <use style="fill:#ff0000;stroke:#ff0000;stroke-width:7;" x="356.8183" xlink:href="#C0_0_699e512d54" y="590.15282"/>
    </g>
    <g clip-path="url(#p6c1e0054a2)">
     <use style="fill:#008000;stroke:#008000;stroke-width:7;" x="488.917194" xlink:href="#C0_0_699e512d54" y="653.184603"/>
    </g>
    <g clip-path="url(#p6c1e0054a2)">
     <use style="fill:#0000ff;stroke:#0000ff;stroke-width:7;" x="614.273286" xlink:href="#C0_0_699e512d54" y="712.999017"/>
    </g>
   </g>
   <g id="matplotlib.axis_1">
    <g id="xtick_1">
     <g id="line2d_1">
      <path clip-path="url(#p6c1e0054a2)" d="M 88.98125 888.357656 
L 88.98125 18.597656 
" style="fill:none;stroke:#808080;stroke-dasharray:2.96,1.28;stroke-dashoffset:0;stroke-width:0.8;"/>
     </g>
     <g id="line2d_2">
      <defs>
       <path d="M 0 0 
L 0 3.5 
" id="m504148a725" style="stroke:#ffffff;stroke-width:0.8;"/>
      </defs>
      <g>
       <use style="fill:#ffffff;stroke:#ffffff;stroke-width:0.8;" x="88.98125" xlink:href="#m504148a725" y="888.357656"/>
      </g>
     </g>
     <g id="text_1">
      <!-- 0 -->
      <g style="fill:#ffffff;" transform="translate(78.544531 918.152969)scale(0.3 -0.3)">
       <defs>
        <path d="M 2944 2338 
Q 2944 3213 2780 3570 
Q 2616 3928 2228 3928 
Q 1841 3928 1675 3570 
Q 1509 3213 1509 2338 
Q 1509 1453 1675 1090 
Q 1841 728 2228 728 
Q 2613 728 2778 1090 
Q 2944 1453 2944 2338 
z
M 4147 2328 
Q 4147 1169 3647 539 
Q 3147 -91 2228 -91 
Q 1306 -91 806 539 
Q 306 1169 306 2328 
Q 306 3491 806 4120 
Q 1306 4750 2228 4750 
Q 3147 4750 3647 4120 
Q 4147 3491 4147 2328 
z
" id="DejaVuSans-Bold-30" transform="scale(0.015625)"/>
       </defs>
       <use xlink:href="#DejaVuSans-Bold-30"/>
      </g>
     </g>
    </g>
    <g id="xtick_2">
     <g id="line2d_3">
      <path clip-path="url(#p6c1e0054a2)" d="M 188.18125 888.357656 
L 188.18125 18.597656 
" style="fill:none;stroke:#808080;stroke-dasharray:2.96,1.28;stroke-dashoffset:0;stroke-width:0.8;"/>
     </g>
     <g id="line2d_4">
      <g>
       <use style="fill:#ffffff;stroke:#ffffff;stroke-width:0.8;" x="188.18125" xlink:href="#m504148a725" y="888.357656"/>
      </g>
     </g>
     <g id="text_2">
      <!-- 2 -->
      <g style="fill:#ffffff;" transform="translate(177.744531 918.152969)scale(0.3 -0.3)">
       <defs>
        <path d="M 1844 884 
L 3897 884 
L 3897 0 
L 506 0 
L 506 884 
L 2209 2388 
Q 2438 2594 2547 2791 
Q 2656 2988 2656 3200 
Q 2656 3528 2436 3728 
Q 2216 3928 1850 3928 
Q 1569 3928 1234 3808 
Q 900 3688 519 3450 
L 519 4475 
Q 925 4609 1322 4679 
Q 1719 4750 2100 4750 
Q 2938 4750 3402 4381 
Q 3866 4013 3866 3353 
Q 3866 2972 3669 2642 
Q 3472 2313 2841 1759 
L 1844 884 
z
" id="DejaVuSans-Bold-32" transform="scale(0.015625)"/>
       </defs>
       <use xlink:href="#DejaVuSans-Bold-32"/>
      </g>
     </g>
    </g>
    <g id="xtick_3">
     <g id="line2d_5">
      <path clip-path="url(#p6c1e0054a2)" d="M 287.38125 888.357656 
L 287.38125 18.597656 
" style="fill:none;stroke:#808080;stroke-dasharray:2.96,1.28;stroke-dashoffset:0;stroke-width:0.8;"/>
     </g>
     <g id="line2d_6">
      <g>
       <use style="fill:#ffffff;stroke:#ffffff;stroke-width:0.8;" x="287.38125" xlink:href="#m504148a725" y="888.357656"/>
      </g>
     </g>
     <g id="text_3">
      <!-- 4 -->
      <g style="fill:#ffffff;" transform="translate(276.944531 918.152969)scale(0.3 -0.3)">
       <defs>
        <path d="M 2356 3675 
L 1038 1722 
L 2356 1722 
L 2356 3675 
z
M 2156 4666 
L 3494 4666 
L 3494 1722 
L 4159 1722 
L 4159 850 
L 3494 850 
L 3494 0 
L 2356 0 
L 2356 850 
L 288 850 
L 288 1881 
L 2156 4666 
z
" id="DejaVuSans-Bold-34" transform="scale(0.015625)"/>
       </defs>
       <use xlink:href="#DejaVuSans-Bold-34"/>
      </g>
     </g>
    </g>
    <g id="xtick_4">
     <g id="line2d_7">
      <path clip-path="url(#p6c1e0054a2)" d="M 386.58125 888.357656 
L 386.58125 18.597656 
" style="fill:none;stroke:#808080;stroke-dasharray:2.96,1.28;stroke-dashoffset:0;stroke-width:0.8;"/>
     </g>
     <g id="line2d_8">
      <g>
       <use style="fill:#ffffff;stroke:#ffffff;stroke-width:0.8;" x="386.58125" xlink:href="#m504148a725" y="888.357656"/>
      </g>
     </g>
     <g id="text_4">
      <!-- 6 -->
      <g style="fill:#ffffff;" transform="translate(376.144531 918.152969)scale(0.3 -0.3)">
       <defs>
        <path d="M 2316 2303 
Q 2000 2303 1842 2098 
Q 1684 1894 1684 1484 
Q 1684 1075 1842 870 
Q 2000 666 2316 666 
Q 2634 666 2792 870 
Q 2950 1075 2950 1484 
Q 2950 1894 2792 2098 
Q 2634 2303 2316 2303 
z
M 3803 4544 
L 3803 3681 
Q 3506 3822 3243 3889 
Q 2981 3956 2731 3956 
Q 2194 3956 1894 3657 
Q 1594 3359 1544 2772 
Q 1750 2925 1990 3001 
Q 2231 3078 2516 3078 
Q 3231 3078 3670 2659 
Q 4109 2241 4109 1563 
Q 4109 813 3618 361 
Q 3128 -91 2303 -91 
Q 1394 -91 895 523 
Q 397 1138 397 2266 
Q 397 3422 980 4083 
Q 1563 4744 2578 4744 
Q 2900 4744 3203 4694 
Q 3506 4644 3803 4544 
z
" id="DejaVuSans-Bold-36" transform="scale(0.015625)"/>
       </defs>
       <use xlink:href="#DejaVuSans-Bold-36"/>
      </g>
     </g>
    </g>
    <g id="xtick_5">
     <g id="line2d_9">
      <path clip-path="url(#p6c1e0054a2)" d="M 485.78125 888.357656 
L 485.78125 18.597656 
" style="fill:none;stroke:#808080;stroke-dasharray:2.96,1.28;stroke-dashoffset:0;stroke-width:0.8;"/>
     </g>
     <g id="line2d_10">
      <g>
       <use style="fill:#ffffff;stroke:#ffffff;stroke-width:0.8;" x="485.78125" xlink:href="#m504148a725" y="888.357656"/>
      </g>
     </g>
     <g id="text_5">
      <!-- 8 -->
      <g style="fill:#ffffff;" transform="translate(475.344531 918.152969)scale(0.3 -0.3)">
       <defs>
        <path d="M 2228 2088 
Q 1891 2088 1709 1903 
Q 1528 1719 1528 1375 
Q 1528 1031 1709 848 
Q 1891 666 2228 666 
Q 2563 666 2741 848 
Q 2919 1031 2919 1375 
Q 2919 1722 2741 1905 
Q 2563 2088 2228 2088 
z
M 1350 2484 
Q 925 2613 709 2878 
Q 494 3144 494 3541 
Q 494 4131 934 4440 
Q 1375 4750 2228 4750 
Q 3075 4750 3515 4442 
Q 3956 4134 3956 3541 
Q 3956 3144 3739 2878 
Q 3522 2613 3097 2484 
Q 3572 2353 3814 2058 
Q 4056 1763 4056 1313 
Q 4056 619 3595 264 
Q 3134 -91 2228 -91 
Q 1319 -91 855 264 
Q 391 619 391 1313 
Q 391 1763 633 2058 
Q 875 2353 1350 2484 
z
M 1631 3419 
Q 1631 3141 1786 2991 
Q 1941 2841 2228 2841 
Q 2509 2841 2662 2991 
Q 2816 3141 2816 3419 
Q 2816 3697 2662 3845 
Q 2509 3994 2228 3994 
Q 1941 3994 1786 3844 
Q 1631 3694 1631 3419 
z
" id="DejaVuSans-Bold-38" transform="scale(0.015625)"/>
       </defs>
       <use xlink:href="#DejaVuSans-Bold-38"/>
      </g>
     </g>
    </g>
    <g id="xtick_6">
     <g id="line2d_11">
      <path clip-path="url(#p6c1e0054a2)" d="M 584.98125 888.357656 
L 584.98125 18.597656 
" style="fill:none;stroke:#808080;stroke-dasharray:2.96,1.28;stroke-dashoffset:0;stroke-width:0.8;"/>
     </g>
     <g id="line2d_12">
      <g>
       <use style="fill:#ffffff;stroke:#ffffff;stroke-width:0.8;" x="584.98125" xlink:href="#m504148a725" y="888.357656"/>
      </g>
     </g>
     <g id="text_6">
      <!-- 10 -->
      <g style="fill:#ffffff;" transform="translate(564.107812 918.152969)scale(0.3 -0.3)">
       <defs>
        <path d="M 750 831 
L 1813 831 
L 1813 3847 
L 722 3622 
L 722 4441 
L 1806 4666 
L 2950 4666 
L 2950 831 
L 4013 831 
L 4013 0 
L 750 0 
L 750 831 
z
" id="DejaVuSans-Bold-31" transform="scale(0.015625)"/>
       </defs>
       <use xlink:href="#DejaVuSans-Bold-31"/>
       <use x="69.580078" xlink:href="#DejaVuSans-Bold-30"/>
      </g>
     </g>
    </g>
    <g id="xtick_7">
     <g id="line2d_13">
      <path clip-path="url(#p6c1e0054a2)" d="M 684.18125 888.357656 
L 684.18125 18.597656 
" style="fill:none;stroke:#808080;stroke-dasharray:2.96,1.28;stroke-dashoffset:0;stroke-width:0.8;"/>
     </g>
     <g id="line2d_14">
      <g>
       <use style="fill:#ffffff;stroke:#ffffff;stroke-width:0.8;" x="684.18125" xlink:href="#m504148a725" y="888.357656"/>
      </g>
     </g>
     <g id="text_7">
      <!-- 12 -->
      <g style="fill:#ffffff;" transform="translate(663.307812 918.152969)scale(0.3 -0.3)">
       <use xlink:href="#DejaVuSans-Bold-31"/>
       <use x="69.580078" xlink:href="#DejaVuSans-Bold-32"/>
      </g>
     </g>
    </g>
    <g id="xtick_8">
     <g id="line2d_15">
      <path clip-path="url(#p6c1e0054a2)" d="M 783.38125 888.357656 
L 783.38125 18.597656 
" style="fill:none;stroke:#808080;stroke-dasharray:2.96,1.28;stroke-dashoffset:0;stroke-width:0.8;"/>
     </g>
     <g id="line2d_16">
      <g>
       <use style="fill:#ffffff;stroke:#ffffff;stroke-width:0.8;" x="783.38125" xlink:href="#m504148a725" y="888.357656"/>
      </g>
     </g>
     <g id="text_8">
      <!-- 14 -->
      <g style="fill:#ffffff;" transform="translate(762.507812 918.152969)scale(0.3 -0.3)">
       <use xlink:href="#DejaVuSans-Bold-31"/>
       <use x="69.580078" xlink:href="#DejaVuSans-Bold-34"/>
      </g>
     </g>
    </g>
    <g id="xtick_9">
     <g id="line2d_17">
      <path clip-path="url(#p6c1e0054a2)" d="M 882.58125 888.357656 
L 882.58125 18.597656 
" style="fill:none;stroke:#808080;stroke-dasharray:2.96,1.28;stroke-dashoffset:0;stroke-width:0.8;"/>
     </g>
     <g id="line2d_18">
      <g>
       <use style="fill:#ffffff;stroke:#ffffff;stroke-width:0.8;" x="882.58125" xlink:href="#m504148a725" y="888.357656"/>
      </g>
     </g>
     <g id="text_9">
      <!-- 16 -->
      <g style="fill:#ffffff;" transform="translate(861.707812 918.152969)scale(0.3 -0.3)">
       <use xlink:href="#DejaVuSans-Bold-31"/>
       <use x="69.580078" xlink:href="#DejaVuSans-Bold-36"/>
      </g>
     </g>
    </g>
    <g id="xtick_10">
     <g id="line2d_19">
      <path clip-path="url(#p6c1e0054a2)" d="M 981.78125 888.357656 
L 981.78125 18.597656 
" style="fill:none;stroke:#808080;stroke-dasharray:2.96,1.28;stroke-dashoffset:0;stroke-width:0.8;"/>
     </g>
     <g id="line2d_20">
      <g>
       <use style="fill:#ffffff;stroke:#ffffff;stroke-width:0.8;" x="981.78125" xlink:href="#m504148a725" y="888.357656"/>
      </g>
     </g>
     <g id="text_10">
      <!-- 18 -->
      <g style="fill:#ffffff;" transform="translate(960.907812 918.152969)scale(0.3 -0.3)">
       <use xlink:href="#DejaVuSans-Bold-31"/>
       <use x="69.580078" xlink:href="#DejaVuSans-Bold-38"/>
      </g>
     </g>
    </g>
    <g id="xtick_11">
     <g id="line2d_21">
      <path clip-path="url(#p6c1e0054a2)" d="M 138.58125 888.357656 
L 138.58125 18.597656 
" style="fill:none;stroke:#808080;stroke-dasharray:2.96,1.28;stroke-dashoffset:0;stroke-width:0.8;"/>
     </g>
     <g id="line2d_22">
      <defs>
       <path d="M 0 0 
L 0 2 
" id="m9221152a9d" style="stroke:#ffffff;stroke-width:0.6;"/>
      </defs>
      <g>
       <use style="fill:#ffffff;stroke:#ffffff;stroke-width:0.6;" x="138.58125" xlink:href="#m9221152a9d" y="888.357656"/>
      </g>
     </g>
    </g>
    <g id="xtick_12">
     <g id="line2d_23">
      <path clip-path="url(#p6c1e0054a2)" d="M 237.78125 888.357656 
L 237.78125 18.597656 
" style="fill:none;stroke:#808080;stroke-dasharray:2.96,1.28;stroke-dashoffset:0;stroke-width:0.8;"/>
     </g>
     <g id="line2d_24">
      <g>
       <use style="fill:#ffffff;stroke:#ffffff;stroke-width:0.6;" x="237.78125" xlink:href="#m9221152a9d" y="888.357656"/>
      </g>
     </g>
    </g>
    <g id="xtick_13">
     <g id="line2d_25">
      <path clip-path="url(#p6c1e0054a2)" d="M 336.98125 888.357656 
L 336.98125 18.597656 
" style="fill:none;stroke:#808080;stroke-dasharray:2.96,1.28;stroke-dashoffset:0;stroke-width:0.8;"/>
     </g>
     <g id="line2d_26">
      <g>
       <use style="fill:#ffffff;stroke:#ffffff;stroke-width:0.6;" x="336.98125" xlink:href="#m9221152a9d" y="888.357656"/>
      </g>
     </g>
    </g>
    <g id="xtick_14">
     <g id="line2d_27">
      <path clip-path="url(#p6c1e0054a2)" d="M 436.18125 888.357656 
L 436.18125 18.597656 
" style="fill:none;stroke:#808080;stroke-dasharray:2.96,1.28;stroke-dashoffset:0;stroke-width:0.8;"/>
     </g>
     <g id="line2d_28">
      <g>
       <use style="fill:#ffffff;stroke:#ffffff;stroke-width:0.6;" x="436.18125" xlink:href="#m9221152a9d" y="888.357656"/>
      </g>
     </g>
    </g>
    <g id="xtick_15">
     <g id="line2d_29">
      <path clip-path="url(#p6c1e0054a2)" d="M 535.38125 888.357656 
L 535.38125 18.597656 
" style="fill:none;stroke:#808080;stroke-dasharray:2.96,1.28;stroke-dashoffset:0;stroke-width:0.8;"/>
     </g>
     <g id="line2d_30">
      <g>
       <use style="fill:#ffffff;stroke:#ffffff;stroke-width:0.6;" x="535.38125" xlink:href="#m9221152a9d" y="888.357656"/>
      </g>
     </g>
    </g>
    <g id="xtick_16">
     <g id="line2d_31">
      <path clip-path="url(#p6c1e0054a2)" d="M 634.58125 888.357656 
L 634.58125 18.597656 
" style="fill:none;stroke:#808080;stroke-dasharray:2.96,1.28;stroke-dashoffset:0;stroke-width:0.8;"/>
     </g>
     <g id="line2d_32">
      <g>
       <use style="fill:#ffffff;stroke:#ffffff;stroke-width:0.6;" x="634.58125" xlink:href="#m9221152a9d" y="888.357656"/>
      </g>
     </g>
    </g>
    <g id="xtick_17">
     <g id="line2d_33">
      <path clip-path="url(#p6c1e0054a2)" d="M 733.78125 888.357656 
L 733.78125 18.597656 
" style="fill:none;stroke:#808080;stroke-dasharray:2.96,1.28;stroke-dashoffset:0;stroke-width:0.8;"/>
     </g>
     <g id="line2d_34">
      <g>
       <use style="fill:#ffffff;stroke:#ffffff;stroke-width:0.6;" x="733.78125" xlink:href="#m9221152a9d" y="888.357656"/>
      </g>
     </g>
    </g>
    <g id="xtick_18">
     <g id="line2d_35">
      <path clip-path="url(#p6c1e0054a2)" d="M 832.98125 888.357656 
L 832.98125 18.597656 
" style="fill:none;stroke:#808080;stroke-dasharray:2.96,1.28;stroke-dashoffset:0;stroke-width:0.8;"/>
     </g>
     <g id="line2d_36">
      <g>
       <use style="fill:#ffffff;stroke:#ffffff;stroke-width:0.6;" x="832.98125" xlink:href="#m9221152a9d" y="888.357656"/>
      </g>
     </g>
    </g>
    <g id="xtick_19">
     <g id="line2d_37">
      <path clip-path="url(#p6c1e0054a2)" d="M 932.18125 888.357656 
L 932.18125 18.597656 
" style="fill:none;stroke:#808080;stroke-dasharray:2.96,1.28;stroke-dashoffset:0;stroke-width:0.8;"/>
     </g>
     <g id="line2d_38">
      <g>
       <use style="fill:#ffffff;stroke:#ffffff;stroke-width:0.6;" x="932.18125" xlink:href="#m9221152a9d" y="888.357656"/>
      </g>
     </g>
    </g>
    <g id="text_11">
     <!-- $V_{DS}[V]$ -->
     <g style="fill:#ffffff;" transform="translate(481.68125 951.187344)scale(0.3 -0.3)">
      <defs>
       <path d="M 488 4666 
L 1631 4666 
L 2203 1178 
L 4134 4666 
L 5375 4666 
L 2741 0 
L 1306 0 
L 488 4666 
z
" id="DejaVuSans-BoldOblique-56" transform="scale(0.015625)"/>
       <path d="M 2075 3756 
L 1516 909 
L 1947 909 
Q 2788 909 3278 1381 
Q 3769 1853 3769 2656 
Q 3769 3200 3448 3478 
Q 3128 3756 2497 3756 
L 2075 3756 
z
M 1044 4666 
L 2309 4666 
Q 3216 4666 3669 4558 
Q 4122 4450 4422 4197 
Q 4725 3944 4878 3583 
Q 5031 3222 5031 2766 
Q 5031 2131 4770 1570 
Q 4509 1009 4038 628 
Q 3625 288 3079 144 
Q 2534 0 1403 0 
L 134 0 
L 1044 4666 
z
" id="DejaVuSans-BoldOblique-44" transform="scale(0.015625)"/>
       <path d="M 4256 4519 
L 4063 3531 
Q 3709 3706 3365 3792 
Q 3022 3878 2694 3878 
Q 2244 3878 1992 3737 
Q 1741 3597 1741 3347 
Q 1741 3188 1852 3098 
Q 1963 3009 2309 2925 
L 2803 2803 
Q 3422 2647 3711 2351 
Q 4000 2056 4000 1588 
Q 4000 828 3423 368 
Q 2847 -91 1875 -91 
Q 1422 -91 973 -6 
Q 525 78 97 244 
L 288 1259 
Q 703 1019 1095 900 
Q 1488 781 1869 781 
Q 2281 781 2539 950 
Q 2797 1119 2797 1381 
Q 2797 1553 2681 1648 
Q 2566 1744 2175 1844 
L 1684 1966 
Q 1141 2100 875 2390 
Q 609 2681 609 3144 
Q 609 3872 1167 4311 
Q 1725 4750 2669 4750 
Q 3047 4750 3445 4692 
Q 3844 4634 4256 4519 
z
" id="DejaVuSans-BoldOblique-53" transform="scale(0.015625)"/>
       <path d="M 550 4863 
L 2491 4863 
L 2491 4159 
L 1613 4159 
L 1613 -141 
L 2491 -141 
L 2491 -844 
L 550 -844 
L 550 4863 
z
" id="DejaVuSans-Bold-5b" transform="scale(0.015625)"/>
       <path d="M 2375 -844 
L 434 -844 
L 434 -141 
L 1313 -141 
L 1313 4159 
L 434 4159 
L 434 4863 
L 2375 4863 
L 2375 -844 
z
" id="DejaVuSans-Bold-5d" transform="scale(0.015625)"/>
      </defs>
      <use transform="translate(0 0.015625)" xlink:href="#DejaVuSans-BoldOblique-56"/>
      <use transform="translate(77.392578 -16.390625)scale(0.7)" xlink:href="#DejaVuSans-BoldOblique-44"/>
      <use transform="translate(135.498047 -16.390625)scale(0.7)" xlink:href="#DejaVuSans-BoldOblique-53"/>
      <use transform="translate(188.647461 0.015625)" xlink:href="#DejaVuSans-Bold-5b"/>
      <use transform="translate(234.350586 0.015625)" xlink:href="#DejaVuSans-BoldOblique-56"/>
      <use transform="translate(311.743164 0.015625)" xlink:href="#DejaVuSans-Bold-5d"/>
     </g>
    </g>
   </g>
   <g id="matplotlib.axis_2">
    <g id="ytick_1">
     <g id="line2d_39">
      <path clip-path="url(#p6c1e0054a2)" d="M 88.98125 888.357656 
L 981.78125 888.357656 
" style="fill:none;stroke:#808080;stroke-dasharray:2.96,1.28;stroke-dashoffset:0;stroke-width:0.8;"/>
     </g>
     <g id="line2d_40">
      <defs>
       <path d="M 0 0 
L -3.5 0 
" id="mad0eecf197" style="stroke:#ffffff;stroke-width:0.8;"/>
      </defs>
      <g>
       <use style="fill:#ffffff;stroke:#ffffff;stroke-width:0.8;" x="88.98125" xlink:href="#mad0eecf197" y="888.357656"/>
      </g>
     </g>
     <g id="text_12">
      <!-- 0 -->
      <g style="fill:#ffffff;" transform="translate(61.107812 899.755312)scale(0.3 -0.3)">
       <use xlink:href="#DejaVuSans-Bold-30"/>
      </g>
     </g>
    </g>
    <g id="ytick_2">
     <g id="line2d_41">
      <path clip-path="url(#p6c1e0054a2)" d="M 88.98125 714.405656 
L 981.78125 714.405656 
" style="fill:none;stroke:#808080;stroke-dasharray:2.96,1.28;stroke-dashoffset:0;stroke-width:0.8;"/>
     </g>
     <g id="line2d_42">
      <g>
       <use style="fill:#ffffff;stroke:#ffffff;stroke-width:0.8;" x="88.98125" xlink:href="#mad0eecf197" y="714.405656"/>
      </g>
     </g>
     <g id="text_13">
      <!-- 5 -->
      <g style="fill:#ffffff;" transform="translate(61.107812 725.803312)scale(0.3 -0.3)">
       <defs>
        <path d="M 678 4666 
L 3669 4666 
L 3669 3781 
L 1638 3781 
L 1638 3059 
Q 1775 3097 1914 3117 
Q 2053 3138 2203 3138 
Q 3056 3138 3531 2711 
Q 4006 2284 4006 1522 
Q 4006 766 3489 337 
Q 2972 -91 2053 -91 
Q 1656 -91 1267 -14 
Q 878 63 494 219 
L 494 1166 
Q 875 947 1217 837 
Q 1559 728 1863 728 
Q 2300 728 2551 942 
Q 2803 1156 2803 1522 
Q 2803 1891 2551 2103 
Q 2300 2316 1863 2316 
Q 1603 2316 1309 2248 
Q 1016 2181 678 2041 
L 678 4666 
z
" id="DejaVuSans-Bold-35" transform="scale(0.015625)"/>
       </defs>
       <use xlink:href="#DejaVuSans-Bold-35"/>
      </g>
     </g>
    </g>
    <g id="ytick_3">
     <g id="line2d_43">
      <path clip-path="url(#p6c1e0054a2)" d="M 88.98125 540.453656 
L 981.78125 540.453656 
" style="fill:none;stroke:#808080;stroke-dasharray:2.96,1.28;stroke-dashoffset:0;stroke-width:0.8;"/>
     </g>
     <g id="line2d_44">
      <g>
       <use style="fill:#ffffff;stroke:#ffffff;stroke-width:0.8;" x="88.98125" xlink:href="#mad0eecf197" y="540.453656"/>
      </g>
     </g>
     <g id="text_14">
      <!-- 10 -->
      <g style="fill:#ffffff;" transform="translate(40.234375 551.851312)scale(0.3 -0.3)">
       <use xlink:href="#DejaVuSans-Bold-31"/>
       <use x="69.580078" xlink:href="#DejaVuSans-Bold-30"/>
      </g>
     </g>
    </g>
    <g id="ytick_4">
     <g id="line2d_45">
      <path clip-path="url(#p6c1e0054a2)" d="M 88.98125 366.501656 
L 981.78125 366.501656 
" style="fill:none;stroke:#808080;stroke-dasharray:2.96,1.28;stroke-dashoffset:0;stroke-width:0.8;"/>
     </g>
     <g id="line2d_46">
      <g>
       <use style="fill:#ffffff;stroke:#ffffff;stroke-width:0.8;" x="88.98125" xlink:href="#mad0eecf197" y="366.501656"/>
      </g>
     </g>
     <g id="text_15">
      <!-- 15 -->
      <g style="fill:#ffffff;" transform="translate(40.234375 377.899312)scale(0.3 -0.3)">
       <use xlink:href="#DejaVuSans-Bold-31"/>
       <use x="69.580078" xlink:href="#DejaVuSans-Bold-35"/>
      </g>
     </g>
    </g>
    <g id="ytick_5">
     <g id="line2d_47">
      <path clip-path="url(#p6c1e0054a2)" d="M 88.98125 192.549656 
L 981.78125 192.549656 
" style="fill:none;stroke:#808080;stroke-dasharray:2.96,1.28;stroke-dashoffset:0;stroke-width:0.8;"/>
     </g>
     <g id="line2d_48">
      <g>
       <use style="fill:#ffffff;stroke:#ffffff;stroke-width:0.8;" x="88.98125" xlink:href="#mad0eecf197" y="192.549656"/>
      </g>
     </g>
     <g id="text_16">
      <!-- 20 -->
      <g style="fill:#ffffff;" transform="translate(40.234375 203.947312)scale(0.3 -0.3)">
       <use xlink:href="#DejaVuSans-Bold-32"/>
       <use x="69.580078" xlink:href="#DejaVuSans-Bold-30"/>
      </g>
     </g>
    </g>
    <g id="ytick_6">
     <g id="line2d_49">
      <path clip-path="url(#p6c1e0054a2)" d="M 88.98125 18.597656 
L 981.78125 18.597656 
" style="fill:none;stroke:#808080;stroke-dasharray:2.96,1.28;stroke-dashoffset:0;stroke-width:0.8;"/>
     </g>
     <g id="line2d_50">
      <g>
       <use style="fill:#ffffff;stroke:#ffffff;stroke-width:0.8;" x="88.98125" xlink:href="#mad0eecf197" y="18.597656"/>
      </g>
     </g>
     <g id="text_17">
      <!-- 25 -->
      <g style="fill:#ffffff;" transform="translate(40.234375 29.995312)scale(0.3 -0.3)">
       <use xlink:href="#DejaVuSans-Bold-32"/>
       <use x="69.580078" xlink:href="#DejaVuSans-Bold-35"/>
      </g>
     </g>
    </g>
    <g id="ytick_7">
     <g id="line2d_51">
      <path clip-path="url(#p6c1e0054a2)" d="M 88.98125 853.567256 
L 981.78125 853.567256 
" style="fill:none;stroke:#808080;stroke-dasharray:2.96,1.28;stroke-dashoffset:0;stroke-width:0.8;"/>
     </g>
     <g id="line2d_52">
      <defs>
       <path d="M 0 0 
L -2 0 
" id="me0f816d33b" style="stroke:#ffffff;stroke-width:0.6;"/>
      </defs>
      <g>
       <use style="fill:#ffffff;stroke:#ffffff;stroke-width:0.6;" x="88.98125" xlink:href="#me0f816d33b" y="853.567256"/>
      </g>
     </g>
    </g>
    <g id="ytick_8">
     <g id="line2d_53">
      <path clip-path="url(#p6c1e0054a2)" d="M 88.98125 818.776856 
L 981.78125 818.776856 
" style="fill:none;stroke:#808080;stroke-dasharray:2.96,1.28;stroke-dashoffset:0;stroke-width:0.8;"/>
     </g>
     <g id="line2d_54">
      <g>
       <use style="fill:#ffffff;stroke:#ffffff;stroke-width:0.6;" x="88.98125" xlink:href="#me0f816d33b" y="818.776856"/>
      </g>
     </g>
    </g>
    <g id="ytick_9">
     <g id="line2d_55">
      <path clip-path="url(#p6c1e0054a2)" d="M 88.98125 783.986456 
L 981.78125 783.986456 
" style="fill:none;stroke:#808080;stroke-dasharray:2.96,1.28;stroke-dashoffset:0;stroke-width:0.8;"/>
     </g>
     <g id="line2d_56">
      <g>
       <use style="fill:#ffffff;stroke:#ffffff;stroke-width:0.6;" x="88.98125" xlink:href="#me0f816d33b" y="783.986456"/>
      </g>
     </g>
    </g>
    <g id="ytick_10">
     <g id="line2d_57">
      <path clip-path="url(#p6c1e0054a2)" d="M 88.98125 749.196056 
L 981.78125 749.196056 
" style="fill:none;stroke:#808080;stroke-dasharray:2.96,1.28;stroke-dashoffset:0;stroke-width:0.8;"/>
     </g>
     <g id="line2d_58">
      <g>
       <use style="fill:#ffffff;stroke:#ffffff;stroke-width:0.6;" x="88.98125" xlink:href="#me0f816d33b" y="749.196056"/>
      </g>
     </g>
    </g>
    <g id="ytick_11">
     <g id="line2d_59">
      <path clip-path="url(#p6c1e0054a2)" d="M 88.98125 679.615256 
L 981.78125 679.615256 
" style="fill:none;stroke:#808080;stroke-dasharray:2.96,1.28;stroke-dashoffset:0;stroke-width:0.8;"/>
     </g>
     <g id="line2d_60">
      <g>
       <use style="fill:#ffffff;stroke:#ffffff;stroke-width:0.6;" x="88.98125" xlink:href="#me0f816d33b" y="679.615256"/>
      </g>
     </g>
    </g>
    <g id="ytick_12">
     <g id="line2d_61">
      <path clip-path="url(#p6c1e0054a2)" d="M 88.98125 644.824856 
L 981.78125 644.824856 
" style="fill:none;stroke:#808080;stroke-dasharray:2.96,1.28;stroke-dashoffset:0;stroke-width:0.8;"/>
     </g>
     <g id="line2d_62">
      <g>
       <use style="fill:#ffffff;stroke:#ffffff;stroke-width:0.6;" x="88.98125" xlink:href="#me0f816d33b" y="644.824856"/>
      </g>
     </g>
    </g>
    <g id="ytick_13">
     <g id="line2d_63">
      <path clip-path="url(#p6c1e0054a2)" d="M 88.98125 610.034456 
L 981.78125 610.034456 
" style="fill:none;stroke:#808080;stroke-dasharray:2.96,1.28;stroke-dashoffset:0;stroke-width:0.8;"/>
     </g>
     <g id="line2d_64">
      <g>
       <use style="fill:#ffffff;stroke:#ffffff;stroke-width:0.6;" x="88.98125" xlink:href="#me0f816d33b" y="610.034456"/>
      </g>
     </g>
    </g>
    <g id="ytick_14">
     <g id="line2d_65">
      <path clip-path="url(#p6c1e0054a2)" d="M 88.98125 575.244056 
L 981.78125 575.244056 
" style="fill:none;stroke:#808080;stroke-dasharray:2.96,1.28;stroke-dashoffset:0;stroke-width:0.8;"/>
     </g>
     <g id="line2d_66">
      <g>
       <use style="fill:#ffffff;stroke:#ffffff;stroke-width:0.6;" x="88.98125" xlink:href="#me0f816d33b" y="575.244056"/>
      </g>
     </g>
    </g>
    <g id="ytick_15">
     <g id="line2d_67">
      <path clip-path="url(#p6c1e0054a2)" d="M 88.98125 505.663256 
L 981.78125 505.663256 
" style="fill:none;stroke:#808080;stroke-dasharray:2.96,1.28;stroke-dashoffset:0;stroke-width:0.8;"/>
     </g>
     <g id="line2d_68">
      <g>
       <use style="fill:#ffffff;stroke:#ffffff;stroke-width:0.6;" x="88.98125" xlink:href="#me0f816d33b" y="505.663256"/>
      </g>
     </g>
    </g>
    <g id="ytick_16">
     <g id="line2d_69">
      <path clip-path="url(#p6c1e0054a2)" d="M 88.98125 470.872856 
L 981.78125 470.872856 
" style="fill:none;stroke:#808080;stroke-dasharray:2.96,1.28;stroke-dashoffset:0;stroke-width:0.8;"/>
     </g>
     <g id="line2d_70">
      <g>
       <use style="fill:#ffffff;stroke:#ffffff;stroke-width:0.6;" x="88.98125" xlink:href="#me0f816d33b" y="470.872856"/>
      </g>
     </g>
    </g>
    <g id="ytick_17">
     <g id="line2d_71">
      <path clip-path="url(#p6c1e0054a2)" d="M 88.98125 436.082456 
L 981.78125 436.082456 
" style="fill:none;stroke:#808080;stroke-dasharray:2.96,1.28;stroke-dashoffset:0;stroke-width:0.8;"/>
     </g>
     <g id="line2d_72">
      <g>
       <use style="fill:#ffffff;stroke:#ffffff;stroke-width:0.6;" x="88.98125" xlink:href="#me0f816d33b" y="436.082456"/>
      </g>
     </g>
    </g>
    <g id="ytick_18">
     <g id="line2d_73">
      <path clip-path="url(#p6c1e0054a2)" d="M 88.98125 401.292056 
L 981.78125 401.292056 
" style="fill:none;stroke:#808080;stroke-dasharray:2.96,1.28;stroke-dashoffset:0;stroke-width:0.8;"/>
     </g>
     <g id="line2d_74">
      <g>
       <use style="fill:#ffffff;stroke:#ffffff;stroke-width:0.6;" x="88.98125" xlink:href="#me0f816d33b" y="401.292056"/>
      </g>
     </g>
    </g>
    <g id="ytick_19">
     <g id="line2d_75">
      <path clip-path="url(#p6c1e0054a2)" d="M 88.98125 331.711256 
L 981.78125 331.711256 
" style="fill:none;stroke:#808080;stroke-dasharray:2.96,1.28;stroke-dashoffset:0;stroke-width:0.8;"/>
     </g>
     <g id="line2d_76">
      <g>
       <use style="fill:#ffffff;stroke:#ffffff;stroke-width:0.6;" x="88.98125" xlink:href="#me0f816d33b" y="331.711256"/>
      </g>
     </g>
    </g>
    <g id="ytick_20">
     <g id="line2d_77">
      <path clip-path="url(#p6c1e0054a2)" d="M 88.98125 296.920856 
L 981.78125 296.920856 
" style="fill:none;stroke:#808080;stroke-dasharray:2.96,1.28;stroke-dashoffset:0;stroke-width:0.8;"/>
     </g>
     <g id="line2d_78">
      <g>
       <use style="fill:#ffffff;stroke:#ffffff;stroke-width:0.6;" x="88.98125" xlink:href="#me0f816d33b" y="296.920856"/>
      </g>
     </g>
    </g>
    <g id="ytick_21">
     <g id="line2d_79">
      <path clip-path="url(#p6c1e0054a2)" d="M 88.98125 262.130456 
L 981.78125 262.130456 
" style="fill:none;stroke:#808080;stroke-dasharray:2.96,1.28;stroke-dashoffset:0;stroke-width:0.8;"/>
     </g>
     <g id="line2d_80">
      <g>
       <use style="fill:#ffffff;stroke:#ffffff;stroke-width:0.6;" x="88.98125" xlink:href="#me0f816d33b" y="262.130456"/>
      </g>
     </g>
    </g>
    <g id="ytick_22">
     <g id="line2d_81">
      <path clip-path="url(#p6c1e0054a2)" d="M 88.98125 227.340056 
L 981.78125 227.340056 
" style="fill:none;stroke:#808080;stroke-dasharray:2.96,1.28;stroke-dashoffset:0;stroke-width:0.8;"/>
     </g>
     <g id="line2d_82">
      <g>
       <use style="fill:#ffffff;stroke:#ffffff;stroke-width:0.6;" x="88.98125" xlink:href="#me0f816d33b" y="227.340056"/>
      </g>
     </g>
    </g>
    <g id="ytick_23">
     <g id="line2d_83">
      <path clip-path="url(#p6c1e0054a2)" d="M 88.98125 157.759256 
L 981.78125 157.759256 
" style="fill:none;stroke:#808080;stroke-dasharray:2.96,1.28;stroke-dashoffset:0;stroke-width:0.8;"/>
     </g>
     <g id="line2d_84">
      <g>
       <use style="fill:#ffffff;stroke:#ffffff;stroke-width:0.6;" x="88.98125" xlink:href="#me0f816d33b" y="157.759256"/>
      </g>
     </g>
    </g>
    <g id="ytick_24">
     <g id="line2d_85">
      <path clip-path="url(#p6c1e0054a2)" d="M 88.98125 122.968856 
L 981.78125 122.968856 
" style="fill:none;stroke:#808080;stroke-dasharray:2.96,1.28;stroke-dashoffset:0;stroke-width:0.8;"/>
     </g>
     <g id="line2d_86">
      <g>
       <use style="fill:#ffffff;stroke:#ffffff;stroke-width:0.6;" x="88.98125" xlink:href="#me0f816d33b" y="122.968856"/>
      </g>
     </g>
    </g>
    <g id="ytick_25">
     <g id="line2d_87">
      <path clip-path="url(#p6c1e0054a2)" d="M 88.98125 88.178456 
L 981.78125 88.178456 
" style="fill:none;stroke:#808080;stroke-dasharray:2.96,1.28;stroke-dashoffset:0;stroke-width:0.8;"/>
     </g>
     <g id="line2d_88">
      <g>
       <use style="fill:#ffffff;stroke:#ffffff;stroke-width:0.6;" x="88.98125" xlink:href="#me0f816d33b" y="88.178456"/>
      </g>
     </g>
    </g>
    <g id="ytick_26">
     <g id="line2d_89">
      <path clip-path="url(#p6c1e0054a2)" d="M 88.98125 53.388056 
L 981.78125 53.388056 
" style="fill:none;stroke:#808080;stroke-dasharray:2.96,1.28;stroke-dashoffset:0;stroke-width:0.8;"/>
     </g>
     <g id="line2d_90">
      <g>
       <use style="fill:#ffffff;stroke:#ffffff;stroke-width:0.6;" x="88.98125" xlink:href="#me0f816d33b" y="53.388056"/>
      </g>
     </g>
    </g>
    <g id="text_18">
     <!-- $I_D[mA]$ -->
     <g style="fill:#ffffff;" transform="translate(29.995312 509.277656)rotate(-90)scale(0.3 -0.3)">
      <defs>
       <path d="M 1044 4666 
L 2247 4666 
L 1338 0 
L 134 0 
L 1044 4666 
z
" id="DejaVuSans-BoldOblique-49" transform="scale(0.015625)"/>
       <path d="M 4013 2919 
Q 4272 3241 4601 3412 
Q 4931 3584 5288 3584 
Q 5756 3584 6026 3326 
Q 6297 3069 6297 2619 
Q 6297 2525 6283 2404 
Q 6269 2284 6241 2131 
L 5825 0 
L 4697 0 
L 5050 1825 
L 5059 1872 
Q 5141 2259 5141 2369 
Q 5141 2541 5042 2641 
Q 4944 2741 4775 2741 
Q 4453 2741 4229 2477 
Q 4006 2213 3909 1722 
L 3572 0 
L 2444 0 
L 2803 1825 
Q 2850 2059 2869 2179 
Q 2888 2300 2888 2369 
Q 2888 2544 2791 2642 
Q 2694 2741 2522 2741 
Q 2213 2741 1980 2467 
Q 1747 2194 1656 1722 
L 1319 0 
L 197 0 
L 878 3500 
L 2003 3500 
L 1900 2988 
Q 2163 3284 2459 3434 
Q 2756 3584 3078 3584 
Q 3441 3584 3700 3398 
Q 3959 3213 4013 2919 
z
" id="DejaVuSans-BoldOblique-6d" transform="scale(0.015625)"/>
       <path d="M 3144 850 
L 1281 850 
L 819 0 
L -416 0 
L 2222 4666 
L 3597 4666 
L 4422 0 
L 3278 0 
L 3144 850 
z
M 1734 1697 
L 2988 1697 
L 2706 3494 
L 1734 1697 
z
" id="DejaVuSans-BoldOblique-41" transform="scale(0.015625)"/>
      </defs>
      <use transform="translate(0 0.015625)" xlink:href="#DejaVuSans-BoldOblique-49"/>
      <use transform="translate(37.207031 -16.390625)scale(0.7)" xlink:href="#DejaVuSans-BoldOblique-44"/>
      <use transform="translate(98.046875 0.015625)" xlink:href="#DejaVuSans-Bold-5b"/>
      <use transform="translate(143.75 0.015625)" xlink:href="#DejaVuSans-BoldOblique-6d"/>
      <use transform="translate(247.949219 0.015625)" xlink:href="#DejaVuSans-BoldOblique-41"/>
      <use transform="translate(325.341797 0.015625)" xlink:href="#DejaVuSans-Bold-5d"/>
     </g>
    </g>
   </g>
   <g id="line2d_91">
    <path clip-path="url(#p6c1e0054a2)" d="M 88.98125 888.357656 
L 95.92525 867.656645 
L 102.37325 849.101317 
L 108.82125 831.188575 
L 115.26925 813.91869 
L 121.71725 797.291975 
L 128.16525 781.308709 
L 134.11725 767.126228 
L 140.06925 753.492497 
L 146.02125 740.407653 
L 151.97325 727.871942 
L 157.92525 715.88557 
L 163.38125 705.380887 
L 168.83725 695.338151 
L 174.29325 685.757536 
L 179.74925 676.639216 
L 185.20525 667.983364 
L 190.16525 660.515883 
L 195.12525 653.430853 
L 200.08525 646.728448 
L 205.04525 640.408772 
L 210.00525 634.471894 
L 214.46925 629.456197 
L 218.93325 624.750795 
L 223.39725 620.355759 
L 227.86125 616.271227 
L 232.32525 612.497303 
L 236.78925 609.034024 
L 241.25325 605.881526 
L 245.22125 603.340296 
L 249.18925 601.044721 
L 253.15725 598.994906 
L 257.12525 597.190884 
L 261.09325 595.632727 
L 265.06125 594.320572 
L 269.02925 593.25442 
L 272.99725 592.434306 
L 276.96525 591.860334 
L 280.93325 591.532574 
L 284.90125 591.447581 
L 981.78125 591.447581 
L 981.78125 591.447581 
" style="fill:none;stroke:#ff0000;stroke-linecap:square;stroke-width:4;"/>
   </g>
   <g id="line2d_92">
    <path clip-path="url(#p6c1e0054a2)" d="M 88.98125 888.357656 
L 94.43725 870.111546 
L 99.89325 852.602136 
L 105.34925 835.829406 
L 110.80525 819.793327 
L 116.26125 804.493971 
L 121.22125 791.224738 
L 126.18125 778.564338 
L 131.14125 766.512769 
L 136.10125 755.070033 
L 140.56525 745.292121 
L 145.02925 736.007329 
L 149.49325 727.215725 
L 153.95725 718.917275 
L 158.42125 711.11198 
L 162.38925 704.587945 
L 166.35725 698.453562 
L 170.32525 692.708797 
L 174.29325 687.35372 
L 178.26125 682.388295 
L 182.22925 677.812522 
L 185.70125 674.128358 
L 189.17325 670.742521 
L 192.64525 667.655013 
L 196.11725 664.865831 
L 199.58925 662.374978 
L 203.06125 660.182417 
L 206.53325 658.288219 
L 209.50925 656.902065 
L 212.48525 655.735091 
L 215.46125 654.787296 
L 218.43725 654.058681 
L 221.41325 653.549245 
L 224.38925 653.258989 
L 227.36525 653.184537 
L 981.78125 653.184537 
L 981.78125 653.184537 
" style="fill:none;stroke:#008000;stroke-linecap:square;stroke-width:4;"/>
   </g>
   <g id="line2d_93">
    <path clip-path="url(#p6c1e0054a2)" d="M 88.98125 888.357656 
L 93.44525 869.273807 
L 97.41325 853.234034 
L 101.38125 838.06448 
L 105.34925 823.765904 
L 109.31725 810.33921 
L 112.78925 799.306652 
L 116.26125 788.942801 
L 119.73325 779.248178 
L 123.20525 770.223374 
L 126.67725 761.868947 
L 129.65325 755.241967 
L 132.62925 749.10828 
L 135.60525 743.4682 
L 138.58125 738.322108 
L 141.55725 733.670353 
L 144.03725 730.171726 
L 146.51725 727.016863 
L 148.99725 724.205903 
L 151.47725 721.739159 
L 153.95725 719.616702 
L 156.43725 717.838808 
L 158.42125 716.664701 
L 160.40525 715.711375 
L 162.38925 714.978898 
L 164.37325 714.46734 
L 166.35725 714.176909 
L 168.34125 714.103745 
L 981.78125 714.103745 
L 981.78125 714.103745 
" style="fill:none;stroke:#0000ff;stroke-linecap:square;stroke-width:4;"/>
   </g>
   <g id="line2d_94">
    <path clip-path="url(#p6c1e0054a2)" d="M 88.98125 462.352758 
L 135.970724 484.774069 
L 182.960197 507.195379 
L 229.949671 529.61669 
L 276.939145 552.038 
L 323.928618 574.45931 
L 370.918092 596.880621 
L 417.907566 619.301931 
L 464.897039 641.723242 
L 511.886513 664.144552 
L 558.875987 686.565862 
L 605.865461 708.987173 
L 652.854934 731.408483 
L 699.844408 753.829794 
L 746.833882 776.251104 
L 793.823355 798.672415 
L 840.812829 821.093725 
L 887.802303 843.515035 
L 934.791776 865.936346 
L 981.78125 888.357656 
" style="fill:none;stroke:#ffa500;stroke-linecap:square;stroke-width:3;"/>
   </g>
   <g id="line2d_95">
    <path clip-path="url(#p6c1e0054a2)" d="M 88.98125 888.357656 
L 981.78125 888.357656 
" style="fill:none;stroke:#ffffff;stroke-linecap:square;stroke-width:4;"/>
   </g>
   <g id="line2d_96">
    <path clip-path="url(#p6c1e0054a2)" d="M 88.98125 888.357656 
L 88.98125 18.597656 
" style="fill:none;stroke:#ffffff;stroke-linecap:square;stroke-width:6;"/>
   </g>
   <g id="patch_3">
    <path d="M 88.98125 888.357656 
L 88.98125 18.597656 
" style="fill:none;stroke:#000000;stroke-linecap:square;stroke-linejoin:miter;stroke-width:0.8;"/>
   </g>
   <g id="patch_4">
    <path d="M 981.78125 888.357656 
L 981.78125 18.597656 
" style="fill:none;stroke:#000000;stroke-linecap:square;stroke-linejoin:miter;stroke-width:0.8;"/>
   </g>
   <g id="patch_5">
    <path d="M 88.98125 888.357656 
L 981.78125 888.357656 
" style="fill:none;stroke:#000000;stroke-linecap:square;stroke-linejoin:miter;stroke-width:0.8;"/>
   </g>
   <g id="patch_6">
    <path d="M 88.98125 18.597656 
L 981.78125 18.597656 
" style="fill:none;stroke:#000000;stroke-linecap:square;stroke-linejoin:miter;stroke-width:0.8;"/>
   </g>
   <g id="legend_1">
    <g id="patch_7">
     <path d="M 144.62125 145.478281 
L 971.18125 145.478281 
Q 974.78125 145.478281 974.78125 141.878281 
L 974.78125 33.197656 
Q 974.78125 29.597656 971.18125 29.597656 
L 144.62125 29.597656 
Q 141.02125 29.597656 141.02125 33.197656 
L 141.02125 141.878281 
Q 141.02125 145.478281 144.62125 145.478281 
z
" style="fill:#454545;opacity:0.5;stroke:#454545;stroke-linejoin:miter;"/>
    </g>
    <g id="patch_8">
     <path d="M 142.62125 143.478281 
L 969.18125 143.478281 
Q 972.78125 143.478281 972.78125 139.878281 
L 972.78125 31.197656 
Q 972.78125 27.597656 969.18125 27.597656 
L 142.62125 27.597656 
Q 139.02125 27.597656 139.02125 31.197656 
L 139.02125 139.878281 
Q 139.02125 143.478281 142.62125 143.478281 
z
" style="fill:#e6e6e6;stroke:#cccccc;stroke-linejoin:miter;"/>
    </g>
    <g id="line2d_97">
     <path d="M 146.22125 42.897656 
L 182.22125 42.897656 
" style="fill:none;stroke:#ff0000;stroke-linecap:square;stroke-width:4;"/>
    </g>
    <g id="line2d_98"/>
    <g id="text_19">
     <!-- $Curva\ de\ Salida\ Máxima,\ Vp=-6,\ I_{Dss}=20mA,\ I_{DQ}=8.57mA\ y\ V_{DSQ}=5.40V$ -->
     <g transform="translate(196.62125 49.197656)scale(0.18 -0.18)">
      <defs>
       <path d="M 3878 219 
Q 3447 66 3050 -12 
Q 2653 -91 2297 -91 
Q 1356 -91 793 425 
Q 231 941 231 1791 
Q 231 2350 409 2845 
Q 588 3341 934 3750 
Q 1344 4231 1920 4490 
Q 2497 4750 3163 4750 
Q 3525 4750 3890 4664 
Q 4256 4578 4634 4403 
L 4441 3438 
Q 4141 3666 3837 3772 
Q 3534 3878 3188 3878 
Q 2466 3878 1978 3322 
Q 1491 2766 1491 1931 
Q 1491 1394 1791 1087 
Q 2091 781 2619 781 
Q 2934 781 3289 895 
Q 3644 1009 4084 1253 
L 3878 219 
z
" id="DejaVuSans-BoldOblique-43" transform="scale(0.015625)"/>
       <path d="M 434 1363 
L 844 3500 
L 1966 3500 
L 1613 1678 
Q 1575 1500 1556 1375 
Q 1538 1250 1538 1178 
Q 1538 981 1647 872 
Q 1756 763 1959 763 
Q 2306 763 2556 1031 
Q 2806 1300 2900 1778 
L 3238 3500 
L 4359 3500 
L 3681 0 
L 2553 0 
L 2656 513 
Q 2369 209 2053 59 
Q 1738 -91 1388 -91 
Q 909 -91 646 162 
Q 384 416 384 878 
Q 384 988 396 1109 
Q 409 1231 434 1363 
z
" id="DejaVuSans-BoldOblique-75" transform="scale(0.015625)"/>
       <path d="M 3291 2547 
Q 3175 2613 3034 2647 
Q 2894 2681 2731 2681 
Q 2303 2681 2020 2406 
Q 1738 2131 1638 1613 
L 1319 0 
L 197 0 
L 878 3500 
L 2003 3500 
L 1881 2900 
Q 2103 3231 2436 3407 
Q 2769 3584 3175 3584 
Q 3234 3584 3309 3578 
Q 3384 3572 3488 3559 
L 3291 2547 
z
" id="DejaVuSans-BoldOblique-72" transform="scale(0.015625)"/>
       <path d="M 403 3500 
L 1434 3500 
L 1888 1056 
L 3206 3500 
L 4341 3500 
L 2284 0 
L 1100 0 
L 403 3500 
z
" id="DejaVuSans-BoldOblique-76" transform="scale(0.015625)"/>
       <path d="M 2106 1575 
Q 1688 1575 1473 1445 
Q 1259 1316 1259 1063 
Q 1259 872 1386 762 
Q 1513 653 1734 653 
Q 2078 653 2309 861 
Q 2541 1069 2619 1447 
L 2644 1575 
L 2106 1575 
z
M 3853 1997 
L 3463 0 
L 2344 0 
L 2438 519 
Q 2163 206 1856 57 
Q 1550 -91 1191 -91 
Q 694 -91 401 167 
Q 109 425 109 863 
Q 109 1531 626 1886 
Q 1144 2241 2119 2241 
L 2778 2241 
L 2791 2328 
Q 2800 2372 2801 2390 
Q 2803 2409 2803 2425 
Q 2803 2631 2608 2736 
Q 2413 2841 2028 2841 
Q 1681 2841 1356 2769 
Q 1031 2697 728 2553 
L 897 3406 
Q 1247 3494 1614 3539 
Q 1981 3584 2375 3584 
Q 3153 3584 3531 3317 
Q 3909 3050 3909 2503 
Q 3909 2397 3895 2270 
Q 3881 2144 3853 1997 
z
" id="DejaVuSans-BoldOblique-61" transform="scale(0.015625)"/>
       <path d="M 1966 722 
Q 2397 722 2667 1119 
Q 2938 1516 2938 2156 
Q 2938 2447 2786 2609 
Q 2634 2772 2363 2772 
Q 1938 2772 1663 2380 
Q 1388 1988 1388 1375 
Q 1388 1056 1536 889 
Q 1684 722 1966 722 
z
M 3144 2988 
L 3506 4863 
L 4634 4863 
L 3688 0 
L 2559 0 
L 2663 506 
Q 2406 200 2125 54 
Q 1844 -91 1509 -91 
Q 919 -91 575 284 
Q 231 659 231 1306 
Q 231 1709 351 2090 
Q 472 2472 697 2784 
Q 981 3178 1339 3381 
Q 1697 3584 2106 3584 
Q 2466 3584 2717 3439 
Q 2969 3294 3144 2988 
z
" id="DejaVuSans-BoldOblique-64" transform="scale(0.015625)"/>
       <path d="M 4025 1619 
L 3988 1441 
L 1369 1441 
Q 1369 1422 1366 1386 
Q 1363 1350 1363 1331 
Q 1363 991 1567 822 
Q 1772 653 2181 653 
Q 2534 653 2926 759 
Q 3319 866 3750 1075 
L 3578 206 
Q 3169 56 2764 -17 
Q 2359 -91 1941 -91 
Q 1122 -91 676 287 
Q 231 666 231 1356 
Q 231 1756 373 2132 
Q 516 2509 788 2822 
Q 1109 3197 1557 3390 
Q 2006 3584 2553 3584 
Q 3263 3584 3680 3206 
Q 4097 2828 4097 2188 
Q 4097 2063 4080 1923 
Q 4063 1784 4025 1619 
z
M 2969 2131 
Q 2978 2172 2983 2214 
Q 2988 2256 2988 2297 
Q 2988 2547 2838 2694 
Q 2688 2841 2431 2841 
Q 2103 2841 1873 2661 
Q 1644 2481 1522 2131 
L 2969 2131 
z
" id="DejaVuSans-BoldOblique-65" transform="scale(0.015625)"/>
       <path d="M 1141 4863 
L 2266 4863 
L 1319 0 
L 197 0 
L 1141 4863 
z
" id="DejaVuSans-BoldOblique-6c" transform="scale(0.015625)"/>
       <path d="M 878 3500 
L 2003 3500 
L 1319 0 
L 197 0 
L 878 3500 
z
M 1141 4863 
L 2266 4863 
L 2088 3950 
L 959 3950 
L 1141 4863 
z
" id="DejaVuSans-BoldOblique-69" transform="scale(0.015625)"/>
       <path d="M 1044 4666 
L 2522 4666 
L 3122 2188 
L 4697 4666 
L 6234 4666 
L 5325 0 
L 4184 0 
L 4850 3444 
L 3231 897 
L 2584 897 
L 1941 3444 
L 1275 0 
L 134 0 
L 1044 4666 
z
" id="DejaVuSans-BoldOblique-4d" transform="scale(0.015625)"/>
       <path d="M 2106 1575 
Q 1688 1575 1473 1445 
Q 1259 1316 1259 1063 
Q 1259 872 1386 762 
Q 1513 653 1734 653 
Q 2078 653 2309 861 
Q 2541 1069 2619 1447 
L 2644 1575 
L 2106 1575 
z
M 3853 1997 
L 3463 0 
L 2344 0 
L 2438 519 
Q 2163 206 1856 57 
Q 1550 -91 1191 -91 
Q 694 -91 401 167 
Q 109 425 109 863 
Q 109 1531 626 1886 
Q 1144 2241 2119 2241 
L 2778 2241 
L 2791 2328 
Q 2800 2372 2801 2390 
Q 2803 2409 2803 2425 
Q 2803 2631 2608 2736 
Q 2413 2841 2028 2841 
Q 1681 2841 1356 2769 
Q 1031 2697 728 2553 
L 897 3406 
Q 1247 3494 1614 3539 
Q 1981 3584 2375 3584 
Q 3153 3584 3531 3317 
Q 3909 3050 3909 2503 
Q 3909 2397 3895 2270 
Q 3881 2144 3853 1997 
z
M 3097 5119 
L 4013 5119 
L 2644 3944 
L 2016 3944 
L 3097 5119 
z
" id="DejaVuSans-BoldOblique-e1" transform="scale(0.015625)"/>
       <path d="M 1416 1791 
L 488 3500 
L 1650 3500 
L 2169 2463 
L 3078 3500 
L 4294 3500 
L 2700 1797 
L 3675 0 
L 2509 0 
L 1959 1106 
L 953 0 
L -263 0 
L 1416 1791 
z
" id="DejaVuSans-BoldOblique-78" transform="scale(0.015625)"/>
       <path d="M 653 1209 
L 1778 1209 
L 1778 256 
L 1006 -909 
L 341 -909 
L 653 256 
L 653 1209 
z
" id="DejaVuSans-Bold-2c" transform="scale(0.015625)"/>
       <path d="M 1422 506 
L 1063 -1331 
L -63 -1331 
L 878 3500 
L 2003 3500 
L 1900 2988 
Q 2156 3294 2437 3439 
Q 2719 3584 3053 3584 
Q 3644 3584 3987 3209 
Q 4331 2834 4331 2188 
Q 4331 1784 4211 1403 
Q 4091 1022 3866 709 
Q 3581 316 3223 112 
Q 2866 -91 2456 -91 
Q 2097 -91 1845 54 
Q 1594 200 1422 506 
z
M 2597 2772 
Q 2166 2772 1892 2373 
Q 1619 1975 1619 1338 
Q 1619 1050 1773 886 
Q 1928 722 2203 722 
Q 2625 722 2900 1114 
Q 3175 1506 3175 2119 
Q 3175 2438 3026 2605 
Q 2878 2772 2597 2772 
z
" id="DejaVuSans-BoldOblique-70" transform="scale(0.015625)"/>
       <path d="M 678 3084 
L 4684 3084 
L 4684 2350 
L 678 2350 
L 678 3084 
z
M 678 1663 
L 4684 1663 
L 4684 922 
L 678 922 
L 678 1663 
z
" id="DejaVuSans-Bold-3d" transform="scale(0.015625)"/>
       <path d="M 678 2375 
L 4684 2375 
L 4684 1638 
L 678 1638 
L 678 2375 
z
" id="DejaVuSans-Bold-2212" transform="scale(0.015625)"/>
       <path d="M 3584 3391 
L 3419 2522 
Q 3091 2678 2766 2759 
Q 2441 2841 2150 2841 
Q 1819 2841 1639 2755 
Q 1459 2669 1459 2509 
Q 1459 2416 1559 2359 
Q 1659 2303 1953 2241 
L 2156 2203 
Q 2834 2059 3106 1832 
Q 3378 1606 3378 1203 
Q 3378 594 2900 251 
Q 2422 -91 1563 -91 
Q 1203 -91 828 -34 
Q 453 22 63 134 
L 231 1013 
Q 534 834 879 743 
Q 1225 653 1588 653 
Q 1941 653 2119 737 
Q 2297 822 2297 984 
Q 2297 1097 2197 1159 
Q 2097 1222 1784 1288 
L 1581 1325 
Q 981 1450 725 1694 
Q 469 1938 469 2369 
Q 469 2953 911 3268 
Q 1353 3584 2175 3584 
Q 2534 3584 2882 3536 
Q 3231 3488 3584 3391 
z
" id="DejaVuSans-BoldOblique-73" transform="scale(0.015625)"/>
       <path d="M 2375 -84 
Q 2341 -88 2306 -89 
Q 2272 -91 2194 -91 
Q 1841 -91 1528 6 
Q 1216 103 959 294 
Q 616 547 423 939 
Q 231 1331 231 1778 
Q 231 2350 404 2858 
Q 578 3366 909 3769 
Q 1313 4266 1864 4508 
Q 2416 4750 3144 4750 
Q 4075 4750 4642 4233 
Q 5209 3716 5209 2881 
Q 5209 1900 4732 1161 
Q 4256 422 3406 84 
L 4122 -934 
L 2975 -934 
L 2375 -84 
z
M 3938 2753 
Q 3938 3303 3689 3590 
Q 3441 3878 2969 3878 
Q 2344 3878 1920 3317 
Q 1497 2756 1497 1913 
Q 1497 1375 1744 1078 
Q 1991 781 2431 781 
Q 2791 781 3070 932 
Q 3350 1084 3547 1381 
Q 3734 1666 3836 2022 
Q 3938 2378 3938 2753 
z
" id="DejaVuSans-BoldOblique-51" transform="scale(0.015625)"/>
       <path d="M 653 1209 
L 1778 1209 
L 1778 0 
L 653 0 
L 653 1209 
z
" id="DejaVuSans-Bold-2e" transform="scale(0.015625)"/>
       <path d="M 428 4666 
L 3944 4666 
L 3944 3988 
L 2125 0 
L 953 0 
L 2675 3781 
L 428 3781 
L 428 4666 
z
" id="DejaVuSans-Bold-37" transform="scale(0.015625)"/>
       <path d="M 422 3500 
L 1478 3500 
L 1959 1075 
L 3200 3500 
L 4397 3500 
L 2181 -331 
Q 1809 -978 1493 -1179 
Q 1178 -1381 678 -1381 
L 0 -1381 
L 116 -647 
L 469 -647 
Q 744 -647 895 -555 
Q 1047 -463 1166 -231 
L 1269 -44 
L 422 3500 
z
" id="DejaVuSans-BoldOblique-79" transform="scale(0.015625)"/>
      </defs>
      <use transform="translate(0 0.015625)" xlink:href="#DejaVuSans-BoldOblique-43"/>
      <use transform="translate(73.388672 0.015625)" xlink:href="#DejaVuSans-BoldOblique-75"/>
      <use transform="translate(144.580078 0.015625)" xlink:href="#DejaVuSans-BoldOblique-72"/>
      <use transform="translate(193.896484 0.015625)" xlink:href="#DejaVuSans-BoldOblique-76"/>
      <use transform="translate(259.082031 0.015625)" xlink:href="#DejaVuSans-BoldOblique-61"/>
      <use transform="translate(361.295226 0.015625)" xlink:href="#DejaVuSans-BoldOblique-64"/>
      <use transform="translate(432.877257 0.015625)" xlink:href="#DejaVuSans-BoldOblique-65"/>
      <use transform="translate(535.432248 0.015625)" xlink:href="#DejaVuSans-BoldOblique-53"/>
      <use transform="translate(607.453732 0.015625)" xlink:href="#DejaVuSans-BoldOblique-61"/>
      <use transform="translate(674.934201 0.015625)" xlink:href="#DejaVuSans-BoldOblique-6c"/>
      <use transform="translate(709.211545 0.015625)" xlink:href="#DejaVuSans-BoldOblique-69"/>
      <use transform="translate(743.488889 0.015625)" xlink:href="#DejaVuSans-BoldOblique-64"/>
      <use transform="translate(815.07092 0.015625)" xlink:href="#DejaVuSans-BoldOblique-61"/>
      <use transform="translate(917.284114 0.015625)" xlink:href="#DejaVuSans-BoldOblique-4d"/>
      <use transform="translate(1016.795833 0.015625)" xlink:href="#DejaVuSans-BoldOblique-e1"/>
      <use transform="translate(1084.276302 0.015625)" xlink:href="#DejaVuSans-BoldOblique-78"/>
      <use transform="translate(1148.778255 0.015625)" xlink:href="#DejaVuSans-BoldOblique-69"/>
      <use transform="translate(1183.055599 0.015625)" xlink:href="#DejaVuSans-BoldOblique-6d"/>
      <use transform="translate(1287.254817 0.015625)" xlink:href="#DejaVuSans-BoldOblique-61"/>
      <use transform="translate(1354.735286 0.015625)" xlink:href="#DejaVuSans-Bold-2c"/>
      <use transform="translate(1448.296137 0.015625)" xlink:href="#DejaVuSans-BoldOblique-56"/>
      <use transform="translate(1525.688715 0.015625)" xlink:href="#DejaVuSans-BoldOblique-70"/>
      <use transform="translate(1618.11059 0.015625)" xlink:href="#DejaVuSans-Bold-3d"/>
      <use transform="translate(1743.57934 0.015625)" xlink:href="#DejaVuSans-Bold-2212"/>
      <use transform="translate(1848.208246 0.015625)" xlink:href="#DejaVuSans-Bold-36"/>
      <use transform="translate(1917.788324 0.015625)" xlink:href="#DejaVuSans-Bold-2c"/>
      <use transform="translate(2011.349175 0.015625)" xlink:href="#DejaVuSans-BoldOblique-49"/>
      <use transform="translate(2048.556206 -16.390625)scale(0.7)" xlink:href="#DejaVuSans-BoldOblique-44"/>
      <use transform="translate(2106.661675 -16.390625)scale(0.7)" xlink:href="#DejaVuSans-BoldOblique-73"/>
      <use transform="translate(2148.326714 -16.390625)scale(0.7)" xlink:href="#DejaVuSans-BoldOblique-73"/>
      <use transform="translate(2213.565972 0.015625)" xlink:href="#DejaVuSans-Bold-3d"/>
      <use transform="translate(2318.194878 0.015625)" xlink:href="#DejaVuSans-Bold-32"/>
      <use transform="translate(2387.774956 0.015625)" xlink:href="#DejaVuSans-Bold-30"/>
      <use transform="translate(2457.355034 0.015625)" xlink:href="#DejaVuSans-BoldOblique-6d"/>
      <use transform="translate(2561.554253 0.015625)" xlink:href="#DejaVuSans-BoldOblique-41"/>
      <use transform="translate(2638.946831 0.015625)" xlink:href="#DejaVuSans-Bold-2c"/>
      <use transform="translate(2732.507682 0.015625)" xlink:href="#DejaVuSans-BoldOblique-49"/>
      <use transform="translate(2769.714713 -16.390625)scale(0.7)" xlink:href="#DejaVuSans-BoldOblique-44"/>
      <use transform="translate(2827.820182 -16.390625)scale(0.7)" xlink:href="#DejaVuSans-BoldOblique-51"/>
      <use transform="translate(2910.901236 0.015625)" xlink:href="#DejaVuSans-Bold-3d"/>
      <use transform="translate(3015.530143 0.015625)" xlink:href="#DejaVuSans-Bold-38"/>
      <use transform="translate(3085.110221 0.015625)" xlink:href="#DejaVuSans-Bold-2e"/>
      <use transform="translate(3123.098502 0.015625)" xlink:href="#DejaVuSans-Bold-35"/>
      <use transform="translate(3188.17858 0.015625)" xlink:href="#DejaVuSans-Bold-37"/>
      <use transform="translate(3257.758658 0.015625)" xlink:href="#DejaVuSans-BoldOblique-6d"/>
      <use transform="translate(3361.957877 0.015625)" xlink:href="#DejaVuSans-BoldOblique-41"/>
      <use transform="translate(3474.083181 0.015625)" xlink:href="#DejaVuSans-BoldOblique-79"/>
      <use transform="translate(3574.001453 0.015625)" xlink:href="#DejaVuSans-BoldOblique-56"/>
      <use transform="translate(3651.394031 -16.390625)scale(0.7)" xlink:href="#DejaVuSans-BoldOblique-44"/>
      <use transform="translate(3709.4995 -16.390625)scale(0.7)" xlink:href="#DejaVuSans-BoldOblique-53"/>
      <use transform="translate(3759.914539 -16.390625)scale(0.7)" xlink:href="#DejaVuSans-BoldOblique-51"/>
      <use transform="translate(3842.995594 0.015625)" xlink:href="#DejaVuSans-Bold-3d"/>
      <use transform="translate(3947.6245 0.015625)" xlink:href="#DejaVuSans-Bold-35"/>
      <use transform="translate(4017.204578 0.015625)" xlink:href="#DejaVuSans-Bold-2e"/>
      <use transform="translate(4055.192859 0.015625)" xlink:href="#DejaVuSans-Bold-34"/>
      <use transform="translate(4124.772937 0.015625)" xlink:href="#DejaVuSans-Bold-30"/>
      <use transform="translate(4194.353016 0.015625)" xlink:href="#DejaVuSans-BoldOblique-56"/>
     </g>
    </g>
    <g id="line2d_99">
     <path d="M 146.22125 70.437656 
L 182.22125 70.437656 
" style="fill:none;stroke:#008000;stroke-linecap:square;stroke-width:4;"/>
    </g>
    <g id="line2d_100"/>
    <g id="text_20">
     <!-- $Curva\ de\ Salida\ Media,\ Vp=-4,\ I_{Dss}=14mA,\ I_{DQ}=6.76mA\ y\ V_{DSQ}=8.06V$ -->
     <g transform="translate(196.62125 76.737656)scale(0.18 -0.18)">
      <use transform="translate(0 0.015625)" xlink:href="#DejaVuSans-BoldOblique-43"/>
      <use transform="translate(73.388672 0.015625)" xlink:href="#DejaVuSans-BoldOblique-75"/>
      <use transform="translate(144.580078 0.015625)" xlink:href="#DejaVuSans-BoldOblique-72"/>
      <use transform="translate(193.896484 0.015625)" xlink:href="#DejaVuSans-BoldOblique-76"/>
      <use transform="translate(259.082031 0.015625)" xlink:href="#DejaVuSans-BoldOblique-61"/>
      <use transform="translate(361.295226 0.015625)" xlink:href="#DejaVuSans-BoldOblique-64"/>
      <use transform="translate(432.877257 0.015625)" xlink:href="#DejaVuSans-BoldOblique-65"/>
      <use transform="translate(535.432248 0.015625)" xlink:href="#DejaVuSans-BoldOblique-53"/>
      <use transform="translate(607.453732 0.015625)" xlink:href="#DejaVuSans-BoldOblique-61"/>
      <use transform="translate(674.934201 0.015625)" xlink:href="#DejaVuSans-BoldOblique-6c"/>
      <use transform="translate(709.211545 0.015625)" xlink:href="#DejaVuSans-BoldOblique-69"/>
      <use transform="translate(743.488889 0.015625)" xlink:href="#DejaVuSans-BoldOblique-64"/>
      <use transform="translate(815.07092 0.015625)" xlink:href="#DejaVuSans-BoldOblique-61"/>
      <use transform="translate(917.284114 0.015625)" xlink:href="#DejaVuSans-BoldOblique-4d"/>
      <use transform="translate(1016.795833 0.015625)" xlink:href="#DejaVuSans-BoldOblique-65"/>
      <use transform="translate(1084.618099 0.015625)" xlink:href="#DejaVuSans-BoldOblique-64"/>
      <use transform="translate(1156.20013 0.015625)" xlink:href="#DejaVuSans-BoldOblique-69"/>
      <use transform="translate(1190.477474 0.015625)" xlink:href="#DejaVuSans-BoldOblique-61"/>
      <use transform="translate(1257.957942 0.015625)" xlink:href="#DejaVuSans-Bold-2c"/>
      <use transform="translate(1351.518793 0.015625)" xlink:href="#DejaVuSans-BoldOblique-56"/>
      <use transform="translate(1428.911371 0.015625)" xlink:href="#DejaVuSans-BoldOblique-70"/>
      <use transform="translate(1521.333246 0.015625)" xlink:href="#DejaVuSans-Bold-3d"/>
      <use transform="translate(1646.801996 0.015625)" xlink:href="#DejaVuSans-Bold-2212"/>
      <use transform="translate(1751.430902 0.015625)" xlink:href="#DejaVuSans-Bold-34"/>
      <use transform="translate(1821.01098 0.015625)" xlink:href="#DejaVuSans-Bold-2c"/>
      <use transform="translate(1914.571831 0.015625)" xlink:href="#DejaVuSans-BoldOblique-49"/>
      <use transform="translate(1951.778862 -16.390625)scale(0.7)" xlink:href="#DejaVuSans-BoldOblique-44"/>
      <use transform="translate(2009.884331 -16.390625)scale(0.7)" xlink:href="#DejaVuSans-BoldOblique-73"/>
      <use transform="translate(2051.54937 -16.390625)scale(0.7)" xlink:href="#DejaVuSans-BoldOblique-73"/>
      <use transform="translate(2116.788628 0.015625)" xlink:href="#DejaVuSans-Bold-3d"/>
      <use transform="translate(2221.417534 0.015625)" xlink:href="#DejaVuSans-Bold-31"/>
      <use transform="translate(2290.997612 0.015625)" xlink:href="#DejaVuSans-Bold-34"/>
      <use transform="translate(2360.57769 0.015625)" xlink:href="#DejaVuSans-BoldOblique-6d"/>
      <use transform="translate(2464.776909 0.015625)" xlink:href="#DejaVuSans-BoldOblique-41"/>
      <use transform="translate(2542.169487 0.015625)" xlink:href="#DejaVuSans-Bold-2c"/>
      <use transform="translate(2635.730338 0.015625)" xlink:href="#DejaVuSans-BoldOblique-49"/>
      <use transform="translate(2672.937369 -16.390625)scale(0.7)" xlink:href="#DejaVuSans-BoldOblique-44"/>
      <use transform="translate(2731.042838 -16.390625)scale(0.7)" xlink:href="#DejaVuSans-BoldOblique-51"/>
      <use transform="translate(2814.123893 0.015625)" xlink:href="#DejaVuSans-Bold-3d"/>
      <use transform="translate(2918.752799 0.015625)" xlink:href="#DejaVuSans-Bold-36"/>
      <use transform="translate(2988.332877 0.015625)" xlink:href="#DejaVuSans-Bold-2e"/>
      <use transform="translate(3026.321158 0.015625)" xlink:href="#DejaVuSans-Bold-37"/>
      <use transform="translate(3095.901236 0.015625)" xlink:href="#DejaVuSans-Bold-36"/>
      <use transform="translate(3165.481314 0.015625)" xlink:href="#DejaVuSans-BoldOblique-6d"/>
      <use transform="translate(3269.680533 0.015625)" xlink:href="#DejaVuSans-BoldOblique-41"/>
      <use transform="translate(3381.805837 0.015625)" xlink:href="#DejaVuSans-BoldOblique-79"/>
      <use transform="translate(3481.724109 0.015625)" xlink:href="#DejaVuSans-BoldOblique-56"/>
      <use transform="translate(3559.116688 -16.390625)scale(0.7)" xlink:href="#DejaVuSans-BoldOblique-44"/>
      <use transform="translate(3617.222156 -16.390625)scale(0.7)" xlink:href="#DejaVuSans-BoldOblique-53"/>
      <use transform="translate(3667.637195 -16.390625)scale(0.7)" xlink:href="#DejaVuSans-BoldOblique-51"/>
      <use transform="translate(3750.71825 0.015625)" xlink:href="#DejaVuSans-Bold-3d"/>
      <use transform="translate(3855.347156 0.015625)" xlink:href="#DejaVuSans-Bold-38"/>
      <use transform="translate(3924.927234 0.015625)" xlink:href="#DejaVuSans-Bold-2e"/>
      <use transform="translate(3962.915516 0.015625)" xlink:href="#DejaVuSans-Bold-30"/>
      <use transform="translate(4032.495594 0.015625)" xlink:href="#DejaVuSans-Bold-36"/>
      <use transform="translate(4102.075672 0.015625)" xlink:href="#DejaVuSans-BoldOblique-56"/>
     </g>
    </g>
    <g id="line2d_101">
     <path d="M 146.22125 98.697656 
L 182.22125 98.697656 
" style="fill:none;stroke:#0000ff;stroke-linecap:square;stroke-width:4;"/>
    </g>
    <g id="line2d_102"/>
    <g id="text_21">
     <!-- $Curva\ de\ Salida\ Mínima,\ Vp=-2,\ I_{Dss}=8mA,\ I_{DQ}=5.04mA\ y\ V_{DSQ}=10.60V$ -->
     <g transform="translate(196.62125 104.997656)scale(0.18 -0.18)">
      <defs>
       <path d="M 878 3500 
L 2003 3500 
L 1319 0 
L 197 0 
L 878 3500 
z
M 2094 5119 
L 3009 5119 
L 1641 3944 
L 1013 3944 
L 2094 5119 
z
" id="DejaVuSans-BoldOblique-ed" transform="scale(0.015625)"/>
       <path d="M 4128 2131 
L 3713 0 
L 2591 0 
L 2944 1825 
Q 2981 2003 3001 2126 
Q 3022 2250 3022 2322 
Q 3022 2522 2911 2631 
Q 2800 2741 2597 2741 
Q 2250 2741 2001 2470 
Q 1753 2200 1656 1722 
L 1319 0 
L 197 0 
L 878 3500 
L 2003 3500 
L 1900 2988 
Q 2209 3291 2521 3437 
Q 2834 3584 3175 3584 
Q 3659 3584 3921 3331 
Q 4184 3078 4184 2619 
Q 4184 2519 4170 2397 
Q 4156 2275 4128 2131 
z
" id="DejaVuSans-BoldOblique-6e" transform="scale(0.015625)"/>
      </defs>
      <use transform="translate(0 0.015625)" xlink:href="#DejaVuSans-BoldOblique-43"/>
      <use transform="translate(73.388672 0.015625)" xlink:href="#DejaVuSans-BoldOblique-75"/>
      <use transform="translate(144.580078 0.015625)" xlink:href="#DejaVuSans-BoldOblique-72"/>
      <use transform="translate(193.896484 0.015625)" xlink:href="#DejaVuSans-BoldOblique-76"/>
      <use transform="translate(259.082031 0.015625)" xlink:href="#DejaVuSans-BoldOblique-61"/>
      <use transform="translate(361.295226 0.015625)" xlink:href="#DejaVuSans-BoldOblique-64"/>
      <use transform="translate(432.877257 0.015625)" xlink:href="#DejaVuSans-BoldOblique-65"/>
      <use transform="translate(535.432248 0.015625)" xlink:href="#DejaVuSans-BoldOblique-53"/>
      <use transform="translate(607.453732 0.015625)" xlink:href="#DejaVuSans-BoldOblique-61"/>
      <use transform="translate(674.934201 0.015625)" xlink:href="#DejaVuSans-BoldOblique-6c"/>
      <use transform="translate(709.211545 0.015625)" xlink:href="#DejaVuSans-BoldOblique-69"/>
      <use transform="translate(743.488889 0.015625)" xlink:href="#DejaVuSans-BoldOblique-64"/>
      <use transform="translate(815.07092 0.015625)" xlink:href="#DejaVuSans-BoldOblique-61"/>
      <use transform="translate(917.284114 0.015625)" xlink:href="#DejaVuSans-BoldOblique-4d"/>
      <use transform="translate(1016.795833 0.015625)" xlink:href="#DejaVuSans-BoldOblique-ed"/>
      <use transform="translate(1051.073177 0.015625)" xlink:href="#DejaVuSans-BoldOblique-6e"/>
      <use transform="translate(1122.264583 0.015625)" xlink:href="#DejaVuSans-BoldOblique-69"/>
      <use transform="translate(1156.541927 0.015625)" xlink:href="#DejaVuSans-BoldOblique-6d"/>
      <use transform="translate(1260.741146 0.015625)" xlink:href="#DejaVuSans-BoldOblique-61"/>
      <use transform="translate(1328.221614 0.015625)" xlink:href="#DejaVuSans-Bold-2c"/>
      <use transform="translate(1421.782465 0.015625)" xlink:href="#DejaVuSans-BoldOblique-56"/>
      <use transform="translate(1499.175043 0.015625)" xlink:href="#DejaVuSans-BoldOblique-70"/>
      <use transform="translate(1591.596918 0.015625)" xlink:href="#DejaVuSans-Bold-3d"/>
      <use transform="translate(1717.065668 0.015625)" xlink:href="#DejaVuSans-Bold-2212"/>
      <use transform="translate(1821.694574 0.015625)" xlink:href="#DejaVuSans-Bold-32"/>
      <use transform="translate(1891.274652 0.015625)" xlink:href="#DejaVuSans-Bold-2c"/>
      <use transform="translate(1984.835503 0.015625)" xlink:href="#DejaVuSans-BoldOblique-49"/>
      <use transform="translate(2022.042534 -16.390625)scale(0.7)" xlink:href="#DejaVuSans-BoldOblique-44"/>
      <use transform="translate(2080.148003 -16.390625)scale(0.7)" xlink:href="#DejaVuSans-BoldOblique-73"/>
      <use transform="translate(2121.813042 -16.390625)scale(0.7)" xlink:href="#DejaVuSans-BoldOblique-73"/>
      <use transform="translate(2187.0523 0.015625)" xlink:href="#DejaVuSans-Bold-3d"/>
      <use transform="translate(2291.681206 0.015625)" xlink:href="#DejaVuSans-Bold-38"/>
      <use transform="translate(2361.261284 0.015625)" xlink:href="#DejaVuSans-BoldOblique-6d"/>
      <use transform="translate(2465.460503 0.015625)" xlink:href="#DejaVuSans-BoldOblique-41"/>
      <use transform="translate(2542.853081 0.015625)" xlink:href="#DejaVuSans-Bold-2c"/>
      <use transform="translate(2636.413932 0.015625)" xlink:href="#DejaVuSans-BoldOblique-49"/>
      <use transform="translate(2673.620963 -16.390625)scale(0.7)" xlink:href="#DejaVuSans-BoldOblique-44"/>
      <use transform="translate(2731.726432 -16.390625)scale(0.7)" xlink:href="#DejaVuSans-BoldOblique-51"/>
      <use transform="translate(2814.807486 0.015625)" xlink:href="#DejaVuSans-Bold-3d"/>
      <use transform="translate(2919.436393 0.015625)" xlink:href="#DejaVuSans-Bold-35"/>
      <use transform="translate(2989.016471 0.015625)" xlink:href="#DejaVuSans-Bold-2e"/>
      <use transform="translate(3027.004752 0.015625)" xlink:href="#DejaVuSans-Bold-30"/>
      <use transform="translate(3096.58483 0.015625)" xlink:href="#DejaVuSans-Bold-34"/>
      <use transform="translate(3166.164908 0.015625)" xlink:href="#DejaVuSans-BoldOblique-6d"/>
      <use transform="translate(3270.364127 0.015625)" xlink:href="#DejaVuSans-BoldOblique-41"/>
      <use transform="translate(3382.489431 0.015625)" xlink:href="#DejaVuSans-BoldOblique-79"/>
      <use transform="translate(3482.407703 0.015625)" xlink:href="#DejaVuSans-BoldOblique-56"/>
      <use transform="translate(3559.800281 -16.390625)scale(0.7)" xlink:href="#DejaVuSans-BoldOblique-44"/>
      <use transform="translate(3617.90575 -16.390625)scale(0.7)" xlink:href="#DejaVuSans-BoldOblique-53"/>
      <use transform="translate(3668.320789 -16.390625)scale(0.7)" xlink:href="#DejaVuSans-BoldOblique-51"/>
      <use transform="translate(3751.401844 0.015625)" xlink:href="#DejaVuSans-Bold-3d"/>
      <use transform="translate(3856.03075 0.015625)" xlink:href="#DejaVuSans-Bold-31"/>
      <use transform="translate(3925.610828 0.015625)" xlink:href="#DejaVuSans-Bold-30"/>
      <use transform="translate(3995.190906 0.015625)" xlink:href="#DejaVuSans-Bold-2e"/>
      <use transform="translate(4033.179188 0.015625)" xlink:href="#DejaVuSans-Bold-36"/>
      <use transform="translate(4102.759266 0.015625)" xlink:href="#DejaVuSans-Bold-30"/>
      <use transform="translate(4172.339344 0.015625)" xlink:href="#DejaVuSans-BoldOblique-56"/>
     </g>
    </g>
    <g id="line2d_103">
     <path d="M 146.22125 126.234844 
L 182.22125 126.234844 
" style="fill:none;stroke:#ffa500;stroke-linecap:square;stroke-width:3;"/>
    </g>
    <g id="line2d_104"/>
    <g id="text_22">
     <!-- $Circuito\ Externo\ Salida$ -->
     <g transform="translate(196.62125 132.534844)scale(0.18 -0.18)">
      <defs>
       <path d="M 3719 3391 
L 3541 2478 
Q 3316 2628 3097 2706 
Q 2878 2784 2669 2784 
Q 2122 2784 1775 2417 
Q 1428 2050 1428 1478 
Q 1428 1113 1643 911 
Q 1859 709 2253 709 
Q 2516 709 2769 787 
Q 3022 866 3250 1019 
L 3078 103 
Q 2800 6 2519 -42 
Q 2238 -91 1953 -91 
Q 1128 -91 683 279 
Q 238 650 238 1331 
Q 238 1759 402 2162 
Q 566 2566 872 2888 
Q 1213 3241 1653 3412 
Q 2094 3584 2669 3584 
Q 2934 3584 3196 3536 
Q 3459 3488 3719 3391 
z
" id="DejaVuSans-BoldOblique-63" transform="scale(0.015625)"/>
       <path d="M 2303 4494 
L 2113 3500 
L 3256 3500 
L 3097 2700 
L 1953 2700 
L 1666 1219 
Q 1653 1169 1648 1134 
Q 1644 1100 1644 1069 
Q 1644 925 1739 862 
Q 1834 800 2059 800 
L 2638 800 
L 2478 0 
L 1538 0 
Q 1031 0 765 212 
Q 500 425 500 825 
Q 500 913 509 1013 
Q 519 1113 538 1216 
L 825 2700 
L 275 2700 
L 428 3500 
L 984 3500 
L 1178 4494 
L 2303 4494 
z
" id="DejaVuSans-BoldOblique-74" transform="scale(0.015625)"/>
       <path d="M 2400 2784 
Q 1966 2784 1684 2390 
Q 1403 1997 1403 1388 
Q 1403 1056 1554 882 
Q 1706 709 1997 709 
Q 2431 709 2712 1104 
Q 2994 1500 2994 2113 
Q 2994 2441 2842 2612 
Q 2691 2784 2400 2784 
z
M 2491 3584 
Q 3272 3584 3719 3187 
Q 4166 2791 4166 2106 
Q 4166 1709 4025 1336 
Q 3884 963 3616 653 
Q 3297 284 2862 96 
Q 2428 -91 1894 -91 
Q 1122 -91 676 306 
Q 231 703 231 1388 
Q 231 1781 375 2157 
Q 519 2534 788 2847 
Q 1100 3209 1533 3396 
Q 1966 3584 2491 3584 
z
" id="DejaVuSans-BoldOblique-6f" transform="scale(0.015625)"/>
       <path d="M 1044 4666 
L 4288 4666 
L 4109 3756 
L 2069 3756 
L 1900 2888 
L 3822 2888 
L 3641 1978 
L 1722 1978 
L 1516 909 
L 3622 909 
L 3450 0 
L 134 0 
L 1044 4666 
z
" id="DejaVuSans-BoldOblique-45" transform="scale(0.015625)"/>
      </defs>
      <use transform="translate(0 0.015625)" xlink:href="#DejaVuSans-BoldOblique-43"/>
      <use transform="translate(73.388672 0.015625)" xlink:href="#DejaVuSans-BoldOblique-69"/>
      <use transform="translate(107.666016 0.015625)" xlink:href="#DejaVuSans-BoldOblique-72"/>
      <use transform="translate(156.982422 0.015625)" xlink:href="#DejaVuSans-BoldOblique-63"/>
      <use transform="translate(216.259766 0.015625)" xlink:href="#DejaVuSans-BoldOblique-75"/>
      <use transform="translate(287.451172 0.015625)" xlink:href="#DejaVuSans-BoldOblique-69"/>
      <use transform="translate(321.728516 0.015625)" xlink:href="#DejaVuSans-BoldOblique-74"/>
      <use transform="translate(369.53125 0.015625)" xlink:href="#DejaVuSans-BoldOblique-6f"/>
      <use transform="translate(472.965147 0.015625)" xlink:href="#DejaVuSans-BoldOblique-45"/>
      <use transform="translate(541.275694 0.015625)" xlink:href="#DejaVuSans-BoldOblique-78"/>
      <use transform="translate(605.777647 0.015625)" xlink:href="#DejaVuSans-BoldOblique-74"/>
      <use transform="translate(653.580382 0.015625)" xlink:href="#DejaVuSans-BoldOblique-65"/>
      <use transform="translate(721.402647 0.015625)" xlink:href="#DejaVuSans-BoldOblique-72"/>
      <use transform="translate(770.719054 0.015625)" xlink:href="#DejaVuSans-BoldOblique-6e"/>
      <use transform="translate(841.91046 0.015625)" xlink:href="#DejaVuSans-BoldOblique-6f"/>
      <use transform="translate(945.344357 0.015625)" xlink:href="#DejaVuSans-BoldOblique-53"/>
      <use transform="translate(1017.365842 0.015625)" xlink:href="#DejaVuSans-BoldOblique-61"/>
      <use transform="translate(1084.846311 0.015625)" xlink:href="#DejaVuSans-BoldOblique-6c"/>
      <use transform="translate(1119.123654 0.015625)" xlink:href="#DejaVuSans-BoldOblique-69"/>
      <use transform="translate(1153.400998 0.015625)" xlink:href="#DejaVuSans-BoldOblique-64"/>
      <use transform="translate(1224.983029 0.015625)" xlink:href="#DejaVuSans-BoldOblique-61"/>
     </g>
    </g>
   </g>
  </g>
 </g>
 <defs>
  <clipPath id="p6c1e0054a2">
   <rect height="869.76" width="892.8" x="88.98125" y="18.597656"/>
  </clipPath>
 </defs>
</svg>
