<?xml version="1.0" encoding="utf-8" standalone="no"?>
<!DOCTYPE svg PUBLIC "-//W3C//DTD SVG 1.1//EN"
  "http://www.w3.org/Graphics/SVG/1.1/DTD/svg11.dtd">
<svg height="964.626406pt" version="1.1" viewBox="0 0 988.98125 964.626406" width="988.98125pt" xmlns="http://www.w3.org/2000/svg" xmlns:xlink="http://www.w3.org/1999/xlink">
 <metadata>
  <rdf:RDF xmlns:cc="http://creativecommons.org/ns#" xmlns:dc="http://purl.org/dc/elements/1.1/" xmlns:rdf="http://www.w3.org/1999/02/22-rdf-syntax-ns#">
   <cc:Work>
    <dc:type rdf:resource="http://purl.org/dc/dcmitype/StillImage"/>
    <dc:date>2022-06-02T19:28:58.357009</dc:date>
    <dc:format>image/svg+xml</dc:format>
    <dc:creator>
     <cc:Agent>
      <dc:title>Matplotlib v3.4.3, https://matplotlib.org/</dc:title>
     </cc:Agent>
    </dc:creator>
   </cc:Work>
  </rdf:RDF>
 </metadata>
 <defs>
  <style type="text/css">*{stroke-linecap:butt;stroke-linejoin:round;}</style>
 </defs>
 <g id="figure_1">
  <g id="patch_1">
   <path d="M 0 964.626406 
L 988.98125 964.626406 
L 988.98125 0 
L 0 0 
z
" style="fill:#212946;"/>
  </g>
  <g id="axes_1">
   <g id="patch_2">
    <path d="M 88.98125 888.357656 
L 981.78125 888.357656 
L 981.78125 18.597656 
L 88.98125 18.597656 
z
" style="fill:#212946;"/>
   </g>
   <g id="PathCollection_1">
    <defs>
     <path d="M 0 3 
C 0.795609 3 1.55874 2.683901 2.12132 2.12132 
C 2.683901 1.55874 3 0.795609 3 -0 
C 3 -0.795609 2.683901 -1.55874 2.12132 -2.12132 
C 1.55874 -2.683901 0.795609 -3 0 -3 
C -0.795609 -3 -1.55874 -2.683901 -2.12132 -2.12132 
C -2.683901 -1.55874 -3 -0.795609 -3 0 
C -3 0.795609 -2.683901 1.55874 -2.12132 2.12132 
C -1.55874 2.683901 -0.795609 3 0 3 
z
" id="C0_0_05231ac3fe"/>
    </defs>
    <g clip-path="url(#p9ea04103f6)">
     <use style="fill:#ff0000;stroke:#ff0000;stroke-width:7;" x="235.100294" xlink:href="#C0_0_05231ac3fe" y="590.15282"/>
    </g>
    <g clip-path="url(#p9ea04103f6)">
     <use style="fill:#008000;stroke:#008000;stroke-width:7;" x="266.77707" xlink:href="#C0_0_05231ac3fe" y="653.184603"/>
    </g>
    <g clip-path="url(#p9ea04103f6)">
     <use style="fill:#0000ff;stroke:#0000ff;stroke-width:7;" x="296.836949" xlink:href="#C0_0_05231ac3fe" y="712.999017"/>
    </g>
   </g>
   <g id="PathCollection_2">
    <defs>
     <path d="M 0 3 
C 0.795609 3 1.55874 2.683901 2.12132 2.12132 
C 2.683901 1.55874 3 0.795609 3 -0 
C 3 -0.795609 2.683901 -1.55874 2.12132 -2.12132 
C 1.55874 -2.683901 0.795609 -3 0 -3 
C -0.795609 -3 -1.55874 -2.683901 -2.12132 -2.12132 
C -2.683901 -1.55874 -3 -0.795609 -3 0 
C -3 0.795609 -2.683901 1.55874 -2.12132 2.12132 
C -1.55874 2.683901 -0.795609 3 0 3 
z
" id="C1_0_cef21db4bd"/>
    </defs>
    <g clip-path="url(#p9ea04103f6)">
     <use style="fill:#ff0000;stroke:#ff0000;stroke-width:7;" x="513.059038" xlink:href="#C1_0_cef21db4bd" y="590.15282"/>
    </g>
    <g clip-path="url(#p9ea04103f6)">
     <use style="fill:#008000;stroke:#008000;stroke-width:7;" x="612.133208" xlink:href="#C1_0_cef21db4bd" y="653.184603"/>
    </g>
    <g clip-path="url(#p9ea04103f6)">
     <use style="fill:#0000ff;stroke:#0000ff;stroke-width:7;" x="706.150277" xlink:href="#C1_0_cef21db4bd" y="712.999017"/>
    </g>
   </g>
   <g id="matplotlib.axis_1">
    <g id="xtick_1">
     <g id="line2d_1">
      <path clip-path="url(#p9ea04103f6)" d="M 126.18125 888.357656 
L 126.18125 18.597656 
" style="fill:none;stroke:#808080;stroke-dasharray:2.96,1.28;stroke-dashoffset:0;stroke-width:0.8;"/>
     </g>
     <g id="line2d_2">
      <defs>
       <path d="M 0 0 
L 0 3.5 
" id="m706b11edf7" style="stroke:#ffffff;stroke-width:0.8;"/>
      </defs>
      <g>
       <use style="fill:#ffffff;stroke:#ffffff;stroke-width:0.8;" x="126.18125" xlink:href="#m706b11edf7" y="888.357656"/>
      </g>
     </g>
     <g id="text_1">
      <!-- −5 -->
      <g style="fill:#ffffff;" transform="translate(103.175 918.152969)scale(0.3 -0.3)">
       <defs>
        <path d="M 678 2375 
L 4684 2375 
L 4684 1638 
L 678 1638 
L 678 2375 
z
" id="DejaVuSans-Bold-2212" transform="scale(0.015625)"/>
        <path d="M 678 4666 
L 3669 4666 
L 3669 3781 
L 1638 3781 
L 1638 3059 
Q 1775 3097 1914 3117 
Q 2053 3138 2203 3138 
Q 3056 3138 3531 2711 
Q 4006 2284 4006 1522 
Q 4006 766 3489 337 
Q 2972 -91 2053 -91 
Q 1656 -91 1267 -14 
Q 878 63 494 219 
L 494 1166 
Q 875 947 1217 837 
Q 1559 728 1863 728 
Q 2300 728 2551 942 
Q 2803 1156 2803 1522 
Q 2803 1891 2551 2103 
Q 2300 2316 1863 2316 
Q 1603 2316 1309 2248 
Q 1016 2181 678 2041 
L 678 4666 
z
" id="DejaVuSans-Bold-35" transform="scale(0.015625)"/>
       </defs>
       <use xlink:href="#DejaVuSans-Bold-2212"/>
       <use x="83.789062" xlink:href="#DejaVuSans-Bold-35"/>
      </g>
     </g>
    </g>
    <g id="xtick_2">
     <g id="line2d_3">
      <path clip-path="url(#p9ea04103f6)" d="M 312.18125 888.357656 
L 312.18125 18.597656 
" style="fill:none;stroke:#808080;stroke-dasharray:2.96,1.28;stroke-dashoffset:0;stroke-width:0.8;"/>
     </g>
     <g id="line2d_4">
      <g>
       <use style="fill:#ffffff;stroke:#ffffff;stroke-width:0.8;" x="312.18125" xlink:href="#m706b11edf7" y="888.357656"/>
      </g>
     </g>
     <g id="text_2">
      <!-- 0 -->
      <g style="fill:#ffffff;" transform="translate(301.744531 918.152969)scale(0.3 -0.3)">
       <defs>
        <path d="M 2944 2338 
Q 2944 3213 2780 3570 
Q 2616 3928 2228 3928 
Q 1841 3928 1675 3570 
Q 1509 3213 1509 2338 
Q 1509 1453 1675 1090 
Q 1841 728 2228 728 
Q 2613 728 2778 1090 
Q 2944 1453 2944 2338 
z
M 4147 2328 
Q 4147 1169 3647 539 
Q 3147 -91 2228 -91 
Q 1306 -91 806 539 
Q 306 1169 306 2328 
Q 306 3491 806 4120 
Q 1306 4750 2228 4750 
Q 3147 4750 3647 4120 
Q 4147 3491 4147 2328 
z
" id="DejaVuSans-Bold-30" transform="scale(0.015625)"/>
       </defs>
       <use xlink:href="#DejaVuSans-Bold-30"/>
      </g>
     </g>
    </g>
    <g id="xtick_3">
     <g id="line2d_5">
      <path clip-path="url(#p9ea04103f6)" d="M 498.18125 888.357656 
L 498.18125 18.597656 
" style="fill:none;stroke:#808080;stroke-dasharray:2.96,1.28;stroke-dashoffset:0;stroke-width:0.8;"/>
     </g>
     <g id="line2d_6">
      <g>
       <use style="fill:#ffffff;stroke:#ffffff;stroke-width:0.8;" x="498.18125" xlink:href="#m706b11edf7" y="888.357656"/>
      </g>
     </g>
     <g id="text_3">
      <!-- 5 -->
      <g style="fill:#ffffff;" transform="translate(487.744531 918.152969)scale(0.3 -0.3)">
       <use xlink:href="#DejaVuSans-Bold-35"/>
      </g>
     </g>
    </g>
    <g id="xtick_4">
     <g id="line2d_7">
      <path clip-path="url(#p9ea04103f6)" d="M 684.18125 888.357656 
L 684.18125 18.597656 
" style="fill:none;stroke:#808080;stroke-dasharray:2.96,1.28;stroke-dashoffset:0;stroke-width:0.8;"/>
     </g>
     <g id="line2d_8">
      <g>
       <use style="fill:#ffffff;stroke:#ffffff;stroke-width:0.8;" x="684.18125" xlink:href="#m706b11edf7" y="888.357656"/>
      </g>
     </g>
     <g id="text_4">
      <!-- 10 -->
      <g style="fill:#ffffff;" transform="translate(663.307812 918.152969)scale(0.3 -0.3)">
       <defs>
        <path d="M 750 831 
L 1813 831 
L 1813 3847 
L 722 3622 
L 722 4441 
L 1806 4666 
L 2950 4666 
L 2950 831 
L 4013 831 
L 4013 0 
L 750 0 
L 750 831 
z
" id="DejaVuSans-Bold-31" transform="scale(0.015625)"/>
       </defs>
       <use xlink:href="#DejaVuSans-Bold-31"/>
       <use x="69.580078" xlink:href="#DejaVuSans-Bold-30"/>
      </g>
     </g>
    </g>
    <g id="xtick_5">
     <g id="line2d_9">
      <path clip-path="url(#p9ea04103f6)" d="M 870.18125 888.357656 
L 870.18125 18.597656 
" style="fill:none;stroke:#808080;stroke-dasharray:2.96,1.28;stroke-dashoffset:0;stroke-width:0.8;"/>
     </g>
     <g id="line2d_10">
      <g>
       <use style="fill:#ffffff;stroke:#ffffff;stroke-width:0.8;" x="870.18125" xlink:href="#m706b11edf7" y="888.357656"/>
      </g>
     </g>
     <g id="text_5">
      <!-- 15 -->
      <g style="fill:#ffffff;" transform="translate(849.307812 918.152969)scale(0.3 -0.3)">
       <use xlink:href="#DejaVuSans-Bold-31"/>
       <use x="69.580078" xlink:href="#DejaVuSans-Bold-35"/>
      </g>
     </g>
    </g>
    <g id="xtick_6">
     <g id="line2d_11">
      <path clip-path="url(#p9ea04103f6)" d="M 88.98125 888.357656 
L 88.98125 18.597656 
" style="fill:none;stroke:#808080;stroke-dasharray:2.96,1.28;stroke-dashoffset:0;stroke-width:0.8;"/>
     </g>
     <g id="line2d_12">
      <defs>
       <path d="M 0 0 
L 0 2 
" id="mcf3b462529" style="stroke:#ffffff;stroke-width:0.6;"/>
      </defs>
      <g>
       <use style="fill:#ffffff;stroke:#ffffff;stroke-width:0.6;" x="88.98125" xlink:href="#mcf3b462529" y="888.357656"/>
      </g>
     </g>
    </g>
    <g id="xtick_7">
     <g id="line2d_13">
      <path clip-path="url(#p9ea04103f6)" d="M 163.38125 888.357656 
L 163.38125 18.597656 
" style="fill:none;stroke:#808080;stroke-dasharray:2.96,1.28;stroke-dashoffset:0;stroke-width:0.8;"/>
     </g>
     <g id="line2d_14">
      <g>
       <use style="fill:#ffffff;stroke:#ffffff;stroke-width:0.6;" x="163.38125" xlink:href="#mcf3b462529" y="888.357656"/>
      </g>
     </g>
    </g>
    <g id="xtick_8">
     <g id="line2d_15">
      <path clip-path="url(#p9ea04103f6)" d="M 200.58125 888.357656 
L 200.58125 18.597656 
" style="fill:none;stroke:#808080;stroke-dasharray:2.96,1.28;stroke-dashoffset:0;stroke-width:0.8;"/>
     </g>
     <g id="line2d_16">
      <g>
       <use style="fill:#ffffff;stroke:#ffffff;stroke-width:0.6;" x="200.58125" xlink:href="#mcf3b462529" y="888.357656"/>
      </g>
     </g>
    </g>
    <g id="xtick_9">
     <g id="line2d_17">
      <path clip-path="url(#p9ea04103f6)" d="M 237.78125 888.357656 
L 237.78125 18.597656 
" style="fill:none;stroke:#808080;stroke-dasharray:2.96,1.28;stroke-dashoffset:0;stroke-width:0.8;"/>
     </g>
     <g id="line2d_18">
      <g>
       <use style="fill:#ffffff;stroke:#ffffff;stroke-width:0.6;" x="237.78125" xlink:href="#mcf3b462529" y="888.357656"/>
      </g>
     </g>
    </g>
    <g id="xtick_10">
     <g id="line2d_19">
      <path clip-path="url(#p9ea04103f6)" d="M 274.98125 888.357656 
L 274.98125 18.597656 
" style="fill:none;stroke:#808080;stroke-dasharray:2.96,1.28;stroke-dashoffset:0;stroke-width:0.8;"/>
     </g>
     <g id="line2d_20">
      <g>
       <use style="fill:#ffffff;stroke:#ffffff;stroke-width:0.6;" x="274.98125" xlink:href="#mcf3b462529" y="888.357656"/>
      </g>
     </g>
    </g>
    <g id="xtick_11">
     <g id="line2d_21">
      <path clip-path="url(#p9ea04103f6)" d="M 349.38125 888.357656 
L 349.38125 18.597656 
" style="fill:none;stroke:#808080;stroke-dasharray:2.96,1.28;stroke-dashoffset:0;stroke-width:0.8;"/>
     </g>
     <g id="line2d_22">
      <g>
       <use style="fill:#ffffff;stroke:#ffffff;stroke-width:0.6;" x="349.38125" xlink:href="#mcf3b462529" y="888.357656"/>
      </g>
     </g>
    </g>
    <g id="xtick_12">
     <g id="line2d_23">
      <path clip-path="url(#p9ea04103f6)" d="M 386.58125 888.357656 
L 386.58125 18.597656 
" style="fill:none;stroke:#808080;stroke-dasharray:2.96,1.28;stroke-dashoffset:0;stroke-width:0.8;"/>
     </g>
     <g id="line2d_24">
      <g>
       <use style="fill:#ffffff;stroke:#ffffff;stroke-width:0.6;" x="386.58125" xlink:href="#mcf3b462529" y="888.357656"/>
      </g>
     </g>
    </g>
    <g id="xtick_13">
     <g id="line2d_25">
      <path clip-path="url(#p9ea04103f6)" d="M 423.78125 888.357656 
L 423.78125 18.597656 
" style="fill:none;stroke:#808080;stroke-dasharray:2.96,1.28;stroke-dashoffset:0;stroke-width:0.8;"/>
     </g>
     <g id="line2d_26">
      <g>
       <use style="fill:#ffffff;stroke:#ffffff;stroke-width:0.6;" x="423.78125" xlink:href="#mcf3b462529" y="888.357656"/>
      </g>
     </g>
    </g>
    <g id="xtick_14">
     <g id="line2d_27">
      <path clip-path="url(#p9ea04103f6)" d="M 460.98125 888.357656 
L 460.98125 18.597656 
" style="fill:none;stroke:#808080;stroke-dasharray:2.96,1.28;stroke-dashoffset:0;stroke-width:0.8;"/>
     </g>
     <g id="line2d_28">
      <g>
       <use style="fill:#ffffff;stroke:#ffffff;stroke-width:0.6;" x="460.98125" xlink:href="#mcf3b462529" y="888.357656"/>
      </g>
     </g>
    </g>
    <g id="xtick_15">
     <g id="line2d_29">
      <path clip-path="url(#p9ea04103f6)" d="M 535.38125 888.357656 
L 535.38125 18.597656 
" style="fill:none;stroke:#808080;stroke-dasharray:2.96,1.28;stroke-dashoffset:0;stroke-width:0.8;"/>
     </g>
     <g id="line2d_30">
      <g>
       <use style="fill:#ffffff;stroke:#ffffff;stroke-width:0.6;" x="535.38125" xlink:href="#mcf3b462529" y="888.357656"/>
      </g>
     </g>
    </g>
    <g id="xtick_16">
     <g id="line2d_31">
      <path clip-path="url(#p9ea04103f6)" d="M 572.58125 888.357656 
L 572.58125 18.597656 
" style="fill:none;stroke:#808080;stroke-dasharray:2.96,1.28;stroke-dashoffset:0;stroke-width:0.8;"/>
     </g>
     <g id="line2d_32">
      <g>
       <use style="fill:#ffffff;stroke:#ffffff;stroke-width:0.6;" x="572.58125" xlink:href="#mcf3b462529" y="888.357656"/>
      </g>
     </g>
    </g>
    <g id="xtick_17">
     <g id="line2d_33">
      <path clip-path="url(#p9ea04103f6)" d="M 609.78125 888.357656 
L 609.78125 18.597656 
" style="fill:none;stroke:#808080;stroke-dasharray:2.96,1.28;stroke-dashoffset:0;stroke-width:0.8;"/>
     </g>
     <g id="line2d_34">
      <g>
       <use style="fill:#ffffff;stroke:#ffffff;stroke-width:0.6;" x="609.78125" xlink:href="#mcf3b462529" y="888.357656"/>
      </g>
     </g>
    </g>
    <g id="xtick_18">
     <g id="line2d_35">
      <path clip-path="url(#p9ea04103f6)" d="M 646.98125 888.357656 
L 646.98125 18.597656 
" style="fill:none;stroke:#808080;stroke-dasharray:2.96,1.28;stroke-dashoffset:0;stroke-width:0.8;"/>
     </g>
     <g id="line2d_36">
      <g>
       <use style="fill:#ffffff;stroke:#ffffff;stroke-width:0.6;" x="646.98125" xlink:href="#mcf3b462529" y="888.357656"/>
      </g>
     </g>
    </g>
    <g id="xtick_19">
     <g id="line2d_37">
      <path clip-path="url(#p9ea04103f6)" d="M 721.38125 888.357656 
L 721.38125 18.597656 
" style="fill:none;stroke:#808080;stroke-dasharray:2.96,1.28;stroke-dashoffset:0;stroke-width:0.8;"/>
     </g>
     <g id="line2d_38">
      <g>
       <use style="fill:#ffffff;stroke:#ffffff;stroke-width:0.6;" x="721.38125" xlink:href="#mcf3b462529" y="888.357656"/>
      </g>
     </g>
    </g>
    <g id="xtick_20">
     <g id="line2d_39">
      <path clip-path="url(#p9ea04103f6)" d="M 758.58125 888.357656 
L 758.58125 18.597656 
" style="fill:none;stroke:#808080;stroke-dasharray:2.96,1.28;stroke-dashoffset:0;stroke-width:0.8;"/>
     </g>
     <g id="line2d_40">
      <g>
       <use style="fill:#ffffff;stroke:#ffffff;stroke-width:0.6;" x="758.58125" xlink:href="#mcf3b462529" y="888.357656"/>
      </g>
     </g>
    </g>
    <g id="xtick_21">
     <g id="line2d_41">
      <path clip-path="url(#p9ea04103f6)" d="M 795.78125 888.357656 
L 795.78125 18.597656 
" style="fill:none;stroke:#808080;stroke-dasharray:2.96,1.28;stroke-dashoffset:0;stroke-width:0.8;"/>
     </g>
     <g id="line2d_42">
      <g>
       <use style="fill:#ffffff;stroke:#ffffff;stroke-width:0.6;" x="795.78125" xlink:href="#mcf3b462529" y="888.357656"/>
      </g>
     </g>
    </g>
    <g id="xtick_22">
     <g id="line2d_43">
      <path clip-path="url(#p9ea04103f6)" d="M 832.98125 888.357656 
L 832.98125 18.597656 
" style="fill:none;stroke:#808080;stroke-dasharray:2.96,1.28;stroke-dashoffset:0;stroke-width:0.8;"/>
     </g>
     <g id="line2d_44">
      <g>
       <use style="fill:#ffffff;stroke:#ffffff;stroke-width:0.6;" x="832.98125" xlink:href="#mcf3b462529" y="888.357656"/>
      </g>
     </g>
    </g>
    <g id="xtick_23">
     <g id="line2d_45">
      <path clip-path="url(#p9ea04103f6)" d="M 907.38125 888.357656 
L 907.38125 18.597656 
" style="fill:none;stroke:#808080;stroke-dasharray:2.96,1.28;stroke-dashoffset:0;stroke-width:0.8;"/>
     </g>
     <g id="line2d_46">
      <g>
       <use style="fill:#ffffff;stroke:#ffffff;stroke-width:0.6;" x="907.38125" xlink:href="#mcf3b462529" y="888.357656"/>
      </g>
     </g>
    </g>
    <g id="xtick_24">
     <g id="line2d_47">
      <path clip-path="url(#p9ea04103f6)" d="M 944.58125 888.357656 
L 944.58125 18.597656 
" style="fill:none;stroke:#808080;stroke-dasharray:2.96,1.28;stroke-dashoffset:0;stroke-width:0.8;"/>
     </g>
     <g id="line2d_48">
      <g>
       <use style="fill:#ffffff;stroke:#ffffff;stroke-width:0.6;" x="944.58125" xlink:href="#mcf3b462529" y="888.357656"/>
      </g>
     </g>
    </g>
    <g id="xtick_25">
     <g id="line2d_49">
      <path clip-path="url(#p9ea04103f6)" d="M 981.78125 888.357656 
L 981.78125 18.597656 
" style="fill:none;stroke:#808080;stroke-dasharray:2.96,1.28;stroke-dashoffset:0;stroke-width:0.8;"/>
     </g>
     <g id="line2d_50">
      <g>
       <use style="fill:#ffffff;stroke:#ffffff;stroke-width:0.6;" x="981.78125" xlink:href="#mcf3b462529" y="888.357656"/>
      </g>
     </g>
    </g>
    <g id="text_6">
     <!-- $V_{GS}/V_{DS}[V]$ -->
     <g style="fill:#ffffff;" transform="translate(448.08125 951.187344)scale(0.3 -0.3)">
      <defs>
       <path d="M 488 4666 
L 1631 4666 
L 2203 1178 
L 4134 4666 
L 5375 4666 
L 2741 0 
L 1306 0 
L 488 4666 
z
" id="DejaVuSans-BoldOblique-56" transform="scale(0.015625)"/>
       <path d="M 4359 347 
Q 3903 125 3412 17 
Q 2922 -91 2363 -91 
Q 1369 -91 800 414 
Q 231 919 231 1791 
Q 231 2356 409 2851 
Q 588 3347 941 3756 
Q 1372 4256 1958 4503 
Q 2544 4750 3297 4750 
Q 3716 4750 4141 4662 
Q 4566 4575 4978 4403 
L 4794 3438 
Q 4413 3659 4048 3768 
Q 3684 3878 3316 3878 
Q 2509 3878 2003 3340 
Q 1497 2803 1497 1959 
Q 1497 1400 1792 1090 
Q 2088 781 2625 781 
Q 2800 781 2975 804 
Q 3150 828 3328 878 
L 3506 1784 
L 2772 1784 
L 2925 2591 
L 4794 2591 
L 4359 347 
z
" id="DejaVuSans-BoldOblique-47" transform="scale(0.015625)"/>
       <path d="M 4256 4519 
L 4063 3531 
Q 3709 3706 3365 3792 
Q 3022 3878 2694 3878 
Q 2244 3878 1992 3737 
Q 1741 3597 1741 3347 
Q 1741 3188 1852 3098 
Q 1963 3009 2309 2925 
L 2803 2803 
Q 3422 2647 3711 2351 
Q 4000 2056 4000 1588 
Q 4000 828 3423 368 
Q 2847 -91 1875 -91 
Q 1422 -91 973 -6 
Q 525 78 97 244 
L 288 1259 
Q 703 1019 1095 900 
Q 1488 781 1869 781 
Q 2281 781 2539 950 
Q 2797 1119 2797 1381 
Q 2797 1553 2681 1648 
Q 2566 1744 2175 1844 
L 1684 1966 
Q 1141 2100 875 2390 
Q 609 2681 609 3144 
Q 609 3872 1167 4311 
Q 1725 4750 2669 4750 
Q 3047 4750 3445 4692 
Q 3844 4634 4256 4519 
z
" id="DejaVuSans-BoldOblique-53" transform="scale(0.015625)"/>
       <path d="M 1644 4666 
L 2338 4666 
L 691 -594 
L 0 -594 
L 1644 4666 
z
" id="DejaVuSans-Bold-2f" transform="scale(0.015625)"/>
       <path d="M 2075 3756 
L 1516 909 
L 1947 909 
Q 2788 909 3278 1381 
Q 3769 1853 3769 2656 
Q 3769 3200 3448 3478 
Q 3128 3756 2497 3756 
L 2075 3756 
z
M 1044 4666 
L 2309 4666 
Q 3216 4666 3669 4558 
Q 4122 4450 4422 4197 
Q 4725 3944 4878 3583 
Q 5031 3222 5031 2766 
Q 5031 2131 4770 1570 
Q 4509 1009 4038 628 
Q 3625 288 3079 144 
Q 2534 0 1403 0 
L 134 0 
L 1044 4666 
z
" id="DejaVuSans-BoldOblique-44" transform="scale(0.015625)"/>
       <path d="M 550 4863 
L 2491 4863 
L 2491 4159 
L 1613 4159 
L 1613 -141 
L 2491 -141 
L 2491 -844 
L 550 -844 
L 550 4863 
z
" id="DejaVuSans-Bold-5b" transform="scale(0.015625)"/>
       <path d="M 2375 -844 
L 434 -844 
L 434 -141 
L 1313 -141 
L 1313 4159 
L 434 4159 
L 434 4863 
L 2375 4863 
L 2375 -844 
z
" id="DejaVuSans-Bold-5d" transform="scale(0.015625)"/>
      </defs>
      <use transform="translate(0 0.015625)" xlink:href="#DejaVuSans-BoldOblique-56"/>
      <use transform="translate(77.392578 -16.390625)scale(0.7)" xlink:href="#DejaVuSans-BoldOblique-47"/>
      <use transform="translate(134.848633 -16.390625)scale(0.7)" xlink:href="#DejaVuSans-BoldOblique-53"/>
      <use transform="translate(187.998047 0.015625)" xlink:href="#DejaVuSans-Bold-2f"/>
      <use transform="translate(224.521484 0.015625)" xlink:href="#DejaVuSans-BoldOblique-56"/>
      <use transform="translate(301.914062 -16.390625)scale(0.7)" xlink:href="#DejaVuSans-BoldOblique-44"/>
      <use transform="translate(360.019531 -16.390625)scale(0.7)" xlink:href="#DejaVuSans-BoldOblique-53"/>
      <use transform="translate(413.168945 0.015625)" xlink:href="#DejaVuSans-Bold-5b"/>
      <use transform="translate(458.87207 0.015625)" xlink:href="#DejaVuSans-BoldOblique-56"/>
      <use transform="translate(536.264648 0.015625)" xlink:href="#DejaVuSans-Bold-5d"/>
     </g>
    </g>
   </g>
   <g id="matplotlib.axis_2">
    <g id="ytick_1">
     <g id="line2d_51">
      <path clip-path="url(#p9ea04103f6)" d="M 88.98125 888.357656 
L 981.78125 888.357656 
" style="fill:none;stroke:#808080;stroke-dasharray:2.96,1.28;stroke-dashoffset:0;stroke-width:0.8;"/>
     </g>
     <g id="line2d_52">
      <defs>
       <path d="M 0 0 
L -3.5 0 
" id="m86967e8ed7" style="stroke:#ffffff;stroke-width:0.8;"/>
      </defs>
      <g>
       <use style="fill:#ffffff;stroke:#ffffff;stroke-width:0.8;" x="88.98125" xlink:href="#m86967e8ed7" y="888.357656"/>
      </g>
     </g>
     <g id="text_7">
      <!-- 0 -->
      <g style="fill:#ffffff;" transform="translate(61.107812 899.755312)scale(0.3 -0.3)">
       <use xlink:href="#DejaVuSans-Bold-30"/>
      </g>
     </g>
    </g>
    <g id="ytick_2">
     <g id="line2d_53">
      <path clip-path="url(#p9ea04103f6)" d="M 88.98125 714.405656 
L 981.78125 714.405656 
" style="fill:none;stroke:#808080;stroke-dasharray:2.96,1.28;stroke-dashoffset:0;stroke-width:0.8;"/>
     </g>
     <g id="line2d_54">
      <g>
       <use style="fill:#ffffff;stroke:#ffffff;stroke-width:0.8;" x="88.98125" xlink:href="#m86967e8ed7" y="714.405656"/>
      </g>
     </g>
     <g id="text_8">
      <!-- 5 -->
      <g style="fill:#ffffff;" transform="translate(61.107812 725.803312)scale(0.3 -0.3)">
       <use xlink:href="#DejaVuSans-Bold-35"/>
      </g>
     </g>
    </g>
    <g id="ytick_3">
     <g id="line2d_55">
      <path clip-path="url(#p9ea04103f6)" d="M 88.98125 540.453656 
L 981.78125 540.453656 
" style="fill:none;stroke:#808080;stroke-dasharray:2.96,1.28;stroke-dashoffset:0;stroke-width:0.8;"/>
     </g>
     <g id="line2d_56">
      <g>
       <use style="fill:#ffffff;stroke:#ffffff;stroke-width:0.8;" x="88.98125" xlink:href="#m86967e8ed7" y="540.453656"/>
      </g>
     </g>
     <g id="text_9">
      <!-- 10 -->
      <g style="fill:#ffffff;" transform="translate(40.234375 551.851312)scale(0.3 -0.3)">
       <use xlink:href="#DejaVuSans-Bold-31"/>
       <use x="69.580078" xlink:href="#DejaVuSans-Bold-30"/>
      </g>
     </g>
    </g>
    <g id="ytick_4">
     <g id="line2d_57">
      <path clip-path="url(#p9ea04103f6)" d="M 88.98125 366.501656 
L 981.78125 366.501656 
" style="fill:none;stroke:#808080;stroke-dasharray:2.96,1.28;stroke-dashoffset:0;stroke-width:0.8;"/>
     </g>
     <g id="line2d_58">
      <g>
       <use style="fill:#ffffff;stroke:#ffffff;stroke-width:0.8;" x="88.98125" xlink:href="#m86967e8ed7" y="366.501656"/>
      </g>
     </g>
     <g id="text_10">
      <!-- 15 -->
      <g style="fill:#ffffff;" transform="translate(40.234375 377.899312)scale(0.3 -0.3)">
       <use xlink:href="#DejaVuSans-Bold-31"/>
       <use x="69.580078" xlink:href="#DejaVuSans-Bold-35"/>
      </g>
     </g>
    </g>
    <g id="ytick_5">
     <g id="line2d_59">
      <path clip-path="url(#p9ea04103f6)" d="M 88.98125 192.549656 
L 981.78125 192.549656 
" style="fill:none;stroke:#808080;stroke-dasharray:2.96,1.28;stroke-dashoffset:0;stroke-width:0.8;"/>
     </g>
     <g id="line2d_60">
      <g>
       <use style="fill:#ffffff;stroke:#ffffff;stroke-width:0.8;" x="88.98125" xlink:href="#m86967e8ed7" y="192.549656"/>
      </g>
     </g>
     <g id="text_11">
      <!-- 20 -->
      <g style="fill:#ffffff;" transform="translate(40.234375 203.947312)scale(0.3 -0.3)">
       <defs>
        <path d="M 1844 884 
L 3897 884 
L 3897 0 
L 506 0 
L 506 884 
L 2209 2388 
Q 2438 2594 2547 2791 
Q 2656 2988 2656 3200 
Q 2656 3528 2436 3728 
Q 2216 3928 1850 3928 
Q 1569 3928 1234 3808 
Q 900 3688 519 3450 
L 519 4475 
Q 925 4609 1322 4679 
Q 1719 4750 2100 4750 
Q 2938 4750 3402 4381 
Q 3866 4013 3866 3353 
Q 3866 2972 3669 2642 
Q 3472 2313 2841 1759 
L 1844 884 
z
" id="DejaVuSans-Bold-32" transform="scale(0.015625)"/>
       </defs>
       <use xlink:href="#DejaVuSans-Bold-32"/>
       <use x="69.580078" xlink:href="#DejaVuSans-Bold-30"/>
      </g>
     </g>
    </g>
    <g id="ytick_6">
     <g id="line2d_61">
      <path clip-path="url(#p9ea04103f6)" d="M 88.98125 18.597656 
L 981.78125 18.597656 
" style="fill:none;stroke:#808080;stroke-dasharray:2.96,1.28;stroke-dashoffset:0;stroke-width:0.8;"/>
     </g>
     <g id="line2d_62">
      <g>
       <use style="fill:#ffffff;stroke:#ffffff;stroke-width:0.8;" x="88.98125" xlink:href="#m86967e8ed7" y="18.597656"/>
      </g>
     </g>
     <g id="text_12">
      <!-- 25 -->
      <g style="fill:#ffffff;" transform="translate(40.234375 29.995312)scale(0.3 -0.3)">
       <use xlink:href="#DejaVuSans-Bold-32"/>
       <use x="69.580078" xlink:href="#DejaVuSans-Bold-35"/>
      </g>
     </g>
    </g>
    <g id="ytick_7">
     <g id="line2d_63">
      <path clip-path="url(#p9ea04103f6)" d="M 88.98125 853.567256 
L 981.78125 853.567256 
" style="fill:none;stroke:#808080;stroke-dasharray:2.96,1.28;stroke-dashoffset:0;stroke-width:0.8;"/>
     </g>
     <g id="line2d_64">
      <defs>
       <path d="M 0 0 
L -2 0 
" id="mb773f820d2" style="stroke:#ffffff;stroke-width:0.6;"/>
      </defs>
      <g>
       <use style="fill:#ffffff;stroke:#ffffff;stroke-width:0.6;" x="88.98125" xlink:href="#mb773f820d2" y="853.567256"/>
      </g>
     </g>
    </g>
    <g id="ytick_8">
     <g id="line2d_65">
      <path clip-path="url(#p9ea04103f6)" d="M 88.98125 818.776856 
L 981.78125 818.776856 
" style="fill:none;stroke:#808080;stroke-dasharray:2.96,1.28;stroke-dashoffset:0;stroke-width:0.8;"/>
     </g>
     <g id="line2d_66">
      <g>
       <use style="fill:#ffffff;stroke:#ffffff;stroke-width:0.6;" x="88.98125" xlink:href="#mb773f820d2" y="818.776856"/>
      </g>
     </g>
    </g>
    <g id="ytick_9">
     <g id="line2d_67">
      <path clip-path="url(#p9ea04103f6)" d="M 88.98125 783.986456 
L 981.78125 783.986456 
" style="fill:none;stroke:#808080;stroke-dasharray:2.96,1.28;stroke-dashoffset:0;stroke-width:0.8;"/>
     </g>
     <g id="line2d_68">
      <g>
       <use style="fill:#ffffff;stroke:#ffffff;stroke-width:0.6;" x="88.98125" xlink:href="#mb773f820d2" y="783.986456"/>
      </g>
     </g>
    </g>
    <g id="ytick_10">
     <g id="line2d_69">
      <path clip-path="url(#p9ea04103f6)" d="M 88.98125 749.196056 
L 981.78125 749.196056 
" style="fill:none;stroke:#808080;stroke-dasharray:2.96,1.28;stroke-dashoffset:0;stroke-width:0.8;"/>
     </g>
     <g id="line2d_70">
      <g>
       <use style="fill:#ffffff;stroke:#ffffff;stroke-width:0.6;" x="88.98125" xlink:href="#mb773f820d2" y="749.196056"/>
      </g>
     </g>
    </g>
    <g id="ytick_11">
     <g id="line2d_71">
      <path clip-path="url(#p9ea04103f6)" d="M 88.98125 679.615256 
L 981.78125 679.615256 
" style="fill:none;stroke:#808080;stroke-dasharray:2.96,1.28;stroke-dashoffset:0;stroke-width:0.8;"/>
     </g>
     <g id="line2d_72">
      <g>
       <use style="fill:#ffffff;stroke:#ffffff;stroke-width:0.6;" x="88.98125" xlink:href="#mb773f820d2" y="679.615256"/>
      </g>
     </g>
    </g>
    <g id="ytick_12">
     <g id="line2d_73">
      <path clip-path="url(#p9ea04103f6)" d="M 88.98125 644.824856 
L 981.78125 644.824856 
" style="fill:none;stroke:#808080;stroke-dasharray:2.96,1.28;stroke-dashoffset:0;stroke-width:0.8;"/>
     </g>
     <g id="line2d_74">
      <g>
       <use style="fill:#ffffff;stroke:#ffffff;stroke-width:0.6;" x="88.98125" xlink:href="#mb773f820d2" y="644.824856"/>
      </g>
     </g>
    </g>
    <g id="ytick_13">
     <g id="line2d_75">
      <path clip-path="url(#p9ea04103f6)" d="M 88.98125 610.034456 
L 981.78125 610.034456 
" style="fill:none;stroke:#808080;stroke-dasharray:2.96,1.28;stroke-dashoffset:0;stroke-width:0.8;"/>
     </g>
     <g id="line2d_76">
      <g>
       <use style="fill:#ffffff;stroke:#ffffff;stroke-width:0.6;" x="88.98125" xlink:href="#mb773f820d2" y="610.034456"/>
      </g>
     </g>
    </g>
    <g id="ytick_14">
     <g id="line2d_77">
      <path clip-path="url(#p9ea04103f6)" d="M 88.98125 575.244056 
L 981.78125 575.244056 
" style="fill:none;stroke:#808080;stroke-dasharray:2.96,1.28;stroke-dashoffset:0;stroke-width:0.8;"/>
     </g>
     <g id="line2d_78">
      <g>
       <use style="fill:#ffffff;stroke:#ffffff;stroke-width:0.6;" x="88.98125" xlink:href="#mb773f820d2" y="575.244056"/>
      </g>
     </g>
    </g>
    <g id="ytick_15">
     <g id="line2d_79">
      <path clip-path="url(#p9ea04103f6)" d="M 88.98125 505.663256 
L 981.78125 505.663256 
" style="fill:none;stroke:#808080;stroke-dasharray:2.96,1.28;stroke-dashoffset:0;stroke-width:0.8;"/>
     </g>
     <g id="line2d_80">
      <g>
       <use style="fill:#ffffff;stroke:#ffffff;stroke-width:0.6;" x="88.98125" xlink:href="#mb773f820d2" y="505.663256"/>
      </g>
     </g>
    </g>
    <g id="ytick_16">
     <g id="line2d_81">
      <path clip-path="url(#p9ea04103f6)" d="M 88.98125 470.872856 
L 981.78125 470.872856 
" style="fill:none;stroke:#808080;stroke-dasharray:2.96,1.28;stroke-dashoffset:0;stroke-width:0.8;"/>
     </g>
     <g id="line2d_82">
      <g>
       <use style="fill:#ffffff;stroke:#ffffff;stroke-width:0.6;" x="88.98125" xlink:href="#mb773f820d2" y="470.872856"/>
      </g>
     </g>
    </g>
    <g id="ytick_17">
     <g id="line2d_83">
      <path clip-path="url(#p9ea04103f6)" d="M 88.98125 436.082456 
L 981.78125 436.082456 
" style="fill:none;stroke:#808080;stroke-dasharray:2.96,1.28;stroke-dashoffset:0;stroke-width:0.8;"/>
     </g>
     <g id="line2d_84">
      <g>
       <use style="fill:#ffffff;stroke:#ffffff;stroke-width:0.6;" x="88.98125" xlink:href="#mb773f820d2" y="436.082456"/>
      </g>
     </g>
    </g>
    <g id="ytick_18">
     <g id="line2d_85">
      <path clip-path="url(#p9ea04103f6)" d="M 88.98125 401.292056 
L 981.78125 401.292056 
" style="fill:none;stroke:#808080;stroke-dasharray:2.96,1.28;stroke-dashoffset:0;stroke-width:0.8;"/>
     </g>
     <g id="line2d_86">
      <g>
       <use style="fill:#ffffff;stroke:#ffffff;stroke-width:0.6;" x="88.98125" xlink:href="#mb773f820d2" y="401.292056"/>
      </g>
     </g>
    </g>
    <g id="ytick_19">
     <g id="line2d_87">
      <path clip-path="url(#p9ea04103f6)" d="M 88.98125 331.711256 
L 981.78125 331.711256 
" style="fill:none;stroke:#808080;stroke-dasharray:2.96,1.28;stroke-dashoffset:0;stroke-width:0.8;"/>
     </g>
     <g id="line2d_88">
      <g>
       <use style="fill:#ffffff;stroke:#ffffff;stroke-width:0.6;" x="88.98125" xlink:href="#mb773f820d2" y="331.711256"/>
      </g>
     </g>
    </g>
    <g id="ytick_20">
     <g id="line2d_89">
      <path clip-path="url(#p9ea04103f6)" d="M 88.98125 296.920856 
L 981.78125 296.920856 
" style="fill:none;stroke:#808080;stroke-dasharray:2.96,1.28;stroke-dashoffset:0;stroke-width:0.8;"/>
     </g>
     <g id="line2d_90">
      <g>
       <use style="fill:#ffffff;stroke:#ffffff;stroke-width:0.6;" x="88.98125" xlink:href="#mb773f820d2" y="296.920856"/>
      </g>
     </g>
    </g>
    <g id="ytick_21">
     <g id="line2d_91">
      <path clip-path="url(#p9ea04103f6)" d="M 88.98125 262.130456 
L 981.78125 262.130456 
" style="fill:none;stroke:#808080;stroke-dasharray:2.96,1.28;stroke-dashoffset:0;stroke-width:0.8;"/>
     </g>
     <g id="line2d_92">
      <g>
       <use style="fill:#ffffff;stroke:#ffffff;stroke-width:0.6;" x="88.98125" xlink:href="#mb773f820d2" y="262.130456"/>
      </g>
     </g>
    </g>
    <g id="ytick_22">
     <g id="line2d_93">
      <path clip-path="url(#p9ea04103f6)" d="M 88.98125 227.340056 
L 981.78125 227.340056 
" style="fill:none;stroke:#808080;stroke-dasharray:2.96,1.28;stroke-dashoffset:0;stroke-width:0.8;"/>
     </g>
     <g id="line2d_94">
      <g>
       <use style="fill:#ffffff;stroke:#ffffff;stroke-width:0.6;" x="88.98125" xlink:href="#mb773f820d2" y="227.340056"/>
      </g>
     </g>
    </g>
    <g id="ytick_23">
     <g id="line2d_95">
      <path clip-path="url(#p9ea04103f6)" d="M 88.98125 157.759256 
L 981.78125 157.759256 
" style="fill:none;stroke:#808080;stroke-dasharray:2.96,1.28;stroke-dashoffset:0;stroke-width:0.8;"/>
     </g>
     <g id="line2d_96">
      <g>
       <use style="fill:#ffffff;stroke:#ffffff;stroke-width:0.6;" x="88.98125" xlink:href="#mb773f820d2" y="157.759256"/>
      </g>
     </g>
    </g>
    <g id="ytick_24">
     <g id="line2d_97">
      <path clip-path="url(#p9ea04103f6)" d="M 88.98125 122.968856 
L 981.78125 122.968856 
" style="fill:none;stroke:#808080;stroke-dasharray:2.96,1.28;stroke-dashoffset:0;stroke-width:0.8;"/>
     </g>
     <g id="line2d_98">
      <g>
       <use style="fill:#ffffff;stroke:#ffffff;stroke-width:0.6;" x="88.98125" xlink:href="#mb773f820d2" y="122.968856"/>
      </g>
     </g>
    </g>
    <g id="ytick_25">
     <g id="line2d_99">
      <path clip-path="url(#p9ea04103f6)" d="M 88.98125 88.178456 
L 981.78125 88.178456 
" style="fill:none;stroke:#808080;stroke-dasharray:2.96,1.28;stroke-dashoffset:0;stroke-width:0.8;"/>
     </g>
     <g id="line2d_100">
      <g>
       <use style="fill:#ffffff;stroke:#ffffff;stroke-width:0.6;" x="88.98125" xlink:href="#mb773f820d2" y="88.178456"/>
      </g>
     </g>
    </g>
    <g id="ytick_26">
     <g id="line2d_101">
      <path clip-path="url(#p9ea04103f6)" d="M 88.98125 53.388056 
L 981.78125 53.388056 
" style="fill:none;stroke:#808080;stroke-dasharray:2.96,1.28;stroke-dashoffset:0;stroke-width:0.8;"/>
     </g>
     <g id="line2d_102">
      <g>
       <use style="fill:#ffffff;stroke:#ffffff;stroke-width:0.6;" x="88.98125" xlink:href="#mb773f820d2" y="53.388056"/>
      </g>
     </g>
    </g>
    <g id="text_13">
     <!-- $I_D[mA]$ -->
     <g style="fill:#ffffff;" transform="translate(29.995312 509.277656)rotate(-90)scale(0.3 -0.3)">
      <defs>
       <path d="M 1044 4666 
L 2247 4666 
L 1338 0 
L 134 0 
L 1044 4666 
z
" id="DejaVuSans-BoldOblique-49" transform="scale(0.015625)"/>
       <path d="M 4013 2919 
Q 4272 3241 4601 3412 
Q 4931 3584 5288 3584 
Q 5756 3584 6026 3326 
Q 6297 3069 6297 2619 
Q 6297 2525 6283 2404 
Q 6269 2284 6241 2131 
L 5825 0 
L 4697 0 
L 5050 1825 
L 5059 1872 
Q 5141 2259 5141 2369 
Q 5141 2541 5042 2641 
Q 4944 2741 4775 2741 
Q 4453 2741 4229 2477 
Q 4006 2213 3909 1722 
L 3572 0 
L 2444 0 
L 2803 1825 
Q 2850 2059 2869 2179 
Q 2888 2300 2888 2369 
Q 2888 2544 2791 2642 
Q 2694 2741 2522 2741 
Q 2213 2741 1980 2467 
Q 1747 2194 1656 1722 
L 1319 0 
L 197 0 
L 878 3500 
L 2003 3500 
L 1900 2988 
Q 2163 3284 2459 3434 
Q 2756 3584 3078 3584 
Q 3441 3584 3700 3398 
Q 3959 3213 4013 2919 
z
" id="DejaVuSans-BoldOblique-6d" transform="scale(0.015625)"/>
       <path d="M 3144 850 
L 1281 850 
L 819 0 
L -416 0 
L 2222 4666 
L 3597 4666 
L 4422 0 
L 3278 0 
L 3144 850 
z
M 1734 1697 
L 2988 1697 
L 2706 3494 
L 1734 1697 
z
" id="DejaVuSans-BoldOblique-41" transform="scale(0.015625)"/>
      </defs>
      <use transform="translate(0 0.015625)" xlink:href="#DejaVuSans-BoldOblique-49"/>
      <use transform="translate(37.207031 -16.390625)scale(0.7)" xlink:href="#DejaVuSans-BoldOblique-44"/>
      <use transform="translate(98.046875 0.015625)" xlink:href="#DejaVuSans-Bold-5b"/>
      <use transform="translate(143.75 0.015625)" xlink:href="#DejaVuSans-BoldOblique-6d"/>
      <use transform="translate(247.949219 0.015625)" xlink:href="#DejaVuSans-BoldOblique-41"/>
      <use transform="translate(325.341797 0.015625)" xlink:href="#DejaVuSans-Bold-5d"/>
     </g>
    </g>
   </g>
   <g id="line2d_103">
    <path clip-path="url(#p9ea04103f6)" d="M 88.98125 888.357656 
L 96.677802 887.530298 
L 104.374353 885.048225 
L 112.070905 880.911435 
L 119.767457 875.11993 
L 127.464009 867.673709 
L 135.16056 858.572772 
L 142.857112 847.817119 
L 150.553664 835.40675 
L 158.250216 821.341666 
L 165.946767 805.621866 
L 173.643319 788.247349 
L 181.339871 769.218118 
L 189.036422 748.53417 
L 196.732974 726.195506 
L 204.429526 702.202127 
L 212.126078 676.554032 
L 219.822629 649.251221 
L 227.519181 620.293694 
L 235.215733 589.681452 
L 242.912284 557.414493 
L 250.608836 523.492819 
L 258.305388 487.916429 
L 266.00194 450.685323 
L 273.698491 411.799502 
L 281.395043 371.258964 
L 289.091595 329.063711 
L 296.788147 285.213742 
L 304.484698 239.709057 
L 312.18125 192.549656 
" style="fill:none;stroke:#ff0000;stroke-linecap:square;stroke-width:4;"/>
   </g>
   <g id="line2d_104">
    <path clip-path="url(#p9ea04103f6)" d="M 163.38125 888.357656 
L 168.512284 887.778506 
L 173.643319 886.041054 
L 178.774353 883.145301 
L 183.905388 879.091248 
L 189.036422 873.878893 
L 194.167457 867.508237 
L 199.298491 859.97928 
L 204.429526 851.292022 
L 209.56056 841.446463 
L 214.691595 830.442603 
L 219.822629 818.280442 
L 224.953664 804.959979 
L 230.084698 790.481216 
L 235.215733 774.844151 
L 240.346767 758.048786 
L 245.477802 740.095119 
L 250.608836 720.983152 
L 255.739871 700.712883 
L 260.870905 679.284313 
L 266.00194 656.697442 
L 271.132974 632.95227 
L 276.264009 608.048797 
L 281.395043 581.987023 
L 286.526078 554.766948 
L 291.657112 526.388572 
L 296.788147 496.851895 
L 301.919181 466.156916 
L 307.050216 434.303637 
L 312.18125 401.292056 
" style="fill:none;stroke:#008000;stroke-linecap:square;stroke-width:4;"/>
   </g>
   <g id="line2d_105">
    <path clip-path="url(#p9ea04103f6)" d="M 237.78125 888.357656 
L 240.346767 888.026713 
L 242.912284 887.033884 
L 245.477802 885.379168 
L 248.043319 883.062566 
L 250.608836 880.084077 
L 253.174353 876.443702 
L 255.739871 872.141441 
L 258.305388 867.177294 
L 260.870905 861.55126 
L 263.436422 855.26334 
L 266.00194 848.313534 
L 268.567457 840.701841 
L 271.132974 832.428262 
L 273.698491 823.492796 
L 276.264009 813.895445 
L 278.829526 803.636207 
L 281.395043 792.715082 
L 283.96056 781.132071 
L 286.526078 768.887174 
L 289.091595 755.980391 
L 291.657112 742.411721 
L 294.222629 728.181165 
L 296.788147 713.288723 
L 299.353664 697.734394 
L 301.919181 681.518179 
L 304.484698 664.640078 
L 307.050216 647.10009 
L 309.615733 628.898217 
L 312.18125 610.034456 
" style="fill:none;stroke:#0000ff;stroke-linecap:square;stroke-width:4;"/>
   </g>
   <g id="line2d_106">
    <path clip-path="url(#p9ea04103f6)" d="M 312.18125 888.357656 
L 318.13325 864.760159 
L 323.71325 843.52125 
L 329.29325 823.137937 
L 334.87325 803.610747 
L 340.08125 786.158073 
L 345.28925 769.451897 
L 350.49725 753.492497 
L 355.70525 738.28022 
L 360.54125 724.82385 
L 365.37725 712.012251 
L 370.21325 699.845735 
L 374.67725 689.187904 
L 379.14125 679.08018 
L 383.60525 669.52277 
L 388.06925 660.515883 
L 392.16125 652.74343 
L 396.25325 645.433897 
L 400.34525 638.587494 
L 404.43725 632.204395 
L 408.15725 626.803777 
L 411.87725 621.786271 
L 415.59725 617.152085 
L 419.31725 612.90129 
L 422.66525 609.403498 
L 426.01325 606.216453 
L 429.36125 603.340296 
L 432.70925 600.775061 
L 435.68525 598.755965 
L 438.66125 596.982664 
L 441.63725 595.455296 
L 444.61325 594.173861 
L 447.58925 593.138394 
L 450.56525 592.349104 
L 453.54125 591.805922 
L 456.51725 591.508916 
L 459.49325 591.447581 
L 981.78125 591.447581 
L 981.78125 591.447581 
" style="fill:none;stroke:#ff0000;stroke-linecap:square;stroke-width:4;"/>
   </g>
   <g id="line2d_107">
    <path clip-path="url(#p9ea04103f6)" d="M 312.18125 888.357656 
L 317.01725 866.87322 
L 321.85325 846.417725 
L 326.31725 828.448935 
L 330.78125 811.356899 
L 335.24525 795.141581 
L 339.70925 779.80298 
L 343.80125 766.512769 
L 347.89325 753.959245 
L 351.98525 742.142372 
L 355.70525 732.039066 
L 359.42525 722.544592 
L 363.14525 713.65895 
L 366.86525 705.38214 
L 370.21325 698.453562 
L 373.56125 692.018103 
L 376.90925 686.075868 
L 379.88525 681.207822 
L 382.86125 676.729462 
L 385.83725 672.640755 
L 388.81325 668.941701 
L 391.78925 665.632299 
L 394.39325 663.056209 
L 396.99725 660.778446 
L 399.60125 658.799012 
L 402.20525 657.11787 
L 404.80925 655.735091 
L 407.04125 654.787296 
L 409.27325 654.058681 
L 411.50525 653.549245 
L 413.73725 653.258989 
L 415.96925 653.184537 
L 981.78125 653.184537 
L 981.78125 653.184537 
" style="fill:none;stroke:#008000;stroke-linecap:square;stroke-width:4;"/>
   </g>
   <g id="line2d_108">
    <path clip-path="url(#p9ea04103f6)" d="M 312.18125 888.357656 
L 315.90125 867.221278 
L 319.62125 847.44345 
L 322.96925 830.806263 
L 326.31725 815.272002 
L 329.66525 800.841814 
L 332.64125 788.942801 
L 335.61725 777.917897 
L 338.59325 767.767972 
L 341.19725 759.60517 
L 343.80125 752.11344 
L 346.40525 745.293339 
L 349.00925 739.145492 
L 351.24125 734.411284 
L 353.47325 730.171726 
L 355.70525 726.427131 
L 357.56525 723.685021 
L 359.42525 721.287093 
L 361.28525 719.233555 
L 363.14525 717.524581 
L 365.00525 716.160449 
L 366.49325 715.317513 
L 367.98125 714.695495 
L 369.46925 714.294501 
L 370.95725 714.1146 
L 375.04925 714.103745 
L 981.78125 714.103745 
L 981.78125 714.103745 
" style="fill:none;stroke:#0000ff;stroke-linecap:square;stroke-width:4;"/>
   </g>
   <g id="line2d_109">
    <path clip-path="url(#p9ea04103f6)" d="M 312.18125 462.352758 
L 347.423355 484.774069 
L 382.665461 507.195379 
L 417.907566 529.61669 
L 453.149671 552.038 
L 488.391776 574.45931 
L 523.633882 596.880621 
L 558.875987 619.301931 
L 594.118092 641.723242 
L 629.360197 664.144552 
L 664.602303 686.565862 
L 699.844408 708.987173 
L 735.086513 731.408483 
L 770.328618 753.829794 
L 805.570724 776.251104 
L 840.812829 798.672415 
L 876.054934 821.093725 
L 911.297039 843.515035 
L 946.539145 865.936346 
L 981.78125 888.357656 
" style="fill:none;stroke:#ffa500;stroke-linecap:square;stroke-width:3;"/>
   </g>
   <g id="line2d_110">
    <path clip-path="url(#p9ea04103f6)" d="M 88.98125 299.398988 
L 100.728618 322.774397 
L 112.475987 346.149806 
L 124.223355 369.525215 
L 135.970724 392.900623 
L 147.718092 416.276032 
L 159.465461 439.651441 
L 171.212829 463.026849 
L 182.960197 486.402258 
L 194.707566 509.777667 
L 206.454934 533.153076 
L 218.202303 556.528484 
L 229.949671 579.903893 
L 241.697039 603.279302 
L 253.444408 626.654711 
L 265.191776 650.030119 
L 276.939145 673.405528 
L 288.686513 696.780937 
L 300.433882 720.156346 
L 312.18125 743.531754 
" style="fill:none;stroke:#ffa500;stroke-linecap:square;stroke-width:3;"/>
   </g>
   <g id="line2d_111">
    <path clip-path="url(#p9ea04103f6)" d="M 88.98125 888.357656 
L 981.78125 888.357656 
" style="fill:none;stroke:#ffffff;stroke-linecap:square;stroke-width:4;"/>
   </g>
   <g id="line2d_112">
    <path clip-path="url(#p9ea04103f6)" d="M 312.18125 888.357656 
L 312.18125 18.597656 
" style="fill:none;stroke:#ffffff;stroke-linecap:square;stroke-width:3;"/>
   </g>
   <g id="patch_3">
    <path d="M 88.98125 888.357656 
L 88.98125 18.597656 
" style="fill:none;stroke:#000000;stroke-linecap:square;stroke-linejoin:miter;stroke-width:0.8;"/>
   </g>
   <g id="patch_4">
    <path d="M 981.78125 888.357656 
L 981.78125 18.597656 
" style="fill:none;stroke:#000000;stroke-linecap:square;stroke-linejoin:miter;stroke-width:0.8;"/>
   </g>
   <g id="patch_5">
    <path d="M 88.98125 888.357656 
L 981.78125 888.357656 
" style="fill:none;stroke:#000000;stroke-linecap:square;stroke-linejoin:miter;stroke-width:0.8;"/>
   </g>
   <g id="patch_6">
    <path d="M 88.98125 18.597656 
L 981.78125 18.597656 
" style="fill:none;stroke:#000000;stroke-linecap:square;stroke-linejoin:miter;stroke-width:0.8;"/>
   </g>
   <g id="legend_1">
    <g id="patch_7">
     <path d="M 520.98125 154.022656 
L 969.78125 154.022656 
Q 973.78125 154.022656 973.78125 150.022656 
L 973.78125 34.597656 
Q 973.78125 30.597656 969.78125 30.597656 
L 520.98125 30.597656 
Q 516.98125 30.597656 516.98125 34.597656 
L 516.98125 150.022656 
Q 516.98125 154.022656 520.98125 154.022656 
z
" style="fill:#454545;opacity:0.5;stroke:#454545;stroke-linejoin:miter;"/>
    </g>
    <g id="patch_8">
     <path d="M 518.98125 152.022656 
L 967.78125 152.022656 
Q 971.78125 152.022656 971.78125 148.022656 
L 971.78125 32.597656 
Q 971.78125 28.597656 967.78125 28.597656 
L 518.98125 28.597656 
Q 514.98125 28.597656 514.98125 32.597656 
L 514.98125 148.022656 
Q 514.98125 152.022656 518.98125 152.022656 
z
" style="fill:#e6e6e6;stroke:#cccccc;stroke-linejoin:miter;"/>
    </g>
    <g id="line2d_113">
     <path d="M 522.98125 44.794531 
L 562.98125 44.794531 
" style="fill:none;stroke:#ff0000;stroke-linecap:square;stroke-width:4;"/>
    </g>
    <g id="line2d_114"/>
    <g id="text_14">
     <!-- $Curva\ de\ Entrada-Salida\ Máxima$ -->
     <g transform="translate(578.98125 51.794531)scale(0.2 -0.2)">
      <defs>
       <path d="M 3878 219 
Q 3447 66 3050 -12 
Q 2653 -91 2297 -91 
Q 1356 -91 793 425 
Q 231 941 231 1791 
Q 231 2350 409 2845 
Q 588 3341 934 3750 
Q 1344 4231 1920 4490 
Q 2497 4750 3163 4750 
Q 3525 4750 3890 4664 
Q 4256 4578 4634 4403 
L 4441 3438 
Q 4141 3666 3837 3772 
Q 3534 3878 3188 3878 
Q 2466 3878 1978 3322 
Q 1491 2766 1491 1931 
Q 1491 1394 1791 1087 
Q 2091 781 2619 781 
Q 2934 781 3289 895 
Q 3644 1009 4084 1253 
L 3878 219 
z
" id="DejaVuSans-BoldOblique-43" transform="scale(0.015625)"/>
       <path d="M 434 1363 
L 844 3500 
L 1966 3500 
L 1613 1678 
Q 1575 1500 1556 1375 
Q 1538 1250 1538 1178 
Q 1538 981 1647 872 
Q 1756 763 1959 763 
Q 2306 763 2556 1031 
Q 2806 1300 2900 1778 
L 3238 3500 
L 4359 3500 
L 3681 0 
L 2553 0 
L 2656 513 
Q 2369 209 2053 59 
Q 1738 -91 1388 -91 
Q 909 -91 646 162 
Q 384 416 384 878 
Q 384 988 396 1109 
Q 409 1231 434 1363 
z
" id="DejaVuSans-BoldOblique-75" transform="scale(0.015625)"/>
       <path d="M 3291 2547 
Q 3175 2613 3034 2647 
Q 2894 2681 2731 2681 
Q 2303 2681 2020 2406 
Q 1738 2131 1638 1613 
L 1319 0 
L 197 0 
L 878 3500 
L 2003 3500 
L 1881 2900 
Q 2103 3231 2436 3407 
Q 2769 3584 3175 3584 
Q 3234 3584 3309 3578 
Q 3384 3572 3488 3559 
L 3291 2547 
z
" id="DejaVuSans-BoldOblique-72" transform="scale(0.015625)"/>
       <path d="M 403 3500 
L 1434 3500 
L 1888 1056 
L 3206 3500 
L 4341 3500 
L 2284 0 
L 1100 0 
L 403 3500 
z
" id="DejaVuSans-BoldOblique-76" transform="scale(0.015625)"/>
       <path d="M 2106 1575 
Q 1688 1575 1473 1445 
Q 1259 1316 1259 1063 
Q 1259 872 1386 762 
Q 1513 653 1734 653 
Q 2078 653 2309 861 
Q 2541 1069 2619 1447 
L 2644 1575 
L 2106 1575 
z
M 3853 1997 
L 3463 0 
L 2344 0 
L 2438 519 
Q 2163 206 1856 57 
Q 1550 -91 1191 -91 
Q 694 -91 401 167 
Q 109 425 109 863 
Q 109 1531 626 1886 
Q 1144 2241 2119 2241 
L 2778 2241 
L 2791 2328 
Q 2800 2372 2801 2390 
Q 2803 2409 2803 2425 
Q 2803 2631 2608 2736 
Q 2413 2841 2028 2841 
Q 1681 2841 1356 2769 
Q 1031 2697 728 2553 
L 897 3406 
Q 1247 3494 1614 3539 
Q 1981 3584 2375 3584 
Q 3153 3584 3531 3317 
Q 3909 3050 3909 2503 
Q 3909 2397 3895 2270 
Q 3881 2144 3853 1997 
z
" id="DejaVuSans-BoldOblique-61" transform="scale(0.015625)"/>
       <path d="M 1966 722 
Q 2397 722 2667 1119 
Q 2938 1516 2938 2156 
Q 2938 2447 2786 2609 
Q 2634 2772 2363 2772 
Q 1938 2772 1663 2380 
Q 1388 1988 1388 1375 
Q 1388 1056 1536 889 
Q 1684 722 1966 722 
z
M 3144 2988 
L 3506 4863 
L 4634 4863 
L 3688 0 
L 2559 0 
L 2663 506 
Q 2406 200 2125 54 
Q 1844 -91 1509 -91 
Q 919 -91 575 284 
Q 231 659 231 1306 
Q 231 1709 351 2090 
Q 472 2472 697 2784 
Q 981 3178 1339 3381 
Q 1697 3584 2106 3584 
Q 2466 3584 2717 3439 
Q 2969 3294 3144 2988 
z
" id="DejaVuSans-BoldOblique-64" transform="scale(0.015625)"/>
       <path d="M 4025 1619 
L 3988 1441 
L 1369 1441 
Q 1369 1422 1366 1386 
Q 1363 1350 1363 1331 
Q 1363 991 1567 822 
Q 1772 653 2181 653 
Q 2534 653 2926 759 
Q 3319 866 3750 1075 
L 3578 206 
Q 3169 56 2764 -17 
Q 2359 -91 1941 -91 
Q 1122 -91 676 287 
Q 231 666 231 1356 
Q 231 1756 373 2132 
Q 516 2509 788 2822 
Q 1109 3197 1557 3390 
Q 2006 3584 2553 3584 
Q 3263 3584 3680 3206 
Q 4097 2828 4097 2188 
Q 4097 2063 4080 1923 
Q 4063 1784 4025 1619 
z
M 2969 2131 
Q 2978 2172 2983 2214 
Q 2988 2256 2988 2297 
Q 2988 2547 2838 2694 
Q 2688 2841 2431 2841 
Q 2103 2841 1873 2661 
Q 1644 2481 1522 2131 
L 2969 2131 
z
" id="DejaVuSans-BoldOblique-65" transform="scale(0.015625)"/>
       <path d="M 1044 4666 
L 4288 4666 
L 4109 3756 
L 2069 3756 
L 1900 2888 
L 3822 2888 
L 3641 1978 
L 1722 1978 
L 1516 909 
L 3622 909 
L 3450 0 
L 134 0 
L 1044 4666 
z
" id="DejaVuSans-BoldOblique-45" transform="scale(0.015625)"/>
       <path d="M 4128 2131 
L 3713 0 
L 2591 0 
L 2944 1825 
Q 2981 2003 3001 2126 
Q 3022 2250 3022 2322 
Q 3022 2522 2911 2631 
Q 2800 2741 2597 2741 
Q 2250 2741 2001 2470 
Q 1753 2200 1656 1722 
L 1319 0 
L 197 0 
L 878 3500 
L 2003 3500 
L 1900 2988 
Q 2209 3291 2521 3437 
Q 2834 3584 3175 3584 
Q 3659 3584 3921 3331 
Q 4184 3078 4184 2619 
Q 4184 2519 4170 2397 
Q 4156 2275 4128 2131 
z
" id="DejaVuSans-BoldOblique-6e" transform="scale(0.015625)"/>
       <path d="M 2303 4494 
L 2113 3500 
L 3256 3500 
L 3097 2700 
L 1953 2700 
L 1666 1219 
Q 1653 1169 1648 1134 
Q 1644 1100 1644 1069 
Q 1644 925 1739 862 
Q 1834 800 2059 800 
L 2638 800 
L 2478 0 
L 1538 0 
Q 1031 0 765 212 
Q 500 425 500 825 
Q 500 913 509 1013 
Q 519 1113 538 1216 
L 825 2700 
L 275 2700 
L 428 3500 
L 984 3500 
L 1178 4494 
L 2303 4494 
z
" id="DejaVuSans-BoldOblique-74" transform="scale(0.015625)"/>
       <path d="M 1141 4863 
L 2266 4863 
L 1319 0 
L 197 0 
L 1141 4863 
z
" id="DejaVuSans-BoldOblique-6c" transform="scale(0.015625)"/>
       <path d="M 878 3500 
L 2003 3500 
L 1319 0 
L 197 0 
L 878 3500 
z
M 1141 4863 
L 2266 4863 
L 2088 3950 
L 959 3950 
L 1141 4863 
z
" id="DejaVuSans-BoldOblique-69" transform="scale(0.015625)"/>
       <path d="M 1044 4666 
L 2522 4666 
L 3122 2188 
L 4697 4666 
L 6234 4666 
L 5325 0 
L 4184 0 
L 4850 3444 
L 3231 897 
L 2584 897 
L 1941 3444 
L 1275 0 
L 134 0 
L 1044 4666 
z
" id="DejaVuSans-BoldOblique-4d" transform="scale(0.015625)"/>
       <path d="M 2106 1575 
Q 1688 1575 1473 1445 
Q 1259 1316 1259 1063 
Q 1259 872 1386 762 
Q 1513 653 1734 653 
Q 2078 653 2309 861 
Q 2541 1069 2619 1447 
L 2644 1575 
L 2106 1575 
z
M 3853 1997 
L 3463 0 
L 2344 0 
L 2438 519 
Q 2163 206 1856 57 
Q 1550 -91 1191 -91 
Q 694 -91 401 167 
Q 109 425 109 863 
Q 109 1531 626 1886 
Q 1144 2241 2119 2241 
L 2778 2241 
L 2791 2328 
Q 2800 2372 2801 2390 
Q 2803 2409 2803 2425 
Q 2803 2631 2608 2736 
Q 2413 2841 2028 2841 
Q 1681 2841 1356 2769 
Q 1031 2697 728 2553 
L 897 3406 
Q 1247 3494 1614 3539 
Q 1981 3584 2375 3584 
Q 3153 3584 3531 3317 
Q 3909 3050 3909 2503 
Q 3909 2397 3895 2270 
Q 3881 2144 3853 1997 
z
M 3097 5119 
L 4013 5119 
L 2644 3944 
L 2016 3944 
L 3097 5119 
z
" id="DejaVuSans-BoldOblique-e1" transform="scale(0.015625)"/>
       <path d="M 1416 1791 
L 488 3500 
L 1650 3500 
L 2169 2463 
L 3078 3500 
L 4294 3500 
L 2700 1797 
L 3675 0 
L 2509 0 
L 1959 1106 
L 953 0 
L -263 0 
L 1416 1791 
z
" id="DejaVuSans-BoldOblique-78" transform="scale(0.015625)"/>
      </defs>
      <use transform="translate(0 0.015625)" xlink:href="#DejaVuSans-BoldOblique-43"/>
      <use transform="translate(73.388672 0.015625)" xlink:href="#DejaVuSans-BoldOblique-75"/>
      <use transform="translate(144.580078 0.015625)" xlink:href="#DejaVuSans-BoldOblique-72"/>
      <use transform="translate(193.896484 0.015625)" xlink:href="#DejaVuSans-BoldOblique-76"/>
      <use transform="translate(259.082031 0.015625)" xlink:href="#DejaVuSans-BoldOblique-61"/>
      <use transform="translate(361.295226 0.015625)" xlink:href="#DejaVuSans-BoldOblique-64"/>
      <use transform="translate(432.877257 0.015625)" xlink:href="#DejaVuSans-BoldOblique-65"/>
      <use transform="translate(535.432248 0.015625)" xlink:href="#DejaVuSans-BoldOblique-45"/>
      <use transform="translate(603.742795 0.015625)" xlink:href="#DejaVuSans-BoldOblique-6e"/>
      <use transform="translate(674.934201 0.015625)" xlink:href="#DejaVuSans-BoldOblique-74"/>
      <use transform="translate(722.736936 0.015625)" xlink:href="#DejaVuSans-BoldOblique-72"/>
      <use transform="translate(772.053342 0.015625)" xlink:href="#DejaVuSans-BoldOblique-61"/>
      <use transform="translate(839.533811 0.015625)" xlink:href="#DejaVuSans-BoldOblique-64"/>
      <use transform="translate(911.115842 0.015625)" xlink:href="#DejaVuSans-BoldOblique-61"/>
      <use transform="translate(999.436154 0.015625)" xlink:href="#DejaVuSans-Bold-2212"/>
      <use transform="translate(1104.065061 0.015625)" xlink:href="#DejaVuSans-BoldOblique-53"/>
      <use transform="translate(1176.086545 0.015625)" xlink:href="#DejaVuSans-BoldOblique-61"/>
      <use transform="translate(1243.567014 0.015625)" xlink:href="#DejaVuSans-BoldOblique-6c"/>
      <use transform="translate(1277.844357 0.015625)" xlink:href="#DejaVuSans-BoldOblique-69"/>
      <use transform="translate(1312.121701 0.015625)" xlink:href="#DejaVuSans-BoldOblique-64"/>
      <use transform="translate(1383.703732 0.015625)" xlink:href="#DejaVuSans-BoldOblique-61"/>
      <use transform="translate(1485.916927 0.015625)" xlink:href="#DejaVuSans-BoldOblique-4d"/>
      <use transform="translate(1585.428646 0.015625)" xlink:href="#DejaVuSans-BoldOblique-e1"/>
      <use transform="translate(1652.909114 0.015625)" xlink:href="#DejaVuSans-BoldOblique-78"/>
      <use transform="translate(1717.411067 0.015625)" xlink:href="#DejaVuSans-BoldOblique-69"/>
      <use transform="translate(1751.688411 0.015625)" xlink:href="#DejaVuSans-BoldOblique-6d"/>
      <use transform="translate(1855.88763 0.015625)" xlink:href="#DejaVuSans-BoldOblique-61"/>
     </g>
    </g>
    <g id="line2d_115">
     <path d="M 522.98125 74.150781 
L 562.98125 74.150781 
" style="fill:none;stroke:#008000;stroke-linecap:square;stroke-width:4;"/>
    </g>
    <g id="line2d_116"/>
    <g id="text_15">
     <!-- $Curva\ de\ Entrada-Salida\ Media$ -->
     <g transform="translate(578.98125 81.150781)scale(0.2 -0.2)">
      <use transform="translate(0 0.015625)" xlink:href="#DejaVuSans-BoldOblique-43"/>
      <use transform="translate(73.388672 0.015625)" xlink:href="#DejaVuSans-BoldOblique-75"/>
      <use transform="translate(144.580078 0.015625)" xlink:href="#DejaVuSans-BoldOblique-72"/>
      <use transform="translate(193.896484 0.015625)" xlink:href="#DejaVuSans-BoldOblique-76"/>
      <use transform="translate(259.082031 0.015625)" xlink:href="#DejaVuSans-BoldOblique-61"/>
      <use transform="translate(361.295226 0.015625)" xlink:href="#DejaVuSans-BoldOblique-64"/>
      <use transform="translate(432.877257 0.015625)" xlink:href="#DejaVuSans-BoldOblique-65"/>
      <use transform="translate(535.432248 0.015625)" xlink:href="#DejaVuSans-BoldOblique-45"/>
      <use transform="translate(603.742795 0.015625)" xlink:href="#DejaVuSans-BoldOblique-6e"/>
      <use transform="translate(674.934201 0.015625)" xlink:href="#DejaVuSans-BoldOblique-74"/>
      <use transform="translate(722.736936 0.015625)" xlink:href="#DejaVuSans-BoldOblique-72"/>
      <use transform="translate(772.053342 0.015625)" xlink:href="#DejaVuSans-BoldOblique-61"/>
      <use transform="translate(839.533811 0.015625)" xlink:href="#DejaVuSans-BoldOblique-64"/>
      <use transform="translate(911.115842 0.015625)" xlink:href="#DejaVuSans-BoldOblique-61"/>
      <use transform="translate(999.436154 0.015625)" xlink:href="#DejaVuSans-Bold-2212"/>
      <use transform="translate(1104.065061 0.015625)" xlink:href="#DejaVuSans-BoldOblique-53"/>
      <use transform="translate(1176.086545 0.015625)" xlink:href="#DejaVuSans-BoldOblique-61"/>
      <use transform="translate(1243.567014 0.015625)" xlink:href="#DejaVuSans-BoldOblique-6c"/>
      <use transform="translate(1277.844357 0.015625)" xlink:href="#DejaVuSans-BoldOblique-69"/>
      <use transform="translate(1312.121701 0.015625)" xlink:href="#DejaVuSans-BoldOblique-64"/>
      <use transform="translate(1383.703732 0.015625)" xlink:href="#DejaVuSans-BoldOblique-61"/>
      <use transform="translate(1485.916927 0.015625)" xlink:href="#DejaVuSans-BoldOblique-4d"/>
      <use transform="translate(1585.428646 0.015625)" xlink:href="#DejaVuSans-BoldOblique-65"/>
      <use transform="translate(1653.250911 0.015625)" xlink:href="#DejaVuSans-BoldOblique-64"/>
      <use transform="translate(1724.832942 0.015625)" xlink:href="#DejaVuSans-BoldOblique-69"/>
      <use transform="translate(1759.110286 0.015625)" xlink:href="#DejaVuSans-BoldOblique-61"/>
     </g>
    </g>
    <g id="line2d_117">
     <path d="M 522.98125 103.507031 
L 562.98125 103.507031 
" style="fill:none;stroke:#0000ff;stroke-linecap:square;stroke-width:4;"/>
    </g>
    <g id="line2d_118"/>
    <g id="text_16">
     <!-- $Curva\ de\ Entrada-Salida\ Mínima$ -->
     <g transform="translate(578.98125 110.507031)scale(0.2 -0.2)">
      <defs>
       <path d="M 878 3500 
L 2003 3500 
L 1319 0 
L 197 0 
L 878 3500 
z
M 2094 5119 
L 3009 5119 
L 1641 3944 
L 1013 3944 
L 2094 5119 
z
" id="DejaVuSans-BoldOblique-ed" transform="scale(0.015625)"/>
      </defs>
      <use transform="translate(0 0.015625)" xlink:href="#DejaVuSans-BoldOblique-43"/>
      <use transform="translate(73.388672 0.015625)" xlink:href="#DejaVuSans-BoldOblique-75"/>
      <use transform="translate(144.580078 0.015625)" xlink:href="#DejaVuSans-BoldOblique-72"/>
      <use transform="translate(193.896484 0.015625)" xlink:href="#DejaVuSans-BoldOblique-76"/>
      <use transform="translate(259.082031 0.015625)" xlink:href="#DejaVuSans-BoldOblique-61"/>
      <use transform="translate(361.295226 0.015625)" xlink:href="#DejaVuSans-BoldOblique-64"/>
      <use transform="translate(432.877257 0.015625)" xlink:href="#DejaVuSans-BoldOblique-65"/>
      <use transform="translate(535.432248 0.015625)" xlink:href="#DejaVuSans-BoldOblique-45"/>
      <use transform="translate(603.742795 0.015625)" xlink:href="#DejaVuSans-BoldOblique-6e"/>
      <use transform="translate(674.934201 0.015625)" xlink:href="#DejaVuSans-BoldOblique-74"/>
      <use transform="translate(722.736936 0.015625)" xlink:href="#DejaVuSans-BoldOblique-72"/>
      <use transform="translate(772.053342 0.015625)" xlink:href="#DejaVuSans-BoldOblique-61"/>
      <use transform="translate(839.533811 0.015625)" xlink:href="#DejaVuSans-BoldOblique-64"/>
      <use transform="translate(911.115842 0.015625)" xlink:href="#DejaVuSans-BoldOblique-61"/>
      <use transform="translate(999.436154 0.015625)" xlink:href="#DejaVuSans-Bold-2212"/>
      <use transform="translate(1104.065061 0.015625)" xlink:href="#DejaVuSans-BoldOblique-53"/>
      <use transform="translate(1176.086545 0.015625)" xlink:href="#DejaVuSans-BoldOblique-61"/>
      <use transform="translate(1243.567014 0.015625)" xlink:href="#DejaVuSans-BoldOblique-6c"/>
      <use transform="translate(1277.844357 0.015625)" xlink:href="#DejaVuSans-BoldOblique-69"/>
      <use transform="translate(1312.121701 0.015625)" xlink:href="#DejaVuSans-BoldOblique-64"/>
      <use transform="translate(1383.703732 0.015625)" xlink:href="#DejaVuSans-BoldOblique-61"/>
      <use transform="translate(1485.916927 0.015625)" xlink:href="#DejaVuSans-BoldOblique-4d"/>
      <use transform="translate(1585.428646 0.015625)" xlink:href="#DejaVuSans-BoldOblique-ed"/>
      <use transform="translate(1619.705989 0.015625)" xlink:href="#DejaVuSans-BoldOblique-6e"/>
      <use transform="translate(1690.897396 0.015625)" xlink:href="#DejaVuSans-BoldOblique-69"/>
      <use transform="translate(1725.174739 0.015625)" xlink:href="#DejaVuSans-BoldOblique-6d"/>
      <use transform="translate(1829.373958 0.015625)" xlink:href="#DejaVuSans-BoldOblique-61"/>
     </g>
    </g>
    <g id="line2d_119">
     <path d="M 522.98125 132.863281 
L 562.98125 132.863281 
" style="fill:none;stroke:#ffa500;stroke-linecap:square;stroke-width:3;"/>
    </g>
    <g id="line2d_120"/>
    <g id="text_17">
     <!-- $Circuito\ Externo$ -->
     <g transform="translate(578.98125 139.863281)scale(0.2 -0.2)">
      <defs>
       <path d="M 3719 3391 
L 3541 2478 
Q 3316 2628 3097 2706 
Q 2878 2784 2669 2784 
Q 2122 2784 1775 2417 
Q 1428 2050 1428 1478 
Q 1428 1113 1643 911 
Q 1859 709 2253 709 
Q 2516 709 2769 787 
Q 3022 866 3250 1019 
L 3078 103 
Q 2800 6 2519 -42 
Q 2238 -91 1953 -91 
Q 1128 -91 683 279 
Q 238 650 238 1331 
Q 238 1759 402 2162 
Q 566 2566 872 2888 
Q 1213 3241 1653 3412 
Q 2094 3584 2669 3584 
Q 2934 3584 3196 3536 
Q 3459 3488 3719 3391 
z
" id="DejaVuSans-BoldOblique-63" transform="scale(0.015625)"/>
       <path d="M 2400 2784 
Q 1966 2784 1684 2390 
Q 1403 1997 1403 1388 
Q 1403 1056 1554 882 
Q 1706 709 1997 709 
Q 2431 709 2712 1104 
Q 2994 1500 2994 2113 
Q 2994 2441 2842 2612 
Q 2691 2784 2400 2784 
z
M 2491 3584 
Q 3272 3584 3719 3187 
Q 4166 2791 4166 2106 
Q 4166 1709 4025 1336 
Q 3884 963 3616 653 
Q 3297 284 2862 96 
Q 2428 -91 1894 -91 
Q 1122 -91 676 306 
Q 231 703 231 1388 
Q 231 1781 375 2157 
Q 519 2534 788 2847 
Q 1100 3209 1533 3396 
Q 1966 3584 2491 3584 
z
" id="DejaVuSans-BoldOblique-6f" transform="scale(0.015625)"/>
      </defs>
      <use transform="translate(0 0.015625)" xlink:href="#DejaVuSans-BoldOblique-43"/>
      <use transform="translate(73.388672 0.015625)" xlink:href="#DejaVuSans-BoldOblique-69"/>
      <use transform="translate(107.666016 0.015625)" xlink:href="#DejaVuSans-BoldOblique-72"/>
      <use transform="translate(156.982422 0.015625)" xlink:href="#DejaVuSans-BoldOblique-63"/>
      <use transform="translate(216.259766 0.015625)" xlink:href="#DejaVuSans-BoldOblique-75"/>
      <use transform="translate(287.451172 0.015625)" xlink:href="#DejaVuSans-BoldOblique-69"/>
      <use transform="translate(321.728516 0.015625)" xlink:href="#DejaVuSans-BoldOblique-74"/>
      <use transform="translate(369.53125 0.015625)" xlink:href="#DejaVuSans-BoldOblique-6f"/>
      <use transform="translate(472.965147 0.015625)" xlink:href="#DejaVuSans-BoldOblique-45"/>
      <use transform="translate(541.275694 0.015625)" xlink:href="#DejaVuSans-BoldOblique-78"/>
      <use transform="translate(605.777647 0.015625)" xlink:href="#DejaVuSans-BoldOblique-74"/>
      <use transform="translate(653.580382 0.015625)" xlink:href="#DejaVuSans-BoldOblique-65"/>
      <use transform="translate(721.402647 0.015625)" xlink:href="#DejaVuSans-BoldOblique-72"/>
      <use transform="translate(770.719054 0.015625)" xlink:href="#DejaVuSans-BoldOblique-6e"/>
      <use transform="translate(841.91046 0.015625)" xlink:href="#DejaVuSans-BoldOblique-6f"/>
     </g>
    </g>
   </g>
  </g>
 </g>
 <defs>
  <clipPath id="p9ea04103f6">
   <rect height="869.76" width="892.8" x="88.98125" y="18.597656"/>
  </clipPath>
 </defs>
</svg>
