 0
SECTION
 2
HEADER
 9
$ACADVER
 1
AC1009
 0
ENDSEC
 0
SECTION
 2
ENTITIES
 0
TEXT
 8
PARTTEXT
 10
  3.8600
 20
  5.3186
 30
0.0
 40
  0.0514
 1
RG1
 0
TEXT
 8
PARTTEXT
 10
  3.8600
 20
  5.1986
 30
0.0
 40
  0.0514
 1
820k
 0
TEXT
 8
PARTTEXT
 10
  3.8600
 20
  5.2186
 30
0.0
 40
  0.0514
 1
313.9uW
 0
TEXT
 8
PARTS
 10
  3.7000
 20
  5.4186
 30
0.0
 40
  0.0514
 1
19.57uA
 0
LINE
 8
PARTS
 10
  3.7000
 20
  5.5000
 30
0.0
 11
  3.7000
 21
  5.4000
 31
0.0
 0
LINE
 8
PARTS
 10
  3.7000
 20
  5.1000
 30
0.0
 11
  3.7000
 21
  5.2000
 31
0.0
 0
POLYLINE
 8
PARTS
 66
1
 10
0.0
 20
0.0
 30
0.0
 0
VERTEX
 8
PARTS
 10
  3.7000
 20
  5.2100
 30
0.0
 0
VERTEX
 8
PARTS
 10
  3.6600
 20
  5.2300
 30
0.0
 0
SEQEND
 8
PARTS
 0
POLYLINE
 8
PARTS
 66
1
 10
0.0
 20
0.0
 30
0.0
 0
VERTEX
 8
PARTS
 10
  3.6600
 20
  5.2300
 30
0.0
 0
VERTEX
 8
PARTS
 10
  3.7400
 20
  5.2600
 30
0.0
 0
SEQEND
 8
PARTS
 0
POLYLINE
 8
PARTS
 66
1
 10
0.0
 20
0.0
 30
0.0
 0
VERTEX
 8
PARTS
 10
  3.7400
 20
  5.2600
 30
0.0
 0
VERTEX
 8
PARTS
 10
  3.6600
 20
  5.2900
 30
0.0
 0
SEQEND
 8
PARTS
 0
POLYLINE
 8
PARTS
 66
1
 10
0.0
 20
0.0
 30
0.0
 0
VERTEX
 8
PARTS
 10
  3.6600
 20
  5.2900
 30
0.0
 0
VERTEX
 8
PARTS
 10
  3.7400
 20
  5.3200
 30
0.0
 0
SEQEND
 8
PARTS
 0
POLYLINE
 8
PARTS
 66
1
 10
0.0
 20
0.0
 30
0.0
 0
VERTEX
 8
PARTS
 10
  3.7400
 20
  5.3200
 30
0.0
 0
VERTEX
 8
PARTS
 10
  3.6600
 20
  5.3500
 30
0.0
 0
SEQEND
 8
PARTS
 0
POLYLINE
 8
PARTS
 66
1
 10
0.0
 20
0.0
 30
0.0
 0
VERTEX
 8
PARTS
 10
  3.6600
 20
  5.3500
 30
0.0
 0
VERTEX
 8
PARTS
 10
  3.7400
 20
  5.3800
 30
0.0
 0
SEQEND
 8
PARTS
 0
POLYLINE
 8
PARTS
 66
1
 10
0.0
 20
0.0
 30
0.0
 0
VERTEX
 8
PARTS
 10
  3.7400
 20
  5.3800
 30
0.0
 0
VERTEX
 8
PARTS
 10
  3.7000
 20
  5.4000
 30
0.0
 0
SEQEND
 8
PARTS
 0
POLYLINE
 8
PARTS
 66
1
 10
0.0
 20
0.0
 30
0.0
 0
VERTEX
 8
PARTS
 10
  3.7000
 20
  5.2000
 30
0.0
 0
VERTEX
 8
PARTS
 10
  3.7000
 20
  5.2100
 30
0.0
 0
SEQEND
 8
PARTS
 0
TEXT
 8
PARTTEXT
 10
  3.1500
 20
  5.0186
 30
0.0
 40
  0.0514
 1
C2
 0
TEXT
 8
PARTTEXT
 10
  3.1500
 20
  4.7686
 30
0.0
 40
  0.0514
 1
2u
 0
LINE
 8
PARTS
 10
  3.0000
 20
  4.9000
 30
0.0
 11
  3.1000
 21
  4.9000
 31
0.0
 0
LINE
 8
PARTS
 10
  3.3000
 20
  4.9000
 30
0.0
 11
  3.2000
 21
  4.9000
 31
0.0
 0
POLYLINE
 8
PARTS
 66
1
 10
0.0
 20
0.0
 30
0.0
 0
VERTEX
 8
PARTS
 10
  3.1300
 20
  4.9500
 30
0.0
 0
VERTEX
 8
PARTS
 10
  3.1300
 20
  4.8500
 30
0.0
 0
SEQEND
 8
PARTS
 0
POLYLINE
 8
PARTS
 66
1
 10
0.0
 20
0.0
 30
0.0
 0
VERTEX
 8
PARTS
 10
  3.1700
 20
  4.9500
 30
0.0
 0
VERTEX
 8
PARTS
 10
  3.1700
 20
  4.8500
 30
0.0
 0
SEQEND
 8
PARTS
 0
POLYLINE
 8
PARTS
 66
1
 10
0.0
 20
0.0
 30
0.0
 0
VERTEX
 8
PARTS
 10
  3.1700
 20
  4.9000
 30
0.0
 0
VERTEX
 8
PARTS
 10
  3.2000
 20
  4.9000
 30
0.0
 0
SEQEND
 8
PARTS
 0
POLYLINE
 8
PARTS
 66
1
 10
0.0
 20
0.0
 30
0.0
 0
VERTEX
 8
PARTS
 10
  3.1000
 20
  4.9000
 30
0.0
 0
VERTEX
 8
PARTS
 10
  3.1300
 20
  4.9000
 30
0.0
 0
SEQEND
 8
PARTS
 0
TEXT
 8
PARTTEXT
 10
  7.7900
 20
  5.1386
 30
0.0
 40
  0.0514
 1
VDD
 0
TEXT
 8
PARTTEXT
 10
  7.4000
 20
  5.0186
 30
0.0
 40
  0.0514
 1
18
 0
TEXT
 8
PARTTEXT
 10
  7.7900
 20
  5.0386
 30
0.0
 40
  0.0514
 1
-120.3mW
 0
TEXT
 8
PARTS
 10
  7.7000
 20
  4.7186
 30
0.0
 40
  0.0514
 1
6.686mA
 0
LINE
 8
PARTS
 10
  7.7000
 20
  4.8000
 30
0.0
 11
  7.7000
 21
  4.9000
 31
0.0
 0
POLYLINE
 8
PARTS
 66
1
 10
0.0
 20
0.0
 30
0.0
 0
VERTEX
 8
PARTS
 10
  7.6500
 20
  5.0300
 30
0.0
 0
VERTEX
 8
PARTS
 10
  7.7500
 20
  5.0300
 30
0.0
 0
SEQEND
 8
PARTS
 0
POLYLINE
 8
PARTS
 66
1
 10
0.0
 20
0.0
 30
0.0
 0
VERTEX
 8
PARTS
 10
  7.8000
 20
  5.0000
 30
0.0
 0
VERTEX
 8
PARTS
 10
  7.6000
 20
  5.0000
 30
0.0
 0
SEQEND
 8
PARTS
 0
POLYLINE
 8
PARTS
 66
1
 10
0.0
 20
0.0
 30
0.0
 0
VERTEX
 8
PARTS
 10
  7.6500
 20
  4.9600
 30
0.0
 0
VERTEX
 8
PARTS
 10
  7.7500
 20
  4.9600
 30
0.0
 0
SEQEND
 8
PARTS
 0
POLYLINE
 8
PARTS
 66
1
 10
0.0
 20
0.0
 30
0.0
 0
VERTEX
 8
PARTS
 10
  7.7000
 20
  5.1100
 30
0.0
 0
VERTEX
 8
PARTS
 10
  7.7000
 20
  5.0600
 30
0.0
 0
SEQEND
 8
PARTS
 0
POLYLINE
 8
PARTS
 66
1
 10
0.0
 20
0.0
 30
0.0
 0
VERTEX
 8
PARTS
 10
  7.7000
 20
  4.9000
 30
0.0
 0
VERTEX
 8
PARTS
 10
  7.7000
 20
  4.9600
 30
0.0
 0
SEQEND
 8
PARTS
 0
POLYLINE
 8
PARTS
 66
1
 10
0.0
 20
0.0
 30
0.0
 0
VERTEX
 8
PARTS
 10
  7.6000
 20
  5.0600
 30
0.0
 0
VERTEX
 8
PARTS
 10
  7.8000
 20
  5.0600
 30
0.0
 0
SEQEND
 8
PARTS
 0
POLYLINE
 8
PARTS
 66
1
 10
0.0
 20
0.0
 30
0.0
 0
VERTEX
 8
PARTS
 10
  7.7000
 20
  5.1000
 30
0.0
 0
VERTEX
 8
PARTS
 10
  7.7000
 20
  5.2000
 30
0.0
 0
SEQEND
 8
PARTS
 0
POLYLINE
 8
PARTS
 66
1
 10
0.0
 20
0.0
 30
0.0
 0
VERTEX
 8
PARTS
 10
  7.6300
 20
  5.1200
 30
0.0
 0
VERTEX
 8
PARTS
 10
  7.6300
 20
  5.1000
 30
0.0
 0
SEQEND
 8
PARTS
 0
POLYLINE
 8
PARTS
 66
1
 10
0.0
 20
0.0
 30
0.0
 0
VERTEX
 8
PARTS
 10
  7.6200
 20
  5.1100
 30
0.0
 0
VERTEX
 8
PARTS
 10
  7.6400
 20
  5.1100
 30
0.0
 0
SEQEND
 8
PARTS
 0
POLYLINE
 8
PARTS
 66
1
 10
0.0
 20
0.0
 30
0.0
 0
VERTEX
 8
PARTS
 10
  7.6200
 20
  4.9200
 30
0.0
 0
VERTEX
 8
PARTS
 10
  7.6400
 20
  4.9200
 30
0.0
 0
SEQEND
 8
PARTS
 0
TEXT
 8
PARTTEXT
 10
  1.4500
 20
  4.4086
 30
0.0
 40
  0.0514
 1
V1
 0
TEXT
 8
PARTTEXT
 10
  1.0900
 20
  4.3186
 30
0.0
 40
  0.0514
 1
1Vac
 0
TEXT
 8
PARTTEXT
 10
  1.1000
 20
  4.1986
 30
0.0
 40
  0.0514
 1
0Vdc
 0
TEXT
 8
PARTTEXT
 10
  1.4500
 20
  4.3086
 30
0.0
 40
  0.0514
 1
0W
 0
TEXT
 8
PARTS
 10
  1.4000
 20
  4.4186
 30
0.0
 40
  0.0514
 1
0A
 0
LINE
 8
PARTS
 10
  1.4000
 20
  4.5000
 30
0.0
 11
  1.4000
 21
  4.4000
 31
0.0
 0
LINE
 8
PARTS
 10
  1.4000
 20
  4.1000
 30
0.0
 11
  1.4000
 21
  4.2000
 31
0.0
 0
POLYLINE
 8
PARTS
 66
1
 10
0.0
 20
0.0
 30
0.0
 0
VERTEX
 8
PARTS
 10
  1.4000
 20
  4.3000
 30
0.0
 42
  1.0000
 0
VERTEX
 8
PARTS
 10
  1.3400
 20
  4.3000
 30
0.0
 0
SEQEND
 8
PARTS
 0
POLYLINE
 8
PARTS
 66
1
 10
0.0
 20
0.0
 30
0.0
 0
VERTEX
 8
PARTS
 10
  1.4000
 20
  4.3000
 30
0.0
 42
 -1.0000
 0
VERTEX
 8
PARTS
 10
  1.4600
 20
  4.3000
 30
0.0
 0
SEQEND
 8
PARTS
 0
POLYLINE
 8
PARTS
 66
1
 70
1
 10
0.0
 20
0.0
 30
0.0
 0
VERTEX
 8
PARTS
 10
  1.5000
 20
  4.3000
 30
0.0
 42
  0.0985
 0
VERTEX
 8
PARTS
 10
  1.4924
 20
  4.3383
 30
0.0
 42
  0.0985
 0
VERTEX
 8
PARTS
 10
  1.4707
 20
  4.3707
 30
0.0
 42
  0.0985
 0
VERTEX
 8
PARTS
 10
  1.4383
 20
  4.3924
 30
0.0
 42
  0.0985
 0
VERTEX
 8
PARTS
 10
  1.4000
 20
  4.4000
 30
0.0
 42
  0.0985
 0
VERTEX
 8
PARTS
 10
  1.3617
 20
  4.3924
 30
0.0
 42
  0.0985
 0
VERTEX
 8
PARTS
 10
  1.3293
 20
  4.3707
 30
0.0
 42
  0.0985
 0
VERTEX
 8
PARTS
 10
  1.3076
 20
  4.3383
 30
0.0
 42
  0.0985
 0
VERTEX
 8
PARTS
 10
  1.3000
 20
  4.3000
 30
0.0
 42
  0.0985
 0
VERTEX
 8
PARTS
 10
  1.3076
 20
  4.2617
 30
0.0
 42
  0.0985
 0
VERTEX
 8
PARTS
 10
  1.3293
 20
  4.2293
 30
0.0
 42
  0.0985
 0
VERTEX
 8
PARTS
 10
  1.3617
 20
  4.2076
 30
0.0
 42
  0.0985
 0
VERTEX
 8
PARTS
 10
  1.4000
 20
  4.2000
 30
0.0
 42
  0.0985
 0
VERTEX
 8
PARTS
 10
  1.4383
 20
  4.2076
 30
0.0
 42
  0.0985
 0
VERTEX
 8
PARTS
 10
  1.4707
 20
  4.2293
 30
0.0
 42
  0.0985
 0
VERTEX
 8
PARTS
 10
  1.4924
 20
  4.2617
 30
0.0
 42
  0.0985
 0
SEQEND
 8
PARTS
 0
POLYLINE
 8
PARTS
 66
1
 10
0.0
 20
0.0
 30
0.0
 0
VERTEX
 8
PARTS
 10
  1.3900
 20
  4.2300
 30
0.0
 0
VERTEX
 8
PARTS
 10
  1.4100
 20
  4.2300
 30
0.0
 0
SEQEND
 8
PARTS
 0
POLYLINE
 8
PARTS
 66
1
 10
0.0
 20
0.0
 30
0.0
 0
VERTEX
 8
PARTS
 10
  1.4000
 20
  4.3900
 30
0.0
 0
VERTEX
 8
PARTS
 10
  1.4000
 20
  4.3700
 30
0.0
 0
SEQEND
 8
PARTS
 0
POLYLINE
 8
PARTS
 66
1
 10
0.0
 20
0.0
 30
0.0
 0
VERTEX
 8
PARTS
 10
  1.3900
 20
  4.3800
 30
0.0
 0
VERTEX
 8
PARTS
 10
  1.4100
 20
  4.3800
 30
0.0
 0
SEQEND
 8
PARTS
 0
TEXT
 8
PARTTEXT
 10
  4.4000
 20
  5.0186
 30
0.0
 40
  0.0514
 1
J1
 0
TEXT
 8
PARTTEXT
 10
  4.8000
 20
  4.8186
 30
0.0
 40
  0.0514
 1
2N5486/PLP
 0
TEXT
 8
PARTTEXT
 10
  4.4000
 20
  4.9186
 30
0.0
 40
  0.0514
 1
54.67mW
 0
TEXT
 8
PARTS
 10
  4.4000
 20
  4.8186
 30
0.0
 40
  0.0514
 1
-10.55pA
 0
LINE
 8
PARTS
 10
  4.4000
 20
  4.9000
 30
0.0
 11
  4.5000
 21
  4.9000
 31
0.0
 0
TEXT
 8
PARTS
 10
  4.7000
 20
  4.6186
 30
0.0
 40
  0.0514
 1
-6.667mA
 0
LINE
 8
PARTS
 10
  4.7000
 20
  4.7000
 30
0.0
 11
  4.7000
 21
  4.8000
 31
0.0
 0
TEXT
 8
PARTS
 10
  4.7000
 20
  5.0186
 30
0.0
 40
  0.0514
 1
6.667mA
 0
LINE
 8
PARTS
 10
  4.7000
 20
  5.1000
 30
0.0
 11
  4.7000
 21
  5.0000
 31
0.0
 0
POLYLINE
 8
PARTS
 66
1
 10
0.0
 20
0.0
 30
0.0
 0
VERTEX
 8
PARTS
 10
  4.5100
 20
  4.9200
 30
0.0
 0
VERTEX
 8
PARTS
 10
  4.5700
 20
  4.9000
 30
0.0
 0
VERTEX
 8
PARTS
 10
  4.5100
 20
  4.8800
 30
0.0
 0
SEQEND
 8
PARTS
 0
POLYLINE
 8
PARTS
 66
1
 10
0.0
 20
0.0
 30
0.0
 0
VERTEX
 8
PARTS
 10
  4.5000
 20
  4.9000
 30
0.0
 0
VERTEX
 8
PARTS
 10
  4.6000
 20
  4.9000
 30
0.0
 0
SEQEND
 8
PARTS
 0
POLYLINE
 8
PARTS
 66
1
 10
0.0
 20
0.0
 30
0.0
 0
VERTEX
 8
PARTS
 10
  4.6000
 20
  4.8200
 30
0.0
 0
VERTEX
 8
PARTS
 10
  4.7000
 20
  4.8200
 30
0.0
 0
SEQEND
 8
PARTS
 0
POLYLINE
 8
PARTS
 66
1
 10
0.0
 20
0.0
 30
0.0
 0
VERTEX
 8
PARTS
 10
  4.6000
 20
  5.0000
 30
0.0
 0
VERTEX
 8
PARTS
 10
  4.6000
 20
  4.8000
 30
0.0
 0
SEQEND
 8
PARTS
 0
POLYLINE
 8
PARTS
 66
1
 10
0.0
 20
0.0
 30
0.0
 0
VERTEX
 8
PARTS
 10
  4.6000
 20
  4.9800
 30
0.0
 0
VERTEX
 8
PARTS
 10
  4.7000
 20
  4.9800
 30
0.0
 0
SEQEND
 8
PARTS
 0
POLYLINE
 8
PARTS
 66
1
 10
0.0
 20
0.0
 30
0.0
 0
VERTEX
 8
PARTS
 10
  4.7000
 20
  4.8000
 30
0.0
 0
VERTEX
 8
PARTS
 10
  4.7000
 20
  4.8200
 30
0.0
 0
SEQEND
 8
PARTS
 0
POLYLINE
 8
PARTS
 66
1
 10
0.0
 20
0.0
 30
0.0
 0
VERTEX
 8
PARTS
 10
  4.7000
 20
  4.9800
 30
0.0
 0
VERTEX
 8
PARTS
 10
  4.7000
 20
  5.0000
 30
0.0
 0
SEQEND
 8
PARTS
 0
TEXT
 8
PARTTEXT
 10
  4.8600
 20
  4.2186
 30
0.0
 40
  0.0514
 1
RS
 0
TEXT
 8
PARTTEXT
 10
  4.8600
 20
  4.0986
 30
0.0
 40
  0.0514
 1
470
 0
TEXT
 8
PARTTEXT
 10
  4.8600
 20
  4.1186
 30
0.0
 40
  0.0514
 1
20.89mW
 0
TEXT
 8
PARTS
 10
  4.7000
 20
  4.3186
 30
0.0
 40
  0.0514
 1
6.667mA
 0
LINE
 8
PARTS
 10
  4.7000
 20
  4.4000
 30
0.0
 11
  4.7000
 21
  4.3000
 31
0.0
 0
LINE
 8
PARTS
 10
  4.7000
 20
  4.0000
 30
0.0
 11
  4.7000
 21
  4.1000
 31
0.0
 0
POLYLINE
 8
PARTS
 66
1
 10
0.0
 20
0.0
 30
0.0
 0
VERTEX
 8
PARTS
 10
  4.7000
 20
  4.1100
 30
0.0
 0
VERTEX
 8
PARTS
 10
  4.6600
 20
  4.1300
 30
0.0
 0
SEQEND
 8
PARTS
 0
POLYLINE
 8
PARTS
 66
1
 10
0.0
 20
0.0
 30
0.0
 0
VERTEX
 8
PARTS
 10
  4.6600
 20
  4.1300
 30
0.0
 0
VERTEX
 8
PARTS
 10
  4.7400
 20
  4.1600
 30
0.0
 0
SEQEND
 8
PARTS
 0
POLYLINE
 8
PARTS
 66
1
 10
0.0
 20
0.0
 30
0.0
 0
VERTEX
 8
PARTS
 10
  4.7400
 20
  4.1600
 30
0.0
 0
VERTEX
 8
PARTS
 10
  4.6600
 20
  4.1900
 30
0.0
 0
SEQEND
 8
PARTS
 0
POLYLINE
 8
PARTS
 66
1
 10
0.0
 20
0.0
 30
0.0
 0
VERTEX
 8
PARTS
 10
  4.6600
 20
  4.1900
 30
0.0
 0
VERTEX
 8
PARTS
 10
  4.7400
 20
  4.2200
 30
0.0
 0
SEQEND
 8
PARTS
 0
POLYLINE
 8
PARTS
 66
1
 10
0.0
 20
0.0
 30
0.0
 0
VERTEX
 8
PARTS
 10
  4.7400
 20
  4.2200
 30
0.0
 0
VERTEX
 8
PARTS
 10
  4.6600
 20
  4.2500
 30
0.0
 0
SEQEND
 8
PARTS
 0
POLYLINE
 8
PARTS
 66
1
 10
0.0
 20
0.0
 30
0.0
 0
VERTEX
 8
PARTS
 10
  4.6600
 20
  4.2500
 30
0.0
 0
VERTEX
 8
PARTS
 10
  4.7400
 20
  4.2800
 30
0.0
 0
SEQEND
 8
PARTS
 0
POLYLINE
 8
PARTS
 66
1
 10
0.0
 20
0.0
 30
0.0
 0
VERTEX
 8
PARTS
 10
  4.7400
 20
  4.2800
 30
0.0
 0
VERTEX
 8
PARTS
 10
  4.7000
 20
  4.3000
 30
0.0
 0
SEQEND
 8
PARTS
 0
POLYLINE
 8
PARTS
 66
1
 10
0.0
 20
0.0
 30
0.0
 0
VERTEX
 8
PARTS
 10
  4.7000
 20
  4.1000
 30
0.0
 0
VERTEX
 8
PARTS
 10
  4.7000
 20
  4.1100
 30
0.0
 0
SEQEND
 8
PARTS
 0
TEXT
 8
PARTTEXT
 10
  5.2500
 20
  5.3186
 30
0.0
 40
  0.0514
 1
C1
 0
TEXT
 8
PARTTEXT
 10
  5.2500
 20
  5.0686
 30
0.0
 40
  0.0514
 1
2u
 0
LINE
 8
PARTS
 10
  5.1000
 20
  5.2000
 30
0.0
 11
  5.2000
 21
  5.2000
 31
0.0
 0
LINE
 8
PARTS
 10
  5.4000
 20
  5.2000
 30
0.0
 11
  5.3000
 21
  5.2000
 31
0.0
 0
POLYLINE
 8
PARTS
 66
1
 10
0.0
 20
0.0
 30
0.0
 0
VERTEX
 8
PARTS
 10
  5.2300
 20
  5.2500
 30
0.0
 0
VERTEX
 8
PARTS
 10
  5.2300
 20
  5.1500
 30
0.0
 0
SEQEND
 8
PARTS
 0
POLYLINE
 8
PARTS
 66
1
 10
0.0
 20
0.0
 30
0.0
 0
VERTEX
 8
PARTS
 10
  5.2700
 20
  5.2500
 30
0.0
 0
VERTEX
 8
PARTS
 10
  5.2700
 20
  5.1500
 30
0.0
 0
SEQEND
 8
PARTS
 0
POLYLINE
 8
PARTS
 66
1
 10
0.0
 20
0.0
 30
0.0
 0
VERTEX
 8
PARTS
 10
  5.2700
 20
  5.2000
 30
0.0
 0
VERTEX
 8
PARTS
 10
  5.3000
 20
  5.2000
 30
0.0
 0
SEQEND
 8
PARTS
 0
POLYLINE
 8
PARTS
 66
1
 10
0.0
 20
0.0
 30
0.0
 0
VERTEX
 8
PARTS
 10
  5.2000
 20
  5.2000
 30
0.0
 0
VERTEX
 8
PARTS
 10
  5.2300
 20
  5.2000
 30
0.0
 0
SEQEND
 8
PARTS
 0
TEXT
 8
PARTTEXT
 10
  3.8600
 20
  4.5186
 30
0.0
 40
  0.0514
 1
RG2
 0
TEXT
 8
PARTTEXT
 10
  3.8600
 20
  4.3986
 30
0.0
 40
  0.0514
 1
100k
 0
TEXT
 8
PARTTEXT
 10
  3.8600
 20
  4.4186
 30
0.0
 40
  0.0514
 1
38.28uW
 0
TEXT
 8
PARTS
 10
  3.7000
 20
  4.6186
 30
0.0
 40
  0.0514
 1
19.57uA
 0
LINE
 8
PARTS
 10
  3.7000
 20
  4.7000
 30
0.0
 11
  3.7000
 21
  4.6000
 31
0.0
 0
LINE
 8
PARTS
 10
  3.7000
 20
  4.3000
 30
0.0
 11
  3.7000
 21
  4.4000
 31
0.0
 0
POLYLINE
 8
PARTS
 66
1
 10
0.0
 20
0.0
 30
0.0
 0
VERTEX
 8
PARTS
 10
  3.7000
 20
  4.4100
 30
0.0
 0
VERTEX
 8
PARTS
 10
  3.6600
 20
  4.4300
 30
0.0
 0
SEQEND
 8
PARTS
 0
POLYLINE
 8
PARTS
 66
1
 10
0.0
 20
0.0
 30
0.0
 0
VERTEX
 8
PARTS
 10
  3.6600
 20
  4.4300
 30
0.0
 0
VERTEX
 8
PARTS
 10
  3.7400
 20
  4.4600
 30
0.0
 0
SEQEND
 8
PARTS
 0
POLYLINE
 8
PARTS
 66
1
 10
0.0
 20
0.0
 30
0.0
 0
VERTEX
 8
PARTS
 10
  3.7400
 20
  4.4600
 30
0.0
 0
VERTEX
 8
PARTS
 10
  3.6600
 20
  4.4900
 30
0.0
 0
SEQEND
 8
PARTS
 0
POLYLINE
 8
PARTS
 66
1
 10
0.0
 20
0.0
 30
0.0
 0
VERTEX
 8
PARTS
 10
  3.6600
 20
  4.4900
 30
0.0
 0
VERTEX
 8
PARTS
 10
  3.7400
 20
  4.5200
 30
0.0
 0
SEQEND
 8
PARTS
 0
POLYLINE
 8
PARTS
 66
1
 10
0.0
 20
0.0
 30
0.0
 0
VERTEX
 8
PARTS
 10
  3.7400
 20
  4.5200
 30
0.0
 0
VERTEX
 8
PARTS
 10
  3.6600
 20
  4.5500
 30
0.0
 0
SEQEND
 8
PARTS
 0
POLYLINE
 8
PARTS
 66
1
 10
0.0
 20
0.0
 30
0.0
 0
VERTEX
 8
PARTS
 10
  3.6600
 20
  4.5500
 30
0.0
 0
VERTEX
 8
PARTS
 10
  3.7400
 20
  4.5800
 30
0.0
 0
SEQEND
 8
PARTS
 0
POLYLINE
 8
PARTS
 66
1
 10
0.0
 20
0.0
 30
0.0
 0
VERTEX
 8
PARTS
 10
  3.7400
 20
  4.5800
 30
0.0
 0
VERTEX
 8
PARTS
 10
  3.7000
 20
  4.6000
 30
0.0
 0
SEQEND
 8
PARTS
 0
POLYLINE
 8
PARTS
 66
1
 10
0.0
 20
0.0
 30
0.0
 0
VERTEX
 8
PARTS
 10
  3.7000
 20
  4.4000
 30
0.0
 0
VERTEX
 8
PARTS
 10
  3.7000
 20
  4.4100
 30
0.0
 0
SEQEND
 8
PARTS
 0
TEXT
 8
PARTTEXT
 10
  2.2000
 20
  5.0686
 30
0.0
 40
  0.0514
 1
Rgen
 0
TEXT
 8
PARTTEXT
 10
  2.2000
 20
  4.6586
 30
0.0
 40
  0.0514
 1
50
 0
TEXT
 8
PARTTEXT
 10
  2.2000
 20
  4.9686
 30
0.0
 40
  0.0514
 1
0W
 0
LINE
 8
PARTS
 10
  2.1000
 20
  4.9000
 30
0.0
 11
  2.2000
 21
  4.9000
 31
0.0
 0
TEXT
 8
PARTS
 10
  2.5000
 20
  4.8186
 30
0.0
 40
  0.0514
 1
0A
 0
LINE
 8
PARTS
 10
  2.5000
 20
  4.9000
 30
0.0
 11
  2.4000
 21
  4.9000
 31
0.0
 0
POLYLINE
 8
PARTS
 66
1
 10
0.0
 20
0.0
 30
0.0
 0
VERTEX
 8
PARTS
 10
  2.3900
 20
  4.9000
 30
0.0
 0
VERTEX
 8
PARTS
 10
  2.3700
 20
  4.8600
 30
0.0
 0
SEQEND
 8
PARTS
 0
POLYLINE
 8
PARTS
 66
1
 10
0.0
 20
0.0
 30
0.0
 0
VERTEX
 8
PARTS
 10
  2.3700
 20
  4.8600
 30
0.0
 0
VERTEX
 8
PARTS
 10
  2.3400
 20
  4.9400
 30
0.0
 0
SEQEND
 8
PARTS
 0
POLYLINE
 8
PARTS
 66
1
 10
0.0
 20
0.0
 30
0.0
 0
VERTEX
 8
PARTS
 10
  2.3400
 20
  4.9400
 30
0.0
 0
VERTEX
 8
PARTS
 10
  2.3100
 20
  4.8600
 30
0.0
 0
SEQEND
 8
PARTS
 0
POLYLINE
 8
PARTS
 66
1
 10
0.0
 20
0.0
 30
0.0
 0
VERTEX
 8
PARTS
 10
  2.3100
 20
  4.8600
 30
0.0
 0
VERTEX
 8
PARTS
 10
  2.2800
 20
  4.9400
 30
0.0
 0
SEQEND
 8
PARTS
 0
POLYLINE
 8
PARTS
 66
1
 10
0.0
 20
0.0
 30
0.0
 0
VERTEX
 8
PARTS
 10
  2.2800
 20
  4.9400
 30
0.0
 0
VERTEX
 8
PARTS
 10
  2.2500
 20
  4.8600
 30
0.0
 0
SEQEND
 8
PARTS
 0
POLYLINE
 8
PARTS
 66
1
 10
0.0
 20
0.0
 30
0.0
 0
VERTEX
 8
PARTS
 10
  2.2500
 20
  4.8600
 30
0.0
 0
VERTEX
 8
PARTS
 10
  2.2200
 20
  4.9400
 30
0.0
 0
SEQEND
 8
PARTS
 0
POLYLINE
 8
PARTS
 66
1
 10
0.0
 20
0.0
 30
0.0
 0
VERTEX
 8
PARTS
 10
  2.2200
 20
  4.9400
 30
0.0
 0
VERTEX
 8
PARTS
 10
  2.2000
 20
  4.9000
 30
0.0
 0
SEQEND
 8
PARTS
 0
POLYLINE
 8
PARTS
 66
1
 10
0.0
 20
0.0
 30
0.0
 0
VERTEX
 8
PARTS
 10
  2.4000
 20
  4.9000
 30
0.0
 0
VERTEX
 8
PARTS
 10
  2.3900
 20
  4.9000
 30
0.0
 0
SEQEND
 8
PARTS
 0
TEXT
 8
PARTTEXT
 10
  4.8600
 20
  5.6186
 30
0.0
 40
  0.0514
 1
RD
 0
TEXT
 8
PARTTEXT
 10
  4.8600
 20
  5.4986
 30
0.0
 40
  0.0514
 1
1k
 0
TEXT
 8
PARTTEXT
 10
  4.8600
 20
  5.5186
 30
0.0
 40
  0.0514
 1
44.44mW
 0
TEXT
 8
PARTS
 10
  4.7000
 20
  5.7186
 30
0.0
 40
  0.0514
 1
6.667mA
 0
LINE
 8
PARTS
 10
  4.7000
 20
  5.8000
 30
0.0
 11
  4.7000
 21
  5.7000
 31
0.0
 0
LINE
 8
PARTS
 10
  4.7000
 20
  5.4000
 30
0.0
 11
  4.7000
 21
  5.5000
 31
0.0
 0
POLYLINE
 8
PARTS
 66
1
 10
0.0
 20
0.0
 30
0.0
 0
VERTEX
 8
PARTS
 10
  4.7000
 20
  5.5100
 30
0.0
 0
VERTEX
 8
PARTS
 10
  4.6600
 20
  5.5300
 30
0.0
 0
SEQEND
 8
PARTS
 0
POLYLINE
 8
PARTS
 66
1
 10
0.0
 20
0.0
 30
0.0
 0
VERTEX
 8
PARTS
 10
  4.6600
 20
  5.5300
 30
0.0
 0
VERTEX
 8
PARTS
 10
  4.7400
 20
  5.5600
 30
0.0
 0
SEQEND
 8
PARTS
 0
POLYLINE
 8
PARTS
 66
1
 10
0.0
 20
0.0
 30
0.0
 0
VERTEX
 8
PARTS
 10
  4.7400
 20
  5.5600
 30
0.0
 0
VERTEX
 8
PARTS
 10
  4.6600
 20
  5.5900
 30
0.0
 0
SEQEND
 8
PARTS
 0
POLYLINE
 8
PARTS
 66
1
 10
0.0
 20
0.0
 30
0.0
 0
VERTEX
 8
PARTS
 10
  4.6600
 20
  5.5900
 30
0.0
 0
VERTEX
 8
PARTS
 10
  4.7400
 20
  5.6200
 30
0.0
 0
SEQEND
 8
PARTS
 0
POLYLINE
 8
PARTS
 66
1
 10
0.0
 20
0.0
 30
0.0
 0
VERTEX
 8
PARTS
 10
  4.7400
 20
  5.6200
 30
0.0
 0
VERTEX
 8
PARTS
 10
  4.6600
 20
  5.6500
 30
0.0
 0
SEQEND
 8
PARTS
 0
POLYLINE
 8
PARTS
 66
1
 10
0.0
 20
0.0
 30
0.0
 0
VERTEX
 8
PARTS
 10
  4.6600
 20
  5.6500
 30
0.0
 0
VERTEX
 8
PARTS
 10
  4.7400
 20
  5.6800
 30
0.0
 0
SEQEND
 8
PARTS
 0
POLYLINE
 8
PARTS
 66
1
 10
0.0
 20
0.0
 30
0.0
 0
VERTEX
 8
PARTS
 10
  4.7400
 20
  5.6800
 30
0.0
 0
VERTEX
 8
PARTS
 10
  4.7000
 20
  5.7000
 30
0.0
 0
SEQEND
 8
PARTS
 0
POLYLINE
 8
PARTS
 66
1
 10
0.0
 20
0.0
 30
0.0
 0
VERTEX
 8
PARTS
 10
  4.7000
 20
  5.5000
 30
0.0
 0
VERTEX
 8
PARTS
 10
  4.7000
 20
  5.5100
 30
0.0
 0
SEQEND
 8
PARTS
 0
TEXT
 8
PARTTEXT
 10
  5.4600
 20
  4.2186
 30
0.0
 40
  0.0514
 1
CS
 0
TEXT
 8
PARTTEXT
 10
  5.4600
 20
  4.0986
 30
0.0
 40
  0.0514
 1
100u
 0
LINE
 8
PARTS
 10
  5.3000
 20
  4.1000
 30
0.0
 11
  5.3000
 21
  4.2000
 31
0.0
 0
LINE
 8
PARTS
 10
  5.3000
 20
  4.4000
 30
0.0
 11
  5.3000
 21
  4.3000
 31
0.0
 0
POLYLINE
 8
PARTS
 66
1
 10
0.0
 20
0.0
 30
0.0
 0
VERTEX
 8
PARTS
 10
  5.2500
 20
  4.2300
 30
0.0
 0
VERTEX
 8
PARTS
 10
  5.3500
 20
  4.2300
 30
0.0
 0
SEQEND
 8
PARTS
 0
POLYLINE
 8
PARTS
 66
1
 10
0.0
 20
0.0
 30
0.0
 0
VERTEX
 8
PARTS
 10
  5.2500
 20
  4.2700
 30
0.0
 0
VERTEX
 8
PARTS
 10
  5.3500
 20
  4.2700
 30
0.0
 0
SEQEND
 8
PARTS
 0
POLYLINE
 8
PARTS
 66
1
 10
0.0
 20
0.0
 30
0.0
 0
VERTEX
 8
PARTS
 10
  5.3000
 20
  4.2700
 30
0.0
 0
VERTEX
 8
PARTS
 10
  5.3000
 20
  4.3000
 30
0.0
 0
SEQEND
 8
PARTS
 0
POLYLINE
 8
PARTS
 66
1
 10
0.0
 20
0.0
 30
0.0
 0
VERTEX
 8
PARTS
 10
  5.3000
 20
  4.2000
 30
0.0
 0
VERTEX
 8
PARTS
 10
  5.3000
 20
  4.2300
 30
0.0
 0
SEQEND
 8
PARTS
 0
TEXT
 8
PARTTEXT
 10
  6.0600
 20
  4.9186
 30
0.0
 40
  0.0514
 1
RL
 0
TEXT
 8
PARTTEXT
 10
  6.0600
 20
  4.7986
 30
0.0
 40
  0.0514
 1
10k
 0
TEXT
 8
PARTTEXT
 10
  6.0600
 20
  4.8186
 30
0.0
 40
  0.0514
 1
0W
 0
LINE
 8
PARTS
 10
  5.9000
 20
  5.1000
 30
0.0
 11
  5.9000
 21
  5.0000
 31
0.0
 0
TEXT
 8
PARTS
 10
  5.9000
 20
  4.6186
 30
0.0
 40
  0.0514
 1
0A
 0
LINE
 8
PARTS
 10
  5.9000
 20
  4.7000
 30
0.0
 11
  5.9000
 21
  4.8000
 31
0.0
 0
POLYLINE
 8
PARTS
 66
1
 10
0.0
 20
0.0
 30
0.0
 0
VERTEX
 8
PARTS
 10
  5.9000
 20
  4.8100
 30
0.0
 0
VERTEX
 8
PARTS
 10
  5.8600
 20
  4.8300
 30
0.0
 0
SEQEND
 8
PARTS
 0
POLYLINE
 8
PARTS
 66
1
 10
0.0
 20
0.0
 30
0.0
 0
VERTEX
 8
PARTS
 10
  5.8600
 20
  4.8300
 30
0.0
 0
VERTEX
 8
PARTS
 10
  5.9400
 20
  4.8600
 30
0.0
 0
SEQEND
 8
PARTS
 0
POLYLINE
 8
PARTS
 66
1
 10
0.0
 20
0.0
 30
0.0
 0
VERTEX
 8
PARTS
 10
  5.9400
 20
  4.8600
 30
0.0
 0
VERTEX
 8
PARTS
 10
  5.8600
 20
  4.8900
 30
0.0
 0
SEQEND
 8
PARTS
 0
POLYLINE
 8
PARTS
 66
1
 10
0.0
 20
0.0
 30
0.0
 0
VERTEX
 8
PARTS
 10
  5.8600
 20
  4.8900
 30
0.0
 0
VERTEX
 8
PARTS
 10
  5.9400
 20
  4.9200
 30
0.0
 0
SEQEND
 8
PARTS
 0
POLYLINE
 8
PARTS
 66
1
 10
0.0
 20
0.0
 30
0.0
 0
VERTEX
 8
PARTS
 10
  5.9400
 20
  4.9200
 30
0.0
 0
VERTEX
 8
PARTS
 10
  5.8600
 20
  4.9500
 30
0.0
 0
SEQEND
 8
PARTS
 0
POLYLINE
 8
PARTS
 66
1
 10
0.0
 20
0.0
 30
0.0
 0
VERTEX
 8
PARTS
 10
  5.8600
 20
  4.9500
 30
0.0
 0
VERTEX
 8
PARTS
 10
  5.9400
 20
  4.9800
 30
0.0
 0
SEQEND
 8
PARTS
 0
POLYLINE
 8
PARTS
 66
1
 10
0.0
 20
0.0
 30
0.0
 0
VERTEX
 8
PARTS
 10
  5.9400
 20
  4.9800
 30
0.0
 0
VERTEX
 8
PARTS
 10
  5.9000
 20
  5.0000
 30
0.0
 0
SEQEND
 8
PARTS
 0
POLYLINE
 8
PARTS
 66
1
 10
0.0
 20
0.0
 30
0.0
 0
VERTEX
 8
PARTS
 10
  5.9000
 20
  4.8000
 30
0.0
 0
VERTEX
 8
PARTS
 10
  5.9000
 20
  4.8100
 30
0.0
 0
SEQEND
 8
PARTS
 0
POLYLINE
 8
WIRE
 66
1
 10
0.0
 20
0.0
 30
0.0
 0
VERTEX
 8
WIRE
 10
  3.7000
 20
  5.1000
 30
0.0
 0
VERTEX
 8
WIRE
 10
  3.7000
 20
  4.9000
 30
0.0
 0
SEQEND
 8
WIRE
 0
POLYLINE
 8
WIRE
 66
1
 10
0.0
 20
0.0
 30
0.0
 0
VERTEX
 8
WIRE
 10
  4.4000
 20
  4.9000
 30
0.0
 0
VERTEX
 8
WIRE
 10
  3.7000
 20
  4.9000
 30
0.0
 0
SEQEND
 8
WIRE
 0
TEXT
 8
WIRETEXT
 10
  4.0500
 20
  4.8186
 30
0.0
 40
  0.0514
 1
1.957V
 0
POLYLINE
 8
WIRE
 66
1
 10
0.0
 20
0.0
 30
0.0
 0
VERTEX
 8
WIRE
 10
  3.7000
 20
  4.9000
 30
0.0
 0
VERTEX
 8
WIRE
 10
  3.7000
 20
  4.7000
 30
0.0
 0
SEQEND
 8
WIRE
 0
POLYLINE
 8
WIRE
 66
1
 10
0.0
 20
0.0
 30
0.0
 0
VERTEX
 8
WIRE
 10
  4.7000
 20
  5.4000
 30
0.0
 0
VERTEX
 8
WIRE
 10
  4.7000
 20
  5.2000
 30
0.0
 0
SEQEND
 8
WIRE
 0
POLYLINE
 8
WIRE
 66
1
 10
0.0
 20
0.0
 30
0.0
 0
VERTEX
 8
WIRE
 10
  4.7000
 20
  4.7000
 30
0.0
 0
VERTEX
 8
WIRE
 10
  4.7000
 20
  4.6000
 30
0.0
 0
SEQEND
 8
WIRE
 0
POLYLINE
 8
WIRE
 66
1
 10
0.0
 20
0.0
 30
0.0
 0
VERTEX
 8
WIRE
 10
  3.7000
 20
  3.7000
 30
0.0
 0
VERTEX
 8
WIRE
 10
  3.7000
 20
  4.3000
 30
0.0
 0
SEQEND
 8
WIRE
 0
TEXT
 8
WIRETEXT
 10
  3.7000
 20
  3.9186
 30
0.0
 40
  0.0514
 1
0V
 0
POLYLINE
 8
WIRE
 66
1
 10
0.0
 20
0.0
 30
0.0
 0
VERTEX
 8
WIRE
 10
  4.7000
 20
  4.0000
 30
0.0
 0
VERTEX
 8
WIRE
 10
  4.7000
 20
  3.9000
 30
0.0
 0
SEQEND
 8
WIRE
 0
POLYLINE
 8
WIRE
 66
1
 10
0.0
 20
0.0
 30
0.0
 0
VERTEX
 8
WIRE
 10
  5.9000
 20
  3.7000
 30
0.0
 0
VERTEX
 8
WIRE
 10
  5.9000
 20
  4.7000
 30
0.0
 0
SEQEND
 8
WIRE
 0
TEXT
 8
WIRETEXT
 10
  5.9000
 20
  4.1186
 30
0.0
 40
  0.0514
 1
0V
 0
POLYLINE
 8
WIRE
 66
1
 10
0.0
 20
0.0
 30
0.0
 0
VERTEX
 8
WIRE
 10
  5.4000
 20
  5.2000
 30
0.0
 0
VERTEX
 8
WIRE
 10
  5.9000
 20
  5.2000
 30
0.0
 0
SEQEND
 8
WIRE
 0
TEXT
 8
WIRETEXT
 10
  5.6500
 20
  5.1186
 30
0.0
 40
  0.0514
 1
0V
 0
TEXT
 8
WIRETEXT
 10
  5.8000
 20
  5.2300
 30
0.0
 40
  0.0514
 1
vo
 0
POLYLINE
 8
WIRE
 66
1
 10
0.0
 20
0.0
 30
0.0
 0
VERTEX
 8
WIRE
 10
  5.9000
 20
  5.2000
 30
0.0
 0
VERTEX
 8
WIRE
 10
  5.9000
 20
  5.1000
 30
0.0
 0
SEQEND
 8
WIRE
 0
POLYLINE
 8
WIRE
 66
1
 10
0.0
 20
0.0
 30
0.0
 0
VERTEX
 8
WIRE
 10
  5.1000
 20
  5.2000
 30
0.0
 0
VERTEX
 8
WIRE
 10
  4.7000
 20
  5.2000
 30
0.0
 0
SEQEND
 8
WIRE
 0
TEXT
 8
WIRETEXT
 10
  4.9000
 20
  5.1186
 30
0.0
 40
  0.0514
 1
11.33V
 0
POLYLINE
 8
WIRE
 66
1
 70
1
 10
0.0
 20
0.0
 30
0.0
 40
  0.0200
 41
  0.0200
 0
VERTEX
 8
WIRE
 10
  4.6900
 20
  5.2000
 30
0.0
 42
1.0
 0
VERTEX
 8
WIRE
 10
  4.7100
 20
  5.2000
 30
0.0
 42
1.0
 0
SEQEND
 8
WIRE
 0
POLYLINE
 8
WIRE
 66
1
 10
0.0
 20
0.0
 30
0.0
 0
VERTEX
 8
WIRE
 10
  4.7000
 20
  5.2000
 30
0.0
 0
VERTEX
 8
WIRE
 10
  4.7000
 20
  5.1000
 30
0.0
 0
SEQEND
 8
WIRE
 0
POLYLINE
 8
WIRE
 66
1
 10
0.0
 20
0.0
 30
0.0
 0
VERTEX
 8
WIRE
 10
  3.3000
 20
  4.9000
 30
0.0
 0
VERTEX
 8
WIRE
 10
  3.7000
 20
  4.9000
 30
0.0
 0
SEQEND
 8
WIRE
 0
POLYLINE
 8
WIRE
 66
1
 70
1
 10
0.0
 20
0.0
 30
0.0
 40
  0.0200
 41
  0.0200
 0
VERTEX
 8
WIRE
 10
  3.6900
 20
  4.9000
 30
0.0
 42
1.0
 0
VERTEX
 8
WIRE
 10
  3.7100
 20
  4.9000
 30
0.0
 42
1.0
 0
SEQEND
 8
WIRE
 0
POLYLINE
 8
WIRE
 66
1
 10
0.0
 20
0.0
 30
0.0
 0
VERTEX
 8
WIRE
 10
  3.0000
 20
  4.9000
 30
0.0
 0
VERTEX
 8
WIRE
 10
  2.5000
 20
  4.9000
 30
0.0
 0
SEQEND
 8
WIRE
 0
TEXT
 8
WIRETEXT
 10
  2.7500
 20
  4.8186
 30
0.0
 40
  0.0514
 1
0V
 0
POLYLINE
 8
WIRE
 66
1
 10
0.0
 20
0.0
 30
0.0
 0
VERTEX
 8
WIRE
 10
  7.7000
 20
  4.8000
 30
0.0
 0
VERTEX
 8
WIRE
 10
  7.7000
 20
  3.7000
 30
0.0
 0
SEQEND
 8
WIRE
 0
TEXT
 8
WIRETEXT
 10
  7.7000
 20
  4.1686
 30
0.0
 40
  0.0514
 1
0V
 0
POLYLINE
 8
WIRE
 66
1
 10
0.0
 20
0.0
 30
0.0
 0
VERTEX
 8
WIRE
 10
  7.7000
 20
  5.2000
 30
0.0
 0
VERTEX
 8
WIRE
 10
  7.7000
 20
  6.4000
 30
0.0
 0
SEQEND
 8
WIRE
 0
POLYLINE
 8
WIRE
 66
1
 10
0.0
 20
0.0
 30
0.0
 0
VERTEX
 8
WIRE
 10
  3.7000
 20
  6.4000
 30
0.0
 0
VERTEX
 8
WIRE
 10
  4.7000
 20
  6.4000
 30
0.0
 0
SEQEND
 8
WIRE
 0
POLYLINE
 8
WIRE
 66
1
 10
0.0
 20
0.0
 30
0.0
 0
VERTEX
 8
WIRE
 10
  3.7000
 20
  6.4000
 30
0.0
 0
VERTEX
 8
WIRE
 10
  3.7000
 20
  5.5000
 30
0.0
 0
SEQEND
 8
WIRE
 0
POLYLINE
 8
WIRE
 66
1
 10
0.0
 20
0.0
 30
0.0
 0
VERTEX
 8
WIRE
 10
  4.7000
 20
  5.8000
 30
0.0
 0
VERTEX
 8
WIRE
 10
  4.7000
 20
  6.4000
 30
0.0
 0
SEQEND
 8
WIRE
 0
POLYLINE
 8
WIRE
 66
1
 10
0.0
 20
0.0
 30
0.0
 0
VERTEX
 8
WIRE
 10
  4.7000
 20
  6.4000
 30
0.0
 0
VERTEX
 8
WIRE
 10
  7.7000
 20
  6.4000
 30
0.0
 0
SEQEND
 8
WIRE
 0
TEXT
 8
WIRETEXT
 10
  6.2000
 20
  6.3186
 30
0.0
 40
  0.0514
 1
18.00V
 0
POLYLINE
 8
WIRE
 66
1
 70
1
 10
0.0
 20
0.0
 30
0.0
 40
  0.0200
 41
  0.0200
 0
VERTEX
 8
WIRE
 10
  4.6900
 20
  6.4000
 30
0.0
 42
1.0
 0
VERTEX
 8
WIRE
 10
  4.7100
 20
  6.4000
 30
0.0
 42
1.0
 0
SEQEND
 8
WIRE
 0
POLYLINE
 8
WIRE
 66
1
 10
0.0
 20
0.0
 30
0.0
 0
VERTEX
 8
WIRE
 10
  5.3000
 20
  4.4000
 30
0.0
 0
VERTEX
 8
WIRE
 10
  5.3000
 20
  4.6000
 30
0.0
 0
SEQEND
 8
WIRE
 0
POLYLINE
 8
WIRE
 66
1
 10
0.0
 20
0.0
 30
0.0
 0
VERTEX
 8
WIRE
 10
  5.3000
 20
  4.6000
 30
0.0
 0
VERTEX
 8
WIRE
 10
  4.7000
 20
  4.6000
 30
0.0
 0
SEQEND
 8
WIRE
 0
TEXT
 8
WIRETEXT
 10
  5.0000
 20
  4.5186
 30
0.0
 40
  0.0514
 1
3.133V
 0
POLYLINE
 8
WIRE
 66
1
 70
1
 10
0.0
 20
0.0
 30
0.0
 40
  0.0200
 41
  0.0200
 0
VERTEX
 8
WIRE
 10
  4.6900
 20
  4.6000
 30
0.0
 42
1.0
 0
VERTEX
 8
WIRE
 10
  4.7100
 20
  4.6000
 30
0.0
 42
1.0
 0
SEQEND
 8
WIRE
 0
POLYLINE
 8
WIRE
 66
1
 10
0.0
 20
0.0
 30
0.0
 0
VERTEX
 8
WIRE
 10
  4.7000
 20
  4.6000
 30
0.0
 0
VERTEX
 8
WIRE
 10
  4.7000
 20
  4.4000
 30
0.0
 0
SEQEND
 8
WIRE
 0
POLYLINE
 8
WIRE
 66
1
 10
0.0
 20
0.0
 30
0.0
 0
VERTEX
 8
WIRE
 10
  4.7000
 20
  3.9000
 30
0.0
 0
VERTEX
 8
WIRE
 10
  5.3000
 20
  3.9000
 30
0.0
 0
SEQEND
 8
WIRE
 0
TEXT
 8
WIRETEXT
 10
  5.0000
 20
  3.8186
 30
0.0
 40
  0.0514
 1
0V
 0
POLYLINE
 8
WIRE
 66
1
 70
1
 10
0.0
 20
0.0
 30
0.0
 40
  0.0200
 41
  0.0200
 0
VERTEX
 8
WIRE
 10
  4.6900
 20
  3.9000
 30
0.0
 42
1.0
 0
VERTEX
 8
WIRE
 10
  4.7100
 20
  3.9000
 30
0.0
 42
1.0
 0
SEQEND
 8
WIRE
 0
POLYLINE
 8
WIRE
 66
1
 10
0.0
 20
0.0
 30
0.0
 0
VERTEX
 8
WIRE
 10
  5.3000
 20
  3.9000
 30
0.0
 0
VERTEX
 8
WIRE
 10
  5.3000
 20
  4.1000
 30
0.0
 0
SEQEND
 8
WIRE
 0
POLYLINE
 8
WIRE
 66
1
 10
0.0
 20
0.0
 30
0.0
 0
VERTEX
 8
WIRE
 10
  4.7000
 20
  3.9000
 30
0.0
 0
VERTEX
 8
WIRE
 10
  4.7000
 20
  3.7000
 30
0.0
 0
SEQEND
 8
WIRE
 0
POLYLINE
 8
WIRE
 66
1
 10
0.0
 20
0.0
 30
0.0
 0
VERTEX
 8
WIRE
 10
  1.4000
 20
  4.5000
 30
0.0
 0
VERTEX
 8
WIRE
 10
  1.4000
 20
  4.9000
 30
0.0
 0
SEQEND
 8
WIRE
 0
POLYLINE
 8
WIRE
 66
1
 10
0.0
 20
0.0
 30
0.0
 0
VERTEX
 8
WIRE
 10
  1.4000
 20
  4.9000
 30
0.0
 0
VERTEX
 8
WIRE
 10
  2.1000
 20
  4.9000
 30
0.0
 0
SEQEND
 8
WIRE
 0
TEXT
 8
WIRETEXT
 10
  1.7500
 20
  4.8186
 30
0.0
 40
  0.0514
 1
0V
 0
POLYLINE
 8
WIRE
 66
1
 10
0.0
 20
0.0
 30
0.0
 0
VERTEX
 8
WIRE
 10
  1.4000
 20
  4.1000
 30
0.0
 0
VERTEX
 8
WIRE
 10
  1.4000
 20
  3.7000
 30
0.0
 0
SEQEND
 8
WIRE
 0
TEXT
 8
WIRETEXT
 10
  1.4000
 20
  3.8186
 30
0.0
 40
  0.0514
 1
0V
 0
TEXT
 8
PARTTEXT
 10
  4.7600
 20
  3.5572
 30
0.0
 40
  0.0628
 1
0
 0
POLYLINE
 8
PARTS
 66
1
 10
0.0
 20
0.0
 30
0.0
 0
VERTEX
 8
PARTS
 10
  4.6000
 20
  3.7000
 30
0.0
 0
VERTEX
 8
PARTS
 10
  4.8000
 20
  3.7000
 30
0.0
 0
SEQEND
 8
PARTS
 0
POLYLINE
 8
PARTS
 66
1
 10
0.0
 20
0.0
 30
0.0
 0
VERTEX
 8
PARTS
 10
  4.6300
 20
  3.6700
 30
0.0
 0
VERTEX
 8
PARTS
 10
  4.7700
 20
  3.6700
 30
0.0
 0
SEQEND
 8
PARTS
 0
POLYLINE
 8
PARTS
 66
1
 10
0.0
 20
0.0
 30
0.0
 0
VERTEX
 8
PARTS
 10
  4.7400
 20
  3.6400
 30
0.0
 0
VERTEX
 8
PARTS
 10
  4.6600
 20
  3.6400
 30
0.0
 0
SEQEND
 8
PARTS
 0
POLYLINE
 8
PARTS
 66
1
 10
0.0
 20
0.0
 30
0.0
 0
VERTEX
 8
PARTS
 10
  4.6900
 20
  3.6100
 30
0.0
 0
VERTEX
 8
PARTS
 10
  4.7100
 20
  3.6100
 30
0.0
 0
SEQEND
 8
PARTS
 0
TEXT
 8
PARTTEXT
 10
  3.7600
 20
  3.5572
 30
0.0
 40
  0.0628
 1
0
 0
POLYLINE
 8
PARTS
 66
1
 10
0.0
 20
0.0
 30
0.0
 0
VERTEX
 8
PARTS
 10
  3.6000
 20
  3.7000
 30
0.0
 0
VERTEX
 8
PARTS
 10
  3.8000
 20
  3.7000
 30
0.0
 0
SEQEND
 8
PARTS
 0
POLYLINE
 8
PARTS
 66
1
 10
0.0
 20
0.0
 30
0.0
 0
VERTEX
 8
PARTS
 10
  3.6300
 20
  3.6700
 30
0.0
 0
VERTEX
 8
PARTS
 10
  3.7700
 20
  3.6700
 30
0.0
 0
SEQEND
 8
PARTS
 0
POLYLINE
 8
PARTS
 66
1
 10
0.0
 20
0.0
 30
0.0
 0
VERTEX
 8
PARTS
 10
  3.7400
 20
  3.6400
 30
0.0
 0
VERTEX
 8
PARTS
 10
  3.6600
 20
  3.6400
 30
0.0
 0
SEQEND
 8
PARTS
 0
POLYLINE
 8
PARTS
 66
1
 10
0.0
 20
0.0
 30
0.0
 0
VERTEX
 8
PARTS
 10
  3.6900
 20
  3.6100
 30
0.0
 0
VERTEX
 8
PARTS
 10
  3.7100
 20
  3.6100
 30
0.0
 0
SEQEND
 8
PARTS
 0
TEXT
 8
PARTTEXT
 10
  5.9600
 20
  3.5572
 30
0.0
 40
  0.0628
 1
0
 0
POLYLINE
 8
PARTS
 66
1
 10
0.0
 20
0.0
 30
0.0
 0
VERTEX
 8
PARTS
 10
  5.8000
 20
  3.7000
 30
0.0
 0
VERTEX
 8
PARTS
 10
  6.0000
 20
  3.7000
 30
0.0
 0
SEQEND
 8
PARTS
 0
POLYLINE
 8
PARTS
 66
1
 10
0.0
 20
0.0
 30
0.0
 0
VERTEX
 8
PARTS
 10
  5.8300
 20
  3.6700
 30
0.0
 0
VERTEX
 8
PARTS
 10
  5.9700
 20
  3.6700
 30
0.0
 0
SEQEND
 8
PARTS
 0
POLYLINE
 8
PARTS
 66
1
 10
0.0
 20
0.0
 30
0.0
 0
VERTEX
 8
PARTS
 10
  5.9400
 20
  3.6400
 30
0.0
 0
VERTEX
 8
PARTS
 10
  5.8600
 20
  3.6400
 30
0.0
 0
SEQEND
 8
PARTS
 0
POLYLINE
 8
PARTS
 66
1
 10
0.0
 20
0.0
 30
0.0
 0
VERTEX
 8
PARTS
 10
  5.8900
 20
  3.6100
 30
0.0
 0
VERTEX
 8
PARTS
 10
  5.9100
 20
  3.6100
 30
0.0
 0
SEQEND
 8
PARTS
 0
TEXT
 8
PARTTEXT
 10
  7.7600
 20
  3.5572
 30
0.0
 40
  0.0628
 1
0
 0
POLYLINE
 8
PARTS
 66
1
 10
0.0
 20
0.0
 30
0.0
 0
VERTEX
 8
PARTS
 10
  7.6000
 20
  3.7000
 30
0.0
 0
VERTEX
 8
PARTS
 10
  7.8000
 20
  3.7000
 30
0.0
 0
SEQEND
 8
PARTS
 0
POLYLINE
 8
PARTS
 66
1
 10
0.0
 20
0.0
 30
0.0
 0
VERTEX
 8
PARTS
 10
  7.6300
 20
  3.6700
 30
0.0
 0
VERTEX
 8
PARTS
 10
  7.7700
 20
  3.6700
 30
0.0
 0
SEQEND
 8
PARTS
 0
POLYLINE
 8
PARTS
 66
1
 10
0.0
 20
0.0
 30
0.0
 0
VERTEX
 8
PARTS
 10
  7.7400
 20
  3.6400
 30
0.0
 0
VERTEX
 8
PARTS
 10
  7.6600
 20
  3.6400
 30
0.0
 0
SEQEND
 8
PARTS
 0
POLYLINE
 8
PARTS
 66
1
 10
0.0
 20
0.0
 30
0.0
 0
VERTEX
 8
PARTS
 10
  7.6900
 20
  3.6100
 30
0.0
 0
VERTEX
 8
PARTS
 10
  7.7100
 20
  3.6100
 30
0.0
 0
SEQEND
 8
PARTS
 0
TEXT
 8
PARTTEXT
 10
  1.4600
 20
  3.5572
 30
0.0
 40
  0.0628
 1
0
 0
POLYLINE
 8
PARTS
 66
1
 10
0.0
 20
0.0
 30
0.0
 0
VERTEX
 8
PARTS
 10
  1.3000
 20
  3.7000
 30
0.0
 0
VERTEX
 8
PARTS
 10
  1.5000
 20
  3.7000
 30
0.0
 0
SEQEND
 8
PARTS
 0
POLYLINE
 8
PARTS
 66
1
 10
0.0
 20
0.0
 30
0.0
 0
VERTEX
 8
PARTS
 10
  1.3300
 20
  3.6700
 30
0.0
 0
VERTEX
 8
PARTS
 10
  1.4700
 20
  3.6700
 30
0.0
 0
SEQEND
 8
PARTS
 0
POLYLINE
 8
PARTS
 66
1
 10
0.0
 20
0.0
 30
0.0
 0
VERTEX
 8
PARTS
 10
  1.4400
 20
  3.6400
 30
0.0
 0
VERTEX
 8
PARTS
 10
  1.3600
 20
  3.6400
 30
0.0
 0
SEQEND
 8
PARTS
 0
POLYLINE
 8
PARTS
 66
1
 10
0.0
 20
0.0
 30
0.0
 0
VERTEX
 8
PARTS
 10
  1.3900
 20
  3.6100
 30
0.0
 0
VERTEX
 8
PARTS
 10
  1.4100
 20
  3.6100
 30
0.0
 0
SEQEND
 8
PARTS
 0
ENDSEC
 0
EOF
